%FSLAX45Y45*%
G04 Gerber Fmt 4.5, Leading zero omitted, Abs format (unit mm)*
G04 Created by KiCad (PCBNEW (5.1.2)-2) date 2020-11-23 21:19:48*
%MOMM*%
%LPD*%
G04 APERTURE LIST*
%ADD10C,0.050000*%
%ADD11C,0.200000*%
%ADD12C,0.300000*%
G04 APERTURE END LIST*
D10*
X12500000Y-5783000D02*
X22089000Y-5783000D01*
X22089000Y-14800000D02*
X22089000Y-5783000D01*
X12500000Y-14800000D02*
X12500000Y-5783000D01*
X12500000Y-14800000D02*
X22089000Y-14800000D01*
D11*
X12984800Y-13035600D02*
X13024800Y-13075600D01*
X13024800Y-13035600D02*
X12984800Y-13075600D01*
X13886500Y-11079800D02*
X13926500Y-11119800D01*
X13926500Y-11079800D02*
X13886500Y-11119800D01*
X14115100Y-11702100D02*
X14155100Y-11742100D01*
X14155100Y-11702100D02*
X14115100Y-11742100D01*
X14127800Y-11968800D02*
X14167800Y-12008800D01*
X14167800Y-11968800D02*
X14127800Y-12008800D01*
X14194500Y-12608299D02*
X14234500Y-12648299D01*
X14234500Y-12608299D02*
X14194500Y-12648299D01*
X14270700Y-12392400D02*
X14310700Y-12432400D01*
X14310700Y-12392400D02*
X14270700Y-12432400D01*
X14353250Y-12563850D02*
X14393250Y-12603850D01*
X14393250Y-12563850D02*
X14353250Y-12603850D01*
X14429450Y-12119350D02*
X14469450Y-12159350D01*
X14469450Y-12119350D02*
X14429450Y-12159350D01*
X14699300Y-13302300D02*
X14739300Y-13342300D01*
X14739300Y-13302300D02*
X14699300Y-13342300D01*
X14699300Y-13530900D02*
X14739300Y-13570900D01*
X14739300Y-13530900D02*
X14699300Y-13570900D01*
X15059700Y-10412800D02*
X15099700Y-10452800D01*
X15099700Y-10412800D02*
X15059700Y-10452800D01*
X15553400Y-10525500D02*
X15593400Y-10565500D01*
X15593400Y-10525500D02*
X15553400Y-10565500D01*
X15588300Y-12603800D02*
X15628300Y-12643800D01*
X15628300Y-12603800D02*
X15588300Y-12643800D01*
X15616900Y-11046200D02*
X15656900Y-11086200D01*
X15656900Y-11046200D02*
X15616900Y-11086200D01*
X15731196Y-12265400D02*
X15771196Y-12305400D01*
X15771196Y-12265400D02*
X15731196Y-12305400D01*
X15769300Y-6334500D02*
X15809300Y-6374500D01*
X15809300Y-6334500D02*
X15769300Y-6374500D01*
X15769300Y-9382500D02*
X15809300Y-9422500D01*
X15809300Y-9382500D02*
X15769300Y-9422500D01*
X15807400Y-11046200D02*
X15847400Y-11086200D01*
X15847400Y-11046200D02*
X15807400Y-11086200D01*
X15832800Y-13141700D02*
X15872800Y-13181700D01*
X15872800Y-13141700D02*
X15832800Y-13181700D01*
X15890530Y-9001500D02*
X15930530Y-9041500D01*
X15930530Y-9001500D02*
X15890530Y-9041500D01*
X15934401Y-13243300D02*
X15974401Y-13283300D01*
X15974401Y-13243300D02*
X15934401Y-13283300D01*
X15943900Y-12413300D02*
X15983900Y-12453300D01*
X15983900Y-12413300D02*
X15943900Y-12453300D01*
X15943900Y-13022900D02*
X15983900Y-13062900D01*
X15983900Y-13022900D02*
X15943900Y-13062900D01*
X15947100Y-12265400D02*
X15987100Y-12305400D01*
X15987100Y-12265400D02*
X15947100Y-12305400D01*
X15997900Y-11046200D02*
X16037900Y-11086200D01*
X16037900Y-11046200D02*
X15997900Y-11086200D01*
X16061400Y-10550900D02*
X16101400Y-10590900D01*
X16101400Y-10550900D02*
X16061400Y-10590900D01*
X16099500Y-8684000D02*
X16139500Y-8724000D01*
X16139500Y-8684000D02*
X16099500Y-8724000D01*
X16197900Y-13061000D02*
X16237900Y-13101000D01*
X16237900Y-13061000D02*
X16197900Y-13101000D01*
X16418300Y-9001500D02*
X16458300Y-9041500D01*
X16458300Y-9001500D02*
X16418300Y-9041500D01*
X16443700Y-8874500D02*
X16483700Y-8914500D01*
X16483700Y-8874500D02*
X16443700Y-8914500D01*
X16556700Y-10525500D02*
X16596700Y-10565500D01*
X16596700Y-10525500D02*
X16556700Y-10565500D01*
X16594800Y-11122401D02*
X16634800Y-11162401D01*
X16634800Y-11122401D02*
X16594800Y-11162401D01*
X16607500Y-11909800D02*
X16647500Y-11949800D01*
X16647500Y-11909800D02*
X16607500Y-11949800D01*
X16671000Y-11998700D02*
X16711000Y-12038700D01*
X16711000Y-11998700D02*
X16671000Y-12038700D01*
X16683700Y-12646400D02*
X16723700Y-12686400D01*
X16723700Y-12646400D02*
X16683700Y-12686400D01*
X16693200Y-10590200D02*
X16733200Y-10630200D01*
X16733200Y-10590200D02*
X16693200Y-10630200D01*
X16762779Y-11119521D02*
X16802779Y-11159521D01*
X16802779Y-11119521D02*
X16762779Y-11159521D01*
X16769400Y-12934000D02*
X16809400Y-12974000D01*
X16809400Y-12934000D02*
X16769400Y-12974000D01*
X16769400Y-13111800D02*
X16809400Y-13151800D01*
X16809400Y-13111800D02*
X16769400Y-13151800D01*
X16861500Y-8684000D02*
X16901500Y-8724000D01*
X16901500Y-8684000D02*
X16861500Y-8724000D01*
X16874200Y-12646400D02*
X16914200Y-12686400D01*
X16914200Y-12646400D02*
X16874200Y-12686400D01*
X16874201Y-13775400D02*
X16914201Y-13815400D01*
X16914201Y-13775400D02*
X16874201Y-13815400D01*
X16963100Y-11224000D02*
X17003100Y-11264000D01*
X17003100Y-11224000D02*
X16963100Y-11264000D01*
X16972600Y-12934000D02*
X17012600Y-12974000D01*
X17012600Y-12934000D02*
X16972600Y-12974000D01*
X16972600Y-13111800D02*
X17012600Y-13151800D01*
X17012600Y-13111800D02*
X16972600Y-13151800D01*
X16988500Y-10665200D02*
X17028500Y-10705200D01*
X17028500Y-10665200D02*
X16988500Y-10705200D01*
X17023400Y-11003600D02*
X17063400Y-11043600D01*
X17063400Y-11003600D02*
X17023400Y-11043600D01*
X17029600Y-13557800D02*
X17069600Y-13597800D01*
X17069600Y-13557800D02*
X17029600Y-13597800D01*
X17052000Y-8684000D02*
X17092000Y-8724000D01*
X17092000Y-8684000D02*
X17052000Y-8724000D01*
X17064700Y-12646400D02*
X17104700Y-12686400D01*
X17104700Y-12646400D02*
X17064700Y-12686400D01*
X17125000Y-13797600D02*
X17165000Y-13837600D01*
X17165000Y-13797600D02*
X17125000Y-13837600D01*
X17140900Y-9306300D02*
X17180900Y-9346300D01*
X17180900Y-9306300D02*
X17140900Y-9346300D01*
X17140900Y-9496800D02*
X17180900Y-9536800D01*
X17180900Y-9496800D02*
X17140900Y-9536800D01*
X17140900Y-9687300D02*
X17180900Y-9727300D01*
X17180900Y-9687300D02*
X17140900Y-9727300D01*
X17242500Y-8684000D02*
X17282500Y-8724000D01*
X17282500Y-8684000D02*
X17242500Y-8724000D01*
X17302800Y-11003600D02*
X17342800Y-11043600D01*
X17342800Y-11003600D02*
X17302800Y-11043600D01*
X17331400Y-9306300D02*
X17371400Y-9346300D01*
X17371400Y-9306300D02*
X17331400Y-9346300D01*
X17331400Y-9687300D02*
X17371400Y-9727300D01*
X17371400Y-9687300D02*
X17331400Y-9727300D01*
X17391700Y-12946700D02*
X17431700Y-12986700D01*
X17431700Y-12946700D02*
X17391700Y-12986700D01*
X17407200Y-13800400D02*
X17447200Y-13840400D01*
X17447200Y-13800400D02*
X17407200Y-13840400D01*
X17433000Y-8684000D02*
X17473000Y-8724000D01*
X17473000Y-8684000D02*
X17433000Y-8724000D01*
X17449593Y-14075830D02*
X17489593Y-14115830D01*
X17489593Y-14075830D02*
X17449593Y-14115830D01*
X17467900Y-12660950D02*
X17507900Y-12700950D01*
X17507900Y-12660950D02*
X17467900Y-12700950D01*
X17517408Y-13158300D02*
X17557408Y-13198300D01*
X17557408Y-13158300D02*
X17517408Y-13198300D01*
X17521900Y-9306300D02*
X17561900Y-9346300D01*
X17561900Y-9306300D02*
X17521900Y-9346300D01*
X17521900Y-9496800D02*
X17561900Y-9536800D01*
X17561900Y-9496800D02*
X17521900Y-9536800D01*
X17521900Y-9687300D02*
X17561900Y-9727300D01*
X17561900Y-9687300D02*
X17521900Y-9727300D01*
X17585050Y-13232450D02*
X17625050Y-13272450D01*
X17625050Y-13232450D02*
X17585050Y-13272450D01*
X17607600Y-12629200D02*
X17647600Y-12669200D01*
X17647600Y-12629200D02*
X17607600Y-12669200D01*
X17623500Y-8684000D02*
X17663500Y-8724000D01*
X17663500Y-8684000D02*
X17623500Y-8724000D01*
X17661600Y-12265400D02*
X17701600Y-12305400D01*
X17701600Y-12265400D02*
X17661600Y-12305400D01*
X17728250Y-13232450D02*
X17768250Y-13272450D01*
X17768250Y-13232450D02*
X17728250Y-13272450D01*
X17814000Y-8684000D02*
X17854000Y-8724000D01*
X17854000Y-8684000D02*
X17814000Y-8724000D01*
X17826700Y-12265400D02*
X17866700Y-12305400D01*
X17866700Y-12265400D02*
X17826700Y-12305400D01*
X17833951Y-12667300D02*
X17873951Y-12707300D01*
X17873951Y-12667300D02*
X17833951Y-12707300D01*
X17877500Y-10741401D02*
X17917500Y-10781401D01*
X17917500Y-10741401D02*
X17877500Y-10781401D01*
X17887000Y-11003600D02*
X17927000Y-11043600D01*
X17927000Y-11003600D02*
X17887000Y-11043600D01*
X17902900Y-11211300D02*
X17942900Y-11251300D01*
X17942900Y-11211300D02*
X17902900Y-11251300D01*
X18004500Y-8684000D02*
X18044500Y-8724000D01*
X18044500Y-8684000D02*
X18004500Y-8724000D01*
X18004500Y-10843000D02*
X18044500Y-10883000D01*
X18044500Y-10843000D02*
X18004500Y-10883000D01*
X18045479Y-11119521D02*
X18085479Y-11159521D01*
X18085479Y-11119521D02*
X18045479Y-11159521D01*
X18090200Y-13437500D02*
X18130200Y-13477500D01*
X18130200Y-13437500D02*
X18090200Y-13477500D01*
X18141000Y-10648000D02*
X18181000Y-10688000D01*
X18181000Y-10648000D02*
X18141000Y-10688000D01*
X18169600Y-11084300D02*
X18209600Y-11124300D01*
X18209600Y-11084300D02*
X18169600Y-11124300D01*
X18205770Y-8746810D02*
X18245770Y-8786810D01*
X18245770Y-8746810D02*
X18205770Y-8786810D01*
X18487100Y-10017500D02*
X18527100Y-10057500D01*
X18527100Y-10017500D02*
X18487100Y-10057500D01*
X18487100Y-8874500D02*
X18527100Y-8914500D01*
X18527100Y-8874500D02*
X18487100Y-8914500D01*
X18487100Y-9001500D02*
X18527100Y-9041500D01*
X18527100Y-9001500D02*
X18487100Y-9041500D01*
X18487100Y-9128500D02*
X18527100Y-9168500D01*
X18527100Y-9128500D02*
X18487100Y-9168500D01*
X18487100Y-9255500D02*
X18527100Y-9295500D01*
X18527100Y-9255500D02*
X18487100Y-9295500D01*
X18487100Y-9382500D02*
X18527100Y-9422500D01*
X18527100Y-9382500D02*
X18487100Y-9422500D01*
X18487100Y-9636500D02*
X18527100Y-9676500D01*
X18527100Y-9636500D02*
X18487100Y-9676500D01*
X18487100Y-9763500D02*
X18527100Y-9803500D01*
X18527100Y-9763500D02*
X18487100Y-9803500D01*
X18487100Y-9890500D02*
X18527100Y-9930500D01*
X18527100Y-9890500D02*
X18487100Y-9930500D01*
X18487100Y-10157200D02*
X18527100Y-10197200D01*
X18527100Y-10157200D02*
X18487100Y-10197200D01*
X18487100Y-10271500D02*
X18527100Y-10311500D01*
X18527100Y-10271500D02*
X18487100Y-10311500D01*
X18598200Y-7015800D02*
X18638200Y-7055800D01*
X18638200Y-7015800D02*
X18598200Y-7055800D01*
X18649000Y-7346000D02*
X18689000Y-7386000D01*
X18689000Y-7346000D02*
X18649000Y-7386000D01*
X18970899Y-9490450D02*
X19010899Y-9530450D01*
X19010899Y-9490450D02*
X18970899Y-9530450D01*
X18979200Y-7015800D02*
X19019200Y-7055800D01*
X19019200Y-7015800D02*
X18979200Y-7055800D01*
X19652500Y-6350200D02*
X19692500Y-6390200D01*
X19692500Y-6350200D02*
X19652500Y-6390200D01*
X21061700Y-12285400D02*
G75*
G03X21061700Y-12285400I-40000J0D01*
G01*
X21823700Y-12285400D02*
G75*
G03X21823700Y-12285400I-40000J0D01*
G01*
X20242300Y-12033200D02*
X20242300Y-12123200D01*
X20197300Y-12078200D02*
X20287300Y-12078200D01*
X20742300Y-11783200D02*
X20742300Y-11873200D01*
X20697300Y-11828200D02*
X20787300Y-11828200D01*
X20742300Y-12283200D02*
X20742300Y-12373200D01*
X20697300Y-12328200D02*
X20787300Y-12328200D01*
X18415456Y-12358856D02*
X18415456Y-12288144D01*
X18344744Y-12288144D01*
X18344744Y-12358856D01*
X18415456Y-12358856D01*
X18669456Y-12358856D02*
X18669456Y-12288144D01*
X18598744Y-12288144D01*
X18598744Y-12358856D01*
X18669456Y-12358856D01*
X18923456Y-12358856D02*
X18923456Y-12288144D01*
X18852744Y-12288144D01*
X18852744Y-12358856D01*
X18923456Y-12358856D01*
X19177456Y-12358856D02*
X19177456Y-12288144D01*
X19106744Y-12288144D01*
X19106744Y-12358856D01*
X19177456Y-12358856D01*
X14630856Y-6948656D02*
X14630856Y-6877944D01*
X14560144Y-6877944D01*
X14560144Y-6948656D01*
X14630856Y-6948656D01*
X14884856Y-6948656D02*
X14884856Y-6877944D01*
X14814144Y-6877944D01*
X14814144Y-6948656D01*
X14884856Y-6948656D01*
X15138856Y-6948656D02*
X15138856Y-6877944D01*
X15068144Y-6877944D01*
X15068144Y-6948656D01*
X15138856Y-6948656D01*
X15392856Y-6948656D02*
X15392856Y-6877944D01*
X15322144Y-6877944D01*
X15322144Y-6948656D01*
X15392856Y-6948656D01*
X16666006Y-12468656D02*
X16666006Y-12397944D01*
X16595294Y-12397944D01*
X16595294Y-12468656D01*
X16666006Y-12468656D01*
X16920006Y-12468656D02*
X16920006Y-12397944D01*
X16849294Y-12397944D01*
X16849294Y-12468656D01*
X16920006Y-12468656D01*
X17174006Y-12468656D02*
X17174006Y-12397944D01*
X17103294Y-12397944D01*
X17103294Y-12468656D01*
X17174006Y-12468656D01*
X20345856Y-9742656D02*
X20345856Y-9671944D01*
X20275144Y-9671944D01*
X20275144Y-9742656D01*
X20345856Y-9742656D01*
X20345856Y-9996656D02*
X20345856Y-9925944D01*
X20275144Y-9925944D01*
X20275144Y-9996656D01*
X20345856Y-9996656D01*
X20345856Y-10250656D02*
X20345856Y-10179944D01*
X20275144Y-10179944D01*
X20275144Y-10250656D01*
X20345856Y-10250656D01*
X20345856Y-10504656D02*
X20345856Y-10433944D01*
X20275144Y-10433944D01*
X20275144Y-10504656D01*
X20345856Y-10504656D01*
X20345856Y-10758656D02*
X20345856Y-10687944D01*
X20275144Y-10687944D01*
X20275144Y-10758656D01*
X20345856Y-10758656D01*
X20345856Y-11012656D02*
X20345856Y-10941944D01*
X20275144Y-10941944D01*
X20275144Y-11012656D01*
X20345856Y-11012656D01*
X20345856Y-11266656D02*
X20345856Y-11195944D01*
X20275144Y-11195944D01*
X20275144Y-11266656D01*
X20345856Y-11266656D01*
X20345856Y-11520656D02*
X20345856Y-11449944D01*
X20275144Y-11449944D01*
X20275144Y-11520656D01*
X20345856Y-11520656D01*
X20609356Y-6944156D02*
X20609356Y-6873444D01*
X20538644Y-6873444D01*
X20538644Y-6944156D01*
X20609356Y-6944156D01*
X20863356Y-6944156D02*
X20863356Y-6873444D01*
X20792644Y-6873444D01*
X20792644Y-6944156D01*
X20863356Y-6944156D01*
X21117356Y-6944156D02*
X21117356Y-6873444D01*
X21046644Y-6873444D01*
X21046644Y-6944156D01*
X21117356Y-6944156D01*
X21371356Y-6944156D02*
X21371356Y-6873444D01*
X21300644Y-6873444D01*
X21300644Y-6944156D01*
X21371356Y-6944156D01*
X19406056Y-6948656D02*
X19406056Y-6877944D01*
X19335344Y-6877944D01*
X19335344Y-6948656D01*
X19406056Y-6948656D01*
X19660056Y-6948656D02*
X19660056Y-6877944D01*
X19589344Y-6877944D01*
X19589344Y-6948656D01*
X19660056Y-6948656D01*
X19914056Y-6948656D02*
X19914056Y-6877944D01*
X19843344Y-6877944D01*
X19843344Y-6948656D01*
X19914056Y-6948656D01*
X20168056Y-6948656D02*
X20168056Y-6877944D01*
X20097344Y-6877944D01*
X20097344Y-6948656D01*
X20168056Y-6948656D01*
X17072000Y-6799000D02*
X17122800Y-6748200D01*
X17072000Y-6697400D01*
X17021200Y-6748200D01*
X17072000Y-6799000D01*
X17072000Y-7053000D02*
X17122800Y-7002200D01*
X17072000Y-6951400D01*
X17021200Y-7002200D01*
X17072000Y-7053000D01*
X17326000Y-6799000D02*
X17376800Y-6748200D01*
X17326000Y-6697400D01*
X17275200Y-6748200D01*
X17326000Y-6799000D01*
X17326000Y-7053000D02*
X17376800Y-7002200D01*
X17326000Y-6951400D01*
X17275200Y-7002200D01*
X17326000Y-7053000D01*
X17580000Y-6799000D02*
X17630800Y-6748200D01*
X17580000Y-6697400D01*
X17529200Y-6748200D01*
X17580000Y-6799000D01*
X17580000Y-7053000D02*
X17630800Y-7002200D01*
X17580000Y-6951400D01*
X17529200Y-7002200D01*
X17580000Y-7053000D01*
X17834000Y-6799000D02*
X17884800Y-6748200D01*
X17834000Y-6697400D01*
X17783200Y-6748200D01*
X17834000Y-6799000D01*
X17834000Y-7053000D02*
X17884800Y-7002200D01*
X17834000Y-6951400D01*
X17783200Y-7002200D01*
X17834000Y-7053000D01*
X16014550Y-13580500D02*
X16124550Y-13690500D01*
X16124550Y-13580500D02*
X16014550Y-13690500D01*
X16124550Y-13635500D02*
G75*
G03X16124550Y-13635500I-55000J0D01*
G01*
X16014550Y-14230500D02*
X16124550Y-14340500D01*
X16124550Y-14230500D02*
X16014550Y-14340500D01*
X16124550Y-14285500D02*
G75*
G03X16124550Y-14285500I-55000J0D01*
G01*
X16464550Y-13580500D02*
X16574550Y-13690500D01*
X16574550Y-13580500D02*
X16464550Y-13690500D01*
X16574550Y-13635500D02*
G75*
G03X16574550Y-13635500I-55000J0D01*
G01*
X16464550Y-14230500D02*
X16574550Y-14340500D01*
X16574550Y-14230500D02*
X16464550Y-14340500D01*
X16574550Y-14285500D02*
G75*
G03X16574550Y-14285500I-55000J0D01*
G01*
X19487700Y-13580500D02*
X19597700Y-13690500D01*
X19597700Y-13580500D02*
X19487700Y-13690500D01*
X19597700Y-13635500D02*
G75*
G03X19597700Y-13635500I-55000J0D01*
G01*
X19487700Y-14230500D02*
X19597700Y-14340500D01*
X19597700Y-14230500D02*
X19487700Y-14340500D01*
X19597700Y-14285500D02*
G75*
G03X19597700Y-14285500I-55000J0D01*
G01*
X19937700Y-13580500D02*
X20047700Y-13690500D01*
X20047700Y-13580500D02*
X19937700Y-13690500D01*
X20047700Y-13635500D02*
G75*
G03X20047700Y-13635500I-55000J0D01*
G01*
X19937700Y-14230500D02*
X20047700Y-14340500D01*
X20047700Y-14230500D02*
X19937700Y-14340500D01*
X20047700Y-14285500D02*
G75*
G03X20047700Y-14285500I-55000J0D01*
G01*
X18414000Y-13580500D02*
X18524000Y-13690500D01*
X18524000Y-13580500D02*
X18414000Y-13690500D01*
X18524000Y-13635500D02*
G75*
G03X18524000Y-13635500I-55000J0D01*
G01*
X18414000Y-14230500D02*
X18524000Y-14340500D01*
X18524000Y-14230500D02*
X18414000Y-14340500D01*
X18524000Y-14285500D02*
G75*
G03X18524000Y-14285500I-55000J0D01*
G01*
X18864000Y-13580500D02*
X18974000Y-13690500D01*
X18974000Y-13580500D02*
X18864000Y-13690500D01*
X18974000Y-13635500D02*
G75*
G03X18974000Y-13635500I-55000J0D01*
G01*
X18864000Y-14230500D02*
X18974000Y-14340500D01*
X18974000Y-14230500D02*
X18864000Y-14340500D01*
X18974000Y-14285500D02*
G75*
G03X18974000Y-14285500I-55000J0D01*
G01*
X12822150Y-7023400D02*
X12932150Y-7133400D01*
X12932150Y-7023400D02*
X12822150Y-7133400D01*
X12932150Y-7078400D02*
G75*
G03X12932150Y-7078400I-55000J0D01*
G01*
X12822150Y-7277400D02*
X12932150Y-7387400D01*
X12932150Y-7277400D02*
X12822150Y-7387400D01*
X12932150Y-7332400D02*
G75*
G03X12932150Y-7332400I-55000J0D01*
G01*
X12822150Y-7531400D02*
X12932150Y-7641400D01*
X12932150Y-7531400D02*
X12822150Y-7641400D01*
X12932150Y-7586400D02*
G75*
G03X12932150Y-7586400I-55000J0D01*
G01*
X12822150Y-7785400D02*
X12932150Y-7895400D01*
X12932150Y-7785400D02*
X12822150Y-7895400D01*
X12932150Y-7840400D02*
G75*
G03X12932150Y-7840400I-55000J0D01*
G01*
X12822150Y-8039400D02*
X12932150Y-8149400D01*
X12932150Y-8039400D02*
X12822150Y-8149400D01*
X12932150Y-8094400D02*
G75*
G03X12932150Y-8094400I-55000J0D01*
G01*
X12822150Y-8293400D02*
X12932150Y-8403400D01*
X12932150Y-8293400D02*
X12822150Y-8403400D01*
X12932150Y-8348400D02*
G75*
G03X12932150Y-8348400I-55000J0D01*
G01*
X12822150Y-8547400D02*
X12932150Y-8657400D01*
X12932150Y-8547400D02*
X12822150Y-8657400D01*
X12932150Y-8602400D02*
G75*
G03X12932150Y-8602400I-55000J0D01*
G01*
X12822150Y-8801400D02*
X12932150Y-8911400D01*
X12932150Y-8801400D02*
X12822150Y-8911400D01*
X12932150Y-8856400D02*
G75*
G03X12932150Y-8856400I-55000J0D01*
G01*
X12822150Y-9055400D02*
X12932150Y-9165400D01*
X12932150Y-9055400D02*
X12822150Y-9165400D01*
X12932150Y-9110400D02*
G75*
G03X12932150Y-9110400I-55000J0D01*
G01*
X12822150Y-9309400D02*
X12932150Y-9419400D01*
X12932150Y-9309400D02*
X12822150Y-9419400D01*
X12932150Y-9364400D02*
G75*
G03X12932150Y-9364400I-55000J0D01*
G01*
X12822150Y-9563400D02*
X12932150Y-9673400D01*
X12932150Y-9563400D02*
X12822150Y-9673400D01*
X12932150Y-9618400D02*
G75*
G03X12932150Y-9618400I-55000J0D01*
G01*
X12822150Y-9817400D02*
X12932150Y-9927400D01*
X12932150Y-9817400D02*
X12822150Y-9927400D01*
X12932150Y-9872400D02*
G75*
G03X12932150Y-9872400I-55000J0D01*
G01*
X12822150Y-10071400D02*
X12932150Y-10181400D01*
X12932150Y-10071400D02*
X12822150Y-10181400D01*
X12932150Y-10126400D02*
G75*
G03X12932150Y-10126400I-55000J0D01*
G01*
X12822150Y-10325400D02*
X12932150Y-10435400D01*
X12932150Y-10325400D02*
X12822150Y-10435400D01*
X12932150Y-10380400D02*
G75*
G03X12932150Y-10380400I-55000J0D01*
G01*
X12822150Y-10579400D02*
X12932150Y-10689400D01*
X12932150Y-10579400D02*
X12822150Y-10689400D01*
X12932150Y-10634400D02*
G75*
G03X12932150Y-10634400I-55000J0D01*
G01*
X12822150Y-10833400D02*
X12932150Y-10943400D01*
X12932150Y-10833400D02*
X12822150Y-10943400D01*
X12932150Y-10888400D02*
G75*
G03X12932150Y-10888400I-55000J0D01*
G01*
X12822150Y-11087400D02*
X12932150Y-11197400D01*
X12932150Y-11087400D02*
X12822150Y-11197400D01*
X12932150Y-11142400D02*
G75*
G03X12932150Y-11142400I-55000J0D01*
G01*
X12822150Y-11341400D02*
X12932150Y-11451400D01*
X12932150Y-11341400D02*
X12822150Y-11451400D01*
X12932150Y-11396400D02*
G75*
G03X12932150Y-11396400I-55000J0D01*
G01*
X12822150Y-11595400D02*
X12932150Y-11705400D01*
X12932150Y-11595400D02*
X12822150Y-11705400D01*
X12932150Y-11650400D02*
G75*
G03X12932150Y-11650400I-55000J0D01*
G01*
X12822150Y-11849400D02*
X12932150Y-11959400D01*
X12932150Y-11849400D02*
X12822150Y-11959400D01*
X12932150Y-11904400D02*
G75*
G03X12932150Y-11904400I-55000J0D01*
G01*
X12822150Y-12103400D02*
X12932150Y-12213400D01*
X12932150Y-12103400D02*
X12822150Y-12213400D01*
X12932150Y-12158400D02*
G75*
G03X12932150Y-12158400I-55000J0D01*
G01*
X12822150Y-12357400D02*
X12932150Y-12467400D01*
X12932150Y-12357400D02*
X12822150Y-12467400D01*
X12932150Y-12412400D02*
G75*
G03X12932150Y-12412400I-55000J0D01*
G01*
X12822150Y-12611400D02*
X12932150Y-12721400D01*
X12932150Y-12611400D02*
X12822150Y-12721400D01*
X12932150Y-12666400D02*
G75*
G03X12932150Y-12666400I-55000J0D01*
G01*
X12822150Y-12865400D02*
X12932150Y-12975400D01*
X12932150Y-12865400D02*
X12822150Y-12975400D01*
X12932150Y-12920400D02*
G75*
G03X12932150Y-12920400I-55000J0D01*
G01*
X12822150Y-13119400D02*
X12932150Y-13229400D01*
X12932150Y-13119400D02*
X12822150Y-13229400D01*
X12932150Y-13174400D02*
G75*
G03X12932150Y-13174400I-55000J0D01*
G01*
X12822150Y-13373400D02*
X12932150Y-13483400D01*
X12932150Y-13373400D02*
X12822150Y-13483400D01*
X12932150Y-13428400D02*
G75*
G03X12932150Y-13428400I-55000J0D01*
G01*
X13076150Y-7023400D02*
X13186150Y-7133400D01*
X13186150Y-7023400D02*
X13076150Y-7133400D01*
X13186150Y-7078400D02*
G75*
G03X13186150Y-7078400I-55000J0D01*
G01*
X13076150Y-7277400D02*
X13186150Y-7387400D01*
X13186150Y-7277400D02*
X13076150Y-7387400D01*
X13186150Y-7332400D02*
G75*
G03X13186150Y-7332400I-55000J0D01*
G01*
X13076150Y-7531400D02*
X13186150Y-7641400D01*
X13186150Y-7531400D02*
X13076150Y-7641400D01*
X13186150Y-7586400D02*
G75*
G03X13186150Y-7586400I-55000J0D01*
G01*
X13076150Y-7785400D02*
X13186150Y-7895400D01*
X13186150Y-7785400D02*
X13076150Y-7895400D01*
X13186150Y-7840400D02*
G75*
G03X13186150Y-7840400I-55000J0D01*
G01*
X13076150Y-8039400D02*
X13186150Y-8149400D01*
X13186150Y-8039400D02*
X13076150Y-8149400D01*
X13186150Y-8094400D02*
G75*
G03X13186150Y-8094400I-55000J0D01*
G01*
X13076150Y-8293400D02*
X13186150Y-8403400D01*
X13186150Y-8293400D02*
X13076150Y-8403400D01*
X13186150Y-8348400D02*
G75*
G03X13186150Y-8348400I-55000J0D01*
G01*
X13076150Y-8547400D02*
X13186150Y-8657400D01*
X13186150Y-8547400D02*
X13076150Y-8657400D01*
X13186150Y-8602400D02*
G75*
G03X13186150Y-8602400I-55000J0D01*
G01*
X13076150Y-8801400D02*
X13186150Y-8911400D01*
X13186150Y-8801400D02*
X13076150Y-8911400D01*
X13186150Y-8856400D02*
G75*
G03X13186150Y-8856400I-55000J0D01*
G01*
X13076150Y-9055400D02*
X13186150Y-9165400D01*
X13186150Y-9055400D02*
X13076150Y-9165400D01*
X13186150Y-9110400D02*
G75*
G03X13186150Y-9110400I-55000J0D01*
G01*
X13076150Y-9309400D02*
X13186150Y-9419400D01*
X13186150Y-9309400D02*
X13076150Y-9419400D01*
X13186150Y-9364400D02*
G75*
G03X13186150Y-9364400I-55000J0D01*
G01*
X13076150Y-9563400D02*
X13186150Y-9673400D01*
X13186150Y-9563400D02*
X13076150Y-9673400D01*
X13186150Y-9618400D02*
G75*
G03X13186150Y-9618400I-55000J0D01*
G01*
X13076150Y-9817400D02*
X13186150Y-9927400D01*
X13186150Y-9817400D02*
X13076150Y-9927400D01*
X13186150Y-9872400D02*
G75*
G03X13186150Y-9872400I-55000J0D01*
G01*
X13076150Y-10071400D02*
X13186150Y-10181400D01*
X13186150Y-10071400D02*
X13076150Y-10181400D01*
X13186150Y-10126400D02*
G75*
G03X13186150Y-10126400I-55000J0D01*
G01*
X13076150Y-10325400D02*
X13186150Y-10435400D01*
X13186150Y-10325400D02*
X13076150Y-10435400D01*
X13186150Y-10380400D02*
G75*
G03X13186150Y-10380400I-55000J0D01*
G01*
X13076150Y-10579400D02*
X13186150Y-10689400D01*
X13186150Y-10579400D02*
X13076150Y-10689400D01*
X13186150Y-10634400D02*
G75*
G03X13186150Y-10634400I-55000J0D01*
G01*
X13076150Y-10833400D02*
X13186150Y-10943400D01*
X13186150Y-10833400D02*
X13076150Y-10943400D01*
X13186150Y-10888400D02*
G75*
G03X13186150Y-10888400I-55000J0D01*
G01*
X13076150Y-11087400D02*
X13186150Y-11197400D01*
X13186150Y-11087400D02*
X13076150Y-11197400D01*
X13186150Y-11142400D02*
G75*
G03X13186150Y-11142400I-55000J0D01*
G01*
X13076150Y-11341400D02*
X13186150Y-11451400D01*
X13186150Y-11341400D02*
X13076150Y-11451400D01*
X13186150Y-11396400D02*
G75*
G03X13186150Y-11396400I-55000J0D01*
G01*
X13076150Y-11595400D02*
X13186150Y-11705400D01*
X13186150Y-11595400D02*
X13076150Y-11705400D01*
X13186150Y-11650400D02*
G75*
G03X13186150Y-11650400I-55000J0D01*
G01*
X13076150Y-11849400D02*
X13186150Y-11959400D01*
X13186150Y-11849400D02*
X13076150Y-11959400D01*
X13186150Y-11904400D02*
G75*
G03X13186150Y-11904400I-55000J0D01*
G01*
X13076150Y-12103400D02*
X13186150Y-12213400D01*
X13186150Y-12103400D02*
X13076150Y-12213400D01*
X13186150Y-12158400D02*
G75*
G03X13186150Y-12158400I-55000J0D01*
G01*
X13076150Y-12357400D02*
X13186150Y-12467400D01*
X13186150Y-12357400D02*
X13076150Y-12467400D01*
X13186150Y-12412400D02*
G75*
G03X13186150Y-12412400I-55000J0D01*
G01*
X13076150Y-12611400D02*
X13186150Y-12721400D01*
X13186150Y-12611400D02*
X13076150Y-12721400D01*
X13186150Y-12666400D02*
G75*
G03X13186150Y-12666400I-55000J0D01*
G01*
X13076150Y-12865400D02*
X13186150Y-12975400D01*
X13186150Y-12865400D02*
X13076150Y-12975400D01*
X13186150Y-12920400D02*
G75*
G03X13186150Y-12920400I-55000J0D01*
G01*
X13076150Y-13119400D02*
X13186150Y-13229400D01*
X13186150Y-13119400D02*
X13076150Y-13229400D01*
X13186150Y-13174400D02*
G75*
G03X13186150Y-13174400I-55000J0D01*
G01*
X13076150Y-13373400D02*
X13186150Y-13483400D01*
X13186150Y-13373400D02*
X13076150Y-13483400D01*
X13186150Y-13428400D02*
G75*
G03X13186150Y-13428400I-55000J0D01*
G01*
X13368250Y-7023400D02*
X13478250Y-7133400D01*
X13478250Y-7023400D02*
X13368250Y-7133400D01*
X13478250Y-7078400D02*
G75*
G03X13478250Y-7078400I-55000J0D01*
G01*
X13368250Y-7277400D02*
X13478250Y-7387400D01*
X13478250Y-7277400D02*
X13368250Y-7387400D01*
X13478250Y-7332400D02*
G75*
G03X13478250Y-7332400I-55000J0D01*
G01*
X13368250Y-7531400D02*
X13478250Y-7641400D01*
X13478250Y-7531400D02*
X13368250Y-7641400D01*
X13478250Y-7586400D02*
G75*
G03X13478250Y-7586400I-55000J0D01*
G01*
X13368250Y-7785400D02*
X13478250Y-7895400D01*
X13478250Y-7785400D02*
X13368250Y-7895400D01*
X13478250Y-7840400D02*
G75*
G03X13478250Y-7840400I-55000J0D01*
G01*
X13368250Y-8039400D02*
X13478250Y-8149400D01*
X13478250Y-8039400D02*
X13368250Y-8149400D01*
X13478250Y-8094400D02*
G75*
G03X13478250Y-8094400I-55000J0D01*
G01*
X13368250Y-8293400D02*
X13478250Y-8403400D01*
X13478250Y-8293400D02*
X13368250Y-8403400D01*
X13478250Y-8348400D02*
G75*
G03X13478250Y-8348400I-55000J0D01*
G01*
X13368250Y-8547400D02*
X13478250Y-8657400D01*
X13478250Y-8547400D02*
X13368250Y-8657400D01*
X13478250Y-8602400D02*
G75*
G03X13478250Y-8602400I-55000J0D01*
G01*
X13368250Y-8801400D02*
X13478250Y-8911400D01*
X13478250Y-8801400D02*
X13368250Y-8911400D01*
X13478250Y-8856400D02*
G75*
G03X13478250Y-8856400I-55000J0D01*
G01*
X13368250Y-9055400D02*
X13478250Y-9165400D01*
X13478250Y-9055400D02*
X13368250Y-9165400D01*
X13478250Y-9110400D02*
G75*
G03X13478250Y-9110400I-55000J0D01*
G01*
X13368250Y-9309400D02*
X13478250Y-9419400D01*
X13478250Y-9309400D02*
X13368250Y-9419400D01*
X13478250Y-9364400D02*
G75*
G03X13478250Y-9364400I-55000J0D01*
G01*
X13368250Y-9563400D02*
X13478250Y-9673400D01*
X13478250Y-9563400D02*
X13368250Y-9673400D01*
X13478250Y-9618400D02*
G75*
G03X13478250Y-9618400I-55000J0D01*
G01*
X13368250Y-9817400D02*
X13478250Y-9927400D01*
X13478250Y-9817400D02*
X13368250Y-9927400D01*
X13478250Y-9872400D02*
G75*
G03X13478250Y-9872400I-55000J0D01*
G01*
X13368250Y-10071400D02*
X13478250Y-10181400D01*
X13478250Y-10071400D02*
X13368250Y-10181400D01*
X13478250Y-10126400D02*
G75*
G03X13478250Y-10126400I-55000J0D01*
G01*
X13368250Y-10325400D02*
X13478250Y-10435400D01*
X13478250Y-10325400D02*
X13368250Y-10435400D01*
X13478250Y-10380400D02*
G75*
G03X13478250Y-10380400I-55000J0D01*
G01*
X13368250Y-10579400D02*
X13478250Y-10689400D01*
X13478250Y-10579400D02*
X13368250Y-10689400D01*
X13478250Y-10634400D02*
G75*
G03X13478250Y-10634400I-55000J0D01*
G01*
X13368250Y-10833400D02*
X13478250Y-10943400D01*
X13478250Y-10833400D02*
X13368250Y-10943400D01*
X13478250Y-10888400D02*
G75*
G03X13478250Y-10888400I-55000J0D01*
G01*
X13368250Y-11087400D02*
X13478250Y-11197400D01*
X13478250Y-11087400D02*
X13368250Y-11197400D01*
X13478250Y-11142400D02*
G75*
G03X13478250Y-11142400I-55000J0D01*
G01*
X13368250Y-11341400D02*
X13478250Y-11451400D01*
X13478250Y-11341400D02*
X13368250Y-11451400D01*
X13478250Y-11396400D02*
G75*
G03X13478250Y-11396400I-55000J0D01*
G01*
X13368250Y-11595400D02*
X13478250Y-11705400D01*
X13478250Y-11595400D02*
X13368250Y-11705400D01*
X13478250Y-11650400D02*
G75*
G03X13478250Y-11650400I-55000J0D01*
G01*
X13368250Y-11849400D02*
X13478250Y-11959400D01*
X13478250Y-11849400D02*
X13368250Y-11959400D01*
X13478250Y-11904400D02*
G75*
G03X13478250Y-11904400I-55000J0D01*
G01*
X13368250Y-12103400D02*
X13478250Y-12213400D01*
X13478250Y-12103400D02*
X13368250Y-12213400D01*
X13478250Y-12158400D02*
G75*
G03X13478250Y-12158400I-55000J0D01*
G01*
X13368250Y-12357400D02*
X13478250Y-12467400D01*
X13478250Y-12357400D02*
X13368250Y-12467400D01*
X13478250Y-12412400D02*
G75*
G03X13478250Y-12412400I-55000J0D01*
G01*
X13368250Y-12611400D02*
X13478250Y-12721400D01*
X13478250Y-12611400D02*
X13368250Y-12721400D01*
X13478250Y-12666400D02*
G75*
G03X13478250Y-12666400I-55000J0D01*
G01*
X13368250Y-12865400D02*
X13478250Y-12975400D01*
X13478250Y-12865400D02*
X13368250Y-12975400D01*
X13478250Y-12920400D02*
G75*
G03X13478250Y-12920400I-55000J0D01*
G01*
X13368250Y-13119400D02*
X13478250Y-13229400D01*
X13478250Y-13119400D02*
X13368250Y-13229400D01*
X13478250Y-13174400D02*
G75*
G03X13478250Y-13174400I-55000J0D01*
G01*
X13368250Y-13373400D02*
X13478250Y-13483400D01*
X13478250Y-13373400D02*
X13368250Y-13483400D01*
X13478250Y-13428400D02*
G75*
G03X13478250Y-13428400I-55000J0D01*
G01*
X13622250Y-7023400D02*
X13732250Y-7133400D01*
X13732250Y-7023400D02*
X13622250Y-7133400D01*
X13732250Y-7078400D02*
G75*
G03X13732250Y-7078400I-55000J0D01*
G01*
X13622250Y-7277400D02*
X13732250Y-7387400D01*
X13732250Y-7277400D02*
X13622250Y-7387400D01*
X13732250Y-7332400D02*
G75*
G03X13732250Y-7332400I-55000J0D01*
G01*
X13622250Y-7531400D02*
X13732250Y-7641400D01*
X13732250Y-7531400D02*
X13622250Y-7641400D01*
X13732250Y-7586400D02*
G75*
G03X13732250Y-7586400I-55000J0D01*
G01*
X13622250Y-7785400D02*
X13732250Y-7895400D01*
X13732250Y-7785400D02*
X13622250Y-7895400D01*
X13732250Y-7840400D02*
G75*
G03X13732250Y-7840400I-55000J0D01*
G01*
X13622250Y-8039400D02*
X13732250Y-8149400D01*
X13732250Y-8039400D02*
X13622250Y-8149400D01*
X13732250Y-8094400D02*
G75*
G03X13732250Y-8094400I-55000J0D01*
G01*
X13622250Y-8293400D02*
X13732250Y-8403400D01*
X13732250Y-8293400D02*
X13622250Y-8403400D01*
X13732250Y-8348400D02*
G75*
G03X13732250Y-8348400I-55000J0D01*
G01*
X13622250Y-8547400D02*
X13732250Y-8657400D01*
X13732250Y-8547400D02*
X13622250Y-8657400D01*
X13732250Y-8602400D02*
G75*
G03X13732250Y-8602400I-55000J0D01*
G01*
X13622250Y-8801400D02*
X13732250Y-8911400D01*
X13732250Y-8801400D02*
X13622250Y-8911400D01*
X13732250Y-8856400D02*
G75*
G03X13732250Y-8856400I-55000J0D01*
G01*
X13622250Y-9055400D02*
X13732250Y-9165400D01*
X13732250Y-9055400D02*
X13622250Y-9165400D01*
X13732250Y-9110400D02*
G75*
G03X13732250Y-9110400I-55000J0D01*
G01*
X13622250Y-9309400D02*
X13732250Y-9419400D01*
X13732250Y-9309400D02*
X13622250Y-9419400D01*
X13732250Y-9364400D02*
G75*
G03X13732250Y-9364400I-55000J0D01*
G01*
X13622250Y-9563400D02*
X13732250Y-9673400D01*
X13732250Y-9563400D02*
X13622250Y-9673400D01*
X13732250Y-9618400D02*
G75*
G03X13732250Y-9618400I-55000J0D01*
G01*
X13622250Y-9817400D02*
X13732250Y-9927400D01*
X13732250Y-9817400D02*
X13622250Y-9927400D01*
X13732250Y-9872400D02*
G75*
G03X13732250Y-9872400I-55000J0D01*
G01*
X13622250Y-10071400D02*
X13732250Y-10181400D01*
X13732250Y-10071400D02*
X13622250Y-10181400D01*
X13732250Y-10126400D02*
G75*
G03X13732250Y-10126400I-55000J0D01*
G01*
X13622250Y-10325400D02*
X13732250Y-10435400D01*
X13732250Y-10325400D02*
X13622250Y-10435400D01*
X13732250Y-10380400D02*
G75*
G03X13732250Y-10380400I-55000J0D01*
G01*
X13622250Y-10579400D02*
X13732250Y-10689400D01*
X13732250Y-10579400D02*
X13622250Y-10689400D01*
X13732250Y-10634400D02*
G75*
G03X13732250Y-10634400I-55000J0D01*
G01*
X13622250Y-10833400D02*
X13732250Y-10943400D01*
X13732250Y-10833400D02*
X13622250Y-10943400D01*
X13732250Y-10888400D02*
G75*
G03X13732250Y-10888400I-55000J0D01*
G01*
X13622250Y-11087400D02*
X13732250Y-11197400D01*
X13732250Y-11087400D02*
X13622250Y-11197400D01*
X13732250Y-11142400D02*
G75*
G03X13732250Y-11142400I-55000J0D01*
G01*
X13622250Y-11341400D02*
X13732250Y-11451400D01*
X13732250Y-11341400D02*
X13622250Y-11451400D01*
X13732250Y-11396400D02*
G75*
G03X13732250Y-11396400I-55000J0D01*
G01*
X13622250Y-11595400D02*
X13732250Y-11705400D01*
X13732250Y-11595400D02*
X13622250Y-11705400D01*
X13732250Y-11650400D02*
G75*
G03X13732250Y-11650400I-55000J0D01*
G01*
X13622250Y-11849400D02*
X13732250Y-11959400D01*
X13732250Y-11849400D02*
X13622250Y-11959400D01*
X13732250Y-11904400D02*
G75*
G03X13732250Y-11904400I-55000J0D01*
G01*
X13622250Y-12103400D02*
X13732250Y-12213400D01*
X13732250Y-12103400D02*
X13622250Y-12213400D01*
X13732250Y-12158400D02*
G75*
G03X13732250Y-12158400I-55000J0D01*
G01*
X13622250Y-12357400D02*
X13732250Y-12467400D01*
X13732250Y-12357400D02*
X13622250Y-12467400D01*
X13732250Y-12412400D02*
G75*
G03X13732250Y-12412400I-55000J0D01*
G01*
X13622250Y-12611400D02*
X13732250Y-12721400D01*
X13732250Y-12611400D02*
X13622250Y-12721400D01*
X13732250Y-12666400D02*
G75*
G03X13732250Y-12666400I-55000J0D01*
G01*
X13622250Y-12865400D02*
X13732250Y-12975400D01*
X13732250Y-12865400D02*
X13622250Y-12975400D01*
X13732250Y-12920400D02*
G75*
G03X13732250Y-12920400I-55000J0D01*
G01*
X13622250Y-13119400D02*
X13732250Y-13229400D01*
X13732250Y-13119400D02*
X13622250Y-13229400D01*
X13732250Y-13174400D02*
G75*
G03X13732250Y-13174400I-55000J0D01*
G01*
X13622250Y-13373400D02*
X13732250Y-13483400D01*
X13732250Y-13373400D02*
X13622250Y-13483400D01*
X13732250Y-13428400D02*
G75*
G03X13732250Y-13428400I-55000J0D01*
G01*
X12849000Y-6386000D02*
X13167000Y-6704000D01*
X13167000Y-6386000D02*
X12849000Y-6704000D01*
X13008000Y-6386000D02*
X13008000Y-6704000D01*
X12849000Y-6545000D02*
X13167000Y-6545000D01*
X21422000Y-14133000D02*
X21740000Y-14451000D01*
X21740000Y-14133000D02*
X21422000Y-14451000D01*
X21581000Y-14133000D02*
X21581000Y-14451000D01*
X21422000Y-14292000D02*
X21740000Y-14292000D01*
X12849000Y-13752000D02*
X13167000Y-14070000D01*
X13167000Y-13752000D02*
X12849000Y-14070000D01*
X13008000Y-13752000D02*
X13008000Y-14070000D01*
X12849000Y-13911000D02*
X13167000Y-13911000D01*
X21422000Y-6132000D02*
X21740000Y-6450000D01*
X21740000Y-6132000D02*
X21422000Y-6450000D01*
X21581000Y-6132000D02*
X21581000Y-6450000D01*
X21422000Y-6291000D02*
X21740000Y-6291000D01*
D12*
X12783928Y-15268214D02*
X12783928Y-14968214D01*
X12855357Y-14968214D01*
X12898214Y-14982500D01*
X12926786Y-15011071D01*
X12941071Y-15039643D01*
X12955357Y-15096786D01*
X12955357Y-15139643D01*
X12941071Y-15196786D01*
X12926786Y-15225357D01*
X12898214Y-15253929D01*
X12855357Y-15268214D01*
X12783928Y-15268214D01*
X13083928Y-15268214D02*
X13083928Y-15068214D01*
X13083928Y-15125357D02*
X13098214Y-15096786D01*
X13112500Y-15082500D01*
X13141071Y-15068214D01*
X13169643Y-15068214D01*
X13269643Y-15268214D02*
X13269643Y-15068214D01*
X13269643Y-14968214D02*
X13255357Y-14982500D01*
X13269643Y-14996786D01*
X13283928Y-14982500D01*
X13269643Y-14968214D01*
X13269643Y-14996786D01*
X13455357Y-15268214D02*
X13426786Y-15253929D01*
X13412500Y-15225357D01*
X13412500Y-14968214D01*
X13612500Y-15268214D02*
X13583928Y-15253929D01*
X13569643Y-15225357D01*
X13569643Y-14968214D01*
X13955357Y-15268214D02*
X13955357Y-14968214D01*
X14055357Y-15182500D01*
X14155357Y-14968214D01*
X14155357Y-15268214D01*
X14426786Y-15268214D02*
X14426786Y-15111071D01*
X14412500Y-15082500D01*
X14383928Y-15068214D01*
X14326786Y-15068214D01*
X14298214Y-15082500D01*
X14426786Y-15253929D02*
X14398214Y-15268214D01*
X14326786Y-15268214D01*
X14298214Y-15253929D01*
X14283928Y-15225357D01*
X14283928Y-15196786D01*
X14298214Y-15168214D01*
X14326786Y-15153929D01*
X14398214Y-15153929D01*
X14426786Y-15139643D01*
X14569643Y-15068214D02*
X14569643Y-15368214D01*
X14569643Y-15082500D02*
X14598214Y-15068214D01*
X14655357Y-15068214D01*
X14683928Y-15082500D01*
X14698214Y-15096786D01*
X14712500Y-15125357D01*
X14712500Y-15211071D01*
X14698214Y-15239643D01*
X14683928Y-15253929D01*
X14655357Y-15268214D01*
X14598214Y-15268214D01*
X14569643Y-15253929D01*
X14841071Y-15239643D02*
X14855357Y-15253929D01*
X14841071Y-15268214D01*
X14826786Y-15253929D01*
X14841071Y-15239643D01*
X14841071Y-15268214D01*
X14841071Y-15082500D02*
X14855357Y-15096786D01*
X14841071Y-15111071D01*
X14826786Y-15096786D01*
X14841071Y-15082500D01*
X14841071Y-15111071D01*
X12457500Y-15742500D02*
X12497500Y-15782500D01*
X12497500Y-15742500D02*
X12457500Y-15782500D01*
X12841071Y-15598214D02*
X12869643Y-15598214D01*
X12898214Y-15612500D01*
X12912500Y-15626786D01*
X12926786Y-15655357D01*
X12941071Y-15712500D01*
X12941071Y-15783929D01*
X12926786Y-15841071D01*
X12912500Y-15869643D01*
X12898214Y-15883929D01*
X12869643Y-15898214D01*
X12841071Y-15898214D01*
X12812500Y-15883929D01*
X12798214Y-15869643D01*
X12783928Y-15841071D01*
X12769643Y-15783929D01*
X12769643Y-15712500D01*
X12783928Y-15655357D01*
X12798214Y-15626786D01*
X12812500Y-15612500D01*
X12841071Y-15598214D01*
X13069643Y-15869643D02*
X13083928Y-15883929D01*
X13069643Y-15898214D01*
X13055357Y-15883929D01*
X13069643Y-15869643D01*
X13069643Y-15898214D01*
X13341071Y-15698214D02*
X13341071Y-15898214D01*
X13269643Y-15583929D02*
X13198214Y-15798214D01*
X13383928Y-15798214D01*
X13555357Y-15598214D02*
X13583928Y-15598214D01*
X13612500Y-15612500D01*
X13626786Y-15626786D01*
X13641071Y-15655357D01*
X13655357Y-15712500D01*
X13655357Y-15783929D01*
X13641071Y-15841071D01*
X13626786Y-15869643D01*
X13612500Y-15883929D01*
X13583928Y-15898214D01*
X13555357Y-15898214D01*
X13526786Y-15883929D01*
X13512500Y-15869643D01*
X13498214Y-15841071D01*
X13483928Y-15783929D01*
X13483928Y-15712500D01*
X13498214Y-15655357D01*
X13512500Y-15626786D01*
X13526786Y-15612500D01*
X13555357Y-15598214D01*
X13783928Y-15898214D02*
X13783928Y-15698214D01*
X13783928Y-15726786D02*
X13798214Y-15712500D01*
X13826786Y-15698214D01*
X13869643Y-15698214D01*
X13898214Y-15712500D01*
X13912500Y-15741071D01*
X13912500Y-15898214D01*
X13912500Y-15741071D02*
X13926786Y-15712500D01*
X13955357Y-15698214D01*
X13998214Y-15698214D01*
X14026786Y-15712500D01*
X14041071Y-15741071D01*
X14041071Y-15898214D01*
X14183928Y-15898214D02*
X14183928Y-15698214D01*
X14183928Y-15726786D02*
X14198214Y-15712500D01*
X14226786Y-15698214D01*
X14269643Y-15698214D01*
X14298214Y-15712500D01*
X14312500Y-15741071D01*
X14312500Y-15898214D01*
X14312500Y-15741071D02*
X14326786Y-15712500D01*
X14355357Y-15698214D01*
X14398214Y-15698214D01*
X14426786Y-15712500D01*
X14441071Y-15741071D01*
X14441071Y-15898214D01*
X15026786Y-15583929D02*
X14769643Y-15969643D01*
X15412500Y-15598214D02*
X15441071Y-15598214D01*
X15469643Y-15612500D01*
X15483928Y-15626786D01*
X15498214Y-15655357D01*
X15512500Y-15712500D01*
X15512500Y-15783929D01*
X15498214Y-15841071D01*
X15483928Y-15869643D01*
X15469643Y-15883929D01*
X15441071Y-15898214D01*
X15412500Y-15898214D01*
X15383928Y-15883929D01*
X15369643Y-15869643D01*
X15355357Y-15841071D01*
X15341071Y-15783929D01*
X15341071Y-15712500D01*
X15355357Y-15655357D01*
X15369643Y-15626786D01*
X15383928Y-15612500D01*
X15412500Y-15598214D01*
X15641071Y-15869643D02*
X15655357Y-15883929D01*
X15641071Y-15898214D01*
X15626786Y-15883929D01*
X15641071Y-15869643D01*
X15641071Y-15898214D01*
X15841071Y-15598214D02*
X15869643Y-15598214D01*
X15898214Y-15612500D01*
X15912500Y-15626786D01*
X15926786Y-15655357D01*
X15941071Y-15712500D01*
X15941071Y-15783929D01*
X15926786Y-15841071D01*
X15912500Y-15869643D01*
X15898214Y-15883929D01*
X15869643Y-15898214D01*
X15841071Y-15898214D01*
X15812500Y-15883929D01*
X15798214Y-15869643D01*
X15783928Y-15841071D01*
X15769643Y-15783929D01*
X15769643Y-15712500D01*
X15783928Y-15655357D01*
X15798214Y-15626786D01*
X15812500Y-15612500D01*
X15841071Y-15598214D01*
X16226786Y-15898214D02*
X16055357Y-15898214D01*
X16141071Y-15898214D02*
X16141071Y-15598214D01*
X16112500Y-15641071D01*
X16083928Y-15669643D01*
X16055357Y-15683929D01*
X16483928Y-15598214D02*
X16426786Y-15598214D01*
X16398214Y-15612500D01*
X16383928Y-15626786D01*
X16355357Y-15669643D01*
X16341071Y-15726786D01*
X16341071Y-15841071D01*
X16355357Y-15869643D01*
X16369643Y-15883929D01*
X16398214Y-15898214D01*
X16455357Y-15898214D01*
X16483928Y-15883929D01*
X16498214Y-15869643D01*
X16512500Y-15841071D01*
X16512500Y-15769643D01*
X16498214Y-15741071D01*
X16483928Y-15726786D01*
X16455357Y-15712500D01*
X16398214Y-15712500D01*
X16369643Y-15726786D01*
X16355357Y-15741071D01*
X16341071Y-15769643D01*
X16626786Y-15598214D02*
X16626786Y-15655357D01*
X16741071Y-15598214D02*
X16741071Y-15655357D01*
X17183928Y-16012500D02*
X17169643Y-15998214D01*
X17141071Y-15955357D01*
X17126786Y-15926786D01*
X17112500Y-15883929D01*
X17098214Y-15812500D01*
X17098214Y-15755357D01*
X17112500Y-15683929D01*
X17126786Y-15641071D01*
X17141071Y-15612500D01*
X17169643Y-15569643D01*
X17183928Y-15555357D01*
X17455357Y-15898214D02*
X17283928Y-15898214D01*
X17369643Y-15898214D02*
X17369643Y-15598214D01*
X17341071Y-15641071D01*
X17312500Y-15669643D01*
X17283928Y-15683929D01*
X17641071Y-15598214D02*
X17669643Y-15598214D01*
X17698214Y-15612500D01*
X17712500Y-15626786D01*
X17726786Y-15655357D01*
X17741071Y-15712500D01*
X17741071Y-15783929D01*
X17726786Y-15841071D01*
X17712500Y-15869643D01*
X17698214Y-15883929D01*
X17669643Y-15898214D01*
X17641071Y-15898214D01*
X17612500Y-15883929D01*
X17598214Y-15869643D01*
X17583928Y-15841071D01*
X17569643Y-15783929D01*
X17569643Y-15712500D01*
X17583928Y-15655357D01*
X17598214Y-15626786D01*
X17612500Y-15612500D01*
X17641071Y-15598214D01*
X18026786Y-15898214D02*
X17855357Y-15898214D01*
X17941071Y-15898214D02*
X17941071Y-15598214D01*
X17912500Y-15641071D01*
X17883928Y-15669643D01*
X17855357Y-15683929D01*
X18383928Y-15898214D02*
X18383928Y-15598214D01*
X18512500Y-15898214D02*
X18512500Y-15741071D01*
X18498214Y-15712500D01*
X18469643Y-15698214D01*
X18426786Y-15698214D01*
X18398214Y-15712500D01*
X18383928Y-15726786D01*
X18698214Y-15898214D02*
X18669643Y-15883929D01*
X18655357Y-15869643D01*
X18641071Y-15841071D01*
X18641071Y-15755357D01*
X18655357Y-15726786D01*
X18669643Y-15712500D01*
X18698214Y-15698214D01*
X18741071Y-15698214D01*
X18769643Y-15712500D01*
X18783928Y-15726786D01*
X18798214Y-15755357D01*
X18798214Y-15841071D01*
X18783928Y-15869643D01*
X18769643Y-15883929D01*
X18741071Y-15898214D01*
X18698214Y-15898214D01*
X18969643Y-15898214D02*
X18941071Y-15883929D01*
X18926786Y-15855357D01*
X18926786Y-15598214D01*
X19198214Y-15883929D02*
X19169643Y-15898214D01*
X19112500Y-15898214D01*
X19083928Y-15883929D01*
X19069643Y-15855357D01*
X19069643Y-15741071D01*
X19083928Y-15712500D01*
X19112500Y-15698214D01*
X19169643Y-15698214D01*
X19198214Y-15712500D01*
X19212500Y-15741071D01*
X19212500Y-15769643D01*
X19069643Y-15798214D01*
X19326786Y-15883929D02*
X19355357Y-15898214D01*
X19412500Y-15898214D01*
X19441071Y-15883929D01*
X19455357Y-15855357D01*
X19455357Y-15841071D01*
X19441071Y-15812500D01*
X19412500Y-15798214D01*
X19369643Y-15798214D01*
X19341071Y-15783929D01*
X19326786Y-15755357D01*
X19326786Y-15741071D01*
X19341071Y-15712500D01*
X19369643Y-15698214D01*
X19412500Y-15698214D01*
X19441071Y-15712500D01*
X19555357Y-16012500D02*
X19569643Y-15998214D01*
X19598214Y-15955357D01*
X19612500Y-15926786D01*
X19626786Y-15883929D01*
X19641071Y-15812500D01*
X19641071Y-15755357D01*
X19626786Y-15683929D01*
X19612500Y-15641071D01*
X19598214Y-15612500D01*
X19569643Y-15569643D01*
X19555357Y-15555357D01*
X12497500Y-16158500D02*
G75*
G03X12497500Y-16158500I-40000J0D01*
G01*
X12841071Y-15994214D02*
X12869643Y-15994214D01*
X12898214Y-16008500D01*
X12912500Y-16022786D01*
X12926786Y-16051357D01*
X12941071Y-16108500D01*
X12941071Y-16179929D01*
X12926786Y-16237071D01*
X12912500Y-16265643D01*
X12898214Y-16279929D01*
X12869643Y-16294214D01*
X12841071Y-16294214D01*
X12812500Y-16279929D01*
X12798214Y-16265643D01*
X12783928Y-16237071D01*
X12769643Y-16179929D01*
X12769643Y-16108500D01*
X12783928Y-16051357D01*
X12798214Y-16022786D01*
X12812500Y-16008500D01*
X12841071Y-15994214D01*
X13069643Y-16265643D02*
X13083928Y-16279929D01*
X13069643Y-16294214D01*
X13055357Y-16279929D01*
X13069643Y-16265643D01*
X13069643Y-16294214D01*
X13255357Y-16122786D02*
X13226786Y-16108500D01*
X13212500Y-16094214D01*
X13198214Y-16065643D01*
X13198214Y-16051357D01*
X13212500Y-16022786D01*
X13226786Y-16008500D01*
X13255357Y-15994214D01*
X13312500Y-15994214D01*
X13341071Y-16008500D01*
X13355357Y-16022786D01*
X13369643Y-16051357D01*
X13369643Y-16065643D01*
X13355357Y-16094214D01*
X13341071Y-16108500D01*
X13312500Y-16122786D01*
X13255357Y-16122786D01*
X13226786Y-16137071D01*
X13212500Y-16151357D01*
X13198214Y-16179929D01*
X13198214Y-16237071D01*
X13212500Y-16265643D01*
X13226786Y-16279929D01*
X13255357Y-16294214D01*
X13312500Y-16294214D01*
X13341071Y-16279929D01*
X13355357Y-16265643D01*
X13369643Y-16237071D01*
X13369643Y-16179929D01*
X13355357Y-16151357D01*
X13341071Y-16137071D01*
X13312500Y-16122786D01*
X13555357Y-15994214D02*
X13583928Y-15994214D01*
X13612500Y-16008500D01*
X13626786Y-16022786D01*
X13641071Y-16051357D01*
X13655357Y-16108500D01*
X13655357Y-16179929D01*
X13641071Y-16237071D01*
X13626786Y-16265643D01*
X13612500Y-16279929D01*
X13583928Y-16294214D01*
X13555357Y-16294214D01*
X13526786Y-16279929D01*
X13512500Y-16265643D01*
X13498214Y-16237071D01*
X13483928Y-16179929D01*
X13483928Y-16108500D01*
X13498214Y-16051357D01*
X13512500Y-16022786D01*
X13526786Y-16008500D01*
X13555357Y-15994214D01*
X13783928Y-16294214D02*
X13783928Y-16094214D01*
X13783928Y-16122786D02*
X13798214Y-16108500D01*
X13826786Y-16094214D01*
X13869643Y-16094214D01*
X13898214Y-16108500D01*
X13912500Y-16137071D01*
X13912500Y-16294214D01*
X13912500Y-16137071D02*
X13926786Y-16108500D01*
X13955357Y-16094214D01*
X13998214Y-16094214D01*
X14026786Y-16108500D01*
X14041071Y-16137071D01*
X14041071Y-16294214D01*
X14183928Y-16294214D02*
X14183928Y-16094214D01*
X14183928Y-16122786D02*
X14198214Y-16108500D01*
X14226786Y-16094214D01*
X14269643Y-16094214D01*
X14298214Y-16108500D01*
X14312500Y-16137071D01*
X14312500Y-16294214D01*
X14312500Y-16137071D02*
X14326786Y-16108500D01*
X14355357Y-16094214D01*
X14398214Y-16094214D01*
X14426786Y-16108500D01*
X14441071Y-16137071D01*
X14441071Y-16294214D01*
X15026786Y-15979929D02*
X14769643Y-16365643D01*
X15412500Y-15994214D02*
X15441071Y-15994214D01*
X15469643Y-16008500D01*
X15483928Y-16022786D01*
X15498214Y-16051357D01*
X15512500Y-16108500D01*
X15512500Y-16179929D01*
X15498214Y-16237071D01*
X15483928Y-16265643D01*
X15469643Y-16279929D01*
X15441071Y-16294214D01*
X15412500Y-16294214D01*
X15383928Y-16279929D01*
X15369643Y-16265643D01*
X15355357Y-16237071D01*
X15341071Y-16179929D01*
X15341071Y-16108500D01*
X15355357Y-16051357D01*
X15369643Y-16022786D01*
X15383928Y-16008500D01*
X15412500Y-15994214D01*
X15641071Y-16265643D02*
X15655357Y-16279929D01*
X15641071Y-16294214D01*
X15626786Y-16279929D01*
X15641071Y-16265643D01*
X15641071Y-16294214D01*
X15841071Y-15994214D02*
X15869643Y-15994214D01*
X15898214Y-16008500D01*
X15912500Y-16022786D01*
X15926786Y-16051357D01*
X15941071Y-16108500D01*
X15941071Y-16179929D01*
X15926786Y-16237071D01*
X15912500Y-16265643D01*
X15898214Y-16279929D01*
X15869643Y-16294214D01*
X15841071Y-16294214D01*
X15812500Y-16279929D01*
X15798214Y-16265643D01*
X15783928Y-16237071D01*
X15769643Y-16179929D01*
X15769643Y-16108500D01*
X15783928Y-16051357D01*
X15798214Y-16022786D01*
X15812500Y-16008500D01*
X15841071Y-15994214D01*
X16041071Y-15994214D02*
X16226786Y-15994214D01*
X16126786Y-16108500D01*
X16169643Y-16108500D01*
X16198214Y-16122786D01*
X16212500Y-16137071D01*
X16226786Y-16165643D01*
X16226786Y-16237071D01*
X16212500Y-16265643D01*
X16198214Y-16279929D01*
X16169643Y-16294214D01*
X16083928Y-16294214D01*
X16055357Y-16279929D01*
X16041071Y-16265643D01*
X16512500Y-16294214D02*
X16341071Y-16294214D01*
X16426786Y-16294214D02*
X16426786Y-15994214D01*
X16398214Y-16037071D01*
X16369643Y-16065643D01*
X16341071Y-16079929D01*
X16626786Y-15994214D02*
X16626786Y-16051357D01*
X16741071Y-15994214D02*
X16741071Y-16051357D01*
X17183928Y-16408500D02*
X17169643Y-16394214D01*
X17141071Y-16351357D01*
X17126786Y-16322786D01*
X17112500Y-16279929D01*
X17098214Y-16208500D01*
X17098214Y-16151357D01*
X17112500Y-16079929D01*
X17126786Y-16037071D01*
X17141071Y-16008500D01*
X17169643Y-15965643D01*
X17183928Y-15951357D01*
X17283928Y-16022786D02*
X17298214Y-16008500D01*
X17326786Y-15994214D01*
X17398214Y-15994214D01*
X17426786Y-16008500D01*
X17441071Y-16022786D01*
X17455357Y-16051357D01*
X17455357Y-16079929D01*
X17441071Y-16122786D01*
X17269643Y-16294214D01*
X17455357Y-16294214D01*
X17812500Y-16294214D02*
X17812500Y-15994214D01*
X17941071Y-16294214D02*
X17941071Y-16137071D01*
X17926786Y-16108500D01*
X17898214Y-16094214D01*
X17855357Y-16094214D01*
X17826786Y-16108500D01*
X17812500Y-16122786D01*
X18126786Y-16294214D02*
X18098214Y-16279929D01*
X18083928Y-16265643D01*
X18069643Y-16237071D01*
X18069643Y-16151357D01*
X18083928Y-16122786D01*
X18098214Y-16108500D01*
X18126786Y-16094214D01*
X18169643Y-16094214D01*
X18198214Y-16108500D01*
X18212500Y-16122786D01*
X18226786Y-16151357D01*
X18226786Y-16237071D01*
X18212500Y-16265643D01*
X18198214Y-16279929D01*
X18169643Y-16294214D01*
X18126786Y-16294214D01*
X18398214Y-16294214D02*
X18369643Y-16279929D01*
X18355357Y-16251357D01*
X18355357Y-15994214D01*
X18626786Y-16279929D02*
X18598214Y-16294214D01*
X18541071Y-16294214D01*
X18512500Y-16279929D01*
X18498214Y-16251357D01*
X18498214Y-16137071D01*
X18512500Y-16108500D01*
X18541071Y-16094214D01*
X18598214Y-16094214D01*
X18626786Y-16108500D01*
X18641071Y-16137071D01*
X18641071Y-16165643D01*
X18498214Y-16194214D01*
X18755357Y-16279929D02*
X18783928Y-16294214D01*
X18841071Y-16294214D01*
X18869643Y-16279929D01*
X18883928Y-16251357D01*
X18883928Y-16237071D01*
X18869643Y-16208500D01*
X18841071Y-16194214D01*
X18798214Y-16194214D01*
X18769643Y-16179929D01*
X18755357Y-16151357D01*
X18755357Y-16137071D01*
X18769643Y-16108500D01*
X18798214Y-16094214D01*
X18841071Y-16094214D01*
X18869643Y-16108500D01*
X18983928Y-16408500D02*
X18998214Y-16394214D01*
X19026786Y-16351357D01*
X19041071Y-16322786D01*
X19055357Y-16279929D01*
X19069643Y-16208500D01*
X19069643Y-16151357D01*
X19055357Y-16079929D01*
X19041071Y-16037071D01*
X19026786Y-16008500D01*
X18998214Y-15965643D01*
X18983928Y-15951357D01*
X12452500Y-16509500D02*
X12452500Y-16599500D01*
X12407500Y-16554500D02*
X12497500Y-16554500D01*
X12841071Y-16390214D02*
X12869643Y-16390214D01*
X12898214Y-16404500D01*
X12912500Y-16418786D01*
X12926786Y-16447357D01*
X12941071Y-16504500D01*
X12941071Y-16575929D01*
X12926786Y-16633071D01*
X12912500Y-16661643D01*
X12898214Y-16675929D01*
X12869643Y-16690214D01*
X12841071Y-16690214D01*
X12812500Y-16675929D01*
X12798214Y-16661643D01*
X12783928Y-16633071D01*
X12769643Y-16575929D01*
X12769643Y-16504500D01*
X12783928Y-16447357D01*
X12798214Y-16418786D01*
X12812500Y-16404500D01*
X12841071Y-16390214D01*
X13069643Y-16661643D02*
X13083928Y-16675929D01*
X13069643Y-16690214D01*
X13055357Y-16675929D01*
X13069643Y-16661643D01*
X13069643Y-16690214D01*
X13226786Y-16690214D02*
X13283928Y-16690214D01*
X13312500Y-16675929D01*
X13326786Y-16661643D01*
X13355357Y-16618786D01*
X13369643Y-16561643D01*
X13369643Y-16447357D01*
X13355357Y-16418786D01*
X13341071Y-16404500D01*
X13312500Y-16390214D01*
X13255357Y-16390214D01*
X13226786Y-16404500D01*
X13212500Y-16418786D01*
X13198214Y-16447357D01*
X13198214Y-16518786D01*
X13212500Y-16547357D01*
X13226786Y-16561643D01*
X13255357Y-16575929D01*
X13312500Y-16575929D01*
X13341071Y-16561643D01*
X13355357Y-16547357D01*
X13369643Y-16518786D01*
X13555357Y-16390214D02*
X13583928Y-16390214D01*
X13612500Y-16404500D01*
X13626786Y-16418786D01*
X13641071Y-16447357D01*
X13655357Y-16504500D01*
X13655357Y-16575929D01*
X13641071Y-16633071D01*
X13626786Y-16661643D01*
X13612500Y-16675929D01*
X13583928Y-16690214D01*
X13555357Y-16690214D01*
X13526786Y-16675929D01*
X13512500Y-16661643D01*
X13498214Y-16633071D01*
X13483928Y-16575929D01*
X13483928Y-16504500D01*
X13498214Y-16447357D01*
X13512500Y-16418786D01*
X13526786Y-16404500D01*
X13555357Y-16390214D01*
X13783928Y-16690214D02*
X13783928Y-16490214D01*
X13783928Y-16518786D02*
X13798214Y-16504500D01*
X13826786Y-16490214D01*
X13869643Y-16490214D01*
X13898214Y-16504500D01*
X13912500Y-16533071D01*
X13912500Y-16690214D01*
X13912500Y-16533071D02*
X13926786Y-16504500D01*
X13955357Y-16490214D01*
X13998214Y-16490214D01*
X14026786Y-16504500D01*
X14041071Y-16533071D01*
X14041071Y-16690214D01*
X14183928Y-16690214D02*
X14183928Y-16490214D01*
X14183928Y-16518786D02*
X14198214Y-16504500D01*
X14226786Y-16490214D01*
X14269643Y-16490214D01*
X14298214Y-16504500D01*
X14312500Y-16533071D01*
X14312500Y-16690214D01*
X14312500Y-16533071D02*
X14326786Y-16504500D01*
X14355357Y-16490214D01*
X14398214Y-16490214D01*
X14426786Y-16504500D01*
X14441071Y-16533071D01*
X14441071Y-16690214D01*
X15026786Y-16375929D02*
X14769643Y-16761643D01*
X15412500Y-16390214D02*
X15441071Y-16390214D01*
X15469643Y-16404500D01*
X15483928Y-16418786D01*
X15498214Y-16447357D01*
X15512500Y-16504500D01*
X15512500Y-16575929D01*
X15498214Y-16633071D01*
X15483928Y-16661643D01*
X15469643Y-16675929D01*
X15441071Y-16690214D01*
X15412500Y-16690214D01*
X15383928Y-16675929D01*
X15369643Y-16661643D01*
X15355357Y-16633071D01*
X15341071Y-16575929D01*
X15341071Y-16504500D01*
X15355357Y-16447357D01*
X15369643Y-16418786D01*
X15383928Y-16404500D01*
X15412500Y-16390214D01*
X15641071Y-16661643D02*
X15655357Y-16675929D01*
X15641071Y-16690214D01*
X15626786Y-16675929D01*
X15641071Y-16661643D01*
X15641071Y-16690214D01*
X15841071Y-16390214D02*
X15869643Y-16390214D01*
X15898214Y-16404500D01*
X15912500Y-16418786D01*
X15926786Y-16447357D01*
X15941071Y-16504500D01*
X15941071Y-16575929D01*
X15926786Y-16633071D01*
X15912500Y-16661643D01*
X15898214Y-16675929D01*
X15869643Y-16690214D01*
X15841071Y-16690214D01*
X15812500Y-16675929D01*
X15798214Y-16661643D01*
X15783928Y-16633071D01*
X15769643Y-16575929D01*
X15769643Y-16504500D01*
X15783928Y-16447357D01*
X15798214Y-16418786D01*
X15812500Y-16404500D01*
X15841071Y-16390214D01*
X16041071Y-16390214D02*
X16226786Y-16390214D01*
X16126786Y-16504500D01*
X16169643Y-16504500D01*
X16198214Y-16518786D01*
X16212500Y-16533071D01*
X16226786Y-16561643D01*
X16226786Y-16633071D01*
X16212500Y-16661643D01*
X16198214Y-16675929D01*
X16169643Y-16690214D01*
X16083928Y-16690214D01*
X16055357Y-16675929D01*
X16041071Y-16661643D01*
X16498214Y-16390214D02*
X16355357Y-16390214D01*
X16341071Y-16533071D01*
X16355357Y-16518786D01*
X16383928Y-16504500D01*
X16455357Y-16504500D01*
X16483928Y-16518786D01*
X16498214Y-16533071D01*
X16512500Y-16561643D01*
X16512500Y-16633071D01*
X16498214Y-16661643D01*
X16483928Y-16675929D01*
X16455357Y-16690214D01*
X16383928Y-16690214D01*
X16355357Y-16675929D01*
X16341071Y-16661643D01*
X16626786Y-16390214D02*
X16626786Y-16447357D01*
X16741071Y-16390214D02*
X16741071Y-16447357D01*
X17183928Y-16804500D02*
X17169643Y-16790214D01*
X17141071Y-16747357D01*
X17126786Y-16718786D01*
X17112500Y-16675929D01*
X17098214Y-16604500D01*
X17098214Y-16547357D01*
X17112500Y-16475929D01*
X17126786Y-16433071D01*
X17141071Y-16404500D01*
X17169643Y-16361643D01*
X17183928Y-16347357D01*
X17269643Y-16390214D02*
X17455357Y-16390214D01*
X17355357Y-16504500D01*
X17398214Y-16504500D01*
X17426786Y-16518786D01*
X17441071Y-16533071D01*
X17455357Y-16561643D01*
X17455357Y-16633071D01*
X17441071Y-16661643D01*
X17426786Y-16675929D01*
X17398214Y-16690214D01*
X17312500Y-16690214D01*
X17283928Y-16675929D01*
X17269643Y-16661643D01*
X17812500Y-16690214D02*
X17812500Y-16390214D01*
X17941071Y-16690214D02*
X17941071Y-16533071D01*
X17926786Y-16504500D01*
X17898214Y-16490214D01*
X17855357Y-16490214D01*
X17826786Y-16504500D01*
X17812500Y-16518786D01*
X18126786Y-16690214D02*
X18098214Y-16675929D01*
X18083928Y-16661643D01*
X18069643Y-16633071D01*
X18069643Y-16547357D01*
X18083928Y-16518786D01*
X18098214Y-16504500D01*
X18126786Y-16490214D01*
X18169643Y-16490214D01*
X18198214Y-16504500D01*
X18212500Y-16518786D01*
X18226786Y-16547357D01*
X18226786Y-16633071D01*
X18212500Y-16661643D01*
X18198214Y-16675929D01*
X18169643Y-16690214D01*
X18126786Y-16690214D01*
X18398214Y-16690214D02*
X18369643Y-16675929D01*
X18355357Y-16647357D01*
X18355357Y-16390214D01*
X18626786Y-16675929D02*
X18598214Y-16690214D01*
X18541071Y-16690214D01*
X18512500Y-16675929D01*
X18498214Y-16647357D01*
X18498214Y-16533071D01*
X18512500Y-16504500D01*
X18541071Y-16490214D01*
X18598214Y-16490214D01*
X18626786Y-16504500D01*
X18641071Y-16533071D01*
X18641071Y-16561643D01*
X18498214Y-16590214D01*
X18755357Y-16675929D02*
X18783928Y-16690214D01*
X18841071Y-16690214D01*
X18869643Y-16675929D01*
X18883928Y-16647357D01*
X18883928Y-16633071D01*
X18869643Y-16604500D01*
X18841071Y-16590214D01*
X18798214Y-16590214D01*
X18769643Y-16575929D01*
X18755357Y-16547357D01*
X18755357Y-16533071D01*
X18769643Y-16504500D01*
X18798214Y-16490214D01*
X18841071Y-16490214D01*
X18869643Y-16504500D01*
X18983928Y-16804500D02*
X18998214Y-16790214D01*
X19026786Y-16747357D01*
X19041071Y-16718786D01*
X19055357Y-16675929D01*
X19069643Y-16604500D01*
X19069643Y-16547357D01*
X19055357Y-16475929D01*
X19041071Y-16433071D01*
X19026786Y-16404500D01*
X18998214Y-16361643D01*
X18983928Y-16347357D01*
X12482856Y-16985856D02*
X12482856Y-16915144D01*
X12412144Y-16915144D01*
X12412144Y-16985856D01*
X12482856Y-16985856D01*
X12941071Y-17086214D02*
X12769643Y-17086214D01*
X12855357Y-17086214D02*
X12855357Y-16786214D01*
X12826786Y-16829072D01*
X12798214Y-16857643D01*
X12769643Y-16871929D01*
X13069643Y-17057643D02*
X13083928Y-17071929D01*
X13069643Y-17086214D01*
X13055357Y-17071929D01*
X13069643Y-17057643D01*
X13069643Y-17086214D01*
X13269643Y-16786214D02*
X13298214Y-16786214D01*
X13326786Y-16800500D01*
X13341071Y-16814786D01*
X13355357Y-16843357D01*
X13369643Y-16900500D01*
X13369643Y-16971929D01*
X13355357Y-17029072D01*
X13341071Y-17057643D01*
X13326786Y-17071929D01*
X13298214Y-17086214D01*
X13269643Y-17086214D01*
X13241071Y-17071929D01*
X13226786Y-17057643D01*
X13212500Y-17029072D01*
X13198214Y-16971929D01*
X13198214Y-16900500D01*
X13212500Y-16843357D01*
X13226786Y-16814786D01*
X13241071Y-16800500D01*
X13269643Y-16786214D01*
X13555357Y-16786214D02*
X13583928Y-16786214D01*
X13612500Y-16800500D01*
X13626786Y-16814786D01*
X13641071Y-16843357D01*
X13655357Y-16900500D01*
X13655357Y-16971929D01*
X13641071Y-17029072D01*
X13626786Y-17057643D01*
X13612500Y-17071929D01*
X13583928Y-17086214D01*
X13555357Y-17086214D01*
X13526786Y-17071929D01*
X13512500Y-17057643D01*
X13498214Y-17029072D01*
X13483928Y-16971929D01*
X13483928Y-16900500D01*
X13498214Y-16843357D01*
X13512500Y-16814786D01*
X13526786Y-16800500D01*
X13555357Y-16786214D01*
X13783928Y-17086214D02*
X13783928Y-16886214D01*
X13783928Y-16914786D02*
X13798214Y-16900500D01*
X13826786Y-16886214D01*
X13869643Y-16886214D01*
X13898214Y-16900500D01*
X13912500Y-16929072D01*
X13912500Y-17086214D01*
X13912500Y-16929072D02*
X13926786Y-16900500D01*
X13955357Y-16886214D01*
X13998214Y-16886214D01*
X14026786Y-16900500D01*
X14041071Y-16929072D01*
X14041071Y-17086214D01*
X14183928Y-17086214D02*
X14183928Y-16886214D01*
X14183928Y-16914786D02*
X14198214Y-16900500D01*
X14226786Y-16886214D01*
X14269643Y-16886214D01*
X14298214Y-16900500D01*
X14312500Y-16929072D01*
X14312500Y-17086214D01*
X14312500Y-16929072D02*
X14326786Y-16900500D01*
X14355357Y-16886214D01*
X14398214Y-16886214D01*
X14426786Y-16900500D01*
X14441071Y-16929072D01*
X14441071Y-17086214D01*
X15026786Y-16771929D02*
X14769643Y-17157643D01*
X15412500Y-16786214D02*
X15441071Y-16786214D01*
X15469643Y-16800500D01*
X15483928Y-16814786D01*
X15498214Y-16843357D01*
X15512500Y-16900500D01*
X15512500Y-16971929D01*
X15498214Y-17029072D01*
X15483928Y-17057643D01*
X15469643Y-17071929D01*
X15441071Y-17086214D01*
X15412500Y-17086214D01*
X15383928Y-17071929D01*
X15369643Y-17057643D01*
X15355357Y-17029072D01*
X15341071Y-16971929D01*
X15341071Y-16900500D01*
X15355357Y-16843357D01*
X15369643Y-16814786D01*
X15383928Y-16800500D01*
X15412500Y-16786214D01*
X15641071Y-17057643D02*
X15655357Y-17071929D01*
X15641071Y-17086214D01*
X15626786Y-17071929D01*
X15641071Y-17057643D01*
X15641071Y-17086214D01*
X15841071Y-16786214D02*
X15869643Y-16786214D01*
X15898214Y-16800500D01*
X15912500Y-16814786D01*
X15926786Y-16843357D01*
X15941071Y-16900500D01*
X15941071Y-16971929D01*
X15926786Y-17029072D01*
X15912500Y-17057643D01*
X15898214Y-17071929D01*
X15869643Y-17086214D01*
X15841071Y-17086214D01*
X15812500Y-17071929D01*
X15798214Y-17057643D01*
X15783928Y-17029072D01*
X15769643Y-16971929D01*
X15769643Y-16900500D01*
X15783928Y-16843357D01*
X15798214Y-16814786D01*
X15812500Y-16800500D01*
X15841071Y-16786214D01*
X16041071Y-16786214D02*
X16226786Y-16786214D01*
X16126786Y-16900500D01*
X16169643Y-16900500D01*
X16198214Y-16914786D01*
X16212500Y-16929072D01*
X16226786Y-16957643D01*
X16226786Y-17029072D01*
X16212500Y-17057643D01*
X16198214Y-17071929D01*
X16169643Y-17086214D01*
X16083928Y-17086214D01*
X16055357Y-17071929D01*
X16041071Y-17057643D01*
X16369643Y-17086214D02*
X16426786Y-17086214D01*
X16455357Y-17071929D01*
X16469643Y-17057643D01*
X16498214Y-17014786D01*
X16512500Y-16957643D01*
X16512500Y-16843357D01*
X16498214Y-16814786D01*
X16483928Y-16800500D01*
X16455357Y-16786214D01*
X16398214Y-16786214D01*
X16369643Y-16800500D01*
X16355357Y-16814786D01*
X16341071Y-16843357D01*
X16341071Y-16914786D01*
X16355357Y-16943357D01*
X16369643Y-16957643D01*
X16398214Y-16971929D01*
X16455357Y-16971929D01*
X16483928Y-16957643D01*
X16498214Y-16943357D01*
X16512500Y-16914786D01*
X16626786Y-16786214D02*
X16626786Y-16843357D01*
X16741071Y-16786214D02*
X16741071Y-16843357D01*
X17183928Y-17200500D02*
X17169643Y-17186214D01*
X17141071Y-17143357D01*
X17126786Y-17114786D01*
X17112500Y-17071929D01*
X17098214Y-17000500D01*
X17098214Y-16943357D01*
X17112500Y-16871929D01*
X17126786Y-16829072D01*
X17141071Y-16800500D01*
X17169643Y-16757643D01*
X17183928Y-16743357D01*
X17283928Y-16814786D02*
X17298214Y-16800500D01*
X17326786Y-16786214D01*
X17398214Y-16786214D01*
X17426786Y-16800500D01*
X17441071Y-16814786D01*
X17455357Y-16843357D01*
X17455357Y-16871929D01*
X17441071Y-16914786D01*
X17269643Y-17086214D01*
X17455357Y-17086214D01*
X17555357Y-16786214D02*
X17755357Y-16786214D01*
X17626786Y-17086214D01*
X18098214Y-17086214D02*
X18098214Y-16786214D01*
X18226786Y-17086214D02*
X18226786Y-16929072D01*
X18212500Y-16900500D01*
X18183928Y-16886214D01*
X18141071Y-16886214D01*
X18112500Y-16900500D01*
X18098214Y-16914786D01*
X18412500Y-17086214D02*
X18383928Y-17071929D01*
X18369643Y-17057643D01*
X18355357Y-17029072D01*
X18355357Y-16943357D01*
X18369643Y-16914786D01*
X18383928Y-16900500D01*
X18412500Y-16886214D01*
X18455357Y-16886214D01*
X18483928Y-16900500D01*
X18498214Y-16914786D01*
X18512500Y-16943357D01*
X18512500Y-17029072D01*
X18498214Y-17057643D01*
X18483928Y-17071929D01*
X18455357Y-17086214D01*
X18412500Y-17086214D01*
X18683928Y-17086214D02*
X18655357Y-17071929D01*
X18641071Y-17043357D01*
X18641071Y-16786214D01*
X18912500Y-17071929D02*
X18883928Y-17086214D01*
X18826786Y-17086214D01*
X18798214Y-17071929D01*
X18783928Y-17043357D01*
X18783928Y-16929072D01*
X18798214Y-16900500D01*
X18826786Y-16886214D01*
X18883928Y-16886214D01*
X18912500Y-16900500D01*
X18926786Y-16929072D01*
X18926786Y-16957643D01*
X18783928Y-16986214D01*
X19041071Y-17071929D02*
X19069643Y-17086214D01*
X19126786Y-17086214D01*
X19155357Y-17071929D01*
X19169643Y-17043357D01*
X19169643Y-17029072D01*
X19155357Y-17000500D01*
X19126786Y-16986214D01*
X19083928Y-16986214D01*
X19055357Y-16971929D01*
X19041071Y-16943357D01*
X19041071Y-16929072D01*
X19055357Y-16900500D01*
X19083928Y-16886214D01*
X19126786Y-16886214D01*
X19155357Y-16900500D01*
X19269643Y-17200500D02*
X19283928Y-17186214D01*
X19312500Y-17143357D01*
X19326786Y-17114786D01*
X19341071Y-17071929D01*
X19355357Y-17000500D01*
X19355357Y-16943357D01*
X19341071Y-16871929D01*
X19326786Y-16829072D01*
X19312500Y-16800500D01*
X19283928Y-16757643D01*
X19269643Y-16743357D01*
X12446700Y-17397300D02*
X12497500Y-17346500D01*
X12446700Y-17295700D01*
X12395900Y-17346500D01*
X12446700Y-17397300D01*
X12941071Y-17482214D02*
X12769643Y-17482214D01*
X12855357Y-17482214D02*
X12855357Y-17182214D01*
X12826786Y-17225072D01*
X12798214Y-17253643D01*
X12769643Y-17267929D01*
X13069643Y-17453643D02*
X13083928Y-17467929D01*
X13069643Y-17482214D01*
X13055357Y-17467929D01*
X13069643Y-17453643D01*
X13069643Y-17482214D01*
X13269643Y-17182214D02*
X13298214Y-17182214D01*
X13326786Y-17196500D01*
X13341071Y-17210786D01*
X13355357Y-17239357D01*
X13369643Y-17296500D01*
X13369643Y-17367929D01*
X13355357Y-17425072D01*
X13341071Y-17453643D01*
X13326786Y-17467929D01*
X13298214Y-17482214D01*
X13269643Y-17482214D01*
X13241071Y-17467929D01*
X13226786Y-17453643D01*
X13212500Y-17425072D01*
X13198214Y-17367929D01*
X13198214Y-17296500D01*
X13212500Y-17239357D01*
X13226786Y-17210786D01*
X13241071Y-17196500D01*
X13269643Y-17182214D01*
X13483928Y-17210786D02*
X13498214Y-17196500D01*
X13526786Y-17182214D01*
X13598214Y-17182214D01*
X13626786Y-17196500D01*
X13641071Y-17210786D01*
X13655357Y-17239357D01*
X13655357Y-17267929D01*
X13641071Y-17310786D01*
X13469643Y-17482214D01*
X13655357Y-17482214D01*
X13783928Y-17482214D02*
X13783928Y-17282214D01*
X13783928Y-17310786D02*
X13798214Y-17296500D01*
X13826786Y-17282214D01*
X13869643Y-17282214D01*
X13898214Y-17296500D01*
X13912500Y-17325072D01*
X13912500Y-17482214D01*
X13912500Y-17325072D02*
X13926786Y-17296500D01*
X13955357Y-17282214D01*
X13998214Y-17282214D01*
X14026786Y-17296500D01*
X14041071Y-17325072D01*
X14041071Y-17482214D01*
X14183928Y-17482214D02*
X14183928Y-17282214D01*
X14183928Y-17310786D02*
X14198214Y-17296500D01*
X14226786Y-17282214D01*
X14269643Y-17282214D01*
X14298214Y-17296500D01*
X14312500Y-17325072D01*
X14312500Y-17482214D01*
X14312500Y-17325072D02*
X14326786Y-17296500D01*
X14355357Y-17282214D01*
X14398214Y-17282214D01*
X14426786Y-17296500D01*
X14441071Y-17325072D01*
X14441071Y-17482214D01*
X15026786Y-17167929D02*
X14769643Y-17553643D01*
X15412500Y-17182214D02*
X15441071Y-17182214D01*
X15469643Y-17196500D01*
X15483928Y-17210786D01*
X15498214Y-17239357D01*
X15512500Y-17296500D01*
X15512500Y-17367929D01*
X15498214Y-17425072D01*
X15483928Y-17453643D01*
X15469643Y-17467929D01*
X15441071Y-17482214D01*
X15412500Y-17482214D01*
X15383928Y-17467929D01*
X15369643Y-17453643D01*
X15355357Y-17425072D01*
X15341071Y-17367929D01*
X15341071Y-17296500D01*
X15355357Y-17239357D01*
X15369643Y-17210786D01*
X15383928Y-17196500D01*
X15412500Y-17182214D01*
X15641071Y-17453643D02*
X15655357Y-17467929D01*
X15641071Y-17482214D01*
X15626786Y-17467929D01*
X15641071Y-17453643D01*
X15641071Y-17482214D01*
X15841071Y-17182214D02*
X15869643Y-17182214D01*
X15898214Y-17196500D01*
X15912500Y-17210786D01*
X15926786Y-17239357D01*
X15941071Y-17296500D01*
X15941071Y-17367929D01*
X15926786Y-17425072D01*
X15912500Y-17453643D01*
X15898214Y-17467929D01*
X15869643Y-17482214D01*
X15841071Y-17482214D01*
X15812500Y-17467929D01*
X15798214Y-17453643D01*
X15783928Y-17425072D01*
X15769643Y-17367929D01*
X15769643Y-17296500D01*
X15783928Y-17239357D01*
X15798214Y-17210786D01*
X15812500Y-17196500D01*
X15841071Y-17182214D01*
X16198214Y-17282214D02*
X16198214Y-17482214D01*
X16126786Y-17167929D02*
X16055357Y-17382214D01*
X16241071Y-17382214D01*
X16412500Y-17182214D02*
X16441071Y-17182214D01*
X16469643Y-17196500D01*
X16483928Y-17210786D01*
X16498214Y-17239357D01*
X16512500Y-17296500D01*
X16512500Y-17367929D01*
X16498214Y-17425072D01*
X16483928Y-17453643D01*
X16469643Y-17467929D01*
X16441071Y-17482214D01*
X16412500Y-17482214D01*
X16383928Y-17467929D01*
X16369643Y-17453643D01*
X16355357Y-17425072D01*
X16341071Y-17367929D01*
X16341071Y-17296500D01*
X16355357Y-17239357D01*
X16369643Y-17210786D01*
X16383928Y-17196500D01*
X16412500Y-17182214D01*
X16626786Y-17182214D02*
X16626786Y-17239357D01*
X16741071Y-17182214D02*
X16741071Y-17239357D01*
X17183928Y-17596500D02*
X17169643Y-17582214D01*
X17141071Y-17539357D01*
X17126786Y-17510786D01*
X17112500Y-17467929D01*
X17098214Y-17396500D01*
X17098214Y-17339357D01*
X17112500Y-17267929D01*
X17126786Y-17225072D01*
X17141071Y-17196500D01*
X17169643Y-17153643D01*
X17183928Y-17139357D01*
X17341071Y-17310786D02*
X17312500Y-17296500D01*
X17298214Y-17282214D01*
X17283928Y-17253643D01*
X17283928Y-17239357D01*
X17298214Y-17210786D01*
X17312500Y-17196500D01*
X17341071Y-17182214D01*
X17398214Y-17182214D01*
X17426786Y-17196500D01*
X17441071Y-17210786D01*
X17455357Y-17239357D01*
X17455357Y-17253643D01*
X17441071Y-17282214D01*
X17426786Y-17296500D01*
X17398214Y-17310786D01*
X17341071Y-17310786D01*
X17312500Y-17325072D01*
X17298214Y-17339357D01*
X17283928Y-17367929D01*
X17283928Y-17425072D01*
X17298214Y-17453643D01*
X17312500Y-17467929D01*
X17341071Y-17482214D01*
X17398214Y-17482214D01*
X17426786Y-17467929D01*
X17441071Y-17453643D01*
X17455357Y-17425072D01*
X17455357Y-17367929D01*
X17441071Y-17339357D01*
X17426786Y-17325072D01*
X17398214Y-17310786D01*
X17812500Y-17482214D02*
X17812500Y-17182214D01*
X17941071Y-17482214D02*
X17941071Y-17325072D01*
X17926786Y-17296500D01*
X17898214Y-17282214D01*
X17855357Y-17282214D01*
X17826786Y-17296500D01*
X17812500Y-17310786D01*
X18126786Y-17482214D02*
X18098214Y-17467929D01*
X18083928Y-17453643D01*
X18069643Y-17425072D01*
X18069643Y-17339357D01*
X18083928Y-17310786D01*
X18098214Y-17296500D01*
X18126786Y-17282214D01*
X18169643Y-17282214D01*
X18198214Y-17296500D01*
X18212500Y-17310786D01*
X18226786Y-17339357D01*
X18226786Y-17425072D01*
X18212500Y-17453643D01*
X18198214Y-17467929D01*
X18169643Y-17482214D01*
X18126786Y-17482214D01*
X18398214Y-17482214D02*
X18369643Y-17467929D01*
X18355357Y-17439357D01*
X18355357Y-17182214D01*
X18626786Y-17467929D02*
X18598214Y-17482214D01*
X18541071Y-17482214D01*
X18512500Y-17467929D01*
X18498214Y-17439357D01*
X18498214Y-17325072D01*
X18512500Y-17296500D01*
X18541071Y-17282214D01*
X18598214Y-17282214D01*
X18626786Y-17296500D01*
X18641071Y-17325072D01*
X18641071Y-17353643D01*
X18498214Y-17382214D01*
X18755357Y-17467929D02*
X18783928Y-17482214D01*
X18841071Y-17482214D01*
X18869643Y-17467929D01*
X18883928Y-17439357D01*
X18883928Y-17425072D01*
X18869643Y-17396500D01*
X18841071Y-17382214D01*
X18798214Y-17382214D01*
X18769643Y-17367929D01*
X18755357Y-17339357D01*
X18755357Y-17325072D01*
X18769643Y-17296500D01*
X18798214Y-17282214D01*
X18841071Y-17282214D01*
X18869643Y-17296500D01*
X18983928Y-17596500D02*
X18998214Y-17582214D01*
X19026786Y-17539357D01*
X19041071Y-17510786D01*
X19055357Y-17467929D01*
X19069643Y-17396500D01*
X19069643Y-17339357D01*
X19055357Y-17267929D01*
X19041071Y-17225072D01*
X19026786Y-17196500D01*
X18998214Y-17153643D01*
X18983928Y-17139357D01*
X12387500Y-17687500D02*
X12497500Y-17797500D01*
X12497500Y-17687500D02*
X12387500Y-17797500D01*
X12497500Y-17742500D02*
G75*
G03X12497500Y-17742500I-55000J0D01*
G01*
X12941071Y-17878214D02*
X12769643Y-17878214D01*
X12855357Y-17878214D02*
X12855357Y-17578214D01*
X12826786Y-17621072D01*
X12798214Y-17649643D01*
X12769643Y-17663929D01*
X13069643Y-17849643D02*
X13083928Y-17863929D01*
X13069643Y-17878214D01*
X13055357Y-17863929D01*
X13069643Y-17849643D01*
X13069643Y-17878214D01*
X13369643Y-17878214D02*
X13198214Y-17878214D01*
X13283928Y-17878214D02*
X13283928Y-17578214D01*
X13255357Y-17621072D01*
X13226786Y-17649643D01*
X13198214Y-17663929D01*
X13555357Y-17578214D02*
X13583928Y-17578214D01*
X13612500Y-17592500D01*
X13626786Y-17606786D01*
X13641071Y-17635357D01*
X13655357Y-17692500D01*
X13655357Y-17763929D01*
X13641071Y-17821072D01*
X13626786Y-17849643D01*
X13612500Y-17863929D01*
X13583928Y-17878214D01*
X13555357Y-17878214D01*
X13526786Y-17863929D01*
X13512500Y-17849643D01*
X13498214Y-17821072D01*
X13483928Y-17763929D01*
X13483928Y-17692500D01*
X13498214Y-17635357D01*
X13512500Y-17606786D01*
X13526786Y-17592500D01*
X13555357Y-17578214D01*
X13783928Y-17878214D02*
X13783928Y-17678214D01*
X13783928Y-17706786D02*
X13798214Y-17692500D01*
X13826786Y-17678214D01*
X13869643Y-17678214D01*
X13898214Y-17692500D01*
X13912500Y-17721072D01*
X13912500Y-17878214D01*
X13912500Y-17721072D02*
X13926786Y-17692500D01*
X13955357Y-17678214D01*
X13998214Y-17678214D01*
X14026786Y-17692500D01*
X14041071Y-17721072D01*
X14041071Y-17878214D01*
X14183928Y-17878214D02*
X14183928Y-17678214D01*
X14183928Y-17706786D02*
X14198214Y-17692500D01*
X14226786Y-17678214D01*
X14269643Y-17678214D01*
X14298214Y-17692500D01*
X14312500Y-17721072D01*
X14312500Y-17878214D01*
X14312500Y-17721072D02*
X14326786Y-17692500D01*
X14355357Y-17678214D01*
X14398214Y-17678214D01*
X14426786Y-17692500D01*
X14441071Y-17721072D01*
X14441071Y-17878214D01*
X15026786Y-17563929D02*
X14769643Y-17949643D01*
X15412500Y-17578214D02*
X15441071Y-17578214D01*
X15469643Y-17592500D01*
X15483928Y-17606786D01*
X15498214Y-17635357D01*
X15512500Y-17692500D01*
X15512500Y-17763929D01*
X15498214Y-17821072D01*
X15483928Y-17849643D01*
X15469643Y-17863929D01*
X15441071Y-17878214D01*
X15412500Y-17878214D01*
X15383928Y-17863929D01*
X15369643Y-17849643D01*
X15355357Y-17821072D01*
X15341071Y-17763929D01*
X15341071Y-17692500D01*
X15355357Y-17635357D01*
X15369643Y-17606786D01*
X15383928Y-17592500D01*
X15412500Y-17578214D01*
X15641071Y-17849643D02*
X15655357Y-17863929D01*
X15641071Y-17878214D01*
X15626786Y-17863929D01*
X15641071Y-17849643D01*
X15641071Y-17878214D01*
X15841071Y-17578214D02*
X15869643Y-17578214D01*
X15898214Y-17592500D01*
X15912500Y-17606786D01*
X15926786Y-17635357D01*
X15941071Y-17692500D01*
X15941071Y-17763929D01*
X15926786Y-17821072D01*
X15912500Y-17849643D01*
X15898214Y-17863929D01*
X15869643Y-17878214D01*
X15841071Y-17878214D01*
X15812500Y-17863929D01*
X15798214Y-17849643D01*
X15783928Y-17821072D01*
X15769643Y-17763929D01*
X15769643Y-17692500D01*
X15783928Y-17635357D01*
X15798214Y-17606786D01*
X15812500Y-17592500D01*
X15841071Y-17578214D01*
X16198214Y-17678214D02*
X16198214Y-17878214D01*
X16126786Y-17563929D02*
X16055357Y-17778214D01*
X16241071Y-17778214D01*
X16326786Y-17578214D02*
X16512500Y-17578214D01*
X16412500Y-17692500D01*
X16455357Y-17692500D01*
X16483928Y-17706786D01*
X16498214Y-17721072D01*
X16512500Y-17749643D01*
X16512500Y-17821072D01*
X16498214Y-17849643D01*
X16483928Y-17863929D01*
X16455357Y-17878214D01*
X16369643Y-17878214D01*
X16341071Y-17863929D01*
X16326786Y-17849643D01*
X16626786Y-17578214D02*
X16626786Y-17635357D01*
X16741071Y-17578214D02*
X16741071Y-17635357D01*
X17183928Y-17992500D02*
X17169643Y-17978214D01*
X17141071Y-17935357D01*
X17126786Y-17906786D01*
X17112500Y-17863929D01*
X17098214Y-17792500D01*
X17098214Y-17735357D01*
X17112500Y-17663929D01*
X17126786Y-17621072D01*
X17141071Y-17592500D01*
X17169643Y-17549643D01*
X17183928Y-17535357D01*
X17455357Y-17878214D02*
X17283928Y-17878214D01*
X17369643Y-17878214D02*
X17369643Y-17578214D01*
X17341071Y-17621072D01*
X17312500Y-17649643D01*
X17283928Y-17663929D01*
X17741071Y-17878214D02*
X17569643Y-17878214D01*
X17655357Y-17878214D02*
X17655357Y-17578214D01*
X17626786Y-17621072D01*
X17598214Y-17649643D01*
X17569643Y-17663929D01*
X17998214Y-17578214D02*
X17941071Y-17578214D01*
X17912500Y-17592500D01*
X17898214Y-17606786D01*
X17869643Y-17649643D01*
X17855357Y-17706786D01*
X17855357Y-17821072D01*
X17869643Y-17849643D01*
X17883928Y-17863929D01*
X17912500Y-17878214D01*
X17969643Y-17878214D01*
X17998214Y-17863929D01*
X18012500Y-17849643D01*
X18026786Y-17821072D01*
X18026786Y-17749643D01*
X18012500Y-17721072D01*
X17998214Y-17706786D01*
X17969643Y-17692500D01*
X17912500Y-17692500D01*
X17883928Y-17706786D01*
X17869643Y-17721072D01*
X17855357Y-17749643D01*
X18383928Y-17878214D02*
X18383928Y-17578214D01*
X18512500Y-17878214D02*
X18512500Y-17721072D01*
X18498214Y-17692500D01*
X18469643Y-17678214D01*
X18426786Y-17678214D01*
X18398214Y-17692500D01*
X18383928Y-17706786D01*
X18698214Y-17878214D02*
X18669643Y-17863929D01*
X18655357Y-17849643D01*
X18641071Y-17821072D01*
X18641071Y-17735357D01*
X18655357Y-17706786D01*
X18669643Y-17692500D01*
X18698214Y-17678214D01*
X18741071Y-17678214D01*
X18769643Y-17692500D01*
X18783928Y-17706786D01*
X18798214Y-17735357D01*
X18798214Y-17821072D01*
X18783928Y-17849643D01*
X18769643Y-17863929D01*
X18741071Y-17878214D01*
X18698214Y-17878214D01*
X18969643Y-17878214D02*
X18941071Y-17863929D01*
X18926786Y-17835357D01*
X18926786Y-17578214D01*
X19198214Y-17863929D02*
X19169643Y-17878214D01*
X19112500Y-17878214D01*
X19083928Y-17863929D01*
X19069643Y-17835357D01*
X19069643Y-17721072D01*
X19083928Y-17692500D01*
X19112500Y-17678214D01*
X19169643Y-17678214D01*
X19198214Y-17692500D01*
X19212500Y-17721072D01*
X19212500Y-17749643D01*
X19069643Y-17778214D01*
X19326786Y-17863929D02*
X19355357Y-17878214D01*
X19412500Y-17878214D01*
X19441071Y-17863929D01*
X19455357Y-17835357D01*
X19455357Y-17821072D01*
X19441071Y-17792500D01*
X19412500Y-17778214D01*
X19369643Y-17778214D01*
X19341071Y-17763929D01*
X19326786Y-17735357D01*
X19326786Y-17721072D01*
X19341071Y-17692500D01*
X19369643Y-17678214D01*
X19412500Y-17678214D01*
X19441071Y-17692500D01*
X19555357Y-17992500D02*
X19569643Y-17978214D01*
X19598214Y-17935357D01*
X19612500Y-17906786D01*
X19626786Y-17863929D01*
X19641071Y-17792500D01*
X19641071Y-17735357D01*
X19626786Y-17663929D01*
X19612500Y-17621072D01*
X19598214Y-17592500D01*
X19569643Y-17549643D01*
X19555357Y-17535357D01*
X12179500Y-17979500D02*
X12497500Y-18297500D01*
X12497500Y-17979500D02*
X12179500Y-18297500D01*
X12338500Y-17979500D02*
X12338500Y-18297500D01*
X12179500Y-18138500D02*
X12497500Y-18138500D01*
X12755357Y-17974214D02*
X12941071Y-17974214D01*
X12841071Y-18088500D01*
X12883928Y-18088500D01*
X12912500Y-18102786D01*
X12926786Y-18117072D01*
X12941071Y-18145643D01*
X12941071Y-18217072D01*
X12926786Y-18245643D01*
X12912500Y-18259929D01*
X12883928Y-18274214D01*
X12798214Y-18274214D01*
X12769643Y-18259929D01*
X12755357Y-18245643D01*
X13069643Y-18245643D02*
X13083928Y-18259929D01*
X13069643Y-18274214D01*
X13055357Y-18259929D01*
X13069643Y-18245643D01*
X13069643Y-18274214D01*
X13369643Y-18274214D02*
X13198214Y-18274214D01*
X13283928Y-18274214D02*
X13283928Y-17974214D01*
X13255357Y-18017072D01*
X13226786Y-18045643D01*
X13198214Y-18059929D01*
X13541071Y-18102786D02*
X13512500Y-18088500D01*
X13498214Y-18074214D01*
X13483928Y-18045643D01*
X13483928Y-18031357D01*
X13498214Y-18002786D01*
X13512500Y-17988500D01*
X13541071Y-17974214D01*
X13598214Y-17974214D01*
X13626786Y-17988500D01*
X13641071Y-18002786D01*
X13655357Y-18031357D01*
X13655357Y-18045643D01*
X13641071Y-18074214D01*
X13626786Y-18088500D01*
X13598214Y-18102786D01*
X13541071Y-18102786D01*
X13512500Y-18117072D01*
X13498214Y-18131357D01*
X13483928Y-18159929D01*
X13483928Y-18217072D01*
X13498214Y-18245643D01*
X13512500Y-18259929D01*
X13541071Y-18274214D01*
X13598214Y-18274214D01*
X13626786Y-18259929D01*
X13641071Y-18245643D01*
X13655357Y-18217072D01*
X13655357Y-18159929D01*
X13641071Y-18131357D01*
X13626786Y-18117072D01*
X13598214Y-18102786D01*
X13783928Y-18274214D02*
X13783928Y-18074214D01*
X13783928Y-18102786D02*
X13798214Y-18088500D01*
X13826786Y-18074214D01*
X13869643Y-18074214D01*
X13898214Y-18088500D01*
X13912500Y-18117072D01*
X13912500Y-18274214D01*
X13912500Y-18117072D02*
X13926786Y-18088500D01*
X13955357Y-18074214D01*
X13998214Y-18074214D01*
X14026786Y-18088500D01*
X14041071Y-18117072D01*
X14041071Y-18274214D01*
X14183928Y-18274214D02*
X14183928Y-18074214D01*
X14183928Y-18102786D02*
X14198214Y-18088500D01*
X14226786Y-18074214D01*
X14269643Y-18074214D01*
X14298214Y-18088500D01*
X14312500Y-18117072D01*
X14312500Y-18274214D01*
X14312500Y-18117072D02*
X14326786Y-18088500D01*
X14355357Y-18074214D01*
X14398214Y-18074214D01*
X14426786Y-18088500D01*
X14441071Y-18117072D01*
X14441071Y-18274214D01*
X15026786Y-17959929D02*
X14769643Y-18345643D01*
X15412500Y-17974214D02*
X15441071Y-17974214D01*
X15469643Y-17988500D01*
X15483928Y-18002786D01*
X15498214Y-18031357D01*
X15512500Y-18088500D01*
X15512500Y-18159929D01*
X15498214Y-18217072D01*
X15483928Y-18245643D01*
X15469643Y-18259929D01*
X15441071Y-18274214D01*
X15412500Y-18274214D01*
X15383928Y-18259929D01*
X15369643Y-18245643D01*
X15355357Y-18217072D01*
X15341071Y-18159929D01*
X15341071Y-18088500D01*
X15355357Y-18031357D01*
X15369643Y-18002786D01*
X15383928Y-17988500D01*
X15412500Y-17974214D01*
X15641071Y-18245643D02*
X15655357Y-18259929D01*
X15641071Y-18274214D01*
X15626786Y-18259929D01*
X15641071Y-18245643D01*
X15641071Y-18274214D01*
X15941071Y-18274214D02*
X15769643Y-18274214D01*
X15855357Y-18274214D02*
X15855357Y-17974214D01*
X15826786Y-18017072D01*
X15798214Y-18045643D01*
X15769643Y-18059929D01*
X16055357Y-18002786D02*
X16069643Y-17988500D01*
X16098214Y-17974214D01*
X16169643Y-17974214D01*
X16198214Y-17988500D01*
X16212500Y-18002786D01*
X16226786Y-18031357D01*
X16226786Y-18059929D01*
X16212500Y-18102786D01*
X16041071Y-18274214D01*
X16226786Y-18274214D01*
X16498214Y-17974214D02*
X16355357Y-17974214D01*
X16341071Y-18117072D01*
X16355357Y-18102786D01*
X16383928Y-18088500D01*
X16455357Y-18088500D01*
X16483928Y-18102786D01*
X16498214Y-18117072D01*
X16512500Y-18145643D01*
X16512500Y-18217072D01*
X16498214Y-18245643D01*
X16483928Y-18259929D01*
X16455357Y-18274214D01*
X16383928Y-18274214D01*
X16355357Y-18259929D01*
X16341071Y-18245643D01*
X16626786Y-17974214D02*
X16626786Y-18031357D01*
X16741071Y-17974214D02*
X16741071Y-18031357D01*
X17183928Y-18388500D02*
X17169643Y-18374214D01*
X17141071Y-18331357D01*
X17126786Y-18302786D01*
X17112500Y-18259929D01*
X17098214Y-18188500D01*
X17098214Y-18131357D01*
X17112500Y-18059929D01*
X17126786Y-18017072D01*
X17141071Y-17988500D01*
X17169643Y-17945643D01*
X17183928Y-17931357D01*
X17426786Y-18074214D02*
X17426786Y-18274214D01*
X17355357Y-17959929D02*
X17283928Y-18174214D01*
X17469643Y-18174214D01*
X17812500Y-18274214D02*
X17812500Y-17974214D01*
X17941071Y-18274214D02*
X17941071Y-18117072D01*
X17926786Y-18088500D01*
X17898214Y-18074214D01*
X17855357Y-18074214D01*
X17826786Y-18088500D01*
X17812500Y-18102786D01*
X18126786Y-18274214D02*
X18098214Y-18259929D01*
X18083928Y-18245643D01*
X18069643Y-18217072D01*
X18069643Y-18131357D01*
X18083928Y-18102786D01*
X18098214Y-18088500D01*
X18126786Y-18074214D01*
X18169643Y-18074214D01*
X18198214Y-18088500D01*
X18212500Y-18102786D01*
X18226786Y-18131357D01*
X18226786Y-18217072D01*
X18212500Y-18245643D01*
X18198214Y-18259929D01*
X18169643Y-18274214D01*
X18126786Y-18274214D01*
X18398214Y-18274214D02*
X18369643Y-18259929D01*
X18355357Y-18231357D01*
X18355357Y-17974214D01*
X18626786Y-18259929D02*
X18598214Y-18274214D01*
X18541071Y-18274214D01*
X18512500Y-18259929D01*
X18498214Y-18231357D01*
X18498214Y-18117072D01*
X18512500Y-18088500D01*
X18541071Y-18074214D01*
X18598214Y-18074214D01*
X18626786Y-18088500D01*
X18641071Y-18117072D01*
X18641071Y-18145643D01*
X18498214Y-18174214D01*
X18755357Y-18259929D02*
X18783928Y-18274214D01*
X18841071Y-18274214D01*
X18869643Y-18259929D01*
X18883928Y-18231357D01*
X18883928Y-18217072D01*
X18869643Y-18188500D01*
X18841071Y-18174214D01*
X18798214Y-18174214D01*
X18769643Y-18159929D01*
X18755357Y-18131357D01*
X18755357Y-18117072D01*
X18769643Y-18088500D01*
X18798214Y-18074214D01*
X18841071Y-18074214D01*
X18869643Y-18088500D01*
X18983928Y-18388500D02*
X18998214Y-18374214D01*
X19026786Y-18331357D01*
X19041071Y-18302786D01*
X19055357Y-18259929D01*
X19069643Y-18188500D01*
X19069643Y-18131357D01*
X19055357Y-18059929D01*
X19041071Y-18017072D01*
X19026786Y-17988500D01*
X18998214Y-17945643D01*
X18983928Y-17931357D01*
M02*
