M48
; DRILL file {KiCad (5.1.2)-2} date 11/23/2020 21:19:46
; FORMAT={-:-/ absolute / inch / decimal}
; #@! TF.CreationDate,2020-11-23T21:19:46+02:00
; #@! TF.GenerationSoftware,Kicad,Pcbnew,(5.1.2)-2
; #@! TF.FileFunction,Plated,1,2,PTH
FMAT,2
INCH
T1C0.0157
T2C0.0315
T3C0.0354
T4C0.0394
T5C0.0400
T6C0.0433
T7C0.1252
%
G90
G05
T1
X5.12Y-5.14
X5.475Y-4.37
X5.565Y-4.615
X5.57Y-4.72
X5.5963Y-4.9718
X5.6263Y-4.8868
X5.6588Y-4.9543
X5.6888Y-4.7793
X5.795Y-5.245
X5.795Y-5.335
X5.9369Y-4.1074
X6.1313Y-4.1518
X6.145Y-4.97
X6.1563Y-4.3568
X6.2013Y-4.8368
X6.2163Y-2.5018
X6.2163Y-3.7018
X6.2313Y-4.3568
X6.2413Y-5.1818
X6.264Y-3.5518
X6.2813Y-5.2218
X6.285Y-4.895
X6.285Y-5.135
X6.2863Y-4.8368
X6.3063Y-4.3568
X6.3313Y-4.1618
X6.3463Y-3.4268
X6.385Y-5.15
X6.4718Y-3.5518
X6.4818Y-3.5018
X6.5263Y-4.1518
X6.5413Y-4.3868
X6.5463Y-4.6968
X6.5713Y-4.7318
X6.5763Y-4.9868
X6.58Y-4.1772
X6.6074Y-4.3856
X6.61Y-5.1
X6.61Y-5.17
X6.6463Y-3.4268
X6.6513Y-4.9868
X6.6513Y-5.4313
X6.6863Y-4.4268
X6.69Y-5.1
X6.69Y-5.17
X6.6963Y-4.2068
X6.71Y-4.34
X6.7124Y-5.3456
X6.7213Y-3.4268
X6.7263Y-4.9868
X6.75Y-5.44
X6.7563Y-3.6718
X6.7563Y-3.7468
X6.7563Y-3.8218
X6.7963Y-3.4268
X6.82Y-4.34
X6.8313Y-3.6718
X6.8313Y-3.8218
X6.855Y-5.105
X6.8611Y-5.4411
X6.8713Y-3.4268
X6.8778Y-5.5495
X6.885Y-4.9925
X6.9045Y-5.1883
X6.9063Y-3.6718
X6.9063Y-3.7468
X6.9063Y-3.8218
X6.9311Y-5.2175
X6.94Y-4.98
X6.9463Y-3.4268
X6.9613Y-4.8368
X6.9875Y-5.2175
X7.0213Y-3.4268
X7.0263Y-4.8368
X7.0291Y-4.995
X7.0463Y-4.2368
X7.05Y-4.34
X7.0563Y-4.4218
X7.0963Y-3.4268
X7.0963Y-4.2768
X7.1124Y-4.3856
X7.13Y-5.2982
X7.15Y-4.2
X7.1613Y-4.3718
X7.1755Y-3.4515
X7.2863Y-3.9518
X7.2863Y-3.5018
X7.2863Y-3.5518
X7.2863Y-3.6018
X7.2863Y-3.6518
X7.2863Y-3.7018
X7.2863Y-3.8018
X7.2863Y-3.8518
X7.2863Y-3.9018
X7.2863Y-4.0068
X7.2863Y-4.0518
X7.33Y-2.77
X7.35Y-2.9
X7.4767Y-3.7443
X7.48Y-2.77
X7.7451Y-2.508
T2
X8.2763Y-4.8368
X8.5763Y-4.8368
T3
X7.9694Y-4.7552
X8.1663Y-4.6568
X8.1663Y-4.8536
T4
X7.2363Y-4.8518
X7.3363Y-4.8518
X7.4363Y-4.8518
X7.5363Y-4.8518
X5.7463Y-2.7218
X5.8463Y-2.7218
X5.9463Y-2.7218
X6.0463Y-2.7218
X6.5475Y-4.895
X6.6475Y-4.895
X6.7475Y-4.895
X7.9963Y-3.8218
X7.9963Y-3.9218
X7.9963Y-4.0218
X7.9963Y-4.1218
X7.9963Y-4.2218
X7.9963Y-4.3218
X7.9963Y-4.4218
X7.9963Y-4.5218
X8.1Y-2.72
X8.2Y-2.72
X8.3Y-2.72
X8.4Y-2.72
X7.6263Y-2.7218
X7.7263Y-2.7218
X7.8263Y-2.7218
X7.9263Y-2.7218
T5
X6.7213Y-2.6568
X6.7213Y-2.7568
X6.8213Y-2.6568
X6.8213Y-2.7568
X6.9213Y-2.6568
X6.9213Y-2.7568
X7.0213Y-2.6568
X7.0213Y-2.7568
T6
X6.3266Y-5.3683
X6.3266Y-5.6242
X6.5038Y-5.3683
X6.5038Y-5.6242
X7.694Y-5.3683
X7.694Y-5.6242
X7.8711Y-5.3683
X7.8711Y-5.6242
X7.2713Y-5.3683
X7.2713Y-5.6242
X7.4484Y-5.3683
X7.4484Y-5.6242
X5.0697Y-2.7868
X5.0697Y-2.8868
X5.0697Y-2.9868
X5.0697Y-3.0868
X5.0697Y-3.1868
X5.0697Y-3.2868
X5.0697Y-3.3868
X5.0697Y-3.4868
X5.0697Y-3.5868
X5.0697Y-3.6868
X5.0697Y-3.7868
X5.0697Y-3.8868
X5.0697Y-3.9868
X5.0697Y-4.0868
X5.0697Y-4.1868
X5.0697Y-4.2868
X5.0697Y-4.3868
X5.0697Y-4.4868
X5.0697Y-4.5868
X5.0697Y-4.6868
X5.0697Y-4.7868
X5.0697Y-4.8868
X5.0697Y-4.9868
X5.0697Y-5.0868
X5.0697Y-5.1868
X5.0697Y-5.2868
X5.1697Y-2.7868
X5.1697Y-2.8868
X5.1697Y-2.9868
X5.1697Y-3.0868
X5.1697Y-3.1868
X5.1697Y-3.2868
X5.1697Y-3.3868
X5.1697Y-3.4868
X5.1697Y-3.5868
X5.1697Y-3.6868
X5.1697Y-3.7868
X5.1697Y-3.8868
X5.1697Y-3.9868
X5.1697Y-4.0868
X5.1697Y-4.1868
X5.1697Y-4.2868
X5.1697Y-4.3868
X5.1697Y-4.4868
X5.1697Y-4.5868
X5.1697Y-4.6868
X5.1697Y-4.7868
X5.1697Y-4.8868
X5.1697Y-4.9868
X5.1697Y-5.0868
X5.1697Y-5.1868
X5.1697Y-5.2868
X5.2847Y-2.7868
X5.2847Y-2.8868
X5.2847Y-2.9868
X5.2847Y-3.0868
X5.2847Y-3.1868
X5.2847Y-3.2868
X5.2847Y-3.3868
X5.2847Y-3.4868
X5.2847Y-3.5868
X5.2847Y-3.6868
X5.2847Y-3.7868
X5.2847Y-3.8868
X5.2847Y-3.9868
X5.2847Y-4.0868
X5.2847Y-4.1868
X5.2847Y-4.2868
X5.2847Y-4.3868
X5.2847Y-4.4868
X5.2847Y-4.5868
X5.2847Y-4.6868
X5.2847Y-4.7868
X5.2847Y-4.8868
X5.2847Y-4.9868
X5.2847Y-5.0868
X5.2847Y-5.1868
X5.2847Y-5.2868
X5.3847Y-2.7868
X5.3847Y-2.8868
X5.3847Y-2.9868
X5.3847Y-3.0868
X5.3847Y-3.1868
X5.3847Y-3.2868
X5.3847Y-3.3868
X5.3847Y-3.4868
X5.3847Y-3.5868
X5.3847Y-3.6868
X5.3847Y-3.7868
X5.3847Y-3.8868
X5.3847Y-3.9868
X5.3847Y-4.0868
X5.3847Y-4.1868
X5.3847Y-4.2868
X5.3847Y-4.3868
X5.3847Y-4.4868
X5.3847Y-4.5868
X5.3847Y-4.6868
X5.3847Y-4.7868
X5.3847Y-4.8868
X5.3847Y-4.9868
X5.3847Y-5.0868
X5.3847Y-5.1868
X5.3847Y-5.2868
T7
X5.1213Y-2.5768
X8.4965Y-5.6268
X5.1213Y-5.4768
X8.4965Y-2.4768
T0
M30
