G04 #@! TF.GenerationSoftware,KiCad,Pcbnew,(5.1.2)-2*
G04 #@! TF.CreationDate,2020-11-23T21:19:51+02:00*
G04 #@! TF.ProjectId,ESP_mesh_module,4553505f-6d65-4736-985f-6d6f64756c65,rev?*
G04 #@! TF.SameCoordinates,Original*
G04 #@! TF.FileFunction,Soldermask,Bot*
G04 #@! TF.FilePolarity,Negative*
%FSLAX46Y46*%
G04 Gerber Fmt 4.6, Leading zero omitted, Abs format (unit mm)*
G04 Created by KiCad (PCBNEW (5.1.2)-2) date 2020-11-23 21:19:51*
%MOMM*%
%LPD*%
G04 APERTURE LIST*
%ADD10C,0.100000*%
G04 APERTURE END LIST*
D10*
G36*
X216750988Y-139817973D02*
G01*
X217313539Y-140050989D01*
X217338084Y-140061156D01*
X217866455Y-140414202D01*
X218315798Y-140863545D01*
X218668844Y-141391916D01*
X218668845Y-141391918D01*
X218912027Y-141979012D01*
X219036000Y-142602265D01*
X219036000Y-143237735D01*
X218912027Y-143860988D01*
X218910112Y-143865611D01*
X218668844Y-144448084D01*
X218315798Y-144976455D01*
X217866455Y-145425798D01*
X217338084Y-145778844D01*
X217338083Y-145778845D01*
X217338082Y-145778845D01*
X216750988Y-146022027D01*
X216127735Y-146146000D01*
X215492265Y-146146000D01*
X214869012Y-146022027D01*
X214281918Y-145778845D01*
X214281917Y-145778845D01*
X214281916Y-145778844D01*
X213753545Y-145425798D01*
X213304202Y-144976455D01*
X212951156Y-144448084D01*
X212709888Y-143865611D01*
X212707973Y-143860988D01*
X212584000Y-143237735D01*
X212584000Y-142602265D01*
X212707973Y-141979012D01*
X212951155Y-141391918D01*
X212951156Y-141391916D01*
X213304202Y-140863545D01*
X213753545Y-140414202D01*
X214281916Y-140061156D01*
X214306461Y-140050989D01*
X214869012Y-139817973D01*
X215492265Y-139694000D01*
X216127735Y-139694000D01*
X216750988Y-139817973D01*
X216750988Y-139817973D01*
G37*
G36*
X200233564Y-141844389D02*
G01*
X200424833Y-141923615D01*
X200424835Y-141923616D01*
X200492523Y-141968844D01*
X200596973Y-142038635D01*
X200743365Y-142185027D01*
X200858385Y-142357167D01*
X200937611Y-142548436D01*
X200978000Y-142751484D01*
X200978000Y-142958516D01*
X200937611Y-143161564D01*
X200906060Y-143237735D01*
X200858384Y-143352835D01*
X200743365Y-143524973D01*
X200596973Y-143671365D01*
X200424835Y-143786384D01*
X200424834Y-143786385D01*
X200424833Y-143786385D01*
X200233564Y-143865611D01*
X200030516Y-143906000D01*
X199823484Y-143906000D01*
X199620436Y-143865611D01*
X199429167Y-143786385D01*
X199429166Y-143786385D01*
X199429165Y-143786384D01*
X199257027Y-143671365D01*
X199110635Y-143524973D01*
X198995616Y-143352835D01*
X198947940Y-143237735D01*
X198916389Y-143161564D01*
X198876000Y-142958516D01*
X198876000Y-142751484D01*
X198916389Y-142548436D01*
X198995615Y-142357167D01*
X199110635Y-142185027D01*
X199257027Y-142038635D01*
X199361477Y-141968844D01*
X199429165Y-141923616D01*
X199429167Y-141923615D01*
X199620436Y-141844389D01*
X199823484Y-141804000D01*
X200030516Y-141804000D01*
X200233564Y-141844389D01*
X200233564Y-141844389D01*
G37*
G36*
X195733564Y-141844389D02*
G01*
X195924833Y-141923615D01*
X195924835Y-141923616D01*
X195992523Y-141968844D01*
X196096973Y-142038635D01*
X196243365Y-142185027D01*
X196358385Y-142357167D01*
X196437611Y-142548436D01*
X196478000Y-142751484D01*
X196478000Y-142958516D01*
X196437611Y-143161564D01*
X196406060Y-143237735D01*
X196358384Y-143352835D01*
X196243365Y-143524973D01*
X196096973Y-143671365D01*
X195924835Y-143786384D01*
X195924834Y-143786385D01*
X195924833Y-143786385D01*
X195733564Y-143865611D01*
X195530516Y-143906000D01*
X195323484Y-143906000D01*
X195120436Y-143865611D01*
X194929167Y-143786385D01*
X194929166Y-143786385D01*
X194929165Y-143786384D01*
X194757027Y-143671365D01*
X194610635Y-143524973D01*
X194495616Y-143352835D01*
X194447940Y-143237735D01*
X194416389Y-143161564D01*
X194376000Y-142958516D01*
X194376000Y-142751484D01*
X194416389Y-142548436D01*
X194495615Y-142357167D01*
X194610635Y-142185027D01*
X194757027Y-142038635D01*
X194861477Y-141968844D01*
X194929165Y-141923616D01*
X194929167Y-141923615D01*
X195120436Y-141844389D01*
X195323484Y-141804000D01*
X195530516Y-141804000D01*
X195733564Y-141844389D01*
X195733564Y-141844389D01*
G37*
G36*
X165502064Y-141844389D02*
G01*
X165693333Y-141923615D01*
X165693335Y-141923616D01*
X165761023Y-141968844D01*
X165865473Y-142038635D01*
X166011865Y-142185027D01*
X166126885Y-142357167D01*
X166206111Y-142548436D01*
X166246500Y-142751484D01*
X166246500Y-142958516D01*
X166206111Y-143161564D01*
X166174560Y-143237735D01*
X166126884Y-143352835D01*
X166011865Y-143524973D01*
X165865473Y-143671365D01*
X165693335Y-143786384D01*
X165693334Y-143786385D01*
X165693333Y-143786385D01*
X165502064Y-143865611D01*
X165299016Y-143906000D01*
X165091984Y-143906000D01*
X164888936Y-143865611D01*
X164697667Y-143786385D01*
X164697666Y-143786385D01*
X164697665Y-143786384D01*
X164525527Y-143671365D01*
X164379135Y-143524973D01*
X164264116Y-143352835D01*
X164216440Y-143237735D01*
X164184889Y-143161564D01*
X164144500Y-142958516D01*
X164144500Y-142751484D01*
X164184889Y-142548436D01*
X164264115Y-142357167D01*
X164379135Y-142185027D01*
X164525527Y-142038635D01*
X164629977Y-141968844D01*
X164697665Y-141923616D01*
X164697667Y-141923615D01*
X164888936Y-141844389D01*
X165091984Y-141804000D01*
X165299016Y-141804000D01*
X165502064Y-141844389D01*
X165502064Y-141844389D01*
G37*
G36*
X184996564Y-141844389D02*
G01*
X185187833Y-141923615D01*
X185187835Y-141923616D01*
X185255523Y-141968844D01*
X185359973Y-142038635D01*
X185506365Y-142185027D01*
X185621385Y-142357167D01*
X185700611Y-142548436D01*
X185741000Y-142751484D01*
X185741000Y-142958516D01*
X185700611Y-143161564D01*
X185669060Y-143237735D01*
X185621384Y-143352835D01*
X185506365Y-143524973D01*
X185359973Y-143671365D01*
X185187835Y-143786384D01*
X185187834Y-143786385D01*
X185187833Y-143786385D01*
X184996564Y-143865611D01*
X184793516Y-143906000D01*
X184586484Y-143906000D01*
X184383436Y-143865611D01*
X184192167Y-143786385D01*
X184192166Y-143786385D01*
X184192165Y-143786384D01*
X184020027Y-143671365D01*
X183873635Y-143524973D01*
X183758616Y-143352835D01*
X183710940Y-143237735D01*
X183679389Y-143161564D01*
X183639000Y-142958516D01*
X183639000Y-142751484D01*
X183679389Y-142548436D01*
X183758615Y-142357167D01*
X183873635Y-142185027D01*
X184020027Y-142038635D01*
X184124477Y-141968844D01*
X184192165Y-141923616D01*
X184192167Y-141923615D01*
X184383436Y-141844389D01*
X184586484Y-141804000D01*
X184793516Y-141804000D01*
X184996564Y-141844389D01*
X184996564Y-141844389D01*
G37*
G36*
X161002064Y-141844389D02*
G01*
X161193333Y-141923615D01*
X161193335Y-141923616D01*
X161261023Y-141968844D01*
X161365473Y-142038635D01*
X161511865Y-142185027D01*
X161626885Y-142357167D01*
X161706111Y-142548436D01*
X161746500Y-142751484D01*
X161746500Y-142958516D01*
X161706111Y-143161564D01*
X161674560Y-143237735D01*
X161626884Y-143352835D01*
X161511865Y-143524973D01*
X161365473Y-143671365D01*
X161193335Y-143786384D01*
X161193334Y-143786385D01*
X161193333Y-143786385D01*
X161002064Y-143865611D01*
X160799016Y-143906000D01*
X160591984Y-143906000D01*
X160388936Y-143865611D01*
X160197667Y-143786385D01*
X160197666Y-143786385D01*
X160197665Y-143786384D01*
X160025527Y-143671365D01*
X159879135Y-143524973D01*
X159764116Y-143352835D01*
X159716440Y-143237735D01*
X159684889Y-143161564D01*
X159644500Y-142958516D01*
X159644500Y-142751484D01*
X159684889Y-142548436D01*
X159764115Y-142357167D01*
X159879135Y-142185027D01*
X160025527Y-142038635D01*
X160129977Y-141968844D01*
X160197665Y-141923616D01*
X160197667Y-141923615D01*
X160388936Y-141844389D01*
X160591984Y-141804000D01*
X160799016Y-141804000D01*
X161002064Y-141844389D01*
X161002064Y-141844389D01*
G37*
G36*
X189496564Y-141844389D02*
G01*
X189687833Y-141923615D01*
X189687835Y-141923616D01*
X189755523Y-141968844D01*
X189859973Y-142038635D01*
X190006365Y-142185027D01*
X190121385Y-142357167D01*
X190200611Y-142548436D01*
X190241000Y-142751484D01*
X190241000Y-142958516D01*
X190200611Y-143161564D01*
X190169060Y-143237735D01*
X190121384Y-143352835D01*
X190006365Y-143524973D01*
X189859973Y-143671365D01*
X189687835Y-143786384D01*
X189687834Y-143786385D01*
X189687833Y-143786385D01*
X189496564Y-143865611D01*
X189293516Y-143906000D01*
X189086484Y-143906000D01*
X188883436Y-143865611D01*
X188692167Y-143786385D01*
X188692166Y-143786385D01*
X188692165Y-143786384D01*
X188520027Y-143671365D01*
X188373635Y-143524973D01*
X188258616Y-143352835D01*
X188210940Y-143237735D01*
X188179389Y-143161564D01*
X188139000Y-142958516D01*
X188139000Y-142751484D01*
X188179389Y-142548436D01*
X188258615Y-142357167D01*
X188373635Y-142185027D01*
X188520027Y-142038635D01*
X188624477Y-141968844D01*
X188692165Y-141923616D01*
X188692167Y-141923615D01*
X188883436Y-141844389D01*
X189086484Y-141804000D01*
X189293516Y-141804000D01*
X189496564Y-141844389D01*
X189496564Y-141844389D01*
G37*
G36*
X131020988Y-136007973D02*
G01*
X131608082Y-136251155D01*
X131608084Y-136251156D01*
X132136455Y-136604202D01*
X132585798Y-137053545D01*
X132938844Y-137581916D01*
X132938845Y-137581918D01*
X133182027Y-138169012D01*
X133306000Y-138792265D01*
X133306000Y-139427735D01*
X133182027Y-140050988D01*
X133031579Y-140414202D01*
X132938844Y-140638084D01*
X132585798Y-141166455D01*
X132136455Y-141615798D01*
X131608084Y-141968844D01*
X131608083Y-141968845D01*
X131608082Y-141968845D01*
X131020988Y-142212027D01*
X130397735Y-142336000D01*
X129762265Y-142336000D01*
X129139012Y-142212027D01*
X128551918Y-141968845D01*
X128551917Y-141968845D01*
X128551916Y-141968844D01*
X128023545Y-141615798D01*
X127574202Y-141166455D01*
X127221156Y-140638084D01*
X127128421Y-140414202D01*
X126977973Y-140050988D01*
X126854000Y-139427735D01*
X126854000Y-138792265D01*
X126977973Y-138169012D01*
X127221155Y-137581918D01*
X127221156Y-137581916D01*
X127574202Y-137053545D01*
X128023545Y-136604202D01*
X128551916Y-136251156D01*
X128551918Y-136251155D01*
X129139012Y-136007973D01*
X129762265Y-135884000D01*
X130397735Y-135884000D01*
X131020988Y-136007973D01*
X131020988Y-136007973D01*
G37*
G36*
X153442256Y-137628298D02*
G01*
X153548579Y-137649447D01*
X153849042Y-137773903D01*
X154119451Y-137954585D01*
X154349415Y-138184549D01*
X154349416Y-138184551D01*
X154530098Y-138454960D01*
X154654553Y-138755422D01*
X154718000Y-139074389D01*
X154718000Y-139399611D01*
X154675702Y-139612256D01*
X154654553Y-139718579D01*
X154530097Y-140019042D01*
X154349415Y-140289451D01*
X154119451Y-140519415D01*
X153849042Y-140700097D01*
X153548579Y-140824553D01*
X153442256Y-140845702D01*
X153229611Y-140888000D01*
X152904389Y-140888000D01*
X152691744Y-140845702D01*
X152585421Y-140824553D01*
X152284958Y-140700097D01*
X152014549Y-140519415D01*
X151784585Y-140289451D01*
X151603903Y-140019042D01*
X151479447Y-139718579D01*
X151458298Y-139612256D01*
X151416000Y-139399611D01*
X151416000Y-139074389D01*
X151479447Y-138755422D01*
X151603902Y-138454960D01*
X151784584Y-138184551D01*
X151784585Y-138184549D01*
X152014549Y-137954585D01*
X152284958Y-137773903D01*
X152585421Y-137649447D01*
X152691744Y-137628298D01*
X152904389Y-137586000D01*
X153229611Y-137586000D01*
X153442256Y-137628298D01*
X153442256Y-137628298D01*
G37*
G36*
X195733564Y-135344389D02*
G01*
X195924833Y-135423615D01*
X195924835Y-135423616D01*
X196096973Y-135538635D01*
X196243365Y-135685027D01*
X196358385Y-135857167D01*
X196437611Y-136048436D01*
X196478000Y-136251484D01*
X196478000Y-136458516D01*
X196437611Y-136661564D01*
X196358385Y-136852833D01*
X196358384Y-136852835D01*
X196243365Y-137024973D01*
X196096973Y-137171365D01*
X195924835Y-137286384D01*
X195924834Y-137286385D01*
X195924833Y-137286385D01*
X195733564Y-137365611D01*
X195530516Y-137406000D01*
X195323484Y-137406000D01*
X195120436Y-137365611D01*
X194929167Y-137286385D01*
X194929166Y-137286385D01*
X194929165Y-137286384D01*
X194757027Y-137171365D01*
X194610635Y-137024973D01*
X194495616Y-136852835D01*
X194495615Y-136852833D01*
X194416389Y-136661564D01*
X194376000Y-136458516D01*
X194376000Y-136251484D01*
X194416389Y-136048436D01*
X194495615Y-135857167D01*
X194610635Y-135685027D01*
X194757027Y-135538635D01*
X194929165Y-135423616D01*
X194929167Y-135423615D01*
X195120436Y-135344389D01*
X195323484Y-135304000D01*
X195530516Y-135304000D01*
X195733564Y-135344389D01*
X195733564Y-135344389D01*
G37*
G36*
X189496564Y-135344389D02*
G01*
X189687833Y-135423615D01*
X189687835Y-135423616D01*
X189859973Y-135538635D01*
X190006365Y-135685027D01*
X190121385Y-135857167D01*
X190200611Y-136048436D01*
X190241000Y-136251484D01*
X190241000Y-136458516D01*
X190200611Y-136661564D01*
X190121385Y-136852833D01*
X190121384Y-136852835D01*
X190006365Y-137024973D01*
X189859973Y-137171365D01*
X189687835Y-137286384D01*
X189687834Y-137286385D01*
X189687833Y-137286385D01*
X189496564Y-137365611D01*
X189293516Y-137406000D01*
X189086484Y-137406000D01*
X188883436Y-137365611D01*
X188692167Y-137286385D01*
X188692166Y-137286385D01*
X188692165Y-137286384D01*
X188520027Y-137171365D01*
X188373635Y-137024973D01*
X188258616Y-136852835D01*
X188258615Y-136852833D01*
X188179389Y-136661564D01*
X188139000Y-136458516D01*
X188139000Y-136251484D01*
X188179389Y-136048436D01*
X188258615Y-135857167D01*
X188373635Y-135685027D01*
X188520027Y-135538635D01*
X188692165Y-135423616D01*
X188692167Y-135423615D01*
X188883436Y-135344389D01*
X189086484Y-135304000D01*
X189293516Y-135304000D01*
X189496564Y-135344389D01*
X189496564Y-135344389D01*
G37*
G36*
X184996564Y-135344389D02*
G01*
X185187833Y-135423615D01*
X185187835Y-135423616D01*
X185359973Y-135538635D01*
X185506365Y-135685027D01*
X185621385Y-135857167D01*
X185700611Y-136048436D01*
X185741000Y-136251484D01*
X185741000Y-136458516D01*
X185700611Y-136661564D01*
X185621385Y-136852833D01*
X185621384Y-136852835D01*
X185506365Y-137024973D01*
X185359973Y-137171365D01*
X185187835Y-137286384D01*
X185187834Y-137286385D01*
X185187833Y-137286385D01*
X184996564Y-137365611D01*
X184793516Y-137406000D01*
X184586484Y-137406000D01*
X184383436Y-137365611D01*
X184192167Y-137286385D01*
X184192166Y-137286385D01*
X184192165Y-137286384D01*
X184020027Y-137171365D01*
X183873635Y-137024973D01*
X183758616Y-136852835D01*
X183758615Y-136852833D01*
X183679389Y-136661564D01*
X183639000Y-136458516D01*
X183639000Y-136251484D01*
X183679389Y-136048436D01*
X183758615Y-135857167D01*
X183873635Y-135685027D01*
X184020027Y-135538635D01*
X184192165Y-135423616D01*
X184192167Y-135423615D01*
X184383436Y-135344389D01*
X184586484Y-135304000D01*
X184793516Y-135304000D01*
X184996564Y-135344389D01*
X184996564Y-135344389D01*
G37*
G36*
X161002064Y-135344389D02*
G01*
X161193333Y-135423615D01*
X161193335Y-135423616D01*
X161365473Y-135538635D01*
X161511865Y-135685027D01*
X161626885Y-135857167D01*
X161706111Y-136048436D01*
X161746500Y-136251484D01*
X161746500Y-136458516D01*
X161706111Y-136661564D01*
X161626885Y-136852833D01*
X161626884Y-136852835D01*
X161511865Y-137024973D01*
X161365473Y-137171365D01*
X161193335Y-137286384D01*
X161193334Y-137286385D01*
X161193333Y-137286385D01*
X161002064Y-137365611D01*
X160799016Y-137406000D01*
X160591984Y-137406000D01*
X160388936Y-137365611D01*
X160197667Y-137286385D01*
X160197666Y-137286385D01*
X160197665Y-137286384D01*
X160025527Y-137171365D01*
X159879135Y-137024973D01*
X159764116Y-136852835D01*
X159764115Y-136852833D01*
X159684889Y-136661564D01*
X159644500Y-136458516D01*
X159644500Y-136251484D01*
X159684889Y-136048436D01*
X159764115Y-135857167D01*
X159879135Y-135685027D01*
X160025527Y-135538635D01*
X160197665Y-135423616D01*
X160197667Y-135423615D01*
X160388936Y-135344389D01*
X160591984Y-135304000D01*
X160799016Y-135304000D01*
X161002064Y-135344389D01*
X161002064Y-135344389D01*
G37*
G36*
X165502064Y-135344389D02*
G01*
X165693333Y-135423615D01*
X165693335Y-135423616D01*
X165865473Y-135538635D01*
X166011865Y-135685027D01*
X166126885Y-135857167D01*
X166206111Y-136048436D01*
X166246500Y-136251484D01*
X166246500Y-136458516D01*
X166206111Y-136661564D01*
X166126885Y-136852833D01*
X166126884Y-136852835D01*
X166011865Y-137024973D01*
X165865473Y-137171365D01*
X165693335Y-137286384D01*
X165693334Y-137286385D01*
X165693333Y-137286385D01*
X165502064Y-137365611D01*
X165299016Y-137406000D01*
X165091984Y-137406000D01*
X164888936Y-137365611D01*
X164697667Y-137286385D01*
X164697666Y-137286385D01*
X164697665Y-137286384D01*
X164525527Y-137171365D01*
X164379135Y-137024973D01*
X164264116Y-136852835D01*
X164264115Y-136852833D01*
X164184889Y-136661564D01*
X164144500Y-136458516D01*
X164144500Y-136251484D01*
X164184889Y-136048436D01*
X164264115Y-135857167D01*
X164379135Y-135685027D01*
X164525527Y-135538635D01*
X164697665Y-135423616D01*
X164697667Y-135423615D01*
X164888936Y-135344389D01*
X165091984Y-135304000D01*
X165299016Y-135304000D01*
X165502064Y-135344389D01*
X165502064Y-135344389D01*
G37*
G36*
X200233564Y-135344389D02*
G01*
X200424833Y-135423615D01*
X200424835Y-135423616D01*
X200596973Y-135538635D01*
X200743365Y-135685027D01*
X200858385Y-135857167D01*
X200937611Y-136048436D01*
X200978000Y-136251484D01*
X200978000Y-136458516D01*
X200937611Y-136661564D01*
X200858385Y-136852833D01*
X200858384Y-136852835D01*
X200743365Y-137024973D01*
X200596973Y-137171365D01*
X200424835Y-137286384D01*
X200424834Y-137286385D01*
X200424833Y-137286385D01*
X200233564Y-137365611D01*
X200030516Y-137406000D01*
X199823484Y-137406000D01*
X199620436Y-137365611D01*
X199429167Y-137286385D01*
X199429166Y-137286385D01*
X199429165Y-137286384D01*
X199257027Y-137171365D01*
X199110635Y-137024973D01*
X198995616Y-136852835D01*
X198995615Y-136852833D01*
X198916389Y-136661564D01*
X198876000Y-136458516D01*
X198876000Y-136251484D01*
X198916389Y-136048436D01*
X198995615Y-135857167D01*
X199110635Y-135685027D01*
X199257027Y-135538635D01*
X199429165Y-135423616D01*
X199429167Y-135423615D01*
X199620436Y-135344389D01*
X199823484Y-135304000D01*
X200030516Y-135304000D01*
X200233564Y-135344389D01*
X200233564Y-135344389D01*
G37*
G36*
X131482399Y-133424832D02*
G01*
X131567020Y-133441664D01*
X131726442Y-133507699D01*
X131869918Y-133603566D01*
X131991934Y-133725582D01*
X132087801Y-133869058D01*
X132153836Y-134028480D01*
X132187500Y-134197721D01*
X132187500Y-134370279D01*
X132153836Y-134539520D01*
X132087801Y-134698942D01*
X131991934Y-134842418D01*
X131869918Y-134964434D01*
X131726442Y-135060301D01*
X131567020Y-135126336D01*
X131482399Y-135143168D01*
X131397780Y-135160000D01*
X131225220Y-135160000D01*
X131140601Y-135143168D01*
X131055980Y-135126336D01*
X130896558Y-135060301D01*
X130753082Y-134964434D01*
X130631066Y-134842418D01*
X130535199Y-134698942D01*
X130469164Y-134539520D01*
X130435500Y-134370279D01*
X130435500Y-134197721D01*
X130469164Y-134028480D01*
X130535199Y-133869058D01*
X130631066Y-133725582D01*
X130753082Y-133603566D01*
X130896558Y-133507699D01*
X131055980Y-133441664D01*
X131140601Y-133424832D01*
X131225220Y-133408000D01*
X131397780Y-133408000D01*
X131482399Y-133424832D01*
X131482399Y-133424832D01*
G37*
G36*
X136943399Y-133424832D02*
G01*
X137028020Y-133441664D01*
X137187442Y-133507699D01*
X137330918Y-133603566D01*
X137452934Y-133725582D01*
X137548801Y-133869058D01*
X137614836Y-134028480D01*
X137648500Y-134197721D01*
X137648500Y-134370279D01*
X137614836Y-134539520D01*
X137548801Y-134698942D01*
X137452934Y-134842418D01*
X137330918Y-134964434D01*
X137187442Y-135060301D01*
X137028020Y-135126336D01*
X136943399Y-135143168D01*
X136858780Y-135160000D01*
X136686220Y-135160000D01*
X136601601Y-135143168D01*
X136516980Y-135126336D01*
X136357558Y-135060301D01*
X136214082Y-134964434D01*
X136092066Y-134842418D01*
X135996199Y-134698942D01*
X135930164Y-134539520D01*
X135896500Y-134370279D01*
X135896500Y-134197721D01*
X135930164Y-134028480D01*
X135996199Y-133869058D01*
X136092066Y-133725582D01*
X136214082Y-133603566D01*
X136357558Y-133507699D01*
X136516980Y-133441664D01*
X136601601Y-133424832D01*
X136686220Y-133408000D01*
X136858780Y-133408000D01*
X136943399Y-133424832D01*
X136943399Y-133424832D01*
G37*
G36*
X134403399Y-133424832D02*
G01*
X134488020Y-133441664D01*
X134647442Y-133507699D01*
X134790918Y-133603566D01*
X134912934Y-133725582D01*
X135008801Y-133869058D01*
X135074836Y-134028480D01*
X135108500Y-134197721D01*
X135108500Y-134370279D01*
X135074836Y-134539520D01*
X135008801Y-134698942D01*
X134912934Y-134842418D01*
X134790918Y-134964434D01*
X134647442Y-135060301D01*
X134488020Y-135126336D01*
X134403399Y-135143168D01*
X134318780Y-135160000D01*
X134146220Y-135160000D01*
X134061601Y-135143168D01*
X133976980Y-135126336D01*
X133817558Y-135060301D01*
X133674082Y-134964434D01*
X133552066Y-134842418D01*
X133456199Y-134698942D01*
X133390164Y-134539520D01*
X133356500Y-134370279D01*
X133356500Y-134197721D01*
X133390164Y-134028480D01*
X133456199Y-133869058D01*
X133552066Y-133725582D01*
X133674082Y-133603566D01*
X133817558Y-133507699D01*
X133976980Y-133441664D01*
X134061601Y-133424832D01*
X134146220Y-133408000D01*
X134318780Y-133408000D01*
X134403399Y-133424832D01*
X134403399Y-133424832D01*
G37*
G36*
X128942399Y-133424832D02*
G01*
X129027020Y-133441664D01*
X129186442Y-133507699D01*
X129329918Y-133603566D01*
X129451934Y-133725582D01*
X129547801Y-133869058D01*
X129613836Y-134028480D01*
X129647500Y-134197721D01*
X129647500Y-134370279D01*
X129613836Y-134539520D01*
X129547801Y-134698942D01*
X129451934Y-134842418D01*
X129329918Y-134964434D01*
X129186442Y-135060301D01*
X129027020Y-135126336D01*
X128942399Y-135143168D01*
X128857780Y-135160000D01*
X128685220Y-135160000D01*
X128600601Y-135143168D01*
X128515980Y-135126336D01*
X128356558Y-135060301D01*
X128213082Y-134964434D01*
X128091066Y-134842418D01*
X127995199Y-134698942D01*
X127929164Y-134539520D01*
X127895500Y-134370279D01*
X127895500Y-134197721D01*
X127929164Y-134028480D01*
X127995199Y-133869058D01*
X128091066Y-133725582D01*
X128213082Y-133603566D01*
X128356558Y-133507699D01*
X128515980Y-133441664D01*
X128600601Y-133424832D01*
X128685220Y-133408000D01*
X128857780Y-133408000D01*
X128942399Y-133424832D01*
X128942399Y-133424832D01*
G37*
G36*
X136943399Y-130884832D02*
G01*
X137028020Y-130901664D01*
X137187442Y-130967699D01*
X137330918Y-131063566D01*
X137452934Y-131185582D01*
X137548801Y-131329058D01*
X137614836Y-131488480D01*
X137648500Y-131657721D01*
X137648500Y-131830279D01*
X137614836Y-131999520D01*
X137548801Y-132158942D01*
X137452934Y-132302418D01*
X137330918Y-132424434D01*
X137187442Y-132520301D01*
X137028020Y-132586336D01*
X136943399Y-132603168D01*
X136858780Y-132620000D01*
X136686220Y-132620000D01*
X136601601Y-132603168D01*
X136516980Y-132586336D01*
X136357558Y-132520301D01*
X136214082Y-132424434D01*
X136092066Y-132302418D01*
X135996199Y-132158942D01*
X135930164Y-131999520D01*
X135896500Y-131830279D01*
X135896500Y-131657721D01*
X135930164Y-131488480D01*
X135996199Y-131329058D01*
X136092066Y-131185582D01*
X136214082Y-131063566D01*
X136357558Y-130967699D01*
X136516980Y-130901664D01*
X136601601Y-130884832D01*
X136686220Y-130868000D01*
X136858780Y-130868000D01*
X136943399Y-130884832D01*
X136943399Y-130884832D01*
G37*
G36*
X134403399Y-130884832D02*
G01*
X134488020Y-130901664D01*
X134647442Y-130967699D01*
X134790918Y-131063566D01*
X134912934Y-131185582D01*
X135008801Y-131329058D01*
X135074836Y-131488480D01*
X135108500Y-131657721D01*
X135108500Y-131830279D01*
X135074836Y-131999520D01*
X135008801Y-132158942D01*
X134912934Y-132302418D01*
X134790918Y-132424434D01*
X134647442Y-132520301D01*
X134488020Y-132586336D01*
X134403399Y-132603168D01*
X134318780Y-132620000D01*
X134146220Y-132620000D01*
X134061601Y-132603168D01*
X133976980Y-132586336D01*
X133817558Y-132520301D01*
X133674082Y-132424434D01*
X133552066Y-132302418D01*
X133456199Y-132158942D01*
X133390164Y-131999520D01*
X133356500Y-131830279D01*
X133356500Y-131657721D01*
X133390164Y-131488480D01*
X133456199Y-131329058D01*
X133552066Y-131185582D01*
X133674082Y-131063566D01*
X133817558Y-130967699D01*
X133976980Y-130901664D01*
X134061601Y-130884832D01*
X134146220Y-130868000D01*
X134318780Y-130868000D01*
X134403399Y-130884832D01*
X134403399Y-130884832D01*
G37*
G36*
X131482399Y-130884832D02*
G01*
X131567020Y-130901664D01*
X131726442Y-130967699D01*
X131869918Y-131063566D01*
X131991934Y-131185582D01*
X132087801Y-131329058D01*
X132153836Y-131488480D01*
X132187500Y-131657721D01*
X132187500Y-131830279D01*
X132153836Y-131999520D01*
X132087801Y-132158942D01*
X131991934Y-132302418D01*
X131869918Y-132424434D01*
X131726442Y-132520301D01*
X131567020Y-132586336D01*
X131482399Y-132603168D01*
X131397780Y-132620000D01*
X131225220Y-132620000D01*
X131140601Y-132603168D01*
X131055980Y-132586336D01*
X130896558Y-132520301D01*
X130753082Y-132424434D01*
X130631066Y-132302418D01*
X130535199Y-132158942D01*
X130469164Y-131999520D01*
X130435500Y-131830279D01*
X130435500Y-131657721D01*
X130469164Y-131488480D01*
X130535199Y-131329058D01*
X130631066Y-131185582D01*
X130753082Y-131063566D01*
X130896558Y-130967699D01*
X131055980Y-130901664D01*
X131140601Y-130884832D01*
X131225220Y-130868000D01*
X131397780Y-130868000D01*
X131482399Y-130884832D01*
X131482399Y-130884832D01*
G37*
G36*
X128942399Y-130884832D02*
G01*
X129027020Y-130901664D01*
X129186442Y-130967699D01*
X129329918Y-131063566D01*
X129451934Y-131185582D01*
X129547801Y-131329058D01*
X129613836Y-131488480D01*
X129647500Y-131657721D01*
X129647500Y-131830279D01*
X129613836Y-131999520D01*
X129547801Y-132158942D01*
X129451934Y-132302418D01*
X129329918Y-132424434D01*
X129186442Y-132520301D01*
X129027020Y-132586336D01*
X128942399Y-132603168D01*
X128857780Y-132620000D01*
X128685220Y-132620000D01*
X128600601Y-132603168D01*
X128515980Y-132586336D01*
X128356558Y-132520301D01*
X128213082Y-132424434D01*
X128091066Y-132302418D01*
X127995199Y-132158942D01*
X127929164Y-131999520D01*
X127895500Y-131830279D01*
X127895500Y-131657721D01*
X127929164Y-131488480D01*
X127995199Y-131329058D01*
X128091066Y-131185582D01*
X128213082Y-131063566D01*
X128356558Y-130967699D01*
X128515980Y-130901664D01*
X128600601Y-130884832D01*
X128685220Y-130868000D01*
X128857780Y-130868000D01*
X128942399Y-130884832D01*
X128942399Y-130884832D01*
G37*
G36*
X136943399Y-128344832D02*
G01*
X137028020Y-128361664D01*
X137187442Y-128427699D01*
X137330918Y-128523566D01*
X137452934Y-128645582D01*
X137548801Y-128789058D01*
X137614836Y-128948480D01*
X137648500Y-129117721D01*
X137648500Y-129290279D01*
X137614836Y-129459520D01*
X137548801Y-129618942D01*
X137452934Y-129762418D01*
X137330918Y-129884434D01*
X137187442Y-129980301D01*
X137028020Y-130046336D01*
X136858780Y-130080000D01*
X136686220Y-130080000D01*
X136516980Y-130046336D01*
X136357558Y-129980301D01*
X136214082Y-129884434D01*
X136092066Y-129762418D01*
X135996199Y-129618942D01*
X135930164Y-129459520D01*
X135896500Y-129290279D01*
X135896500Y-129117721D01*
X135930164Y-128948480D01*
X135996199Y-128789058D01*
X136092066Y-128645582D01*
X136214082Y-128523566D01*
X136357558Y-128427699D01*
X136516980Y-128361664D01*
X136601601Y-128344832D01*
X136686220Y-128328000D01*
X136858780Y-128328000D01*
X136943399Y-128344832D01*
X136943399Y-128344832D01*
G37*
G36*
X134403399Y-128344832D02*
G01*
X134488020Y-128361664D01*
X134647442Y-128427699D01*
X134790918Y-128523566D01*
X134912934Y-128645582D01*
X135008801Y-128789058D01*
X135074836Y-128948480D01*
X135108500Y-129117721D01*
X135108500Y-129290279D01*
X135074836Y-129459520D01*
X135008801Y-129618942D01*
X134912934Y-129762418D01*
X134790918Y-129884434D01*
X134647442Y-129980301D01*
X134488020Y-130046336D01*
X134318780Y-130080000D01*
X134146220Y-130080000D01*
X133976980Y-130046336D01*
X133817558Y-129980301D01*
X133674082Y-129884434D01*
X133552066Y-129762418D01*
X133456199Y-129618942D01*
X133390164Y-129459520D01*
X133356500Y-129290279D01*
X133356500Y-129117721D01*
X133390164Y-128948480D01*
X133456199Y-128789058D01*
X133552066Y-128645582D01*
X133674082Y-128523566D01*
X133817558Y-128427699D01*
X133976980Y-128361664D01*
X134061601Y-128344832D01*
X134146220Y-128328000D01*
X134318780Y-128328000D01*
X134403399Y-128344832D01*
X134403399Y-128344832D01*
G37*
G36*
X128942399Y-128344832D02*
G01*
X129027020Y-128361664D01*
X129186442Y-128427699D01*
X129329918Y-128523566D01*
X129451934Y-128645582D01*
X129547801Y-128789058D01*
X129613836Y-128948480D01*
X129647500Y-129117721D01*
X129647500Y-129290279D01*
X129613836Y-129459520D01*
X129547801Y-129618942D01*
X129451934Y-129762418D01*
X129329918Y-129884434D01*
X129186442Y-129980301D01*
X129027020Y-130046336D01*
X128857780Y-130080000D01*
X128685220Y-130080000D01*
X128515980Y-130046336D01*
X128356558Y-129980301D01*
X128213082Y-129884434D01*
X128091066Y-129762418D01*
X127995199Y-129618942D01*
X127929164Y-129459520D01*
X127895500Y-129290279D01*
X127895500Y-129117721D01*
X127929164Y-128948480D01*
X127995199Y-128789058D01*
X128091066Y-128645582D01*
X128213082Y-128523566D01*
X128356558Y-128427699D01*
X128515980Y-128361664D01*
X128600601Y-128344832D01*
X128685220Y-128328000D01*
X128857780Y-128328000D01*
X128942399Y-128344832D01*
X128942399Y-128344832D01*
G37*
G36*
X131482399Y-128344832D02*
G01*
X131567020Y-128361664D01*
X131726442Y-128427699D01*
X131869918Y-128523566D01*
X131991934Y-128645582D01*
X132087801Y-128789058D01*
X132153836Y-128948480D01*
X132187500Y-129117721D01*
X132187500Y-129290279D01*
X132153836Y-129459520D01*
X132087801Y-129618942D01*
X131991934Y-129762418D01*
X131869918Y-129884434D01*
X131726442Y-129980301D01*
X131567020Y-130046336D01*
X131397780Y-130080000D01*
X131225220Y-130080000D01*
X131055980Y-130046336D01*
X130896558Y-129980301D01*
X130753082Y-129884434D01*
X130631066Y-129762418D01*
X130535199Y-129618942D01*
X130469164Y-129459520D01*
X130435500Y-129290279D01*
X130435500Y-129117721D01*
X130469164Y-128948480D01*
X130535199Y-128789058D01*
X130631066Y-128645582D01*
X130753082Y-128523566D01*
X130896558Y-128427699D01*
X131055980Y-128361664D01*
X131140601Y-128344832D01*
X131225220Y-128328000D01*
X131397780Y-128328000D01*
X131482399Y-128344832D01*
X131482399Y-128344832D01*
G37*
G36*
X131482399Y-125804832D02*
G01*
X131567020Y-125821664D01*
X131726442Y-125887699D01*
X131869918Y-125983566D01*
X131991934Y-126105582D01*
X132087801Y-126249058D01*
X132153836Y-126408480D01*
X132187500Y-126577721D01*
X132187500Y-126750279D01*
X132153836Y-126919520D01*
X132087801Y-127078942D01*
X131991934Y-127222418D01*
X131869918Y-127344434D01*
X131726442Y-127440301D01*
X131567020Y-127506336D01*
X131397780Y-127540000D01*
X131225220Y-127540000D01*
X131055980Y-127506336D01*
X130896558Y-127440301D01*
X130753082Y-127344434D01*
X130631066Y-127222418D01*
X130535199Y-127078942D01*
X130469164Y-126919520D01*
X130435500Y-126750279D01*
X130435500Y-126577721D01*
X130469164Y-126408480D01*
X130535199Y-126249058D01*
X130631066Y-126105582D01*
X130753082Y-125983566D01*
X130896558Y-125887699D01*
X131055980Y-125821664D01*
X131140601Y-125804832D01*
X131225220Y-125788000D01*
X131397780Y-125788000D01*
X131482399Y-125804832D01*
X131482399Y-125804832D01*
G37*
G36*
X136943399Y-125804832D02*
G01*
X137028020Y-125821664D01*
X137187442Y-125887699D01*
X137330918Y-125983566D01*
X137452934Y-126105582D01*
X137548801Y-126249058D01*
X137614836Y-126408480D01*
X137648500Y-126577721D01*
X137648500Y-126750279D01*
X137614836Y-126919520D01*
X137548801Y-127078942D01*
X137452934Y-127222418D01*
X137330918Y-127344434D01*
X137187442Y-127440301D01*
X137028020Y-127506336D01*
X136858780Y-127540000D01*
X136686220Y-127540000D01*
X136516980Y-127506336D01*
X136357558Y-127440301D01*
X136214082Y-127344434D01*
X136092066Y-127222418D01*
X135996199Y-127078942D01*
X135930164Y-126919520D01*
X135896500Y-126750279D01*
X135896500Y-126577721D01*
X135930164Y-126408480D01*
X135996199Y-126249058D01*
X136092066Y-126105582D01*
X136214082Y-125983566D01*
X136357558Y-125887699D01*
X136516980Y-125821664D01*
X136601601Y-125804832D01*
X136686220Y-125788000D01*
X136858780Y-125788000D01*
X136943399Y-125804832D01*
X136943399Y-125804832D01*
G37*
G36*
X134403399Y-125804832D02*
G01*
X134488020Y-125821664D01*
X134647442Y-125887699D01*
X134790918Y-125983566D01*
X134912934Y-126105582D01*
X135008801Y-126249058D01*
X135074836Y-126408480D01*
X135108500Y-126577721D01*
X135108500Y-126750279D01*
X135074836Y-126919520D01*
X135008801Y-127078942D01*
X134912934Y-127222418D01*
X134790918Y-127344434D01*
X134647442Y-127440301D01*
X134488020Y-127506336D01*
X134318780Y-127540000D01*
X134146220Y-127540000D01*
X133976980Y-127506336D01*
X133817558Y-127440301D01*
X133674082Y-127344434D01*
X133552066Y-127222418D01*
X133456199Y-127078942D01*
X133390164Y-126919520D01*
X133356500Y-126750279D01*
X133356500Y-126577721D01*
X133390164Y-126408480D01*
X133456199Y-126249058D01*
X133552066Y-126105582D01*
X133674082Y-125983566D01*
X133817558Y-125887699D01*
X133976980Y-125821664D01*
X134061601Y-125804832D01*
X134146220Y-125788000D01*
X134318780Y-125788000D01*
X134403399Y-125804832D01*
X134403399Y-125804832D01*
G37*
G36*
X128942399Y-125804832D02*
G01*
X129027020Y-125821664D01*
X129186442Y-125887699D01*
X129329918Y-125983566D01*
X129451934Y-126105582D01*
X129547801Y-126249058D01*
X129613836Y-126408480D01*
X129647500Y-126577721D01*
X129647500Y-126750279D01*
X129613836Y-126919520D01*
X129547801Y-127078942D01*
X129451934Y-127222418D01*
X129329918Y-127344434D01*
X129186442Y-127440301D01*
X129027020Y-127506336D01*
X128857780Y-127540000D01*
X128685220Y-127540000D01*
X128515980Y-127506336D01*
X128356558Y-127440301D01*
X128213082Y-127344434D01*
X128091066Y-127222418D01*
X127995199Y-127078942D01*
X127929164Y-126919520D01*
X127895500Y-126750279D01*
X127895500Y-126577721D01*
X127929164Y-126408480D01*
X127995199Y-126249058D01*
X128091066Y-126105582D01*
X128213082Y-125983566D01*
X128356558Y-125887699D01*
X128515980Y-125821664D01*
X128600601Y-125804832D01*
X128685220Y-125788000D01*
X128857780Y-125788000D01*
X128942399Y-125804832D01*
X128942399Y-125804832D01*
G37*
G36*
X168956943Y-123438519D02*
G01*
X169023127Y-123445037D01*
X169192966Y-123496557D01*
X169349491Y-123580222D01*
X169383517Y-123608147D01*
X169486686Y-123692814D01*
X169569948Y-123794271D01*
X169599278Y-123830009D01*
X169682943Y-123986534D01*
X169734463Y-124156373D01*
X169751859Y-124333000D01*
X169734463Y-124509627D01*
X169682943Y-124679466D01*
X169599278Y-124835991D01*
X169569948Y-124871729D01*
X169486686Y-124973186D01*
X169385229Y-125056448D01*
X169349491Y-125085778D01*
X169192966Y-125169443D01*
X169023127Y-125220963D01*
X168956942Y-125227482D01*
X168890760Y-125234000D01*
X168802240Y-125234000D01*
X168736058Y-125227482D01*
X168669873Y-125220963D01*
X168500034Y-125169443D01*
X168343509Y-125085778D01*
X168307771Y-125056448D01*
X168206314Y-124973186D01*
X168123052Y-124871729D01*
X168093722Y-124835991D01*
X168010057Y-124679466D01*
X167958537Y-124509627D01*
X167941141Y-124333000D01*
X167958537Y-124156373D01*
X168010057Y-123986534D01*
X168093722Y-123830009D01*
X168123052Y-123794271D01*
X168206314Y-123692814D01*
X168309483Y-123608147D01*
X168343509Y-123580222D01*
X168500034Y-123496557D01*
X168669873Y-123445037D01*
X168736057Y-123438519D01*
X168802240Y-123432000D01*
X168890760Y-123432000D01*
X168956943Y-123438519D01*
X168956943Y-123438519D01*
G37*
G36*
X172287500Y-125234000D02*
G01*
X170485500Y-125234000D01*
X170485500Y-123432000D01*
X172287500Y-123432000D01*
X172287500Y-125234000D01*
X172287500Y-125234000D01*
G37*
G36*
X166416943Y-123438519D02*
G01*
X166483127Y-123445037D01*
X166652966Y-123496557D01*
X166809491Y-123580222D01*
X166843517Y-123608147D01*
X166946686Y-123692814D01*
X167029948Y-123794271D01*
X167059278Y-123830009D01*
X167142943Y-123986534D01*
X167194463Y-124156373D01*
X167211859Y-124333000D01*
X167194463Y-124509627D01*
X167142943Y-124679466D01*
X167059278Y-124835991D01*
X167029948Y-124871729D01*
X166946686Y-124973186D01*
X166845229Y-125056448D01*
X166809491Y-125085778D01*
X166652966Y-125169443D01*
X166483127Y-125220963D01*
X166416942Y-125227482D01*
X166350760Y-125234000D01*
X166262240Y-125234000D01*
X166196058Y-125227482D01*
X166129873Y-125220963D01*
X165960034Y-125169443D01*
X165803509Y-125085778D01*
X165767771Y-125056448D01*
X165666314Y-124973186D01*
X165583052Y-124871729D01*
X165553722Y-124835991D01*
X165470057Y-124679466D01*
X165418537Y-124509627D01*
X165401141Y-124333000D01*
X165418537Y-124156373D01*
X165470057Y-123986534D01*
X165553722Y-123830009D01*
X165583052Y-123794271D01*
X165666314Y-123692814D01*
X165769483Y-123608147D01*
X165803509Y-123580222D01*
X165960034Y-123496557D01*
X166129873Y-123445037D01*
X166196057Y-123438519D01*
X166262240Y-123432000D01*
X166350760Y-123432000D01*
X166416943Y-123438519D01*
X166416943Y-123438519D01*
G37*
G36*
X134364513Y-123257097D02*
G01*
X134488020Y-123281664D01*
X134647442Y-123347699D01*
X134790918Y-123443566D01*
X134912934Y-123565582D01*
X135008801Y-123709058D01*
X135074836Y-123868480D01*
X135108500Y-124037721D01*
X135108500Y-124210279D01*
X135074836Y-124379520D01*
X135008801Y-124538942D01*
X134912934Y-124682418D01*
X134790918Y-124804434D01*
X134647442Y-124900301D01*
X134488020Y-124966336D01*
X134318780Y-125000000D01*
X134146220Y-125000000D01*
X133976980Y-124966336D01*
X133817558Y-124900301D01*
X133674082Y-124804434D01*
X133552066Y-124682418D01*
X133456199Y-124538942D01*
X133390164Y-124379520D01*
X133356500Y-124210279D01*
X133356500Y-124037721D01*
X133390164Y-123868480D01*
X133456199Y-123709058D01*
X133552066Y-123565582D01*
X133674082Y-123443566D01*
X133817558Y-123347699D01*
X133976980Y-123281664D01*
X134100487Y-123257097D01*
X134146220Y-123248000D01*
X134318780Y-123248000D01*
X134364513Y-123257097D01*
X134364513Y-123257097D01*
G37*
G36*
X136904513Y-123257097D02*
G01*
X137028020Y-123281664D01*
X137187442Y-123347699D01*
X137330918Y-123443566D01*
X137452934Y-123565582D01*
X137548801Y-123709058D01*
X137614836Y-123868480D01*
X137648500Y-124037721D01*
X137648500Y-124210279D01*
X137614836Y-124379520D01*
X137548801Y-124538942D01*
X137452934Y-124682418D01*
X137330918Y-124804434D01*
X137187442Y-124900301D01*
X137028020Y-124966336D01*
X136858780Y-125000000D01*
X136686220Y-125000000D01*
X136516980Y-124966336D01*
X136357558Y-124900301D01*
X136214082Y-124804434D01*
X136092066Y-124682418D01*
X135996199Y-124538942D01*
X135930164Y-124379520D01*
X135896500Y-124210279D01*
X135896500Y-124037721D01*
X135930164Y-123868480D01*
X135996199Y-123709058D01*
X136092066Y-123565582D01*
X136214082Y-123443566D01*
X136357558Y-123347699D01*
X136516980Y-123281664D01*
X136640487Y-123257097D01*
X136686220Y-123248000D01*
X136858780Y-123248000D01*
X136904513Y-123257097D01*
X136904513Y-123257097D01*
G37*
G36*
X128903513Y-123257097D02*
G01*
X129027020Y-123281664D01*
X129186442Y-123347699D01*
X129329918Y-123443566D01*
X129451934Y-123565582D01*
X129547801Y-123709058D01*
X129613836Y-123868480D01*
X129647500Y-124037721D01*
X129647500Y-124210279D01*
X129613836Y-124379520D01*
X129547801Y-124538942D01*
X129451934Y-124682418D01*
X129329918Y-124804434D01*
X129186442Y-124900301D01*
X129027020Y-124966336D01*
X128857780Y-125000000D01*
X128685220Y-125000000D01*
X128515980Y-124966336D01*
X128356558Y-124900301D01*
X128213082Y-124804434D01*
X128091066Y-124682418D01*
X127995199Y-124538942D01*
X127929164Y-124379520D01*
X127895500Y-124210279D01*
X127895500Y-124037721D01*
X127929164Y-123868480D01*
X127995199Y-123709058D01*
X128091066Y-123565582D01*
X128213082Y-123443566D01*
X128356558Y-123347699D01*
X128515980Y-123281664D01*
X128639487Y-123257097D01*
X128685220Y-123248000D01*
X128857780Y-123248000D01*
X128903513Y-123257097D01*
X128903513Y-123257097D01*
G37*
G36*
X131443513Y-123257097D02*
G01*
X131567020Y-123281664D01*
X131726442Y-123347699D01*
X131869918Y-123443566D01*
X131991934Y-123565582D01*
X132087801Y-123709058D01*
X132153836Y-123868480D01*
X132187500Y-124037721D01*
X132187500Y-124210279D01*
X132153836Y-124379520D01*
X132087801Y-124538942D01*
X131991934Y-124682418D01*
X131869918Y-124804434D01*
X131726442Y-124900301D01*
X131567020Y-124966336D01*
X131397780Y-125000000D01*
X131225220Y-125000000D01*
X131055980Y-124966336D01*
X130896558Y-124900301D01*
X130753082Y-124804434D01*
X130631066Y-124682418D01*
X130535199Y-124538942D01*
X130469164Y-124379520D01*
X130435500Y-124210279D01*
X130435500Y-124037721D01*
X130469164Y-123868480D01*
X130535199Y-123709058D01*
X130631066Y-123565582D01*
X130753082Y-123443566D01*
X130896558Y-123347699D01*
X131055980Y-123281664D01*
X131179487Y-123257097D01*
X131225220Y-123248000D01*
X131397780Y-123248000D01*
X131443513Y-123257097D01*
X131443513Y-123257097D01*
G37*
G36*
X207674143Y-122454087D02*
G01*
X207830838Y-122518992D01*
X207971853Y-122613215D01*
X208091785Y-122733147D01*
X208186008Y-122874162D01*
X208250913Y-123030857D01*
X208284000Y-123197198D01*
X208284000Y-123366802D01*
X208250913Y-123533143D01*
X208186008Y-123689838D01*
X208091785Y-123830853D01*
X207971853Y-123950785D01*
X207830838Y-124045008D01*
X207674143Y-124109913D01*
X207507802Y-124143000D01*
X207338198Y-124143000D01*
X207171857Y-124109913D01*
X207015162Y-124045008D01*
X206874147Y-123950785D01*
X206754215Y-123830853D01*
X206659992Y-123689838D01*
X206595087Y-123533143D01*
X206562000Y-123366802D01*
X206562000Y-123197198D01*
X206595087Y-123030857D01*
X206659992Y-122874162D01*
X206754215Y-122733147D01*
X206874147Y-122613215D01*
X207015162Y-122518992D01*
X207171857Y-122454087D01*
X207338198Y-122421000D01*
X207507802Y-122421000D01*
X207674143Y-122454087D01*
X207674143Y-122454087D01*
G37*
G36*
X184702000Y-124136000D02*
G01*
X182900000Y-124136000D01*
X182900000Y-122334000D01*
X184702000Y-122334000D01*
X184702000Y-124136000D01*
X184702000Y-124136000D01*
G37*
G36*
X186451443Y-122340519D02*
G01*
X186517627Y-122347037D01*
X186687466Y-122398557D01*
X186843991Y-122482222D01*
X186879729Y-122511552D01*
X186981186Y-122594814D01*
X187056985Y-122687177D01*
X187093778Y-122732009D01*
X187177443Y-122888534D01*
X187228963Y-123058373D01*
X187246359Y-123235000D01*
X187228963Y-123411627D01*
X187177443Y-123581466D01*
X187093778Y-123737991D01*
X187064448Y-123773729D01*
X186981186Y-123875186D01*
X186889067Y-123950785D01*
X186843991Y-123987778D01*
X186687466Y-124071443D01*
X186517627Y-124122963D01*
X186451443Y-124129481D01*
X186385260Y-124136000D01*
X186296740Y-124136000D01*
X186230557Y-124129481D01*
X186164373Y-124122963D01*
X185994534Y-124071443D01*
X185838009Y-123987778D01*
X185792933Y-123950785D01*
X185700814Y-123875186D01*
X185617552Y-123773729D01*
X185588222Y-123737991D01*
X185504557Y-123581466D01*
X185453037Y-123411627D01*
X185435641Y-123235000D01*
X185453037Y-123058373D01*
X185504557Y-122888534D01*
X185588222Y-122732009D01*
X185625015Y-122687177D01*
X185700814Y-122594814D01*
X185802271Y-122511552D01*
X185838009Y-122482222D01*
X185994534Y-122398557D01*
X186164373Y-122347037D01*
X186230557Y-122340519D01*
X186296740Y-122334000D01*
X186385260Y-122334000D01*
X186451443Y-122340519D01*
X186451443Y-122340519D01*
G37*
G36*
X191531443Y-122340519D02*
G01*
X191597627Y-122347037D01*
X191767466Y-122398557D01*
X191923991Y-122482222D01*
X191959729Y-122511552D01*
X192061186Y-122594814D01*
X192136985Y-122687177D01*
X192173778Y-122732009D01*
X192257443Y-122888534D01*
X192308963Y-123058373D01*
X192326359Y-123235000D01*
X192308963Y-123411627D01*
X192257443Y-123581466D01*
X192173778Y-123737991D01*
X192144448Y-123773729D01*
X192061186Y-123875186D01*
X191969067Y-123950785D01*
X191923991Y-123987778D01*
X191767466Y-124071443D01*
X191597627Y-124122963D01*
X191531443Y-124129481D01*
X191465260Y-124136000D01*
X191376740Y-124136000D01*
X191310557Y-124129481D01*
X191244373Y-124122963D01*
X191074534Y-124071443D01*
X190918009Y-123987778D01*
X190872933Y-123950785D01*
X190780814Y-123875186D01*
X190697552Y-123773729D01*
X190668222Y-123737991D01*
X190584557Y-123581466D01*
X190533037Y-123411627D01*
X190515641Y-123235000D01*
X190533037Y-123058373D01*
X190584557Y-122888534D01*
X190668222Y-122732009D01*
X190705015Y-122687177D01*
X190780814Y-122594814D01*
X190882271Y-122511552D01*
X190918009Y-122482222D01*
X191074534Y-122398557D01*
X191244373Y-122347037D01*
X191310557Y-122340519D01*
X191376740Y-122334000D01*
X191465260Y-122334000D01*
X191531443Y-122340519D01*
X191531443Y-122340519D01*
G37*
G36*
X188991443Y-122340519D02*
G01*
X189057627Y-122347037D01*
X189227466Y-122398557D01*
X189383991Y-122482222D01*
X189419729Y-122511552D01*
X189521186Y-122594814D01*
X189596985Y-122687177D01*
X189633778Y-122732009D01*
X189717443Y-122888534D01*
X189768963Y-123058373D01*
X189786359Y-123235000D01*
X189768963Y-123411627D01*
X189717443Y-123581466D01*
X189633778Y-123737991D01*
X189604448Y-123773729D01*
X189521186Y-123875186D01*
X189429067Y-123950785D01*
X189383991Y-123987778D01*
X189227466Y-124071443D01*
X189057627Y-124122963D01*
X188991443Y-124129481D01*
X188925260Y-124136000D01*
X188836740Y-124136000D01*
X188770557Y-124129481D01*
X188704373Y-124122963D01*
X188534534Y-124071443D01*
X188378009Y-123987778D01*
X188332933Y-123950785D01*
X188240814Y-123875186D01*
X188157552Y-123773729D01*
X188128222Y-123737991D01*
X188044557Y-123581466D01*
X187993037Y-123411627D01*
X187975641Y-123235000D01*
X187993037Y-123058373D01*
X188044557Y-122888534D01*
X188128222Y-122732009D01*
X188165015Y-122687177D01*
X188240814Y-122594814D01*
X188342271Y-122511552D01*
X188378009Y-122482222D01*
X188534534Y-122398557D01*
X188704373Y-122347037D01*
X188770557Y-122340519D01*
X188836740Y-122334000D01*
X188925260Y-122334000D01*
X188991443Y-122340519D01*
X188991443Y-122340519D01*
G37*
G36*
X210383823Y-122015313D02*
G01*
X210544242Y-122063976D01*
X210611361Y-122099852D01*
X210692078Y-122142996D01*
X210821659Y-122249341D01*
X210928004Y-122378922D01*
X210928005Y-122378924D01*
X211007024Y-122526758D01*
X211055687Y-122687177D01*
X211072117Y-122854000D01*
X211055687Y-123020823D01*
X211007024Y-123181242D01*
X210966477Y-123257100D01*
X210928004Y-123329078D01*
X210821659Y-123458659D01*
X210692078Y-123565004D01*
X210692076Y-123565005D01*
X210544242Y-123644024D01*
X210383823Y-123692687D01*
X210258804Y-123705000D01*
X210175196Y-123705000D01*
X210050177Y-123692687D01*
X209889758Y-123644024D01*
X209741924Y-123565005D01*
X209741922Y-123565004D01*
X209612341Y-123458659D01*
X209505996Y-123329078D01*
X209467523Y-123257100D01*
X209426976Y-123181242D01*
X209378313Y-123020823D01*
X209361883Y-122854000D01*
X209378313Y-122687177D01*
X209426976Y-122526758D01*
X209505995Y-122378924D01*
X209505996Y-122378922D01*
X209612341Y-122249341D01*
X209741922Y-122142996D01*
X209822639Y-122099852D01*
X209889758Y-122063976D01*
X210050177Y-122015313D01*
X210175196Y-122003000D01*
X210258804Y-122003000D01*
X210383823Y-122015313D01*
X210383823Y-122015313D01*
G37*
G36*
X218085228Y-122035703D02*
G01*
X218240100Y-122099853D01*
X218379481Y-122192985D01*
X218498015Y-122311519D01*
X218591147Y-122450900D01*
X218655297Y-122605772D01*
X218688000Y-122770184D01*
X218688000Y-122937816D01*
X218655297Y-123102228D01*
X218591147Y-123257100D01*
X218498015Y-123396481D01*
X218379481Y-123515015D01*
X218240100Y-123608147D01*
X218085228Y-123672297D01*
X217920816Y-123705000D01*
X217753184Y-123705000D01*
X217588772Y-123672297D01*
X217433900Y-123608147D01*
X217294519Y-123515015D01*
X217175985Y-123396481D01*
X217082853Y-123257100D01*
X217018703Y-123102228D01*
X216986000Y-122937816D01*
X216986000Y-122770184D01*
X217018703Y-122605772D01*
X217082853Y-122450900D01*
X217175985Y-122311519D01*
X217294519Y-122192985D01*
X217433900Y-122099853D01*
X217588772Y-122035703D01*
X217753184Y-122003000D01*
X217920816Y-122003000D01*
X218085228Y-122035703D01*
X218085228Y-122035703D01*
G37*
G36*
X134488020Y-120741664D02*
G01*
X134647442Y-120807699D01*
X134790918Y-120903566D01*
X134912934Y-121025582D01*
X135008801Y-121169058D01*
X135074836Y-121328480D01*
X135108500Y-121497721D01*
X135108500Y-121670279D01*
X135074836Y-121839520D01*
X135008801Y-121998942D01*
X134912934Y-122142418D01*
X134790918Y-122264434D01*
X134647442Y-122360301D01*
X134488020Y-122426336D01*
X134318780Y-122460000D01*
X134146220Y-122460000D01*
X133976980Y-122426336D01*
X133817558Y-122360301D01*
X133674082Y-122264434D01*
X133552066Y-122142418D01*
X133456199Y-121998942D01*
X133390164Y-121839520D01*
X133356500Y-121670279D01*
X133356500Y-121497721D01*
X133390164Y-121328480D01*
X133456199Y-121169058D01*
X133552066Y-121025582D01*
X133674082Y-120903566D01*
X133817558Y-120807699D01*
X133976980Y-120741664D01*
X134146220Y-120708000D01*
X134318780Y-120708000D01*
X134488020Y-120741664D01*
X134488020Y-120741664D01*
G37*
G36*
X129027020Y-120741664D02*
G01*
X129186442Y-120807699D01*
X129329918Y-120903566D01*
X129451934Y-121025582D01*
X129547801Y-121169058D01*
X129613836Y-121328480D01*
X129647500Y-121497721D01*
X129647500Y-121670279D01*
X129613836Y-121839520D01*
X129547801Y-121998942D01*
X129451934Y-122142418D01*
X129329918Y-122264434D01*
X129186442Y-122360301D01*
X129027020Y-122426336D01*
X128857780Y-122460000D01*
X128685220Y-122460000D01*
X128515980Y-122426336D01*
X128356558Y-122360301D01*
X128213082Y-122264434D01*
X128091066Y-122142418D01*
X127995199Y-121998942D01*
X127929164Y-121839520D01*
X127895500Y-121670279D01*
X127895500Y-121497721D01*
X127929164Y-121328480D01*
X127995199Y-121169058D01*
X128091066Y-121025582D01*
X128213082Y-120903566D01*
X128356558Y-120807699D01*
X128515980Y-120741664D01*
X128685220Y-120708000D01*
X128857780Y-120708000D01*
X129027020Y-120741664D01*
X129027020Y-120741664D01*
G37*
G36*
X131567020Y-120741664D02*
G01*
X131726442Y-120807699D01*
X131869918Y-120903566D01*
X131991934Y-121025582D01*
X132087801Y-121169058D01*
X132153836Y-121328480D01*
X132187500Y-121497721D01*
X132187500Y-121670279D01*
X132153836Y-121839520D01*
X132087801Y-121998942D01*
X131991934Y-122142418D01*
X131869918Y-122264434D01*
X131726442Y-122360301D01*
X131567020Y-122426336D01*
X131397780Y-122460000D01*
X131225220Y-122460000D01*
X131055980Y-122426336D01*
X130896558Y-122360301D01*
X130753082Y-122264434D01*
X130631066Y-122142418D01*
X130535199Y-121998942D01*
X130469164Y-121839520D01*
X130435500Y-121670279D01*
X130435500Y-121497721D01*
X130469164Y-121328480D01*
X130535199Y-121169058D01*
X130631066Y-121025582D01*
X130753082Y-120903566D01*
X130896558Y-120807699D01*
X131055980Y-120741664D01*
X131225220Y-120708000D01*
X131397780Y-120708000D01*
X131567020Y-120741664D01*
X131567020Y-120741664D01*
G37*
G36*
X137028020Y-120741664D02*
G01*
X137187442Y-120807699D01*
X137330918Y-120903566D01*
X137452934Y-121025582D01*
X137548801Y-121169058D01*
X137614836Y-121328480D01*
X137648500Y-121497721D01*
X137648500Y-121670279D01*
X137614836Y-121839520D01*
X137548801Y-121998942D01*
X137452934Y-122142418D01*
X137330918Y-122264434D01*
X137187442Y-122360301D01*
X137028020Y-122426336D01*
X136858780Y-122460000D01*
X136686220Y-122460000D01*
X136516980Y-122426336D01*
X136357558Y-122360301D01*
X136214082Y-122264434D01*
X136092066Y-122142418D01*
X135996199Y-121998942D01*
X135930164Y-121839520D01*
X135896500Y-121670279D01*
X135896500Y-121497721D01*
X135930164Y-121328480D01*
X135996199Y-121169058D01*
X136092066Y-121025582D01*
X136214082Y-120903566D01*
X136357558Y-120807699D01*
X136516980Y-120741664D01*
X136686220Y-120708000D01*
X136858780Y-120708000D01*
X137028020Y-120741664D01*
X137028020Y-120741664D01*
G37*
G36*
X202674143Y-119954087D02*
G01*
X202830838Y-120018992D01*
X202971853Y-120113215D01*
X203091785Y-120233147D01*
X203186008Y-120374162D01*
X203250913Y-120530857D01*
X203284000Y-120697198D01*
X203284000Y-120866802D01*
X203250913Y-121033143D01*
X203186008Y-121189838D01*
X203091785Y-121330853D01*
X202971853Y-121450785D01*
X202830838Y-121545008D01*
X202674143Y-121609913D01*
X202507802Y-121643000D01*
X202338198Y-121643000D01*
X202171857Y-121609913D01*
X202015162Y-121545008D01*
X201874147Y-121450785D01*
X201754215Y-121330853D01*
X201659992Y-121189838D01*
X201595087Y-121033143D01*
X201562000Y-120866802D01*
X201562000Y-120697198D01*
X201595087Y-120530857D01*
X201659992Y-120374162D01*
X201754215Y-120233147D01*
X201874147Y-120113215D01*
X202015162Y-120018992D01*
X202171857Y-119954087D01*
X202338198Y-119921000D01*
X202507802Y-119921000D01*
X202674143Y-119954087D01*
X202674143Y-119954087D01*
G37*
G36*
X131482399Y-118184832D02*
G01*
X131567020Y-118201664D01*
X131726442Y-118267699D01*
X131869918Y-118363566D01*
X131991934Y-118485582D01*
X132087801Y-118629058D01*
X132153836Y-118788480D01*
X132153836Y-118788481D01*
X132186121Y-118950785D01*
X132187500Y-118957721D01*
X132187500Y-119130279D01*
X132153836Y-119299520D01*
X132087801Y-119458942D01*
X131991934Y-119602418D01*
X131869918Y-119724434D01*
X131726442Y-119820301D01*
X131567020Y-119886336D01*
X131397780Y-119920000D01*
X131225220Y-119920000D01*
X131055980Y-119886336D01*
X130896558Y-119820301D01*
X130753082Y-119724434D01*
X130631066Y-119602418D01*
X130535199Y-119458942D01*
X130469164Y-119299520D01*
X130435500Y-119130279D01*
X130435500Y-118957721D01*
X130436880Y-118950785D01*
X130469164Y-118788481D01*
X130469164Y-118788480D01*
X130535199Y-118629058D01*
X130631066Y-118485582D01*
X130753082Y-118363566D01*
X130896558Y-118267699D01*
X131055980Y-118201664D01*
X131140601Y-118184832D01*
X131225220Y-118168000D01*
X131397780Y-118168000D01*
X131482399Y-118184832D01*
X131482399Y-118184832D01*
G37*
G36*
X128942399Y-118184832D02*
G01*
X129027020Y-118201664D01*
X129186442Y-118267699D01*
X129329918Y-118363566D01*
X129451934Y-118485582D01*
X129547801Y-118629058D01*
X129613836Y-118788480D01*
X129613836Y-118788481D01*
X129646121Y-118950785D01*
X129647500Y-118957721D01*
X129647500Y-119130279D01*
X129613836Y-119299520D01*
X129547801Y-119458942D01*
X129451934Y-119602418D01*
X129329918Y-119724434D01*
X129186442Y-119820301D01*
X129027020Y-119886336D01*
X128857780Y-119920000D01*
X128685220Y-119920000D01*
X128515980Y-119886336D01*
X128356558Y-119820301D01*
X128213082Y-119724434D01*
X128091066Y-119602418D01*
X127995199Y-119458942D01*
X127929164Y-119299520D01*
X127895500Y-119130279D01*
X127895500Y-118957721D01*
X127896880Y-118950785D01*
X127929164Y-118788481D01*
X127929164Y-118788480D01*
X127995199Y-118629058D01*
X128091066Y-118485582D01*
X128213082Y-118363566D01*
X128356558Y-118267699D01*
X128515980Y-118201664D01*
X128600601Y-118184832D01*
X128685220Y-118168000D01*
X128857780Y-118168000D01*
X128942399Y-118184832D01*
X128942399Y-118184832D01*
G37*
G36*
X134403399Y-118184832D02*
G01*
X134488020Y-118201664D01*
X134647442Y-118267699D01*
X134790918Y-118363566D01*
X134912934Y-118485582D01*
X135008801Y-118629058D01*
X135074836Y-118788480D01*
X135074836Y-118788481D01*
X135107121Y-118950785D01*
X135108500Y-118957721D01*
X135108500Y-119130279D01*
X135074836Y-119299520D01*
X135008801Y-119458942D01*
X134912934Y-119602418D01*
X134790918Y-119724434D01*
X134647442Y-119820301D01*
X134488020Y-119886336D01*
X134318780Y-119920000D01*
X134146220Y-119920000D01*
X133976980Y-119886336D01*
X133817558Y-119820301D01*
X133674082Y-119724434D01*
X133552066Y-119602418D01*
X133456199Y-119458942D01*
X133390164Y-119299520D01*
X133356500Y-119130279D01*
X133356500Y-118957721D01*
X133357880Y-118950785D01*
X133390164Y-118788481D01*
X133390164Y-118788480D01*
X133456199Y-118629058D01*
X133552066Y-118485582D01*
X133674082Y-118363566D01*
X133817558Y-118267699D01*
X133976980Y-118201664D01*
X134061601Y-118184832D01*
X134146220Y-118168000D01*
X134318780Y-118168000D01*
X134403399Y-118184832D01*
X134403399Y-118184832D01*
G37*
G36*
X136943399Y-118184832D02*
G01*
X137028020Y-118201664D01*
X137187442Y-118267699D01*
X137330918Y-118363566D01*
X137452934Y-118485582D01*
X137548801Y-118629058D01*
X137614836Y-118788480D01*
X137614836Y-118788481D01*
X137647121Y-118950785D01*
X137648500Y-118957721D01*
X137648500Y-119130279D01*
X137614836Y-119299520D01*
X137548801Y-119458942D01*
X137452934Y-119602418D01*
X137330918Y-119724434D01*
X137187442Y-119820301D01*
X137028020Y-119886336D01*
X136858780Y-119920000D01*
X136686220Y-119920000D01*
X136516980Y-119886336D01*
X136357558Y-119820301D01*
X136214082Y-119724434D01*
X136092066Y-119602418D01*
X135996199Y-119458942D01*
X135930164Y-119299520D01*
X135896500Y-119130279D01*
X135896500Y-118957721D01*
X135897880Y-118950785D01*
X135930164Y-118788481D01*
X135930164Y-118788480D01*
X135996199Y-118629058D01*
X136092066Y-118485582D01*
X136214082Y-118363566D01*
X136357558Y-118267699D01*
X136516980Y-118201664D01*
X136601601Y-118184832D01*
X136686220Y-118168000D01*
X136858780Y-118168000D01*
X136943399Y-118184832D01*
X136943399Y-118184832D01*
G37*
G36*
X207674143Y-117454087D02*
G01*
X207830838Y-117518992D01*
X207971853Y-117613215D01*
X208091785Y-117733147D01*
X208186008Y-117874162D01*
X208250913Y-118030857D01*
X208284000Y-118197198D01*
X208284000Y-118366802D01*
X208250913Y-118533143D01*
X208186008Y-118689838D01*
X208091785Y-118830853D01*
X207971853Y-118950785D01*
X207830838Y-119045008D01*
X207674143Y-119109913D01*
X207507802Y-119143000D01*
X207338198Y-119143000D01*
X207171857Y-119109913D01*
X207015162Y-119045008D01*
X206874147Y-118950785D01*
X206754215Y-118830853D01*
X206659992Y-118689838D01*
X206595087Y-118533143D01*
X206562000Y-118366802D01*
X206562000Y-118197198D01*
X206595087Y-118030857D01*
X206659992Y-117874162D01*
X206754215Y-117733147D01*
X206874147Y-117613215D01*
X207015162Y-117518992D01*
X207171857Y-117454087D01*
X207338198Y-117421000D01*
X207507802Y-117421000D01*
X207674143Y-117454087D01*
X207674143Y-117454087D01*
G37*
G36*
X136943399Y-115644832D02*
G01*
X137028020Y-115661664D01*
X137187442Y-115727699D01*
X137330918Y-115823566D01*
X137452934Y-115945582D01*
X137548801Y-116089058D01*
X137614836Y-116248480D01*
X137648500Y-116417721D01*
X137648500Y-116590279D01*
X137614836Y-116759520D01*
X137548801Y-116918942D01*
X137452934Y-117062418D01*
X137330918Y-117184434D01*
X137187442Y-117280301D01*
X137028020Y-117346336D01*
X136858780Y-117380000D01*
X136686220Y-117380000D01*
X136516980Y-117346336D01*
X136357558Y-117280301D01*
X136214082Y-117184434D01*
X136092066Y-117062418D01*
X135996199Y-116918942D01*
X135930164Y-116759520D01*
X135896500Y-116590279D01*
X135896500Y-116417721D01*
X135930164Y-116248480D01*
X135996199Y-116089058D01*
X136092066Y-115945582D01*
X136214082Y-115823566D01*
X136357558Y-115727699D01*
X136516980Y-115661664D01*
X136601601Y-115644832D01*
X136686220Y-115628000D01*
X136858780Y-115628000D01*
X136943399Y-115644832D01*
X136943399Y-115644832D01*
G37*
G36*
X134403399Y-115644832D02*
G01*
X134488020Y-115661664D01*
X134647442Y-115727699D01*
X134790918Y-115823566D01*
X134912934Y-115945582D01*
X135008801Y-116089058D01*
X135074836Y-116248480D01*
X135108500Y-116417721D01*
X135108500Y-116590279D01*
X135074836Y-116759520D01*
X135008801Y-116918942D01*
X134912934Y-117062418D01*
X134790918Y-117184434D01*
X134647442Y-117280301D01*
X134488020Y-117346336D01*
X134318780Y-117380000D01*
X134146220Y-117380000D01*
X133976980Y-117346336D01*
X133817558Y-117280301D01*
X133674082Y-117184434D01*
X133552066Y-117062418D01*
X133456199Y-116918942D01*
X133390164Y-116759520D01*
X133356500Y-116590279D01*
X133356500Y-116417721D01*
X133390164Y-116248480D01*
X133456199Y-116089058D01*
X133552066Y-115945582D01*
X133674082Y-115823566D01*
X133817558Y-115727699D01*
X133976980Y-115661664D01*
X134061601Y-115644832D01*
X134146220Y-115628000D01*
X134318780Y-115628000D01*
X134403399Y-115644832D01*
X134403399Y-115644832D01*
G37*
G36*
X131482399Y-115644832D02*
G01*
X131567020Y-115661664D01*
X131726442Y-115727699D01*
X131869918Y-115823566D01*
X131991934Y-115945582D01*
X132087801Y-116089058D01*
X132153836Y-116248480D01*
X132187500Y-116417721D01*
X132187500Y-116590279D01*
X132153836Y-116759520D01*
X132087801Y-116918942D01*
X131991934Y-117062418D01*
X131869918Y-117184434D01*
X131726442Y-117280301D01*
X131567020Y-117346336D01*
X131397780Y-117380000D01*
X131225220Y-117380000D01*
X131055980Y-117346336D01*
X130896558Y-117280301D01*
X130753082Y-117184434D01*
X130631066Y-117062418D01*
X130535199Y-116918942D01*
X130469164Y-116759520D01*
X130435500Y-116590279D01*
X130435500Y-116417721D01*
X130469164Y-116248480D01*
X130535199Y-116089058D01*
X130631066Y-115945582D01*
X130753082Y-115823566D01*
X130896558Y-115727699D01*
X131055980Y-115661664D01*
X131140601Y-115644832D01*
X131225220Y-115628000D01*
X131397780Y-115628000D01*
X131482399Y-115644832D01*
X131482399Y-115644832D01*
G37*
G36*
X128942399Y-115644832D02*
G01*
X129027020Y-115661664D01*
X129186442Y-115727699D01*
X129329918Y-115823566D01*
X129451934Y-115945582D01*
X129547801Y-116089058D01*
X129613836Y-116248480D01*
X129647500Y-116417721D01*
X129647500Y-116590279D01*
X129613836Y-116759520D01*
X129547801Y-116918942D01*
X129451934Y-117062418D01*
X129329918Y-117184434D01*
X129186442Y-117280301D01*
X129027020Y-117346336D01*
X128857780Y-117380000D01*
X128685220Y-117380000D01*
X128515980Y-117346336D01*
X128356558Y-117280301D01*
X128213082Y-117184434D01*
X128091066Y-117062418D01*
X127995199Y-116918942D01*
X127929164Y-116759520D01*
X127895500Y-116590279D01*
X127895500Y-116417721D01*
X127929164Y-116248480D01*
X127995199Y-116089058D01*
X128091066Y-115945582D01*
X128213082Y-115823566D01*
X128356558Y-115727699D01*
X128515980Y-115661664D01*
X128600601Y-115644832D01*
X128685220Y-115628000D01*
X128857780Y-115628000D01*
X128942399Y-115644832D01*
X128942399Y-115644832D01*
G37*
G36*
X203215442Y-113958518D02*
G01*
X203281627Y-113965037D01*
X203451466Y-114016557D01*
X203607991Y-114100222D01*
X203643729Y-114129552D01*
X203745186Y-114212814D01*
X203828448Y-114314271D01*
X203857778Y-114350009D01*
X203941443Y-114506534D01*
X203992963Y-114676373D01*
X204010359Y-114853000D01*
X203992963Y-115029627D01*
X203941443Y-115199466D01*
X203857778Y-115355991D01*
X203831509Y-115388000D01*
X203745186Y-115493186D01*
X203643729Y-115576448D01*
X203607991Y-115605778D01*
X203451466Y-115689443D01*
X203281627Y-115740963D01*
X203215443Y-115747481D01*
X203149260Y-115754000D01*
X203060740Y-115754000D01*
X202994557Y-115747481D01*
X202928373Y-115740963D01*
X202758534Y-115689443D01*
X202602009Y-115605778D01*
X202566271Y-115576448D01*
X202464814Y-115493186D01*
X202378491Y-115388000D01*
X202352222Y-115355991D01*
X202268557Y-115199466D01*
X202217037Y-115029627D01*
X202199641Y-114853000D01*
X202217037Y-114676373D01*
X202268557Y-114506534D01*
X202352222Y-114350009D01*
X202381552Y-114314271D01*
X202464814Y-114212814D01*
X202566271Y-114129552D01*
X202602009Y-114100222D01*
X202758534Y-114016557D01*
X202928373Y-113965037D01*
X202994558Y-113958518D01*
X203060740Y-113952000D01*
X203149260Y-113952000D01*
X203215442Y-113958518D01*
X203215442Y-113958518D01*
G37*
G36*
X215774143Y-112300000D02*
G01*
X216003410Y-112345604D01*
X216285674Y-112462521D01*
X216539705Y-112632259D01*
X216755741Y-112848295D01*
X216925479Y-113102326D01*
X217042396Y-113384590D01*
X217102000Y-113684240D01*
X217102000Y-113989760D01*
X217042396Y-114289410D01*
X216925479Y-114571674D01*
X216755741Y-114825705D01*
X216539705Y-115041741D01*
X216285674Y-115211479D01*
X216003410Y-115328396D01*
X215864690Y-115355989D01*
X215703761Y-115388000D01*
X215398239Y-115388000D01*
X215237310Y-115355989D01*
X215098590Y-115328396D01*
X214816326Y-115211479D01*
X214562295Y-115041741D01*
X214346259Y-114825705D01*
X214176521Y-114571674D01*
X214059604Y-114289410D01*
X214000000Y-113989760D01*
X214000000Y-113684240D01*
X214059604Y-113384590D01*
X214176521Y-113102326D01*
X214346259Y-112848295D01*
X214562295Y-112632259D01*
X214816326Y-112462521D01*
X215098590Y-112345604D01*
X215327857Y-112300000D01*
X215398239Y-112286000D01*
X215703761Y-112286000D01*
X215774143Y-112300000D01*
X215774143Y-112300000D01*
G37*
G36*
X136930801Y-113102326D02*
G01*
X137028020Y-113121664D01*
X137187442Y-113187699D01*
X137330918Y-113283566D01*
X137452934Y-113405582D01*
X137548801Y-113549058D01*
X137614836Y-113708480D01*
X137648500Y-113877721D01*
X137648500Y-114050279D01*
X137614836Y-114219520D01*
X137548801Y-114378942D01*
X137452934Y-114522418D01*
X137330918Y-114644434D01*
X137187442Y-114740301D01*
X137028020Y-114806336D01*
X136858780Y-114840000D01*
X136686220Y-114840000D01*
X136516980Y-114806336D01*
X136357558Y-114740301D01*
X136214082Y-114644434D01*
X136092066Y-114522418D01*
X135996199Y-114378942D01*
X135930164Y-114219520D01*
X135896500Y-114050279D01*
X135896500Y-113877721D01*
X135930164Y-113708480D01*
X135996199Y-113549058D01*
X136092066Y-113405582D01*
X136214082Y-113283566D01*
X136357558Y-113187699D01*
X136516980Y-113121664D01*
X136614199Y-113102326D01*
X136686220Y-113088000D01*
X136858780Y-113088000D01*
X136930801Y-113102326D01*
X136930801Y-113102326D01*
G37*
G36*
X128929801Y-113102326D02*
G01*
X129027020Y-113121664D01*
X129186442Y-113187699D01*
X129329918Y-113283566D01*
X129451934Y-113405582D01*
X129547801Y-113549058D01*
X129613836Y-113708480D01*
X129647500Y-113877721D01*
X129647500Y-114050279D01*
X129613836Y-114219520D01*
X129547801Y-114378942D01*
X129451934Y-114522418D01*
X129329918Y-114644434D01*
X129186442Y-114740301D01*
X129027020Y-114806336D01*
X128857780Y-114840000D01*
X128685220Y-114840000D01*
X128515980Y-114806336D01*
X128356558Y-114740301D01*
X128213082Y-114644434D01*
X128091066Y-114522418D01*
X127995199Y-114378942D01*
X127929164Y-114219520D01*
X127895500Y-114050279D01*
X127895500Y-113877721D01*
X127929164Y-113708480D01*
X127995199Y-113549058D01*
X128091066Y-113405582D01*
X128213082Y-113283566D01*
X128356558Y-113187699D01*
X128515980Y-113121664D01*
X128613199Y-113102326D01*
X128685220Y-113088000D01*
X128857780Y-113088000D01*
X128929801Y-113102326D01*
X128929801Y-113102326D01*
G37*
G36*
X134390801Y-113102326D02*
G01*
X134488020Y-113121664D01*
X134647442Y-113187699D01*
X134790918Y-113283566D01*
X134912934Y-113405582D01*
X135008801Y-113549058D01*
X135074836Y-113708480D01*
X135108500Y-113877721D01*
X135108500Y-114050279D01*
X135074836Y-114219520D01*
X135008801Y-114378942D01*
X134912934Y-114522418D01*
X134790918Y-114644434D01*
X134647442Y-114740301D01*
X134488020Y-114806336D01*
X134318780Y-114840000D01*
X134146220Y-114840000D01*
X133976980Y-114806336D01*
X133817558Y-114740301D01*
X133674082Y-114644434D01*
X133552066Y-114522418D01*
X133456199Y-114378942D01*
X133390164Y-114219520D01*
X133356500Y-114050279D01*
X133356500Y-113877721D01*
X133390164Y-113708480D01*
X133456199Y-113549058D01*
X133552066Y-113405582D01*
X133674082Y-113283566D01*
X133817558Y-113187699D01*
X133976980Y-113121664D01*
X134074199Y-113102326D01*
X134146220Y-113088000D01*
X134318780Y-113088000D01*
X134390801Y-113102326D01*
X134390801Y-113102326D01*
G37*
G36*
X131469801Y-113102326D02*
G01*
X131567020Y-113121664D01*
X131726442Y-113187699D01*
X131869918Y-113283566D01*
X131991934Y-113405582D01*
X132087801Y-113549058D01*
X132153836Y-113708480D01*
X132187500Y-113877721D01*
X132187500Y-114050279D01*
X132153836Y-114219520D01*
X132087801Y-114378942D01*
X131991934Y-114522418D01*
X131869918Y-114644434D01*
X131726442Y-114740301D01*
X131567020Y-114806336D01*
X131397780Y-114840000D01*
X131225220Y-114840000D01*
X131055980Y-114806336D01*
X130896558Y-114740301D01*
X130753082Y-114644434D01*
X130631066Y-114522418D01*
X130535199Y-114378942D01*
X130469164Y-114219520D01*
X130435500Y-114050279D01*
X130435500Y-113877721D01*
X130469164Y-113708480D01*
X130535199Y-113549058D01*
X130631066Y-113405582D01*
X130753082Y-113283566D01*
X130896558Y-113187699D01*
X131055980Y-113121664D01*
X131153199Y-113102326D01*
X131225220Y-113088000D01*
X131397780Y-113088000D01*
X131469801Y-113102326D01*
X131469801Y-113102326D01*
G37*
G36*
X203215442Y-111418518D02*
G01*
X203281627Y-111425037D01*
X203451466Y-111476557D01*
X203607991Y-111560222D01*
X203643729Y-111589552D01*
X203745186Y-111672814D01*
X203828448Y-111774271D01*
X203857778Y-111810009D01*
X203941443Y-111966534D01*
X203992963Y-112136373D01*
X204010359Y-112313000D01*
X203992963Y-112489627D01*
X203941443Y-112659466D01*
X203857778Y-112815991D01*
X203831267Y-112848295D01*
X203745186Y-112953186D01*
X203643729Y-113036448D01*
X203607991Y-113065778D01*
X203451466Y-113149443D01*
X203281627Y-113200963D01*
X203215442Y-113207482D01*
X203149260Y-113214000D01*
X203060740Y-113214000D01*
X202994558Y-113207482D01*
X202928373Y-113200963D01*
X202758534Y-113149443D01*
X202602009Y-113065778D01*
X202566271Y-113036448D01*
X202464814Y-112953186D01*
X202378733Y-112848295D01*
X202352222Y-112815991D01*
X202268557Y-112659466D01*
X202217037Y-112489627D01*
X202199641Y-112313000D01*
X202217037Y-112136373D01*
X202268557Y-111966534D01*
X202352222Y-111810009D01*
X202381552Y-111774271D01*
X202464814Y-111672814D01*
X202566271Y-111589552D01*
X202602009Y-111560222D01*
X202758534Y-111476557D01*
X202928373Y-111425037D01*
X202994558Y-111418518D01*
X203060740Y-111412000D01*
X203149260Y-111412000D01*
X203215442Y-111418518D01*
X203215442Y-111418518D01*
G37*
G36*
X128942399Y-110564832D02*
G01*
X129027020Y-110581664D01*
X129186442Y-110647699D01*
X129329918Y-110743566D01*
X129451934Y-110865582D01*
X129547801Y-111009058D01*
X129613836Y-111168480D01*
X129647500Y-111337721D01*
X129647500Y-111510279D01*
X129613836Y-111679520D01*
X129547801Y-111838942D01*
X129451934Y-111982418D01*
X129329918Y-112104434D01*
X129186442Y-112200301D01*
X129027020Y-112266336D01*
X128942399Y-112283168D01*
X128857780Y-112300000D01*
X128685220Y-112300000D01*
X128600601Y-112283168D01*
X128515980Y-112266336D01*
X128356558Y-112200301D01*
X128213082Y-112104434D01*
X128091066Y-111982418D01*
X127995199Y-111838942D01*
X127929164Y-111679520D01*
X127895500Y-111510279D01*
X127895500Y-111337721D01*
X127929164Y-111168480D01*
X127995199Y-111009058D01*
X128091066Y-110865582D01*
X128213082Y-110743566D01*
X128356558Y-110647699D01*
X128515980Y-110581664D01*
X128600601Y-110564832D01*
X128685220Y-110548000D01*
X128857780Y-110548000D01*
X128942399Y-110564832D01*
X128942399Y-110564832D01*
G37*
G36*
X131482399Y-110564832D02*
G01*
X131567020Y-110581664D01*
X131726442Y-110647699D01*
X131869918Y-110743566D01*
X131991934Y-110865582D01*
X132087801Y-111009058D01*
X132153836Y-111168480D01*
X132187500Y-111337721D01*
X132187500Y-111510279D01*
X132153836Y-111679520D01*
X132087801Y-111838942D01*
X131991934Y-111982418D01*
X131869918Y-112104434D01*
X131726442Y-112200301D01*
X131567020Y-112266336D01*
X131482399Y-112283168D01*
X131397780Y-112300000D01*
X131225220Y-112300000D01*
X131140601Y-112283168D01*
X131055980Y-112266336D01*
X130896558Y-112200301D01*
X130753082Y-112104434D01*
X130631066Y-111982418D01*
X130535199Y-111838942D01*
X130469164Y-111679520D01*
X130435500Y-111510279D01*
X130435500Y-111337721D01*
X130469164Y-111168480D01*
X130535199Y-111009058D01*
X130631066Y-110865582D01*
X130753082Y-110743566D01*
X130896558Y-110647699D01*
X131055980Y-110581664D01*
X131140601Y-110564832D01*
X131225220Y-110548000D01*
X131397780Y-110548000D01*
X131482399Y-110564832D01*
X131482399Y-110564832D01*
G37*
G36*
X134403399Y-110564832D02*
G01*
X134488020Y-110581664D01*
X134647442Y-110647699D01*
X134790918Y-110743566D01*
X134912934Y-110865582D01*
X135008801Y-111009058D01*
X135074836Y-111168480D01*
X135108500Y-111337721D01*
X135108500Y-111510279D01*
X135074836Y-111679520D01*
X135008801Y-111838942D01*
X134912934Y-111982418D01*
X134790918Y-112104434D01*
X134647442Y-112200301D01*
X134488020Y-112266336D01*
X134403399Y-112283168D01*
X134318780Y-112300000D01*
X134146220Y-112300000D01*
X134061601Y-112283168D01*
X133976980Y-112266336D01*
X133817558Y-112200301D01*
X133674082Y-112104434D01*
X133552066Y-111982418D01*
X133456199Y-111838942D01*
X133390164Y-111679520D01*
X133356500Y-111510279D01*
X133356500Y-111337721D01*
X133390164Y-111168480D01*
X133456199Y-111009058D01*
X133552066Y-110865582D01*
X133674082Y-110743566D01*
X133817558Y-110647699D01*
X133976980Y-110581664D01*
X134061601Y-110564832D01*
X134146220Y-110548000D01*
X134318780Y-110548000D01*
X134403399Y-110564832D01*
X134403399Y-110564832D01*
G37*
G36*
X136943399Y-110564832D02*
G01*
X137028020Y-110581664D01*
X137187442Y-110647699D01*
X137330918Y-110743566D01*
X137452934Y-110865582D01*
X137548801Y-111009058D01*
X137614836Y-111168480D01*
X137648500Y-111337721D01*
X137648500Y-111510279D01*
X137614836Y-111679520D01*
X137548801Y-111838942D01*
X137452934Y-111982418D01*
X137330918Y-112104434D01*
X137187442Y-112200301D01*
X137028020Y-112266336D01*
X136943399Y-112283168D01*
X136858780Y-112300000D01*
X136686220Y-112300000D01*
X136601601Y-112283168D01*
X136516980Y-112266336D01*
X136357558Y-112200301D01*
X136214082Y-112104434D01*
X136092066Y-111982418D01*
X135996199Y-111838942D01*
X135930164Y-111679520D01*
X135896500Y-111510279D01*
X135896500Y-111337721D01*
X135930164Y-111168480D01*
X135996199Y-111009058D01*
X136092066Y-110865582D01*
X136214082Y-110743566D01*
X136357558Y-110647699D01*
X136516980Y-110581664D01*
X136601601Y-110564832D01*
X136686220Y-110548000D01*
X136858780Y-110548000D01*
X136943399Y-110564832D01*
X136943399Y-110564832D01*
G37*
G36*
X203215443Y-108878519D02*
G01*
X203281627Y-108885037D01*
X203451466Y-108936557D01*
X203607991Y-109020222D01*
X203643729Y-109049552D01*
X203745186Y-109132814D01*
X203828448Y-109234271D01*
X203857778Y-109270009D01*
X203941443Y-109426534D01*
X203992963Y-109596373D01*
X204010359Y-109773000D01*
X203992963Y-109949627D01*
X203941443Y-110119466D01*
X203857778Y-110275991D01*
X203828448Y-110311729D01*
X203745186Y-110413186D01*
X203643729Y-110496448D01*
X203607991Y-110525778D01*
X203451466Y-110609443D01*
X203281627Y-110660963D01*
X203215442Y-110667482D01*
X203149260Y-110674000D01*
X203060740Y-110674000D01*
X202994558Y-110667482D01*
X202928373Y-110660963D01*
X202758534Y-110609443D01*
X202602009Y-110525778D01*
X202566271Y-110496448D01*
X202464814Y-110413186D01*
X202381552Y-110311729D01*
X202352222Y-110275991D01*
X202268557Y-110119466D01*
X202217037Y-109949627D01*
X202199641Y-109773000D01*
X202217037Y-109596373D01*
X202268557Y-109426534D01*
X202352222Y-109270009D01*
X202381552Y-109234271D01*
X202464814Y-109132814D01*
X202566271Y-109049552D01*
X202602009Y-109020222D01*
X202758534Y-108936557D01*
X202928373Y-108885037D01*
X202994557Y-108878519D01*
X203060740Y-108872000D01*
X203149260Y-108872000D01*
X203215443Y-108878519D01*
X203215443Y-108878519D01*
G37*
G36*
X128942399Y-108024832D02*
G01*
X129027020Y-108041664D01*
X129186442Y-108107699D01*
X129329918Y-108203566D01*
X129451934Y-108325582D01*
X129547801Y-108469058D01*
X129613836Y-108628480D01*
X129647500Y-108797721D01*
X129647500Y-108970279D01*
X129613836Y-109139520D01*
X129547801Y-109298942D01*
X129451934Y-109442418D01*
X129329918Y-109564434D01*
X129186442Y-109660301D01*
X129027020Y-109726336D01*
X128942399Y-109743168D01*
X128857780Y-109760000D01*
X128685220Y-109760000D01*
X128600601Y-109743168D01*
X128515980Y-109726336D01*
X128356558Y-109660301D01*
X128213082Y-109564434D01*
X128091066Y-109442418D01*
X127995199Y-109298942D01*
X127929164Y-109139520D01*
X127895500Y-108970279D01*
X127895500Y-108797721D01*
X127929164Y-108628480D01*
X127995199Y-108469058D01*
X128091066Y-108325582D01*
X128213082Y-108203566D01*
X128356558Y-108107699D01*
X128515980Y-108041664D01*
X128600601Y-108024832D01*
X128685220Y-108008000D01*
X128857780Y-108008000D01*
X128942399Y-108024832D01*
X128942399Y-108024832D01*
G37*
G36*
X131482399Y-108024832D02*
G01*
X131567020Y-108041664D01*
X131726442Y-108107699D01*
X131869918Y-108203566D01*
X131991934Y-108325582D01*
X132087801Y-108469058D01*
X132153836Y-108628480D01*
X132187500Y-108797721D01*
X132187500Y-108970279D01*
X132153836Y-109139520D01*
X132087801Y-109298942D01*
X131991934Y-109442418D01*
X131869918Y-109564434D01*
X131726442Y-109660301D01*
X131567020Y-109726336D01*
X131482399Y-109743168D01*
X131397780Y-109760000D01*
X131225220Y-109760000D01*
X131140601Y-109743168D01*
X131055980Y-109726336D01*
X130896558Y-109660301D01*
X130753082Y-109564434D01*
X130631066Y-109442418D01*
X130535199Y-109298942D01*
X130469164Y-109139520D01*
X130435500Y-108970279D01*
X130435500Y-108797721D01*
X130469164Y-108628480D01*
X130535199Y-108469058D01*
X130631066Y-108325582D01*
X130753082Y-108203566D01*
X130896558Y-108107699D01*
X131055980Y-108041664D01*
X131140601Y-108024832D01*
X131225220Y-108008000D01*
X131397780Y-108008000D01*
X131482399Y-108024832D01*
X131482399Y-108024832D01*
G37*
G36*
X134403399Y-108024832D02*
G01*
X134488020Y-108041664D01*
X134647442Y-108107699D01*
X134790918Y-108203566D01*
X134912934Y-108325582D01*
X135008801Y-108469058D01*
X135074836Y-108628480D01*
X135108500Y-108797721D01*
X135108500Y-108970279D01*
X135074836Y-109139520D01*
X135008801Y-109298942D01*
X134912934Y-109442418D01*
X134790918Y-109564434D01*
X134647442Y-109660301D01*
X134488020Y-109726336D01*
X134403399Y-109743168D01*
X134318780Y-109760000D01*
X134146220Y-109760000D01*
X134061601Y-109743168D01*
X133976980Y-109726336D01*
X133817558Y-109660301D01*
X133674082Y-109564434D01*
X133552066Y-109442418D01*
X133456199Y-109298942D01*
X133390164Y-109139520D01*
X133356500Y-108970279D01*
X133356500Y-108797721D01*
X133390164Y-108628480D01*
X133456199Y-108469058D01*
X133552066Y-108325582D01*
X133674082Y-108203566D01*
X133817558Y-108107699D01*
X133976980Y-108041664D01*
X134061601Y-108024832D01*
X134146220Y-108008000D01*
X134318780Y-108008000D01*
X134403399Y-108024832D01*
X134403399Y-108024832D01*
G37*
G36*
X136943399Y-108024832D02*
G01*
X137028020Y-108041664D01*
X137187442Y-108107699D01*
X137330918Y-108203566D01*
X137452934Y-108325582D01*
X137548801Y-108469058D01*
X137614836Y-108628480D01*
X137648500Y-108797721D01*
X137648500Y-108970279D01*
X137614836Y-109139520D01*
X137548801Y-109298942D01*
X137452934Y-109442418D01*
X137330918Y-109564434D01*
X137187442Y-109660301D01*
X137028020Y-109726336D01*
X136943399Y-109743168D01*
X136858780Y-109760000D01*
X136686220Y-109760000D01*
X136601601Y-109743168D01*
X136516980Y-109726336D01*
X136357558Y-109660301D01*
X136214082Y-109564434D01*
X136092066Y-109442418D01*
X135996199Y-109298942D01*
X135930164Y-109139520D01*
X135896500Y-108970279D01*
X135896500Y-108797721D01*
X135930164Y-108628480D01*
X135996199Y-108469058D01*
X136092066Y-108325582D01*
X136214082Y-108203566D01*
X136357558Y-108107699D01*
X136516980Y-108041664D01*
X136601601Y-108024832D01*
X136686220Y-108008000D01*
X136858780Y-108008000D01*
X136943399Y-108024832D01*
X136943399Y-108024832D01*
G37*
G36*
X203215443Y-106338519D02*
G01*
X203281627Y-106345037D01*
X203451466Y-106396557D01*
X203607991Y-106480222D01*
X203643729Y-106509552D01*
X203745186Y-106592814D01*
X203828448Y-106694271D01*
X203857778Y-106730009D01*
X203941443Y-106886534D01*
X203992963Y-107056373D01*
X204010359Y-107233000D01*
X203992963Y-107409627D01*
X203941443Y-107579466D01*
X203857778Y-107735991D01*
X203828448Y-107771729D01*
X203745186Y-107873186D01*
X203643729Y-107956448D01*
X203607991Y-107985778D01*
X203451466Y-108069443D01*
X203281627Y-108120963D01*
X203215443Y-108127481D01*
X203149260Y-108134000D01*
X203060740Y-108134000D01*
X202994557Y-108127481D01*
X202928373Y-108120963D01*
X202758534Y-108069443D01*
X202602009Y-107985778D01*
X202566271Y-107956448D01*
X202464814Y-107873186D01*
X202381552Y-107771729D01*
X202352222Y-107735991D01*
X202268557Y-107579466D01*
X202217037Y-107409627D01*
X202199641Y-107233000D01*
X202217037Y-107056373D01*
X202268557Y-106886534D01*
X202352222Y-106730009D01*
X202381552Y-106694271D01*
X202464814Y-106592814D01*
X202566271Y-106509552D01*
X202602009Y-106480222D01*
X202758534Y-106396557D01*
X202928373Y-106345037D01*
X202994557Y-106338519D01*
X203060740Y-106332000D01*
X203149260Y-106332000D01*
X203215443Y-106338519D01*
X203215443Y-106338519D01*
G37*
G36*
X128942399Y-105484832D02*
G01*
X129027020Y-105501664D01*
X129186442Y-105567699D01*
X129329918Y-105663566D01*
X129451934Y-105785582D01*
X129547801Y-105929058D01*
X129613836Y-106088480D01*
X129647500Y-106257721D01*
X129647500Y-106430279D01*
X129613836Y-106599520D01*
X129547801Y-106758942D01*
X129451934Y-106902418D01*
X129329918Y-107024434D01*
X129186442Y-107120301D01*
X129027020Y-107186336D01*
X128942399Y-107203168D01*
X128857780Y-107220000D01*
X128685220Y-107220000D01*
X128600601Y-107203168D01*
X128515980Y-107186336D01*
X128356558Y-107120301D01*
X128213082Y-107024434D01*
X128091066Y-106902418D01*
X127995199Y-106758942D01*
X127929164Y-106599520D01*
X127895500Y-106430279D01*
X127895500Y-106257721D01*
X127929164Y-106088480D01*
X127995199Y-105929058D01*
X128091066Y-105785582D01*
X128213082Y-105663566D01*
X128356558Y-105567699D01*
X128515980Y-105501664D01*
X128685220Y-105468000D01*
X128857780Y-105468000D01*
X128942399Y-105484832D01*
X128942399Y-105484832D01*
G37*
G36*
X131482399Y-105484832D02*
G01*
X131567020Y-105501664D01*
X131726442Y-105567699D01*
X131869918Y-105663566D01*
X131991934Y-105785582D01*
X132087801Y-105929058D01*
X132153836Y-106088480D01*
X132187500Y-106257721D01*
X132187500Y-106430279D01*
X132153836Y-106599520D01*
X132087801Y-106758942D01*
X131991934Y-106902418D01*
X131869918Y-107024434D01*
X131726442Y-107120301D01*
X131567020Y-107186336D01*
X131482399Y-107203168D01*
X131397780Y-107220000D01*
X131225220Y-107220000D01*
X131140601Y-107203168D01*
X131055980Y-107186336D01*
X130896558Y-107120301D01*
X130753082Y-107024434D01*
X130631066Y-106902418D01*
X130535199Y-106758942D01*
X130469164Y-106599520D01*
X130435500Y-106430279D01*
X130435500Y-106257721D01*
X130469164Y-106088480D01*
X130535199Y-105929058D01*
X130631066Y-105785582D01*
X130753082Y-105663566D01*
X130896558Y-105567699D01*
X131055980Y-105501664D01*
X131225220Y-105468000D01*
X131397780Y-105468000D01*
X131482399Y-105484832D01*
X131482399Y-105484832D01*
G37*
G36*
X134403399Y-105484832D02*
G01*
X134488020Y-105501664D01*
X134647442Y-105567699D01*
X134790918Y-105663566D01*
X134912934Y-105785582D01*
X135008801Y-105929058D01*
X135074836Y-106088480D01*
X135108500Y-106257721D01*
X135108500Y-106430279D01*
X135074836Y-106599520D01*
X135008801Y-106758942D01*
X134912934Y-106902418D01*
X134790918Y-107024434D01*
X134647442Y-107120301D01*
X134488020Y-107186336D01*
X134403399Y-107203168D01*
X134318780Y-107220000D01*
X134146220Y-107220000D01*
X134061601Y-107203168D01*
X133976980Y-107186336D01*
X133817558Y-107120301D01*
X133674082Y-107024434D01*
X133552066Y-106902418D01*
X133456199Y-106758942D01*
X133390164Y-106599520D01*
X133356500Y-106430279D01*
X133356500Y-106257721D01*
X133390164Y-106088480D01*
X133456199Y-105929058D01*
X133552066Y-105785582D01*
X133674082Y-105663566D01*
X133817558Y-105567699D01*
X133976980Y-105501664D01*
X134146220Y-105468000D01*
X134318780Y-105468000D01*
X134403399Y-105484832D01*
X134403399Y-105484832D01*
G37*
G36*
X136943399Y-105484832D02*
G01*
X137028020Y-105501664D01*
X137187442Y-105567699D01*
X137330918Y-105663566D01*
X137452934Y-105785582D01*
X137548801Y-105929058D01*
X137614836Y-106088480D01*
X137648500Y-106257721D01*
X137648500Y-106430279D01*
X137614836Y-106599520D01*
X137548801Y-106758942D01*
X137452934Y-106902418D01*
X137330918Y-107024434D01*
X137187442Y-107120301D01*
X137028020Y-107186336D01*
X136943399Y-107203168D01*
X136858780Y-107220000D01*
X136686220Y-107220000D01*
X136601601Y-107203168D01*
X136516980Y-107186336D01*
X136357558Y-107120301D01*
X136214082Y-107024434D01*
X136092066Y-106902418D01*
X135996199Y-106758942D01*
X135930164Y-106599520D01*
X135896500Y-106430279D01*
X135896500Y-106257721D01*
X135930164Y-106088480D01*
X135996199Y-105929058D01*
X136092066Y-105785582D01*
X136214082Y-105663566D01*
X136357558Y-105567699D01*
X136516980Y-105501664D01*
X136686220Y-105468000D01*
X136858780Y-105468000D01*
X136943399Y-105484832D01*
X136943399Y-105484832D01*
G37*
G36*
X203215443Y-103798519D02*
G01*
X203281627Y-103805037D01*
X203451466Y-103856557D01*
X203607991Y-103940222D01*
X203643729Y-103969552D01*
X203745186Y-104052814D01*
X203828448Y-104154271D01*
X203857778Y-104190009D01*
X203941443Y-104346534D01*
X203992963Y-104516373D01*
X204010359Y-104693000D01*
X203992963Y-104869627D01*
X203941443Y-105039466D01*
X203857778Y-105195991D01*
X203828448Y-105231729D01*
X203745186Y-105333186D01*
X203643729Y-105416448D01*
X203607991Y-105445778D01*
X203451466Y-105529443D01*
X203281627Y-105580963D01*
X203215442Y-105587482D01*
X203149260Y-105594000D01*
X203060740Y-105594000D01*
X202994557Y-105587481D01*
X202928373Y-105580963D01*
X202758534Y-105529443D01*
X202602009Y-105445778D01*
X202566271Y-105416448D01*
X202464814Y-105333186D01*
X202381552Y-105231729D01*
X202352222Y-105195991D01*
X202268557Y-105039466D01*
X202217037Y-104869627D01*
X202199641Y-104693000D01*
X202217037Y-104516373D01*
X202268557Y-104346534D01*
X202352222Y-104190009D01*
X202381552Y-104154271D01*
X202464814Y-104052814D01*
X202566271Y-103969552D01*
X202602009Y-103940222D01*
X202758534Y-103856557D01*
X202928373Y-103805037D01*
X202994557Y-103798519D01*
X203060740Y-103792000D01*
X203149260Y-103792000D01*
X203215443Y-103798519D01*
X203215443Y-103798519D01*
G37*
G36*
X131567020Y-102961664D02*
G01*
X131726442Y-103027699D01*
X131869918Y-103123566D01*
X131991934Y-103245582D01*
X132087801Y-103389058D01*
X132153836Y-103548480D01*
X132187500Y-103717721D01*
X132187500Y-103890279D01*
X132153836Y-104059520D01*
X132087801Y-104218942D01*
X131991934Y-104362418D01*
X131869918Y-104484434D01*
X131726442Y-104580301D01*
X131567020Y-104646336D01*
X131397780Y-104680000D01*
X131225220Y-104680000D01*
X131055980Y-104646336D01*
X130896558Y-104580301D01*
X130753082Y-104484434D01*
X130631066Y-104362418D01*
X130535199Y-104218942D01*
X130469164Y-104059520D01*
X130435500Y-103890279D01*
X130435500Y-103717721D01*
X130469164Y-103548480D01*
X130535199Y-103389058D01*
X130631066Y-103245582D01*
X130753082Y-103123566D01*
X130896558Y-103027699D01*
X131055980Y-102961664D01*
X131225220Y-102928000D01*
X131397780Y-102928000D01*
X131567020Y-102961664D01*
X131567020Y-102961664D01*
G37*
G36*
X137028020Y-102961664D02*
G01*
X137187442Y-103027699D01*
X137330918Y-103123566D01*
X137452934Y-103245582D01*
X137548801Y-103389058D01*
X137614836Y-103548480D01*
X137648500Y-103717721D01*
X137648500Y-103890279D01*
X137614836Y-104059520D01*
X137548801Y-104218942D01*
X137452934Y-104362418D01*
X137330918Y-104484434D01*
X137187442Y-104580301D01*
X137028020Y-104646336D01*
X136858780Y-104680000D01*
X136686220Y-104680000D01*
X136516980Y-104646336D01*
X136357558Y-104580301D01*
X136214082Y-104484434D01*
X136092066Y-104362418D01*
X135996199Y-104218942D01*
X135930164Y-104059520D01*
X135896500Y-103890279D01*
X135896500Y-103717721D01*
X135930164Y-103548480D01*
X135996199Y-103389058D01*
X136092066Y-103245582D01*
X136214082Y-103123566D01*
X136357558Y-103027699D01*
X136516980Y-102961664D01*
X136686220Y-102928000D01*
X136858780Y-102928000D01*
X137028020Y-102961664D01*
X137028020Y-102961664D01*
G37*
G36*
X134488020Y-102961664D02*
G01*
X134647442Y-103027699D01*
X134790918Y-103123566D01*
X134912934Y-103245582D01*
X135008801Y-103389058D01*
X135074836Y-103548480D01*
X135108500Y-103717721D01*
X135108500Y-103890279D01*
X135074836Y-104059520D01*
X135008801Y-104218942D01*
X134912934Y-104362418D01*
X134790918Y-104484434D01*
X134647442Y-104580301D01*
X134488020Y-104646336D01*
X134318780Y-104680000D01*
X134146220Y-104680000D01*
X133976980Y-104646336D01*
X133817558Y-104580301D01*
X133674082Y-104484434D01*
X133552066Y-104362418D01*
X133456199Y-104218942D01*
X133390164Y-104059520D01*
X133356500Y-103890279D01*
X133356500Y-103717721D01*
X133390164Y-103548480D01*
X133456199Y-103389058D01*
X133552066Y-103245582D01*
X133674082Y-103123566D01*
X133817558Y-103027699D01*
X133976980Y-102961664D01*
X134146220Y-102928000D01*
X134318780Y-102928000D01*
X134488020Y-102961664D01*
X134488020Y-102961664D01*
G37*
G36*
X129027020Y-102961664D02*
G01*
X129186442Y-103027699D01*
X129329918Y-103123566D01*
X129451934Y-103245582D01*
X129547801Y-103389058D01*
X129613836Y-103548480D01*
X129647500Y-103717721D01*
X129647500Y-103890279D01*
X129613836Y-104059520D01*
X129547801Y-104218942D01*
X129451934Y-104362418D01*
X129329918Y-104484434D01*
X129186442Y-104580301D01*
X129027020Y-104646336D01*
X128857780Y-104680000D01*
X128685220Y-104680000D01*
X128515980Y-104646336D01*
X128356558Y-104580301D01*
X128213082Y-104484434D01*
X128091066Y-104362418D01*
X127995199Y-104218942D01*
X127929164Y-104059520D01*
X127895500Y-103890279D01*
X127895500Y-103717721D01*
X127929164Y-103548480D01*
X127995199Y-103389058D01*
X128091066Y-103245582D01*
X128213082Y-103123566D01*
X128356558Y-103027699D01*
X128515980Y-102961664D01*
X128685220Y-102928000D01*
X128857780Y-102928000D01*
X129027020Y-102961664D01*
X129027020Y-102961664D01*
G37*
G36*
X203215443Y-101258519D02*
G01*
X203281627Y-101265037D01*
X203451466Y-101316557D01*
X203607991Y-101400222D01*
X203643729Y-101429552D01*
X203745186Y-101512814D01*
X203828448Y-101614271D01*
X203857778Y-101650009D01*
X203941443Y-101806534D01*
X203992963Y-101976373D01*
X204010359Y-102153000D01*
X203992963Y-102329627D01*
X203941443Y-102499466D01*
X203857778Y-102655991D01*
X203828448Y-102691729D01*
X203745186Y-102793186D01*
X203643729Y-102876448D01*
X203607991Y-102905778D01*
X203451466Y-102989443D01*
X203281627Y-103040963D01*
X203215443Y-103047481D01*
X203149260Y-103054000D01*
X203060740Y-103054000D01*
X202994558Y-103047482D01*
X202928373Y-103040963D01*
X202758534Y-102989443D01*
X202602009Y-102905778D01*
X202566271Y-102876448D01*
X202464814Y-102793186D01*
X202381552Y-102691729D01*
X202352222Y-102655991D01*
X202268557Y-102499466D01*
X202217037Y-102329627D01*
X202199641Y-102153000D01*
X202217037Y-101976373D01*
X202268557Y-101806534D01*
X202352222Y-101650009D01*
X202381552Y-101614271D01*
X202464814Y-101512814D01*
X202566271Y-101429552D01*
X202602009Y-101400222D01*
X202758534Y-101316557D01*
X202928373Y-101265037D01*
X202994557Y-101258519D01*
X203060740Y-101252000D01*
X203149260Y-101252000D01*
X203215443Y-101258519D01*
X203215443Y-101258519D01*
G37*
G36*
X137028020Y-100421664D02*
G01*
X137187442Y-100487699D01*
X137330918Y-100583566D01*
X137452934Y-100705582D01*
X137548801Y-100849058D01*
X137614836Y-101008480D01*
X137648500Y-101177721D01*
X137648500Y-101350279D01*
X137614836Y-101519520D01*
X137548801Y-101678942D01*
X137452934Y-101822418D01*
X137330918Y-101944434D01*
X137187442Y-102040301D01*
X137028020Y-102106336D01*
X136858780Y-102140000D01*
X136686220Y-102140000D01*
X136601601Y-102123168D01*
X136516980Y-102106336D01*
X136357558Y-102040301D01*
X136214082Y-101944434D01*
X136092066Y-101822418D01*
X135996199Y-101678942D01*
X135930164Y-101519520D01*
X135896500Y-101350279D01*
X135896500Y-101177721D01*
X135930164Y-101008480D01*
X135996199Y-100849058D01*
X136092066Y-100705582D01*
X136214082Y-100583566D01*
X136357558Y-100487699D01*
X136516980Y-100421664D01*
X136686220Y-100388000D01*
X136858780Y-100388000D01*
X137028020Y-100421664D01*
X137028020Y-100421664D01*
G37*
G36*
X131567020Y-100421664D02*
G01*
X131726442Y-100487699D01*
X131869918Y-100583566D01*
X131991934Y-100705582D01*
X132087801Y-100849058D01*
X132153836Y-101008480D01*
X132187500Y-101177721D01*
X132187500Y-101350279D01*
X132153836Y-101519520D01*
X132087801Y-101678942D01*
X131991934Y-101822418D01*
X131869918Y-101944434D01*
X131726442Y-102040301D01*
X131567020Y-102106336D01*
X131397780Y-102140000D01*
X131225220Y-102140000D01*
X131140601Y-102123168D01*
X131055980Y-102106336D01*
X130896558Y-102040301D01*
X130753082Y-101944434D01*
X130631066Y-101822418D01*
X130535199Y-101678942D01*
X130469164Y-101519520D01*
X130435500Y-101350279D01*
X130435500Y-101177721D01*
X130469164Y-101008480D01*
X130535199Y-100849058D01*
X130631066Y-100705582D01*
X130753082Y-100583566D01*
X130896558Y-100487699D01*
X131055980Y-100421664D01*
X131225220Y-100388000D01*
X131397780Y-100388000D01*
X131567020Y-100421664D01*
X131567020Y-100421664D01*
G37*
G36*
X134488020Y-100421664D02*
G01*
X134647442Y-100487699D01*
X134790918Y-100583566D01*
X134912934Y-100705582D01*
X135008801Y-100849058D01*
X135074836Y-101008480D01*
X135108500Y-101177721D01*
X135108500Y-101350279D01*
X135074836Y-101519520D01*
X135008801Y-101678942D01*
X134912934Y-101822418D01*
X134790918Y-101944434D01*
X134647442Y-102040301D01*
X134488020Y-102106336D01*
X134318780Y-102140000D01*
X134146220Y-102140000D01*
X134061601Y-102123168D01*
X133976980Y-102106336D01*
X133817558Y-102040301D01*
X133674082Y-101944434D01*
X133552066Y-101822418D01*
X133456199Y-101678942D01*
X133390164Y-101519520D01*
X133356500Y-101350279D01*
X133356500Y-101177721D01*
X133390164Y-101008480D01*
X133456199Y-100849058D01*
X133552066Y-100705582D01*
X133674082Y-100583566D01*
X133817558Y-100487699D01*
X133976980Y-100421664D01*
X134146220Y-100388000D01*
X134318780Y-100388000D01*
X134488020Y-100421664D01*
X134488020Y-100421664D01*
G37*
G36*
X129027020Y-100421664D02*
G01*
X129186442Y-100487699D01*
X129329918Y-100583566D01*
X129451934Y-100705582D01*
X129547801Y-100849058D01*
X129613836Y-101008480D01*
X129647500Y-101177721D01*
X129647500Y-101350279D01*
X129613836Y-101519520D01*
X129547801Y-101678942D01*
X129451934Y-101822418D01*
X129329918Y-101944434D01*
X129186442Y-102040301D01*
X129027020Y-102106336D01*
X128857780Y-102140000D01*
X128685220Y-102140000D01*
X128600601Y-102123168D01*
X128515980Y-102106336D01*
X128356558Y-102040301D01*
X128213082Y-101944434D01*
X128091066Y-101822418D01*
X127995199Y-101678942D01*
X127929164Y-101519520D01*
X127895500Y-101350279D01*
X127895500Y-101177721D01*
X127929164Y-101008480D01*
X127995199Y-100849058D01*
X128091066Y-100705582D01*
X128213082Y-100583566D01*
X128356558Y-100487699D01*
X128515980Y-100421664D01*
X128685220Y-100388000D01*
X128857780Y-100388000D01*
X129027020Y-100421664D01*
X129027020Y-100421664D01*
G37*
G36*
X203215443Y-98718519D02*
G01*
X203281627Y-98725037D01*
X203451466Y-98776557D01*
X203607991Y-98860222D01*
X203643729Y-98889552D01*
X203745186Y-98972814D01*
X203828448Y-99074271D01*
X203857778Y-99110009D01*
X203941443Y-99266534D01*
X203992963Y-99436373D01*
X204010359Y-99613000D01*
X203992963Y-99789627D01*
X203941443Y-99959466D01*
X203857778Y-100115991D01*
X203828448Y-100151729D01*
X203745186Y-100253186D01*
X203643729Y-100336448D01*
X203607991Y-100365778D01*
X203451466Y-100449443D01*
X203281627Y-100500963D01*
X203215443Y-100507481D01*
X203149260Y-100514000D01*
X203060740Y-100514000D01*
X202994557Y-100507481D01*
X202928373Y-100500963D01*
X202758534Y-100449443D01*
X202602009Y-100365778D01*
X202566271Y-100336448D01*
X202464814Y-100253186D01*
X202381552Y-100151729D01*
X202352222Y-100115991D01*
X202268557Y-99959466D01*
X202217037Y-99789627D01*
X202199641Y-99613000D01*
X202217037Y-99436373D01*
X202268557Y-99266534D01*
X202352222Y-99110009D01*
X202381552Y-99074271D01*
X202464814Y-98972814D01*
X202566271Y-98889552D01*
X202602009Y-98860222D01*
X202758534Y-98776557D01*
X202928373Y-98725037D01*
X202994558Y-98718518D01*
X203060740Y-98712000D01*
X203149260Y-98712000D01*
X203215443Y-98718519D01*
X203215443Y-98718519D01*
G37*
G36*
X215853585Y-96567802D02*
G01*
X216003410Y-96597604D01*
X216285674Y-96714521D01*
X216539705Y-96884259D01*
X216755741Y-97100295D01*
X216925479Y-97354326D01*
X217042396Y-97636590D01*
X217102000Y-97936240D01*
X217102000Y-98241760D01*
X217042396Y-98541410D01*
X216925479Y-98823674D01*
X216755741Y-99077705D01*
X216539705Y-99293741D01*
X216285674Y-99463479D01*
X216003410Y-99580396D01*
X215904854Y-99600000D01*
X215703761Y-99640000D01*
X215398239Y-99640000D01*
X215197146Y-99600000D01*
X215098590Y-99580396D01*
X214816326Y-99463479D01*
X214562295Y-99293741D01*
X214346259Y-99077705D01*
X214176521Y-98823674D01*
X214059604Y-98541410D01*
X214000000Y-98241760D01*
X214000000Y-97936240D01*
X214059604Y-97636590D01*
X214176521Y-97354326D01*
X214346259Y-97100295D01*
X214562295Y-96884259D01*
X214816326Y-96714521D01*
X215098590Y-96597604D01*
X215248415Y-96567802D01*
X215398239Y-96538000D01*
X215703761Y-96538000D01*
X215853585Y-96567802D01*
X215853585Y-96567802D01*
G37*
G36*
X134403399Y-97864832D02*
G01*
X134488020Y-97881664D01*
X134647442Y-97947699D01*
X134790918Y-98043566D01*
X134912934Y-98165582D01*
X135008801Y-98309058D01*
X135074836Y-98468480D01*
X135108500Y-98637721D01*
X135108500Y-98810279D01*
X135074836Y-98979520D01*
X135008801Y-99138942D01*
X134912934Y-99282418D01*
X134790918Y-99404434D01*
X134647442Y-99500301D01*
X134488020Y-99566336D01*
X134417335Y-99580396D01*
X134318780Y-99600000D01*
X134146220Y-99600000D01*
X134047665Y-99580396D01*
X133976980Y-99566336D01*
X133817558Y-99500301D01*
X133674082Y-99404434D01*
X133552066Y-99282418D01*
X133456199Y-99138942D01*
X133390164Y-98979520D01*
X133356500Y-98810279D01*
X133356500Y-98637721D01*
X133390164Y-98468480D01*
X133456199Y-98309058D01*
X133552066Y-98165582D01*
X133674082Y-98043566D01*
X133817558Y-97947699D01*
X133976980Y-97881664D01*
X134146220Y-97848000D01*
X134318780Y-97848000D01*
X134403399Y-97864832D01*
X134403399Y-97864832D01*
G37*
G36*
X136943399Y-97864832D02*
G01*
X137028020Y-97881664D01*
X137187442Y-97947699D01*
X137330918Y-98043566D01*
X137452934Y-98165582D01*
X137548801Y-98309058D01*
X137614836Y-98468480D01*
X137648500Y-98637721D01*
X137648500Y-98810279D01*
X137614836Y-98979520D01*
X137548801Y-99138942D01*
X137452934Y-99282418D01*
X137330918Y-99404434D01*
X137187442Y-99500301D01*
X137028020Y-99566336D01*
X136957335Y-99580396D01*
X136858780Y-99600000D01*
X136686220Y-99600000D01*
X136587665Y-99580396D01*
X136516980Y-99566336D01*
X136357558Y-99500301D01*
X136214082Y-99404434D01*
X136092066Y-99282418D01*
X135996199Y-99138942D01*
X135930164Y-98979520D01*
X135896500Y-98810279D01*
X135896500Y-98637721D01*
X135930164Y-98468480D01*
X135996199Y-98309058D01*
X136092066Y-98165582D01*
X136214082Y-98043566D01*
X136357558Y-97947699D01*
X136516980Y-97881664D01*
X136686220Y-97848000D01*
X136858780Y-97848000D01*
X136943399Y-97864832D01*
X136943399Y-97864832D01*
G37*
G36*
X131482399Y-97864832D02*
G01*
X131567020Y-97881664D01*
X131726442Y-97947699D01*
X131869918Y-98043566D01*
X131991934Y-98165582D01*
X132087801Y-98309058D01*
X132153836Y-98468480D01*
X132187500Y-98637721D01*
X132187500Y-98810279D01*
X132153836Y-98979520D01*
X132087801Y-99138942D01*
X131991934Y-99282418D01*
X131869918Y-99404434D01*
X131726442Y-99500301D01*
X131567020Y-99566336D01*
X131496335Y-99580396D01*
X131397780Y-99600000D01*
X131225220Y-99600000D01*
X131126665Y-99580396D01*
X131055980Y-99566336D01*
X130896558Y-99500301D01*
X130753082Y-99404434D01*
X130631066Y-99282418D01*
X130535199Y-99138942D01*
X130469164Y-98979520D01*
X130435500Y-98810279D01*
X130435500Y-98637721D01*
X130469164Y-98468480D01*
X130535199Y-98309058D01*
X130631066Y-98165582D01*
X130753082Y-98043566D01*
X130896558Y-97947699D01*
X131055980Y-97881664D01*
X131225220Y-97848000D01*
X131397780Y-97848000D01*
X131482399Y-97864832D01*
X131482399Y-97864832D01*
G37*
G36*
X128942399Y-97864832D02*
G01*
X129027020Y-97881664D01*
X129186442Y-97947699D01*
X129329918Y-98043566D01*
X129451934Y-98165582D01*
X129547801Y-98309058D01*
X129613836Y-98468480D01*
X129647500Y-98637721D01*
X129647500Y-98810279D01*
X129613836Y-98979520D01*
X129547801Y-99138942D01*
X129451934Y-99282418D01*
X129329918Y-99404434D01*
X129186442Y-99500301D01*
X129027020Y-99566336D01*
X128956335Y-99580396D01*
X128857780Y-99600000D01*
X128685220Y-99600000D01*
X128586665Y-99580396D01*
X128515980Y-99566336D01*
X128356558Y-99500301D01*
X128213082Y-99404434D01*
X128091066Y-99282418D01*
X127995199Y-99138942D01*
X127929164Y-98979520D01*
X127895500Y-98810279D01*
X127895500Y-98637721D01*
X127929164Y-98468480D01*
X127995199Y-98309058D01*
X128091066Y-98165582D01*
X128213082Y-98043566D01*
X128356558Y-97947699D01*
X128515980Y-97881664D01*
X128685220Y-97848000D01*
X128857780Y-97848000D01*
X128942399Y-97864832D01*
X128942399Y-97864832D01*
G37*
G36*
X203218512Y-96176927D02*
G01*
X203367812Y-96206624D01*
X203531784Y-96274544D01*
X203679354Y-96373147D01*
X203804853Y-96498646D01*
X203903456Y-96646216D01*
X203971376Y-96810188D01*
X204006000Y-96984259D01*
X204006000Y-97161741D01*
X203971376Y-97335812D01*
X203903456Y-97499784D01*
X203804853Y-97647354D01*
X203679354Y-97772853D01*
X203531784Y-97871456D01*
X203367812Y-97939376D01*
X203218512Y-97969073D01*
X203193742Y-97974000D01*
X203016258Y-97974000D01*
X202991488Y-97969073D01*
X202842188Y-97939376D01*
X202678216Y-97871456D01*
X202530646Y-97772853D01*
X202405147Y-97647354D01*
X202306544Y-97499784D01*
X202238624Y-97335812D01*
X202204000Y-97161741D01*
X202204000Y-96984259D01*
X202238624Y-96810188D01*
X202306544Y-96646216D01*
X202405147Y-96498646D01*
X202530646Y-96373147D01*
X202678216Y-96274544D01*
X202842188Y-96206624D01*
X202991488Y-96176927D01*
X203016258Y-96172000D01*
X203193742Y-96172000D01*
X203218512Y-96176927D01*
X203218512Y-96176927D01*
G37*
G36*
X131482399Y-95324832D02*
G01*
X131567020Y-95341664D01*
X131726442Y-95407699D01*
X131869918Y-95503566D01*
X131991934Y-95625582D01*
X132087801Y-95769058D01*
X132153836Y-95928480D01*
X132187500Y-96097721D01*
X132187500Y-96270279D01*
X132153836Y-96439520D01*
X132087801Y-96598942D01*
X131991934Y-96742418D01*
X131869918Y-96864434D01*
X131726442Y-96960301D01*
X131567020Y-97026336D01*
X131482399Y-97043168D01*
X131397780Y-97060000D01*
X131225220Y-97060000D01*
X131140601Y-97043168D01*
X131055980Y-97026336D01*
X130896558Y-96960301D01*
X130753082Y-96864434D01*
X130631066Y-96742418D01*
X130535199Y-96598942D01*
X130469164Y-96439520D01*
X130435500Y-96270279D01*
X130435500Y-96097721D01*
X130469164Y-95928480D01*
X130535199Y-95769058D01*
X130631066Y-95625582D01*
X130753082Y-95503566D01*
X130896558Y-95407699D01*
X131055980Y-95341664D01*
X131225220Y-95308000D01*
X131397780Y-95308000D01*
X131482399Y-95324832D01*
X131482399Y-95324832D01*
G37*
G36*
X128942399Y-95324832D02*
G01*
X129027020Y-95341664D01*
X129186442Y-95407699D01*
X129329918Y-95503566D01*
X129451934Y-95625582D01*
X129547801Y-95769058D01*
X129613836Y-95928480D01*
X129647500Y-96097721D01*
X129647500Y-96270279D01*
X129613836Y-96439520D01*
X129547801Y-96598942D01*
X129451934Y-96742418D01*
X129329918Y-96864434D01*
X129186442Y-96960301D01*
X129027020Y-97026336D01*
X128942399Y-97043168D01*
X128857780Y-97060000D01*
X128685220Y-97060000D01*
X128600601Y-97043168D01*
X128515980Y-97026336D01*
X128356558Y-96960301D01*
X128213082Y-96864434D01*
X128091066Y-96742418D01*
X127995199Y-96598942D01*
X127929164Y-96439520D01*
X127895500Y-96270279D01*
X127895500Y-96097721D01*
X127929164Y-95928480D01*
X127995199Y-95769058D01*
X128091066Y-95625582D01*
X128213082Y-95503566D01*
X128356558Y-95407699D01*
X128515980Y-95341664D01*
X128685220Y-95308000D01*
X128857780Y-95308000D01*
X128942399Y-95324832D01*
X128942399Y-95324832D01*
G37*
G36*
X134403399Y-95324832D02*
G01*
X134488020Y-95341664D01*
X134647442Y-95407699D01*
X134790918Y-95503566D01*
X134912934Y-95625582D01*
X135008801Y-95769058D01*
X135074836Y-95928480D01*
X135108500Y-96097721D01*
X135108500Y-96270279D01*
X135074836Y-96439520D01*
X135008801Y-96598942D01*
X134912934Y-96742418D01*
X134790918Y-96864434D01*
X134647442Y-96960301D01*
X134488020Y-97026336D01*
X134403399Y-97043168D01*
X134318780Y-97060000D01*
X134146220Y-97060000D01*
X134061601Y-97043168D01*
X133976980Y-97026336D01*
X133817558Y-96960301D01*
X133674082Y-96864434D01*
X133552066Y-96742418D01*
X133456199Y-96598942D01*
X133390164Y-96439520D01*
X133356500Y-96270279D01*
X133356500Y-96097721D01*
X133390164Y-95928480D01*
X133456199Y-95769058D01*
X133552066Y-95625582D01*
X133674082Y-95503566D01*
X133817558Y-95407699D01*
X133976980Y-95341664D01*
X134146220Y-95308000D01*
X134318780Y-95308000D01*
X134403399Y-95324832D01*
X134403399Y-95324832D01*
G37*
G36*
X136943399Y-95324832D02*
G01*
X137028020Y-95341664D01*
X137187442Y-95407699D01*
X137330918Y-95503566D01*
X137452934Y-95625582D01*
X137548801Y-95769058D01*
X137614836Y-95928480D01*
X137648500Y-96097721D01*
X137648500Y-96270279D01*
X137614836Y-96439520D01*
X137548801Y-96598942D01*
X137452934Y-96742418D01*
X137330918Y-96864434D01*
X137187442Y-96960301D01*
X137028020Y-97026336D01*
X136943399Y-97043168D01*
X136858780Y-97060000D01*
X136686220Y-97060000D01*
X136601601Y-97043168D01*
X136516980Y-97026336D01*
X136357558Y-96960301D01*
X136214082Y-96864434D01*
X136092066Y-96742418D01*
X135996199Y-96598942D01*
X135930164Y-96439520D01*
X135896500Y-96270279D01*
X135896500Y-96097721D01*
X135930164Y-95928480D01*
X135996199Y-95769058D01*
X136092066Y-95625582D01*
X136214082Y-95503566D01*
X136357558Y-95407699D01*
X136516980Y-95341664D01*
X136686220Y-95308000D01*
X136858780Y-95308000D01*
X136943399Y-95324832D01*
X136943399Y-95324832D01*
G37*
G36*
X131482399Y-92784832D02*
G01*
X131567020Y-92801664D01*
X131726442Y-92867699D01*
X131869918Y-92963566D01*
X131991934Y-93085582D01*
X132087801Y-93229058D01*
X132153836Y-93388480D01*
X132187500Y-93557721D01*
X132187500Y-93730279D01*
X132153836Y-93899520D01*
X132087801Y-94058942D01*
X131991934Y-94202418D01*
X131869918Y-94324434D01*
X131726442Y-94420301D01*
X131567020Y-94486336D01*
X131482399Y-94503168D01*
X131397780Y-94520000D01*
X131225220Y-94520000D01*
X131140601Y-94503168D01*
X131055980Y-94486336D01*
X130896558Y-94420301D01*
X130753082Y-94324434D01*
X130631066Y-94202418D01*
X130535199Y-94058942D01*
X130469164Y-93899520D01*
X130435500Y-93730279D01*
X130435500Y-93557721D01*
X130469164Y-93388480D01*
X130535199Y-93229058D01*
X130631066Y-93085582D01*
X130753082Y-92963566D01*
X130896558Y-92867699D01*
X131055980Y-92801664D01*
X131225220Y-92768000D01*
X131397780Y-92768000D01*
X131482399Y-92784832D01*
X131482399Y-92784832D01*
G37*
G36*
X128942399Y-92784832D02*
G01*
X129027020Y-92801664D01*
X129186442Y-92867699D01*
X129329918Y-92963566D01*
X129451934Y-93085582D01*
X129547801Y-93229058D01*
X129613836Y-93388480D01*
X129647500Y-93557721D01*
X129647500Y-93730279D01*
X129613836Y-93899520D01*
X129547801Y-94058942D01*
X129451934Y-94202418D01*
X129329918Y-94324434D01*
X129186442Y-94420301D01*
X129027020Y-94486336D01*
X128942399Y-94503168D01*
X128857780Y-94520000D01*
X128685220Y-94520000D01*
X128600601Y-94503168D01*
X128515980Y-94486336D01*
X128356558Y-94420301D01*
X128213082Y-94324434D01*
X128091066Y-94202418D01*
X127995199Y-94058942D01*
X127929164Y-93899520D01*
X127895500Y-93730279D01*
X127895500Y-93557721D01*
X127929164Y-93388480D01*
X127995199Y-93229058D01*
X128091066Y-93085582D01*
X128213082Y-92963566D01*
X128356558Y-92867699D01*
X128515980Y-92801664D01*
X128685220Y-92768000D01*
X128857780Y-92768000D01*
X128942399Y-92784832D01*
X128942399Y-92784832D01*
G37*
G36*
X134403399Y-92784832D02*
G01*
X134488020Y-92801664D01*
X134647442Y-92867699D01*
X134790918Y-92963566D01*
X134912934Y-93085582D01*
X135008801Y-93229058D01*
X135074836Y-93388480D01*
X135108500Y-93557721D01*
X135108500Y-93730279D01*
X135074836Y-93899520D01*
X135008801Y-94058942D01*
X134912934Y-94202418D01*
X134790918Y-94324434D01*
X134647442Y-94420301D01*
X134488020Y-94486336D01*
X134403399Y-94503168D01*
X134318780Y-94520000D01*
X134146220Y-94520000D01*
X134061601Y-94503168D01*
X133976980Y-94486336D01*
X133817558Y-94420301D01*
X133674082Y-94324434D01*
X133552066Y-94202418D01*
X133456199Y-94058942D01*
X133390164Y-93899520D01*
X133356500Y-93730279D01*
X133356500Y-93557721D01*
X133390164Y-93388480D01*
X133456199Y-93229058D01*
X133552066Y-93085582D01*
X133674082Y-92963566D01*
X133817558Y-92867699D01*
X133976980Y-92801664D01*
X134146220Y-92768000D01*
X134318780Y-92768000D01*
X134403399Y-92784832D01*
X134403399Y-92784832D01*
G37*
G36*
X136943399Y-92784832D02*
G01*
X137028020Y-92801664D01*
X137187442Y-92867699D01*
X137330918Y-92963566D01*
X137452934Y-93085582D01*
X137548801Y-93229058D01*
X137614836Y-93388480D01*
X137648500Y-93557721D01*
X137648500Y-93730279D01*
X137614836Y-93899520D01*
X137548801Y-94058942D01*
X137452934Y-94202418D01*
X137330918Y-94324434D01*
X137187442Y-94420301D01*
X137028020Y-94486336D01*
X136943399Y-94503168D01*
X136858780Y-94520000D01*
X136686220Y-94520000D01*
X136601601Y-94503168D01*
X136516980Y-94486336D01*
X136357558Y-94420301D01*
X136214082Y-94324434D01*
X136092066Y-94202418D01*
X135996199Y-94058942D01*
X135930164Y-93899520D01*
X135896500Y-93730279D01*
X135896500Y-93557721D01*
X135930164Y-93388480D01*
X135996199Y-93229058D01*
X136092066Y-93085582D01*
X136214082Y-92963566D01*
X136357558Y-92867699D01*
X136516980Y-92801664D01*
X136686220Y-92768000D01*
X136858780Y-92768000D01*
X136943399Y-92784832D01*
X136943399Y-92784832D01*
G37*
G36*
X137028020Y-90261664D02*
G01*
X137187442Y-90327699D01*
X137330918Y-90423566D01*
X137452934Y-90545582D01*
X137548801Y-90689058D01*
X137614836Y-90848480D01*
X137648500Y-91017721D01*
X137648500Y-91190279D01*
X137614836Y-91359520D01*
X137548801Y-91518942D01*
X137452934Y-91662418D01*
X137330918Y-91784434D01*
X137187442Y-91880301D01*
X137028020Y-91946336D01*
X136943399Y-91963168D01*
X136858780Y-91980000D01*
X136686220Y-91980000D01*
X136601601Y-91963168D01*
X136516980Y-91946336D01*
X136357558Y-91880301D01*
X136214082Y-91784434D01*
X136092066Y-91662418D01*
X135996199Y-91518942D01*
X135930164Y-91359520D01*
X135896500Y-91190279D01*
X135896500Y-91017721D01*
X135930164Y-90848480D01*
X135996199Y-90689058D01*
X136092066Y-90545582D01*
X136214082Y-90423566D01*
X136357558Y-90327699D01*
X136516980Y-90261664D01*
X136686220Y-90228000D01*
X136858780Y-90228000D01*
X137028020Y-90261664D01*
X137028020Y-90261664D01*
G37*
G36*
X134488020Y-90261664D02*
G01*
X134647442Y-90327699D01*
X134790918Y-90423566D01*
X134912934Y-90545582D01*
X135008801Y-90689058D01*
X135074836Y-90848480D01*
X135108500Y-91017721D01*
X135108500Y-91190279D01*
X135074836Y-91359520D01*
X135008801Y-91518942D01*
X134912934Y-91662418D01*
X134790918Y-91784434D01*
X134647442Y-91880301D01*
X134488020Y-91946336D01*
X134403399Y-91963168D01*
X134318780Y-91980000D01*
X134146220Y-91980000D01*
X134061601Y-91963168D01*
X133976980Y-91946336D01*
X133817558Y-91880301D01*
X133674082Y-91784434D01*
X133552066Y-91662418D01*
X133456199Y-91518942D01*
X133390164Y-91359520D01*
X133356500Y-91190279D01*
X133356500Y-91017721D01*
X133390164Y-90848480D01*
X133456199Y-90689058D01*
X133552066Y-90545582D01*
X133674082Y-90423566D01*
X133817558Y-90327699D01*
X133976980Y-90261664D01*
X134146220Y-90228000D01*
X134318780Y-90228000D01*
X134488020Y-90261664D01*
X134488020Y-90261664D01*
G37*
G36*
X129027020Y-90261664D02*
G01*
X129186442Y-90327699D01*
X129329918Y-90423566D01*
X129451934Y-90545582D01*
X129547801Y-90689058D01*
X129613836Y-90848480D01*
X129647500Y-91017721D01*
X129647500Y-91190279D01*
X129613836Y-91359520D01*
X129547801Y-91518942D01*
X129451934Y-91662418D01*
X129329918Y-91784434D01*
X129186442Y-91880301D01*
X129027020Y-91946336D01*
X128942399Y-91963168D01*
X128857780Y-91980000D01*
X128685220Y-91980000D01*
X128600601Y-91963168D01*
X128515980Y-91946336D01*
X128356558Y-91880301D01*
X128213082Y-91784434D01*
X128091066Y-91662418D01*
X127995199Y-91518942D01*
X127929164Y-91359520D01*
X127895500Y-91190279D01*
X127895500Y-91017721D01*
X127929164Y-90848480D01*
X127995199Y-90689058D01*
X128091066Y-90545582D01*
X128213082Y-90423566D01*
X128356558Y-90327699D01*
X128515980Y-90261664D01*
X128685220Y-90228000D01*
X128857780Y-90228000D01*
X129027020Y-90261664D01*
X129027020Y-90261664D01*
G37*
G36*
X131567020Y-90261664D02*
G01*
X131726442Y-90327699D01*
X131869918Y-90423566D01*
X131991934Y-90545582D01*
X132087801Y-90689058D01*
X132153836Y-90848480D01*
X132187500Y-91017721D01*
X132187500Y-91190279D01*
X132153836Y-91359520D01*
X132087801Y-91518942D01*
X131991934Y-91662418D01*
X131869918Y-91784434D01*
X131726442Y-91880301D01*
X131567020Y-91946336D01*
X131482399Y-91963168D01*
X131397780Y-91980000D01*
X131225220Y-91980000D01*
X131140601Y-91963168D01*
X131055980Y-91946336D01*
X130896558Y-91880301D01*
X130753082Y-91784434D01*
X130631066Y-91662418D01*
X130535199Y-91518942D01*
X130469164Y-91359520D01*
X130435500Y-91190279D01*
X130435500Y-91017721D01*
X130469164Y-90848480D01*
X130535199Y-90689058D01*
X130631066Y-90545582D01*
X130753082Y-90423566D01*
X130896558Y-90327699D01*
X131055980Y-90261664D01*
X131225220Y-90228000D01*
X131397780Y-90228000D01*
X131567020Y-90261664D01*
X131567020Y-90261664D01*
G37*
G36*
X131482399Y-87704832D02*
G01*
X131567020Y-87721664D01*
X131726442Y-87787699D01*
X131869918Y-87883566D01*
X131991934Y-88005582D01*
X132087801Y-88149058D01*
X132153836Y-88308480D01*
X132187500Y-88477721D01*
X132187500Y-88650279D01*
X132153836Y-88819520D01*
X132087801Y-88978942D01*
X131991934Y-89122418D01*
X131869918Y-89244434D01*
X131726442Y-89340301D01*
X131567020Y-89406336D01*
X131482399Y-89423168D01*
X131397780Y-89440000D01*
X131225220Y-89440000D01*
X131140601Y-89423168D01*
X131055980Y-89406336D01*
X130896558Y-89340301D01*
X130753082Y-89244434D01*
X130631066Y-89122418D01*
X130535199Y-88978942D01*
X130469164Y-88819520D01*
X130435500Y-88650279D01*
X130435500Y-88477721D01*
X130469164Y-88308480D01*
X130535199Y-88149058D01*
X130631066Y-88005582D01*
X130753082Y-87883566D01*
X130896558Y-87787699D01*
X131055980Y-87721664D01*
X131225220Y-87688000D01*
X131397780Y-87688000D01*
X131482399Y-87704832D01*
X131482399Y-87704832D01*
G37*
G36*
X136943399Y-87704832D02*
G01*
X137028020Y-87721664D01*
X137187442Y-87787699D01*
X137330918Y-87883566D01*
X137452934Y-88005582D01*
X137548801Y-88149058D01*
X137614836Y-88308480D01*
X137648500Y-88477721D01*
X137648500Y-88650279D01*
X137614836Y-88819520D01*
X137548801Y-88978942D01*
X137452934Y-89122418D01*
X137330918Y-89244434D01*
X137187442Y-89340301D01*
X137028020Y-89406336D01*
X136943399Y-89423168D01*
X136858780Y-89440000D01*
X136686220Y-89440000D01*
X136601601Y-89423168D01*
X136516980Y-89406336D01*
X136357558Y-89340301D01*
X136214082Y-89244434D01*
X136092066Y-89122418D01*
X135996199Y-88978942D01*
X135930164Y-88819520D01*
X135896500Y-88650279D01*
X135896500Y-88477721D01*
X135930164Y-88308480D01*
X135996199Y-88149058D01*
X136092066Y-88005582D01*
X136214082Y-87883566D01*
X136357558Y-87787699D01*
X136516980Y-87721664D01*
X136686220Y-87688000D01*
X136858780Y-87688000D01*
X136943399Y-87704832D01*
X136943399Y-87704832D01*
G37*
G36*
X134403399Y-87704832D02*
G01*
X134488020Y-87721664D01*
X134647442Y-87787699D01*
X134790918Y-87883566D01*
X134912934Y-88005582D01*
X135008801Y-88149058D01*
X135074836Y-88308480D01*
X135108500Y-88477721D01*
X135108500Y-88650279D01*
X135074836Y-88819520D01*
X135008801Y-88978942D01*
X134912934Y-89122418D01*
X134790918Y-89244434D01*
X134647442Y-89340301D01*
X134488020Y-89406336D01*
X134403399Y-89423168D01*
X134318780Y-89440000D01*
X134146220Y-89440000D01*
X134061601Y-89423168D01*
X133976980Y-89406336D01*
X133817558Y-89340301D01*
X133674082Y-89244434D01*
X133552066Y-89122418D01*
X133456199Y-88978942D01*
X133390164Y-88819520D01*
X133356500Y-88650279D01*
X133356500Y-88477721D01*
X133390164Y-88308480D01*
X133456199Y-88149058D01*
X133552066Y-88005582D01*
X133674082Y-87883566D01*
X133817558Y-87787699D01*
X133976980Y-87721664D01*
X134146220Y-87688000D01*
X134318780Y-87688000D01*
X134403399Y-87704832D01*
X134403399Y-87704832D01*
G37*
G36*
X128942399Y-87704832D02*
G01*
X129027020Y-87721664D01*
X129186442Y-87787699D01*
X129329918Y-87883566D01*
X129451934Y-88005582D01*
X129547801Y-88149058D01*
X129613836Y-88308480D01*
X129647500Y-88477721D01*
X129647500Y-88650279D01*
X129613836Y-88819520D01*
X129547801Y-88978942D01*
X129451934Y-89122418D01*
X129329918Y-89244434D01*
X129186442Y-89340301D01*
X129027020Y-89406336D01*
X128942399Y-89423168D01*
X128857780Y-89440000D01*
X128685220Y-89440000D01*
X128600601Y-89423168D01*
X128515980Y-89406336D01*
X128356558Y-89340301D01*
X128213082Y-89244434D01*
X128091066Y-89122418D01*
X127995199Y-88978942D01*
X127929164Y-88819520D01*
X127895500Y-88650279D01*
X127895500Y-88477721D01*
X127929164Y-88308480D01*
X127995199Y-88149058D01*
X128091066Y-88005582D01*
X128213082Y-87883566D01*
X128356558Y-87787699D01*
X128515980Y-87721664D01*
X128685220Y-87688000D01*
X128857780Y-87688000D01*
X128942399Y-87704832D01*
X128942399Y-87704832D01*
G37*
G36*
X129027020Y-85181664D02*
G01*
X129186442Y-85247699D01*
X129329918Y-85343566D01*
X129451934Y-85465582D01*
X129547801Y-85609058D01*
X129613836Y-85768480D01*
X129647500Y-85937721D01*
X129647500Y-86110279D01*
X129613836Y-86279520D01*
X129547801Y-86438942D01*
X129451934Y-86582418D01*
X129329918Y-86704434D01*
X129186442Y-86800301D01*
X129027020Y-86866336D01*
X128942399Y-86883168D01*
X128857780Y-86900000D01*
X128685220Y-86900000D01*
X128600601Y-86883168D01*
X128515980Y-86866336D01*
X128356558Y-86800301D01*
X128213082Y-86704434D01*
X128091066Y-86582418D01*
X127995199Y-86438942D01*
X127929164Y-86279520D01*
X127895500Y-86110279D01*
X127895500Y-85937721D01*
X127929164Y-85768480D01*
X127995199Y-85609058D01*
X128091066Y-85465582D01*
X128213082Y-85343566D01*
X128356558Y-85247699D01*
X128515980Y-85181664D01*
X128685220Y-85148000D01*
X128857780Y-85148000D01*
X129027020Y-85181664D01*
X129027020Y-85181664D01*
G37*
G36*
X137028020Y-85181664D02*
G01*
X137187442Y-85247699D01*
X137330918Y-85343566D01*
X137452934Y-85465582D01*
X137548801Y-85609058D01*
X137614836Y-85768480D01*
X137648500Y-85937721D01*
X137648500Y-86110279D01*
X137614836Y-86279520D01*
X137548801Y-86438942D01*
X137452934Y-86582418D01*
X137330918Y-86704434D01*
X137187442Y-86800301D01*
X137028020Y-86866336D01*
X136943399Y-86883168D01*
X136858780Y-86900000D01*
X136686220Y-86900000D01*
X136601601Y-86883168D01*
X136516980Y-86866336D01*
X136357558Y-86800301D01*
X136214082Y-86704434D01*
X136092066Y-86582418D01*
X135996199Y-86438942D01*
X135930164Y-86279520D01*
X135896500Y-86110279D01*
X135896500Y-85937721D01*
X135930164Y-85768480D01*
X135996199Y-85609058D01*
X136092066Y-85465582D01*
X136214082Y-85343566D01*
X136357558Y-85247699D01*
X136516980Y-85181664D01*
X136686220Y-85148000D01*
X136858780Y-85148000D01*
X137028020Y-85181664D01*
X137028020Y-85181664D01*
G37*
G36*
X134488020Y-85181664D02*
G01*
X134647442Y-85247699D01*
X134790918Y-85343566D01*
X134912934Y-85465582D01*
X135008801Y-85609058D01*
X135074836Y-85768480D01*
X135108500Y-85937721D01*
X135108500Y-86110279D01*
X135074836Y-86279520D01*
X135008801Y-86438942D01*
X134912934Y-86582418D01*
X134790918Y-86704434D01*
X134647442Y-86800301D01*
X134488020Y-86866336D01*
X134403399Y-86883168D01*
X134318780Y-86900000D01*
X134146220Y-86900000D01*
X134061601Y-86883168D01*
X133976980Y-86866336D01*
X133817558Y-86800301D01*
X133674082Y-86704434D01*
X133552066Y-86582418D01*
X133456199Y-86438942D01*
X133390164Y-86279520D01*
X133356500Y-86110279D01*
X133356500Y-85937721D01*
X133390164Y-85768480D01*
X133456199Y-85609058D01*
X133552066Y-85465582D01*
X133674082Y-85343566D01*
X133817558Y-85247699D01*
X133976980Y-85181664D01*
X134146220Y-85148000D01*
X134318780Y-85148000D01*
X134488020Y-85181664D01*
X134488020Y-85181664D01*
G37*
G36*
X131567020Y-85181664D02*
G01*
X131726442Y-85247699D01*
X131869918Y-85343566D01*
X131991934Y-85465582D01*
X132087801Y-85609058D01*
X132153836Y-85768480D01*
X132187500Y-85937721D01*
X132187500Y-86110279D01*
X132153836Y-86279520D01*
X132087801Y-86438942D01*
X131991934Y-86582418D01*
X131869918Y-86704434D01*
X131726442Y-86800301D01*
X131567020Y-86866336D01*
X131482399Y-86883168D01*
X131397780Y-86900000D01*
X131225220Y-86900000D01*
X131140601Y-86883168D01*
X131055980Y-86866336D01*
X130896558Y-86800301D01*
X130753082Y-86704434D01*
X130631066Y-86582418D01*
X130535199Y-86438942D01*
X130469164Y-86279520D01*
X130435500Y-86110279D01*
X130435500Y-85937721D01*
X130469164Y-85768480D01*
X130535199Y-85609058D01*
X130631066Y-85465582D01*
X130753082Y-85343566D01*
X130896558Y-85247699D01*
X131055980Y-85181664D01*
X131225220Y-85148000D01*
X131397780Y-85148000D01*
X131567020Y-85181664D01*
X131567020Y-85181664D01*
G37*
G36*
X134488020Y-82641664D02*
G01*
X134647442Y-82707699D01*
X134790918Y-82803566D01*
X134912934Y-82925582D01*
X135008801Y-83069058D01*
X135074836Y-83228480D01*
X135108500Y-83397721D01*
X135108500Y-83570279D01*
X135074836Y-83739520D01*
X135008801Y-83898942D01*
X134912934Y-84042418D01*
X134790918Y-84164434D01*
X134647442Y-84260301D01*
X134488020Y-84326336D01*
X134403399Y-84343168D01*
X134318780Y-84360000D01*
X134146220Y-84360000D01*
X134061601Y-84343168D01*
X133976980Y-84326336D01*
X133817558Y-84260301D01*
X133674082Y-84164434D01*
X133552066Y-84042418D01*
X133456199Y-83898942D01*
X133390164Y-83739520D01*
X133356500Y-83570279D01*
X133356500Y-83397721D01*
X133390164Y-83228480D01*
X133456199Y-83069058D01*
X133552066Y-82925582D01*
X133674082Y-82803566D01*
X133817558Y-82707699D01*
X133976980Y-82641664D01*
X134146220Y-82608000D01*
X134318780Y-82608000D01*
X134488020Y-82641664D01*
X134488020Y-82641664D01*
G37*
G36*
X129027020Y-82641664D02*
G01*
X129186442Y-82707699D01*
X129329918Y-82803566D01*
X129451934Y-82925582D01*
X129547801Y-83069058D01*
X129613836Y-83228480D01*
X129647500Y-83397721D01*
X129647500Y-83570279D01*
X129613836Y-83739520D01*
X129547801Y-83898942D01*
X129451934Y-84042418D01*
X129329918Y-84164434D01*
X129186442Y-84260301D01*
X129027020Y-84326336D01*
X128942399Y-84343168D01*
X128857780Y-84360000D01*
X128685220Y-84360000D01*
X128600601Y-84343168D01*
X128515980Y-84326336D01*
X128356558Y-84260301D01*
X128213082Y-84164434D01*
X128091066Y-84042418D01*
X127995199Y-83898942D01*
X127929164Y-83739520D01*
X127895500Y-83570279D01*
X127895500Y-83397721D01*
X127929164Y-83228480D01*
X127995199Y-83069058D01*
X128091066Y-82925582D01*
X128213082Y-82803566D01*
X128356558Y-82707699D01*
X128515980Y-82641664D01*
X128685220Y-82608000D01*
X128857780Y-82608000D01*
X129027020Y-82641664D01*
X129027020Y-82641664D01*
G37*
G36*
X131567020Y-82641664D02*
G01*
X131726442Y-82707699D01*
X131869918Y-82803566D01*
X131991934Y-82925582D01*
X132087801Y-83069058D01*
X132153836Y-83228480D01*
X132187500Y-83397721D01*
X132187500Y-83570279D01*
X132153836Y-83739520D01*
X132087801Y-83898942D01*
X131991934Y-84042418D01*
X131869918Y-84164434D01*
X131726442Y-84260301D01*
X131567020Y-84326336D01*
X131482399Y-84343168D01*
X131397780Y-84360000D01*
X131225220Y-84360000D01*
X131140601Y-84343168D01*
X131055980Y-84326336D01*
X130896558Y-84260301D01*
X130753082Y-84164434D01*
X130631066Y-84042418D01*
X130535199Y-83898942D01*
X130469164Y-83739520D01*
X130435500Y-83570279D01*
X130435500Y-83397721D01*
X130469164Y-83228480D01*
X130535199Y-83069058D01*
X130631066Y-82925582D01*
X130753082Y-82803566D01*
X130896558Y-82707699D01*
X131055980Y-82641664D01*
X131225220Y-82608000D01*
X131397780Y-82608000D01*
X131567020Y-82641664D01*
X131567020Y-82641664D01*
G37*
G36*
X137028020Y-82641664D02*
G01*
X137187442Y-82707699D01*
X137330918Y-82803566D01*
X137452934Y-82925582D01*
X137548801Y-83069058D01*
X137614836Y-83228480D01*
X137648500Y-83397721D01*
X137648500Y-83570279D01*
X137614836Y-83739520D01*
X137548801Y-83898942D01*
X137452934Y-84042418D01*
X137330918Y-84164434D01*
X137187442Y-84260301D01*
X137028020Y-84326336D01*
X136943399Y-84343168D01*
X136858780Y-84360000D01*
X136686220Y-84360000D01*
X136601601Y-84343168D01*
X136516980Y-84326336D01*
X136357558Y-84260301D01*
X136214082Y-84164434D01*
X136092066Y-84042418D01*
X135996199Y-83898942D01*
X135930164Y-83739520D01*
X135896500Y-83570279D01*
X135896500Y-83397721D01*
X135930164Y-83228480D01*
X135996199Y-83069058D01*
X136092066Y-82925582D01*
X136214082Y-82803566D01*
X136357558Y-82707699D01*
X136516980Y-82641664D01*
X136686220Y-82608000D01*
X136858780Y-82608000D01*
X137028020Y-82641664D01*
X137028020Y-82641664D01*
G37*
G36*
X153442256Y-79628298D02*
G01*
X153548579Y-79649447D01*
X153849042Y-79773903D01*
X154119451Y-79954585D01*
X154349415Y-80184549D01*
X154530097Y-80454958D01*
X154654553Y-80755421D01*
X154718000Y-81074391D01*
X154718000Y-81399609D01*
X154654553Y-81718579D01*
X154530097Y-82019042D01*
X154349415Y-82289451D01*
X154119451Y-82519415D01*
X153849042Y-82700097D01*
X153548579Y-82824553D01*
X153442256Y-82845702D01*
X153229611Y-82888000D01*
X152904389Y-82888000D01*
X152691744Y-82845702D01*
X152585421Y-82824553D01*
X152284958Y-82700097D01*
X152014549Y-82519415D01*
X151784585Y-82289451D01*
X151603903Y-82019042D01*
X151479447Y-81718579D01*
X151416000Y-81399609D01*
X151416000Y-81074391D01*
X151479447Y-80755421D01*
X151603903Y-80454958D01*
X151784585Y-80184549D01*
X152014549Y-79954585D01*
X152284958Y-79773903D01*
X152585421Y-79649447D01*
X152691744Y-79628298D01*
X152904389Y-79586000D01*
X153229611Y-79586000D01*
X153442256Y-79628298D01*
X153442256Y-79628298D01*
G37*
G36*
X134403399Y-80084832D02*
G01*
X134488020Y-80101664D01*
X134647442Y-80167699D01*
X134790918Y-80263566D01*
X134912934Y-80385582D01*
X135008801Y-80529058D01*
X135074836Y-80688480D01*
X135108500Y-80857721D01*
X135108500Y-81030279D01*
X135074836Y-81199520D01*
X135008801Y-81358942D01*
X134912934Y-81502418D01*
X134790918Y-81624434D01*
X134647442Y-81720301D01*
X134488020Y-81786336D01*
X134403399Y-81803168D01*
X134318780Y-81820000D01*
X134146220Y-81820000D01*
X133976980Y-81786336D01*
X133817558Y-81720301D01*
X133674082Y-81624434D01*
X133552066Y-81502418D01*
X133456199Y-81358942D01*
X133390164Y-81199520D01*
X133356500Y-81030279D01*
X133356500Y-80857721D01*
X133390164Y-80688480D01*
X133456199Y-80529058D01*
X133552066Y-80385582D01*
X133674082Y-80263566D01*
X133817558Y-80167699D01*
X133976980Y-80101664D01*
X134061601Y-80084832D01*
X134146220Y-80068000D01*
X134318780Y-80068000D01*
X134403399Y-80084832D01*
X134403399Y-80084832D01*
G37*
G36*
X128942399Y-80084832D02*
G01*
X129027020Y-80101664D01*
X129186442Y-80167699D01*
X129329918Y-80263566D01*
X129451934Y-80385582D01*
X129547801Y-80529058D01*
X129613836Y-80688480D01*
X129647500Y-80857721D01*
X129647500Y-81030279D01*
X129613836Y-81199520D01*
X129547801Y-81358942D01*
X129451934Y-81502418D01*
X129329918Y-81624434D01*
X129186442Y-81720301D01*
X129027020Y-81786336D01*
X128942399Y-81803168D01*
X128857780Y-81820000D01*
X128685220Y-81820000D01*
X128515980Y-81786336D01*
X128356558Y-81720301D01*
X128213082Y-81624434D01*
X128091066Y-81502418D01*
X127995199Y-81358942D01*
X127929164Y-81199520D01*
X127895500Y-81030279D01*
X127895500Y-80857721D01*
X127929164Y-80688480D01*
X127995199Y-80529058D01*
X128091066Y-80385582D01*
X128213082Y-80263566D01*
X128356558Y-80167699D01*
X128515980Y-80101664D01*
X128600601Y-80084832D01*
X128685220Y-80068000D01*
X128857780Y-80068000D01*
X128942399Y-80084832D01*
X128942399Y-80084832D01*
G37*
G36*
X136943399Y-80084832D02*
G01*
X137028020Y-80101664D01*
X137187442Y-80167699D01*
X137330918Y-80263566D01*
X137452934Y-80385582D01*
X137548801Y-80529058D01*
X137614836Y-80688480D01*
X137648500Y-80857721D01*
X137648500Y-81030279D01*
X137614836Y-81199520D01*
X137548801Y-81358942D01*
X137452934Y-81502418D01*
X137330918Y-81624434D01*
X137187442Y-81720301D01*
X137028020Y-81786336D01*
X136943399Y-81803168D01*
X136858780Y-81820000D01*
X136686220Y-81820000D01*
X136516980Y-81786336D01*
X136357558Y-81720301D01*
X136214082Y-81624434D01*
X136092066Y-81502418D01*
X135996199Y-81358942D01*
X135930164Y-81199520D01*
X135896500Y-81030279D01*
X135896500Y-80857721D01*
X135930164Y-80688480D01*
X135996199Y-80529058D01*
X136092066Y-80385582D01*
X136214082Y-80263566D01*
X136357558Y-80167699D01*
X136516980Y-80101664D01*
X136601601Y-80084832D01*
X136686220Y-80068000D01*
X136858780Y-80068000D01*
X136943399Y-80084832D01*
X136943399Y-80084832D01*
G37*
G36*
X131482399Y-80084832D02*
G01*
X131567020Y-80101664D01*
X131726442Y-80167699D01*
X131869918Y-80263566D01*
X131991934Y-80385582D01*
X132087801Y-80529058D01*
X132153836Y-80688480D01*
X132187500Y-80857721D01*
X132187500Y-81030279D01*
X132153836Y-81199520D01*
X132087801Y-81358942D01*
X131991934Y-81502418D01*
X131869918Y-81624434D01*
X131726442Y-81720301D01*
X131567020Y-81786336D01*
X131482399Y-81803168D01*
X131397780Y-81820000D01*
X131225220Y-81820000D01*
X131055980Y-81786336D01*
X130896558Y-81720301D01*
X130753082Y-81624434D01*
X130631066Y-81502418D01*
X130535199Y-81358942D01*
X130469164Y-81199520D01*
X130435500Y-81030279D01*
X130435500Y-80857721D01*
X130469164Y-80688480D01*
X130535199Y-80529058D01*
X130631066Y-80385582D01*
X130753082Y-80263566D01*
X130896558Y-80167699D01*
X131055980Y-80101664D01*
X131140601Y-80084832D01*
X131225220Y-80068000D01*
X131397780Y-80068000D01*
X131482399Y-80084832D01*
X131482399Y-80084832D01*
G37*
G36*
X137028020Y-77561664D02*
G01*
X137187442Y-77627699D01*
X137330918Y-77723566D01*
X137452934Y-77845582D01*
X137548801Y-77989058D01*
X137614836Y-78148480D01*
X137648500Y-78317721D01*
X137648500Y-78490279D01*
X137614836Y-78659520D01*
X137548801Y-78818942D01*
X137452934Y-78962418D01*
X137330918Y-79084434D01*
X137187442Y-79180301D01*
X137028020Y-79246336D01*
X136858780Y-79280000D01*
X136686220Y-79280000D01*
X136516980Y-79246336D01*
X136357558Y-79180301D01*
X136214082Y-79084434D01*
X136092066Y-78962418D01*
X135996199Y-78818942D01*
X135930164Y-78659520D01*
X135896500Y-78490279D01*
X135896500Y-78317721D01*
X135930164Y-78148480D01*
X135996199Y-77989058D01*
X136092066Y-77845582D01*
X136214082Y-77723566D01*
X136357558Y-77627699D01*
X136516980Y-77561664D01*
X136686220Y-77528000D01*
X136858780Y-77528000D01*
X137028020Y-77561664D01*
X137028020Y-77561664D01*
G37*
G36*
X131567020Y-77561664D02*
G01*
X131726442Y-77627699D01*
X131869918Y-77723566D01*
X131991934Y-77845582D01*
X132087801Y-77989058D01*
X132153836Y-78148480D01*
X132187500Y-78317721D01*
X132187500Y-78490279D01*
X132153836Y-78659520D01*
X132087801Y-78818942D01*
X131991934Y-78962418D01*
X131869918Y-79084434D01*
X131726442Y-79180301D01*
X131567020Y-79246336D01*
X131397780Y-79280000D01*
X131225220Y-79280000D01*
X131055980Y-79246336D01*
X130896558Y-79180301D01*
X130753082Y-79084434D01*
X130631066Y-78962418D01*
X130535199Y-78818942D01*
X130469164Y-78659520D01*
X130435500Y-78490279D01*
X130435500Y-78317721D01*
X130469164Y-78148480D01*
X130535199Y-77989058D01*
X130631066Y-77845582D01*
X130753082Y-77723566D01*
X130896558Y-77627699D01*
X131055980Y-77561664D01*
X131225220Y-77528000D01*
X131397780Y-77528000D01*
X131567020Y-77561664D01*
X131567020Y-77561664D01*
G37*
G36*
X129027020Y-77561664D02*
G01*
X129186442Y-77627699D01*
X129329918Y-77723566D01*
X129451934Y-77845582D01*
X129547801Y-77989058D01*
X129613836Y-78148480D01*
X129647500Y-78317721D01*
X129647500Y-78490279D01*
X129613836Y-78659520D01*
X129547801Y-78818942D01*
X129451934Y-78962418D01*
X129329918Y-79084434D01*
X129186442Y-79180301D01*
X129027020Y-79246336D01*
X128857780Y-79280000D01*
X128685220Y-79280000D01*
X128515980Y-79246336D01*
X128356558Y-79180301D01*
X128213082Y-79084434D01*
X128091066Y-78962418D01*
X127995199Y-78818942D01*
X127929164Y-78659520D01*
X127895500Y-78490279D01*
X127895500Y-78317721D01*
X127929164Y-78148480D01*
X127995199Y-77989058D01*
X128091066Y-77845582D01*
X128213082Y-77723566D01*
X128356558Y-77627699D01*
X128515980Y-77561664D01*
X128685220Y-77528000D01*
X128857780Y-77528000D01*
X129027020Y-77561664D01*
X129027020Y-77561664D01*
G37*
G36*
X134488020Y-77561664D02*
G01*
X134647442Y-77627699D01*
X134790918Y-77723566D01*
X134912934Y-77845582D01*
X135008801Y-77989058D01*
X135074836Y-78148480D01*
X135108500Y-78317721D01*
X135108500Y-78490279D01*
X135074836Y-78659520D01*
X135008801Y-78818942D01*
X134912934Y-78962418D01*
X134790918Y-79084434D01*
X134647442Y-79180301D01*
X134488020Y-79246336D01*
X134318780Y-79280000D01*
X134146220Y-79280000D01*
X133976980Y-79246336D01*
X133817558Y-79180301D01*
X133674082Y-79084434D01*
X133552066Y-78962418D01*
X133456199Y-78818942D01*
X133390164Y-78659520D01*
X133356500Y-78490279D01*
X133356500Y-78317721D01*
X133390164Y-78148480D01*
X133456199Y-77989058D01*
X133552066Y-77845582D01*
X133674082Y-77723566D01*
X133817558Y-77627699D01*
X133976980Y-77561664D01*
X134146220Y-77528000D01*
X134318780Y-77528000D01*
X134488020Y-77561664D01*
X134488020Y-77561664D01*
G37*
G36*
X137028020Y-75021664D02*
G01*
X137187442Y-75087699D01*
X137330918Y-75183566D01*
X137452934Y-75305582D01*
X137548801Y-75449058D01*
X137614836Y-75608480D01*
X137648500Y-75777721D01*
X137648500Y-75950279D01*
X137614836Y-76119520D01*
X137548801Y-76278942D01*
X137452934Y-76422418D01*
X137330918Y-76544434D01*
X137187442Y-76640301D01*
X137028020Y-76706336D01*
X136858780Y-76740000D01*
X136686220Y-76740000D01*
X136516980Y-76706336D01*
X136357558Y-76640301D01*
X136214082Y-76544434D01*
X136092066Y-76422418D01*
X135996199Y-76278942D01*
X135930164Y-76119520D01*
X135896500Y-75950279D01*
X135896500Y-75777721D01*
X135930164Y-75608480D01*
X135996199Y-75449058D01*
X136092066Y-75305582D01*
X136214082Y-75183566D01*
X136357558Y-75087699D01*
X136516980Y-75021664D01*
X136686220Y-74988000D01*
X136858780Y-74988000D01*
X137028020Y-75021664D01*
X137028020Y-75021664D01*
G37*
G36*
X134488020Y-75021664D02*
G01*
X134647442Y-75087699D01*
X134790918Y-75183566D01*
X134912934Y-75305582D01*
X135008801Y-75449058D01*
X135074836Y-75608480D01*
X135108500Y-75777721D01*
X135108500Y-75950279D01*
X135074836Y-76119520D01*
X135008801Y-76278942D01*
X134912934Y-76422418D01*
X134790918Y-76544434D01*
X134647442Y-76640301D01*
X134488020Y-76706336D01*
X134318780Y-76740000D01*
X134146220Y-76740000D01*
X133976980Y-76706336D01*
X133817558Y-76640301D01*
X133674082Y-76544434D01*
X133552066Y-76422418D01*
X133456199Y-76278942D01*
X133390164Y-76119520D01*
X133356500Y-75950279D01*
X133356500Y-75777721D01*
X133390164Y-75608480D01*
X133456199Y-75449058D01*
X133552066Y-75305582D01*
X133674082Y-75183566D01*
X133817558Y-75087699D01*
X133976980Y-75021664D01*
X134146220Y-74988000D01*
X134318780Y-74988000D01*
X134488020Y-75021664D01*
X134488020Y-75021664D01*
G37*
G36*
X131567020Y-75021664D02*
G01*
X131726442Y-75087699D01*
X131869918Y-75183566D01*
X131991934Y-75305582D01*
X132087801Y-75449058D01*
X132153836Y-75608480D01*
X132187500Y-75777721D01*
X132187500Y-75950279D01*
X132153836Y-76119520D01*
X132087801Y-76278942D01*
X131991934Y-76422418D01*
X131869918Y-76544434D01*
X131726442Y-76640301D01*
X131567020Y-76706336D01*
X131397780Y-76740000D01*
X131225220Y-76740000D01*
X131055980Y-76706336D01*
X130896558Y-76640301D01*
X130753082Y-76544434D01*
X130631066Y-76422418D01*
X130535199Y-76278942D01*
X130469164Y-76119520D01*
X130435500Y-75950279D01*
X130435500Y-75777721D01*
X130469164Y-75608480D01*
X130535199Y-75449058D01*
X130631066Y-75305582D01*
X130753082Y-75183566D01*
X130896558Y-75087699D01*
X131055980Y-75021664D01*
X131225220Y-74988000D01*
X131397780Y-74988000D01*
X131567020Y-75021664D01*
X131567020Y-75021664D01*
G37*
G36*
X129027020Y-75021664D02*
G01*
X129186442Y-75087699D01*
X129329918Y-75183566D01*
X129451934Y-75305582D01*
X129547801Y-75449058D01*
X129613836Y-75608480D01*
X129647500Y-75777721D01*
X129647500Y-75950279D01*
X129613836Y-76119520D01*
X129547801Y-76278942D01*
X129451934Y-76422418D01*
X129329918Y-76544434D01*
X129186442Y-76640301D01*
X129027020Y-76706336D01*
X128857780Y-76740000D01*
X128685220Y-76740000D01*
X128515980Y-76706336D01*
X128356558Y-76640301D01*
X128213082Y-76544434D01*
X128091066Y-76422418D01*
X127995199Y-76278942D01*
X127929164Y-76119520D01*
X127895500Y-75950279D01*
X127895500Y-75777721D01*
X127929164Y-75608480D01*
X127995199Y-75449058D01*
X128091066Y-75305582D01*
X128213082Y-75183566D01*
X128356558Y-75087699D01*
X128515980Y-75021664D01*
X128685220Y-74988000D01*
X128857780Y-74988000D01*
X129027020Y-75021664D01*
X129027020Y-75021664D01*
G37*
G36*
X134488020Y-72481664D02*
G01*
X134647442Y-72547699D01*
X134790918Y-72643566D01*
X134912934Y-72765582D01*
X135008801Y-72909058D01*
X135074836Y-73068480D01*
X135108500Y-73237721D01*
X135108500Y-73410279D01*
X135074836Y-73579520D01*
X135008801Y-73738942D01*
X134912934Y-73882418D01*
X134790918Y-74004434D01*
X134647442Y-74100301D01*
X134488020Y-74166336D01*
X134403399Y-74183168D01*
X134318780Y-74200000D01*
X134146220Y-74200000D01*
X134061601Y-74183168D01*
X133976980Y-74166336D01*
X133817558Y-74100301D01*
X133674082Y-74004434D01*
X133552066Y-73882418D01*
X133456199Y-73738942D01*
X133390164Y-73579520D01*
X133356500Y-73410279D01*
X133356500Y-73237721D01*
X133390164Y-73068480D01*
X133456199Y-72909058D01*
X133552066Y-72765582D01*
X133674082Y-72643566D01*
X133817558Y-72547699D01*
X133976980Y-72481664D01*
X134146220Y-72448000D01*
X134318780Y-72448000D01*
X134488020Y-72481664D01*
X134488020Y-72481664D01*
G37*
G36*
X137028020Y-72481664D02*
G01*
X137187442Y-72547699D01*
X137330918Y-72643566D01*
X137452934Y-72765582D01*
X137548801Y-72909058D01*
X137614836Y-73068480D01*
X137648500Y-73237721D01*
X137648500Y-73410279D01*
X137614836Y-73579520D01*
X137548801Y-73738942D01*
X137452934Y-73882418D01*
X137330918Y-74004434D01*
X137187442Y-74100301D01*
X137028020Y-74166336D01*
X136943399Y-74183168D01*
X136858780Y-74200000D01*
X136686220Y-74200000D01*
X136601601Y-74183168D01*
X136516980Y-74166336D01*
X136357558Y-74100301D01*
X136214082Y-74004434D01*
X136092066Y-73882418D01*
X135996199Y-73738942D01*
X135930164Y-73579520D01*
X135896500Y-73410279D01*
X135896500Y-73237721D01*
X135930164Y-73068480D01*
X135996199Y-72909058D01*
X136092066Y-72765582D01*
X136214082Y-72643566D01*
X136357558Y-72547699D01*
X136516980Y-72481664D01*
X136686220Y-72448000D01*
X136858780Y-72448000D01*
X137028020Y-72481664D01*
X137028020Y-72481664D01*
G37*
G36*
X129027020Y-72481664D02*
G01*
X129186442Y-72547699D01*
X129329918Y-72643566D01*
X129451934Y-72765582D01*
X129547801Y-72909058D01*
X129613836Y-73068480D01*
X129647500Y-73237721D01*
X129647500Y-73410279D01*
X129613836Y-73579520D01*
X129547801Y-73738942D01*
X129451934Y-73882418D01*
X129329918Y-74004434D01*
X129186442Y-74100301D01*
X129027020Y-74166336D01*
X128942399Y-74183168D01*
X128857780Y-74200000D01*
X128685220Y-74200000D01*
X128600601Y-74183168D01*
X128515980Y-74166336D01*
X128356558Y-74100301D01*
X128213082Y-74004434D01*
X128091066Y-73882418D01*
X127995199Y-73738942D01*
X127929164Y-73579520D01*
X127895500Y-73410279D01*
X127895500Y-73237721D01*
X127929164Y-73068480D01*
X127995199Y-72909058D01*
X128091066Y-72765582D01*
X128213082Y-72643566D01*
X128356558Y-72547699D01*
X128515980Y-72481664D01*
X128685220Y-72448000D01*
X128857780Y-72448000D01*
X129027020Y-72481664D01*
X129027020Y-72481664D01*
G37*
G36*
X131567020Y-72481664D02*
G01*
X131726442Y-72547699D01*
X131869918Y-72643566D01*
X131991934Y-72765582D01*
X132087801Y-72909058D01*
X132153836Y-73068480D01*
X132187500Y-73237721D01*
X132187500Y-73410279D01*
X132153836Y-73579520D01*
X132087801Y-73738942D01*
X131991934Y-73882418D01*
X131869918Y-74004434D01*
X131726442Y-74100301D01*
X131567020Y-74166336D01*
X131482399Y-74183168D01*
X131397780Y-74200000D01*
X131225220Y-74200000D01*
X131140601Y-74183168D01*
X131055980Y-74166336D01*
X130896558Y-74100301D01*
X130753082Y-74004434D01*
X130631066Y-73882418D01*
X130535199Y-73738942D01*
X130469164Y-73579520D01*
X130435500Y-73410279D01*
X130435500Y-73237721D01*
X130469164Y-73068480D01*
X130535199Y-72909058D01*
X130631066Y-72765582D01*
X130753082Y-72643566D01*
X130896558Y-72547699D01*
X131055980Y-72481664D01*
X131225220Y-72448000D01*
X131397780Y-72448000D01*
X131567020Y-72481664D01*
X131567020Y-72481664D01*
G37*
G36*
X136941439Y-69924442D02*
G01*
X137028020Y-69941664D01*
X137187442Y-70007699D01*
X137330918Y-70103566D01*
X137452934Y-70225582D01*
X137548801Y-70369058D01*
X137614836Y-70528480D01*
X137648500Y-70697721D01*
X137648500Y-70870279D01*
X137614836Y-71039520D01*
X137548801Y-71198942D01*
X137452934Y-71342418D01*
X137330918Y-71464434D01*
X137187442Y-71560301D01*
X137028020Y-71626336D01*
X136858780Y-71660000D01*
X136686220Y-71660000D01*
X136516980Y-71626336D01*
X136357558Y-71560301D01*
X136214082Y-71464434D01*
X136092066Y-71342418D01*
X135996199Y-71198942D01*
X135930164Y-71039520D01*
X135896500Y-70870279D01*
X135896500Y-70697721D01*
X135930164Y-70528480D01*
X135996199Y-70369058D01*
X136092066Y-70225582D01*
X136214082Y-70103566D01*
X136357558Y-70007699D01*
X136516980Y-69941664D01*
X136603561Y-69924442D01*
X136686220Y-69908000D01*
X136858780Y-69908000D01*
X136941439Y-69924442D01*
X136941439Y-69924442D01*
G37*
G36*
X131480439Y-69924442D02*
G01*
X131567020Y-69941664D01*
X131726442Y-70007699D01*
X131869918Y-70103566D01*
X131991934Y-70225582D01*
X132087801Y-70369058D01*
X132153836Y-70528480D01*
X132187500Y-70697721D01*
X132187500Y-70870279D01*
X132153836Y-71039520D01*
X132087801Y-71198942D01*
X131991934Y-71342418D01*
X131869918Y-71464434D01*
X131726442Y-71560301D01*
X131567020Y-71626336D01*
X131397780Y-71660000D01*
X131225220Y-71660000D01*
X131055980Y-71626336D01*
X130896558Y-71560301D01*
X130753082Y-71464434D01*
X130631066Y-71342418D01*
X130535199Y-71198942D01*
X130469164Y-71039520D01*
X130435500Y-70870279D01*
X130435500Y-70697721D01*
X130469164Y-70528480D01*
X130535199Y-70369058D01*
X130631066Y-70225582D01*
X130753082Y-70103566D01*
X130896558Y-70007699D01*
X131055980Y-69941664D01*
X131142561Y-69924442D01*
X131225220Y-69908000D01*
X131397780Y-69908000D01*
X131480439Y-69924442D01*
X131480439Y-69924442D01*
G37*
G36*
X134401439Y-69924442D02*
G01*
X134488020Y-69941664D01*
X134647442Y-70007699D01*
X134790918Y-70103566D01*
X134912934Y-70225582D01*
X135008801Y-70369058D01*
X135074836Y-70528480D01*
X135108500Y-70697721D01*
X135108500Y-70870279D01*
X135074836Y-71039520D01*
X135008801Y-71198942D01*
X134912934Y-71342418D01*
X134790918Y-71464434D01*
X134647442Y-71560301D01*
X134488020Y-71626336D01*
X134318780Y-71660000D01*
X134146220Y-71660000D01*
X133976980Y-71626336D01*
X133817558Y-71560301D01*
X133674082Y-71464434D01*
X133552066Y-71342418D01*
X133456199Y-71198942D01*
X133390164Y-71039520D01*
X133356500Y-70870279D01*
X133356500Y-70697721D01*
X133390164Y-70528480D01*
X133456199Y-70369058D01*
X133552066Y-70225582D01*
X133674082Y-70103566D01*
X133817558Y-70007699D01*
X133976980Y-69941664D01*
X134063561Y-69924442D01*
X134146220Y-69908000D01*
X134318780Y-69908000D01*
X134401439Y-69924442D01*
X134401439Y-69924442D01*
G37*
G36*
X128940439Y-69924442D02*
G01*
X129027020Y-69941664D01*
X129186442Y-70007699D01*
X129329918Y-70103566D01*
X129451934Y-70225582D01*
X129547801Y-70369058D01*
X129613836Y-70528480D01*
X129647500Y-70697721D01*
X129647500Y-70870279D01*
X129613836Y-71039520D01*
X129547801Y-71198942D01*
X129451934Y-71342418D01*
X129329918Y-71464434D01*
X129186442Y-71560301D01*
X129027020Y-71626336D01*
X128857780Y-71660000D01*
X128685220Y-71660000D01*
X128515980Y-71626336D01*
X128356558Y-71560301D01*
X128213082Y-71464434D01*
X128091066Y-71342418D01*
X127995199Y-71198942D01*
X127929164Y-71039520D01*
X127895500Y-70870279D01*
X127895500Y-70697721D01*
X127929164Y-70528480D01*
X127995199Y-70369058D01*
X128091066Y-70225582D01*
X128213082Y-70103566D01*
X128356558Y-70007699D01*
X128515980Y-69941664D01*
X128602561Y-69924442D01*
X128685220Y-69908000D01*
X128857780Y-69908000D01*
X128940439Y-69924442D01*
X128940439Y-69924442D01*
G37*
G36*
X171634600Y-70936600D02*
G01*
X169805400Y-70936600D01*
X169805400Y-69107400D01*
X171634600Y-69107400D01*
X171634600Y-70936600D01*
X171634600Y-70936600D01*
G37*
G36*
X175979294Y-69120633D02*
G01*
X176151695Y-69172931D01*
X176310583Y-69257858D01*
X176449849Y-69372151D01*
X176564142Y-69511417D01*
X176649069Y-69670305D01*
X176701367Y-69842706D01*
X176719025Y-70022000D01*
X176701367Y-70201294D01*
X176649069Y-70373695D01*
X176564142Y-70532583D01*
X176449849Y-70671849D01*
X176310583Y-70786142D01*
X176151695Y-70871069D01*
X175979294Y-70923367D01*
X175844931Y-70936600D01*
X175755069Y-70936600D01*
X175620706Y-70923367D01*
X175448305Y-70871069D01*
X175289417Y-70786142D01*
X175150151Y-70671849D01*
X175035858Y-70532583D01*
X174950931Y-70373695D01*
X174898633Y-70201294D01*
X174880975Y-70022000D01*
X174898633Y-69842706D01*
X174950931Y-69670305D01*
X175035858Y-69511417D01*
X175150151Y-69372151D01*
X175289417Y-69257858D01*
X175448305Y-69172931D01*
X175620706Y-69120633D01*
X175755069Y-69107400D01*
X175844931Y-69107400D01*
X175979294Y-69120633D01*
X175979294Y-69120633D01*
G37*
G36*
X173439294Y-69120633D02*
G01*
X173611695Y-69172931D01*
X173770583Y-69257858D01*
X173909849Y-69372151D01*
X174024142Y-69511417D01*
X174109069Y-69670305D01*
X174161367Y-69842706D01*
X174179025Y-70022000D01*
X174161367Y-70201294D01*
X174109069Y-70373695D01*
X174024142Y-70532583D01*
X173909849Y-70671849D01*
X173770583Y-70786142D01*
X173611695Y-70871069D01*
X173439294Y-70923367D01*
X173304931Y-70936600D01*
X173215069Y-70936600D01*
X173080706Y-70923367D01*
X172908305Y-70871069D01*
X172749417Y-70786142D01*
X172610151Y-70671849D01*
X172495858Y-70532583D01*
X172410931Y-70373695D01*
X172358633Y-70201294D01*
X172340975Y-70022000D01*
X172358633Y-69842706D01*
X172410931Y-69670305D01*
X172495858Y-69511417D01*
X172610151Y-69372151D01*
X172749417Y-69257858D01*
X172908305Y-69172931D01*
X173080706Y-69120633D01*
X173215069Y-69107400D01*
X173304931Y-69107400D01*
X173439294Y-69120633D01*
X173439294Y-69120633D01*
G37*
G36*
X178519294Y-69120633D02*
G01*
X178691695Y-69172931D01*
X178850583Y-69257858D01*
X178989849Y-69372151D01*
X179104142Y-69511417D01*
X179189069Y-69670305D01*
X179241367Y-69842706D01*
X179259025Y-70022000D01*
X179241367Y-70201294D01*
X179189069Y-70373695D01*
X179104142Y-70532583D01*
X178989849Y-70671849D01*
X178850583Y-70786142D01*
X178691695Y-70871069D01*
X178519294Y-70923367D01*
X178384931Y-70936600D01*
X178295069Y-70936600D01*
X178160706Y-70923367D01*
X177988305Y-70871069D01*
X177829417Y-70786142D01*
X177690151Y-70671849D01*
X177575858Y-70532583D01*
X177490931Y-70373695D01*
X177438633Y-70201294D01*
X177420975Y-70022000D01*
X177438633Y-69842706D01*
X177490931Y-69670305D01*
X177575858Y-69511417D01*
X177690151Y-69372151D01*
X177829417Y-69257858D01*
X177988305Y-69172931D01*
X178160706Y-69120633D01*
X178295069Y-69107400D01*
X178384931Y-69107400D01*
X178519294Y-69120633D01*
X178519294Y-69120633D01*
G37*
G36*
X198897442Y-68238518D02*
G01*
X198963627Y-68245037D01*
X199133466Y-68296557D01*
X199289991Y-68380222D01*
X199325729Y-68409552D01*
X199427186Y-68492814D01*
X199502847Y-68585009D01*
X199539778Y-68630009D01*
X199623443Y-68786534D01*
X199674963Y-68956373D01*
X199692359Y-69133000D01*
X199674963Y-69309627D01*
X199623443Y-69479466D01*
X199539778Y-69635991D01*
X199511618Y-69670304D01*
X199427186Y-69773186D01*
X199344822Y-69840779D01*
X199289991Y-69885778D01*
X199133466Y-69969443D01*
X198963627Y-70020963D01*
X198897442Y-70027482D01*
X198831260Y-70034000D01*
X198742740Y-70034000D01*
X198676558Y-70027482D01*
X198610373Y-70020963D01*
X198440534Y-69969443D01*
X198284009Y-69885778D01*
X198229178Y-69840779D01*
X198146814Y-69773186D01*
X198062382Y-69670304D01*
X198034222Y-69635991D01*
X197950557Y-69479466D01*
X197899037Y-69309627D01*
X197881641Y-69133000D01*
X197899037Y-68956373D01*
X197950557Y-68786534D01*
X198034222Y-68630009D01*
X198071153Y-68585009D01*
X198146814Y-68492814D01*
X198248271Y-68409552D01*
X198284009Y-68380222D01*
X198440534Y-68296557D01*
X198610373Y-68245037D01*
X198676558Y-68238518D01*
X198742740Y-68232000D01*
X198831260Y-68232000D01*
X198897442Y-68238518D01*
X198897442Y-68238518D01*
G37*
G36*
X194608000Y-70034000D02*
G01*
X192806000Y-70034000D01*
X192806000Y-68232000D01*
X194608000Y-68232000D01*
X194608000Y-70034000D01*
X194608000Y-70034000D01*
G37*
G36*
X196357442Y-68238518D02*
G01*
X196423627Y-68245037D01*
X196593466Y-68296557D01*
X196749991Y-68380222D01*
X196785729Y-68409552D01*
X196887186Y-68492814D01*
X196962847Y-68585009D01*
X196999778Y-68630009D01*
X197083443Y-68786534D01*
X197134963Y-68956373D01*
X197152359Y-69133000D01*
X197134963Y-69309627D01*
X197083443Y-69479466D01*
X196999778Y-69635991D01*
X196971618Y-69670304D01*
X196887186Y-69773186D01*
X196804822Y-69840779D01*
X196749991Y-69885778D01*
X196593466Y-69969443D01*
X196423627Y-70020963D01*
X196357442Y-70027482D01*
X196291260Y-70034000D01*
X196202740Y-70034000D01*
X196136558Y-70027482D01*
X196070373Y-70020963D01*
X195900534Y-69969443D01*
X195744009Y-69885778D01*
X195689178Y-69840779D01*
X195606814Y-69773186D01*
X195522382Y-69670304D01*
X195494222Y-69635991D01*
X195410557Y-69479466D01*
X195359037Y-69309627D01*
X195341641Y-69133000D01*
X195359037Y-68956373D01*
X195410557Y-68786534D01*
X195494222Y-68630009D01*
X195531153Y-68585009D01*
X195606814Y-68492814D01*
X195708271Y-68409552D01*
X195744009Y-68380222D01*
X195900534Y-68296557D01*
X196070373Y-68245037D01*
X196136558Y-68238518D01*
X196202740Y-68232000D01*
X196291260Y-68232000D01*
X196357442Y-68238518D01*
X196357442Y-68238518D01*
G37*
G36*
X154476000Y-70034000D02*
G01*
X152674000Y-70034000D01*
X152674000Y-68232000D01*
X154476000Y-68232000D01*
X154476000Y-70034000D01*
X154476000Y-70034000D01*
G37*
G36*
X151145442Y-68238518D02*
G01*
X151211627Y-68245037D01*
X151381466Y-68296557D01*
X151537991Y-68380222D01*
X151573729Y-68409552D01*
X151675186Y-68492814D01*
X151750847Y-68585009D01*
X151787778Y-68630009D01*
X151871443Y-68786534D01*
X151922963Y-68956373D01*
X151940359Y-69133000D01*
X151922963Y-69309627D01*
X151871443Y-69479466D01*
X151787778Y-69635991D01*
X151759618Y-69670304D01*
X151675186Y-69773186D01*
X151592822Y-69840779D01*
X151537991Y-69885778D01*
X151381466Y-69969443D01*
X151211627Y-70020963D01*
X151145442Y-70027482D01*
X151079260Y-70034000D01*
X150990740Y-70034000D01*
X150924558Y-70027482D01*
X150858373Y-70020963D01*
X150688534Y-69969443D01*
X150532009Y-69885778D01*
X150477178Y-69840779D01*
X150394814Y-69773186D01*
X150310382Y-69670304D01*
X150282222Y-69635991D01*
X150198557Y-69479466D01*
X150147037Y-69309627D01*
X150129641Y-69133000D01*
X150147037Y-68956373D01*
X150198557Y-68786534D01*
X150282222Y-68630009D01*
X150319153Y-68585009D01*
X150394814Y-68492814D01*
X150496271Y-68409552D01*
X150532009Y-68380222D01*
X150688534Y-68296557D01*
X150858373Y-68245037D01*
X150924558Y-68238518D01*
X150990740Y-68232000D01*
X151079260Y-68232000D01*
X151145442Y-68238518D01*
X151145442Y-68238518D01*
G37*
G36*
X201437442Y-68238518D02*
G01*
X201503627Y-68245037D01*
X201673466Y-68296557D01*
X201829991Y-68380222D01*
X201865729Y-68409552D01*
X201967186Y-68492814D01*
X202042847Y-68585009D01*
X202079778Y-68630009D01*
X202163443Y-68786534D01*
X202214963Y-68956373D01*
X202232359Y-69133000D01*
X202214963Y-69309627D01*
X202163443Y-69479466D01*
X202079778Y-69635991D01*
X202051618Y-69670304D01*
X201967186Y-69773186D01*
X201884822Y-69840779D01*
X201829991Y-69885778D01*
X201673466Y-69969443D01*
X201503627Y-70020963D01*
X201437442Y-70027482D01*
X201371260Y-70034000D01*
X201282740Y-70034000D01*
X201216558Y-70027482D01*
X201150373Y-70020963D01*
X200980534Y-69969443D01*
X200824009Y-69885778D01*
X200769178Y-69840779D01*
X200686814Y-69773186D01*
X200602382Y-69670304D01*
X200574222Y-69635991D01*
X200490557Y-69479466D01*
X200439037Y-69309627D01*
X200421641Y-69133000D01*
X200439037Y-68956373D01*
X200490557Y-68786534D01*
X200574222Y-68630009D01*
X200611153Y-68585009D01*
X200686814Y-68492814D01*
X200788271Y-68409552D01*
X200824009Y-68380222D01*
X200980534Y-68296557D01*
X201150373Y-68245037D01*
X201216558Y-68238518D01*
X201282740Y-68232000D01*
X201371260Y-68232000D01*
X201437442Y-68238518D01*
X201437442Y-68238518D01*
G37*
G36*
X148605442Y-68238518D02*
G01*
X148671627Y-68245037D01*
X148841466Y-68296557D01*
X148997991Y-68380222D01*
X149033729Y-68409552D01*
X149135186Y-68492814D01*
X149210847Y-68585009D01*
X149247778Y-68630009D01*
X149331443Y-68786534D01*
X149382963Y-68956373D01*
X149400359Y-69133000D01*
X149382963Y-69309627D01*
X149331443Y-69479466D01*
X149247778Y-69635991D01*
X149219618Y-69670304D01*
X149135186Y-69773186D01*
X149052822Y-69840779D01*
X148997991Y-69885778D01*
X148841466Y-69969443D01*
X148671627Y-70020963D01*
X148605442Y-70027482D01*
X148539260Y-70034000D01*
X148450740Y-70034000D01*
X148384558Y-70027482D01*
X148318373Y-70020963D01*
X148148534Y-69969443D01*
X147992009Y-69885778D01*
X147937178Y-69840779D01*
X147854814Y-69773186D01*
X147770382Y-69670304D01*
X147742222Y-69635991D01*
X147658557Y-69479466D01*
X147607037Y-69309627D01*
X147589641Y-69133000D01*
X147607037Y-68956373D01*
X147658557Y-68786534D01*
X147742222Y-68630009D01*
X147779153Y-68585009D01*
X147854814Y-68492814D01*
X147956271Y-68409552D01*
X147992009Y-68380222D01*
X148148534Y-68296557D01*
X148318373Y-68245037D01*
X148384558Y-68238518D01*
X148450740Y-68232000D01*
X148539260Y-68232000D01*
X148605442Y-68238518D01*
X148605442Y-68238518D01*
G37*
G36*
X146065442Y-68238518D02*
G01*
X146131627Y-68245037D01*
X146301466Y-68296557D01*
X146457991Y-68380222D01*
X146493729Y-68409552D01*
X146595186Y-68492814D01*
X146670847Y-68585009D01*
X146707778Y-68630009D01*
X146791443Y-68786534D01*
X146842963Y-68956373D01*
X146860359Y-69133000D01*
X146842963Y-69309627D01*
X146791443Y-69479466D01*
X146707778Y-69635991D01*
X146679618Y-69670304D01*
X146595186Y-69773186D01*
X146512822Y-69840779D01*
X146457991Y-69885778D01*
X146301466Y-69969443D01*
X146131627Y-70020963D01*
X146065442Y-70027482D01*
X145999260Y-70034000D01*
X145910740Y-70034000D01*
X145844558Y-70027482D01*
X145778373Y-70020963D01*
X145608534Y-69969443D01*
X145452009Y-69885778D01*
X145397178Y-69840779D01*
X145314814Y-69773186D01*
X145230382Y-69670304D01*
X145202222Y-69635991D01*
X145118557Y-69479466D01*
X145067037Y-69309627D01*
X145049641Y-69133000D01*
X145067037Y-68956373D01*
X145118557Y-68786534D01*
X145202222Y-68630009D01*
X145239153Y-68585009D01*
X145314814Y-68492814D01*
X145416271Y-68409552D01*
X145452009Y-68380222D01*
X145608534Y-68296557D01*
X145778373Y-68245037D01*
X145844558Y-68238518D01*
X145910740Y-68232000D01*
X145999260Y-68232000D01*
X146065442Y-68238518D01*
X146065442Y-68238518D01*
G37*
G36*
X214261000Y-69989000D02*
G01*
X212459000Y-69989000D01*
X212459000Y-68187000D01*
X214261000Y-68187000D01*
X214261000Y-69989000D01*
X214261000Y-69989000D01*
G37*
G36*
X205850443Y-68193519D02*
G01*
X205916627Y-68200037D01*
X206086466Y-68251557D01*
X206242991Y-68335222D01*
X206278729Y-68364552D01*
X206380186Y-68447814D01*
X206463448Y-68549271D01*
X206492778Y-68585009D01*
X206576443Y-68741534D01*
X206627963Y-68911373D01*
X206645359Y-69088000D01*
X206627963Y-69264627D01*
X206576443Y-69434466D01*
X206492778Y-69590991D01*
X206463448Y-69626729D01*
X206380186Y-69728186D01*
X206278729Y-69811448D01*
X206242991Y-69840778D01*
X206242989Y-69840779D01*
X206117229Y-69908000D01*
X206086466Y-69924443D01*
X205916627Y-69975963D01*
X205850443Y-69982481D01*
X205784260Y-69989000D01*
X205695740Y-69989000D01*
X205629557Y-69982481D01*
X205563373Y-69975963D01*
X205393534Y-69924443D01*
X205362772Y-69908000D01*
X205237011Y-69840779D01*
X205237009Y-69840778D01*
X205201271Y-69811448D01*
X205099814Y-69728186D01*
X205016552Y-69626729D01*
X204987222Y-69590991D01*
X204903557Y-69434466D01*
X204852037Y-69264627D01*
X204834641Y-69088000D01*
X204852037Y-68911373D01*
X204903557Y-68741534D01*
X204987222Y-68585009D01*
X205016552Y-68549271D01*
X205099814Y-68447814D01*
X205201271Y-68364552D01*
X205237009Y-68335222D01*
X205393534Y-68251557D01*
X205563373Y-68200037D01*
X205629557Y-68193519D01*
X205695740Y-68187000D01*
X205784260Y-68187000D01*
X205850443Y-68193519D01*
X205850443Y-68193519D01*
G37*
G36*
X208390443Y-68193519D02*
G01*
X208456627Y-68200037D01*
X208626466Y-68251557D01*
X208782991Y-68335222D01*
X208818729Y-68364552D01*
X208920186Y-68447814D01*
X209003448Y-68549271D01*
X209032778Y-68585009D01*
X209116443Y-68741534D01*
X209167963Y-68911373D01*
X209185359Y-69088000D01*
X209167963Y-69264627D01*
X209116443Y-69434466D01*
X209032778Y-69590991D01*
X209003448Y-69626729D01*
X208920186Y-69728186D01*
X208818729Y-69811448D01*
X208782991Y-69840778D01*
X208782989Y-69840779D01*
X208657229Y-69908000D01*
X208626466Y-69924443D01*
X208456627Y-69975963D01*
X208390443Y-69982481D01*
X208324260Y-69989000D01*
X208235740Y-69989000D01*
X208169557Y-69982481D01*
X208103373Y-69975963D01*
X207933534Y-69924443D01*
X207902772Y-69908000D01*
X207777011Y-69840779D01*
X207777009Y-69840778D01*
X207741271Y-69811448D01*
X207639814Y-69728186D01*
X207556552Y-69626729D01*
X207527222Y-69590991D01*
X207443557Y-69434466D01*
X207392037Y-69264627D01*
X207374641Y-69088000D01*
X207392037Y-68911373D01*
X207443557Y-68741534D01*
X207527222Y-68585009D01*
X207556552Y-68549271D01*
X207639814Y-68447814D01*
X207741271Y-68364552D01*
X207777009Y-68335222D01*
X207933534Y-68251557D01*
X208103373Y-68200037D01*
X208169557Y-68193519D01*
X208235740Y-68187000D01*
X208324260Y-68187000D01*
X208390443Y-68193519D01*
X208390443Y-68193519D01*
G37*
G36*
X210930443Y-68193519D02*
G01*
X210996627Y-68200037D01*
X211166466Y-68251557D01*
X211322991Y-68335222D01*
X211358729Y-68364552D01*
X211460186Y-68447814D01*
X211543448Y-68549271D01*
X211572778Y-68585009D01*
X211656443Y-68741534D01*
X211707963Y-68911373D01*
X211725359Y-69088000D01*
X211707963Y-69264627D01*
X211656443Y-69434466D01*
X211572778Y-69590991D01*
X211543448Y-69626729D01*
X211460186Y-69728186D01*
X211358729Y-69811448D01*
X211322991Y-69840778D01*
X211322989Y-69840779D01*
X211197229Y-69908000D01*
X211166466Y-69924443D01*
X210996627Y-69975963D01*
X210930443Y-69982481D01*
X210864260Y-69989000D01*
X210775740Y-69989000D01*
X210709557Y-69982481D01*
X210643373Y-69975963D01*
X210473534Y-69924443D01*
X210442772Y-69908000D01*
X210317011Y-69840779D01*
X210317009Y-69840778D01*
X210281271Y-69811448D01*
X210179814Y-69728186D01*
X210096552Y-69626729D01*
X210067222Y-69590991D01*
X209983557Y-69434466D01*
X209932037Y-69264627D01*
X209914641Y-69088000D01*
X209932037Y-68911373D01*
X209983557Y-68741534D01*
X210067222Y-68585009D01*
X210096552Y-68549271D01*
X210179814Y-68447814D01*
X210281271Y-68364552D01*
X210317009Y-68335222D01*
X210473534Y-68251557D01*
X210643373Y-68200037D01*
X210709557Y-68193519D01*
X210775740Y-68187000D01*
X210864260Y-68187000D01*
X210930443Y-68193519D01*
X210930443Y-68193519D01*
G37*
G36*
X131020988Y-62347973D02*
G01*
X131608082Y-62591155D01*
X131608084Y-62591156D01*
X132136455Y-62944202D01*
X132585798Y-63393545D01*
X132891451Y-63850988D01*
X132938845Y-63921918D01*
X133182027Y-64509012D01*
X133306000Y-65132265D01*
X133306000Y-65767735D01*
X133182027Y-66390988D01*
X132941606Y-66971417D01*
X132938844Y-66978084D01*
X132585798Y-67506455D01*
X132136455Y-67955798D01*
X131608084Y-68308844D01*
X131608083Y-68308845D01*
X131608082Y-68308845D01*
X131020988Y-68552027D01*
X130397735Y-68676000D01*
X129762265Y-68676000D01*
X129139012Y-68552027D01*
X128551918Y-68308845D01*
X128551917Y-68308845D01*
X128551916Y-68308844D01*
X128023545Y-67955798D01*
X127574202Y-67506455D01*
X127221156Y-66978084D01*
X127218394Y-66971417D01*
X126977973Y-66390988D01*
X126854000Y-65767735D01*
X126854000Y-65132265D01*
X126977973Y-64509012D01*
X127221155Y-63921918D01*
X127268549Y-63850988D01*
X127574202Y-63393545D01*
X128023545Y-62944202D01*
X128551916Y-62591156D01*
X128551918Y-62591155D01*
X129139012Y-62347973D01*
X129762265Y-62224000D01*
X130397735Y-62224000D01*
X131020988Y-62347973D01*
X131020988Y-62347973D01*
G37*
G36*
X170899294Y-66580633D02*
G01*
X171071695Y-66632931D01*
X171230583Y-66717858D01*
X171369849Y-66832151D01*
X171484142Y-66971417D01*
X171569069Y-67130305D01*
X171621367Y-67302706D01*
X171639025Y-67482000D01*
X171621367Y-67661294D01*
X171569069Y-67833695D01*
X171484142Y-67992583D01*
X171369849Y-68131849D01*
X171230583Y-68246142D01*
X171071695Y-68331069D01*
X170899294Y-68383367D01*
X170764931Y-68396600D01*
X170675069Y-68396600D01*
X170540706Y-68383367D01*
X170368305Y-68331069D01*
X170209417Y-68246142D01*
X170070151Y-68131849D01*
X169955858Y-67992583D01*
X169870931Y-67833695D01*
X169818633Y-67661294D01*
X169800975Y-67482000D01*
X169818633Y-67302706D01*
X169870931Y-67130305D01*
X169955858Y-66971417D01*
X170070151Y-66832151D01*
X170209417Y-66717858D01*
X170368305Y-66632931D01*
X170540706Y-66580633D01*
X170675069Y-66567400D01*
X170764931Y-66567400D01*
X170899294Y-66580633D01*
X170899294Y-66580633D01*
G37*
G36*
X173439294Y-66580633D02*
G01*
X173611695Y-66632931D01*
X173770583Y-66717858D01*
X173909849Y-66832151D01*
X174024142Y-66971417D01*
X174109069Y-67130305D01*
X174161367Y-67302706D01*
X174179025Y-67482000D01*
X174161367Y-67661294D01*
X174109069Y-67833695D01*
X174024142Y-67992583D01*
X173909849Y-68131849D01*
X173770583Y-68246142D01*
X173611695Y-68331069D01*
X173439294Y-68383367D01*
X173304931Y-68396600D01*
X173215069Y-68396600D01*
X173080706Y-68383367D01*
X172908305Y-68331069D01*
X172749417Y-68246142D01*
X172610151Y-68131849D01*
X172495858Y-67992583D01*
X172410931Y-67833695D01*
X172358633Y-67661294D01*
X172340975Y-67482000D01*
X172358633Y-67302706D01*
X172410931Y-67130305D01*
X172495858Y-66971417D01*
X172610151Y-66832151D01*
X172749417Y-66717858D01*
X172908305Y-66632931D01*
X173080706Y-66580633D01*
X173215069Y-66567400D01*
X173304931Y-66567400D01*
X173439294Y-66580633D01*
X173439294Y-66580633D01*
G37*
G36*
X175979294Y-66580633D02*
G01*
X176151695Y-66632931D01*
X176310583Y-66717858D01*
X176449849Y-66832151D01*
X176564142Y-66971417D01*
X176649069Y-67130305D01*
X176701367Y-67302706D01*
X176719025Y-67482000D01*
X176701367Y-67661294D01*
X176649069Y-67833695D01*
X176564142Y-67992583D01*
X176449849Y-68131849D01*
X176310583Y-68246142D01*
X176151695Y-68331069D01*
X175979294Y-68383367D01*
X175844931Y-68396600D01*
X175755069Y-68396600D01*
X175620706Y-68383367D01*
X175448305Y-68331069D01*
X175289417Y-68246142D01*
X175150151Y-68131849D01*
X175035858Y-67992583D01*
X174950931Y-67833695D01*
X174898633Y-67661294D01*
X174880975Y-67482000D01*
X174898633Y-67302706D01*
X174950931Y-67130305D01*
X175035858Y-66971417D01*
X175150151Y-66832151D01*
X175289417Y-66717858D01*
X175448305Y-66632931D01*
X175620706Y-66580633D01*
X175755069Y-66567400D01*
X175844931Y-66567400D01*
X175979294Y-66580633D01*
X175979294Y-66580633D01*
G37*
G36*
X178519294Y-66580633D02*
G01*
X178691695Y-66632931D01*
X178850583Y-66717858D01*
X178989849Y-66832151D01*
X179104142Y-66971417D01*
X179189069Y-67130305D01*
X179241367Y-67302706D01*
X179259025Y-67482000D01*
X179241367Y-67661294D01*
X179189069Y-67833695D01*
X179104142Y-67992583D01*
X178989849Y-68131849D01*
X178850583Y-68246142D01*
X178691695Y-68331069D01*
X178519294Y-68383367D01*
X178384931Y-68396600D01*
X178295069Y-68396600D01*
X178160706Y-68383367D01*
X177988305Y-68331069D01*
X177829417Y-68246142D01*
X177690151Y-68131849D01*
X177575858Y-67992583D01*
X177490931Y-67833695D01*
X177438633Y-67661294D01*
X177420975Y-67482000D01*
X177438633Y-67302706D01*
X177490931Y-67130305D01*
X177575858Y-66971417D01*
X177690151Y-66832151D01*
X177829417Y-66717858D01*
X177988305Y-66632931D01*
X178160706Y-66580633D01*
X178295069Y-66567400D01*
X178384931Y-66567400D01*
X178519294Y-66580633D01*
X178519294Y-66580633D01*
G37*
G36*
X216750988Y-59807973D02*
G01*
X217338082Y-60051155D01*
X217338084Y-60051156D01*
X217866455Y-60404202D01*
X218315798Y-60853545D01*
X218668844Y-61381916D01*
X218668845Y-61381918D01*
X218912027Y-61969012D01*
X219036000Y-62592265D01*
X219036000Y-63227735D01*
X218912027Y-63850988D01*
X218668845Y-64438082D01*
X218668844Y-64438084D01*
X218315798Y-64966455D01*
X217866455Y-65415798D01*
X217338084Y-65768844D01*
X217338083Y-65768845D01*
X217338082Y-65768845D01*
X216750988Y-66012027D01*
X216127735Y-66136000D01*
X215492265Y-66136000D01*
X214869012Y-66012027D01*
X214281918Y-65768845D01*
X214281917Y-65768845D01*
X214281916Y-65768844D01*
X213753545Y-65415798D01*
X213304202Y-64966455D01*
X212951156Y-64438084D01*
X212951155Y-64438082D01*
X212707973Y-63850988D01*
X212584000Y-63227735D01*
X212584000Y-62592265D01*
X212707973Y-61969012D01*
X212951155Y-61381918D01*
X212951156Y-61381916D01*
X213304202Y-60853545D01*
X213753545Y-60404202D01*
X214281916Y-60051156D01*
X214281918Y-60051155D01*
X214869012Y-59807973D01*
X215492265Y-59684000D01*
X216127735Y-59684000D01*
X216750988Y-59807973D01*
X216750988Y-59807973D01*
G37*
M02*
