%FSLAX45Y45*%
G04 Gerber Fmt 4.5, Leading zero omitted, Abs format (unit mm)*
G04 Created by KiCad (PCBNEW (5.1.2)-2) date 2020-11-23 21:19:48*
%MOMM*%
%LPD*%
G04 APERTURE LIST*
%ADD10C,0.050000*%
%ADD11C,0.200000*%
%ADD12C,0.300000*%
G04 APERTURE END LIST*
D10*
X12500000Y-5783000D02*
X22089000Y-5783000D01*
X22089000Y-14800000D02*
X22089000Y-5783000D01*
X12500000Y-14800000D02*
X12500000Y-5783000D01*
X12500000Y-14800000D02*
X22089000Y-14800000D01*
D11*
X21405100Y-9658900D02*
X21705100Y-9958900D01*
X21705100Y-9658900D02*
X21405100Y-9958900D01*
X21405100Y-11233700D02*
X21705100Y-11533700D01*
X21705100Y-11233700D02*
X21405100Y-11533700D01*
X15466700Y-13923700D02*
G75*
G03X15466700Y-13923700I-160000J0D01*
G01*
X15466700Y-8123700D02*
G75*
G03X15466700Y-8123700I-160000J0D01*
G01*
D12*
X12783928Y-15268214D02*
X12783928Y-14968214D01*
X12855357Y-14968214D01*
X12898214Y-14982500D01*
X12926786Y-15011071D01*
X12941071Y-15039643D01*
X12955357Y-15096786D01*
X12955357Y-15139643D01*
X12941071Y-15196786D01*
X12926786Y-15225357D01*
X12898214Y-15253929D01*
X12855357Y-15268214D01*
X12783928Y-15268214D01*
X13083928Y-15268214D02*
X13083928Y-15068214D01*
X13083928Y-15125357D02*
X13098214Y-15096786D01*
X13112500Y-15082500D01*
X13141071Y-15068214D01*
X13169643Y-15068214D01*
X13269643Y-15268214D02*
X13269643Y-15068214D01*
X13269643Y-14968214D02*
X13255357Y-14982500D01*
X13269643Y-14996786D01*
X13283928Y-14982500D01*
X13269643Y-14968214D01*
X13269643Y-14996786D01*
X13455357Y-15268214D02*
X13426786Y-15253929D01*
X13412500Y-15225357D01*
X13412500Y-14968214D01*
X13612500Y-15268214D02*
X13583928Y-15253929D01*
X13569643Y-15225357D01*
X13569643Y-14968214D01*
X13955357Y-15268214D02*
X13955357Y-14968214D01*
X14055357Y-15182500D01*
X14155357Y-14968214D01*
X14155357Y-15268214D01*
X14426786Y-15268214D02*
X14426786Y-15111071D01*
X14412500Y-15082500D01*
X14383928Y-15068214D01*
X14326786Y-15068214D01*
X14298214Y-15082500D01*
X14426786Y-15253929D02*
X14398214Y-15268214D01*
X14326786Y-15268214D01*
X14298214Y-15253929D01*
X14283928Y-15225357D01*
X14283928Y-15196786D01*
X14298214Y-15168214D01*
X14326786Y-15153929D01*
X14398214Y-15153929D01*
X14426786Y-15139643D01*
X14569643Y-15068214D02*
X14569643Y-15368214D01*
X14569643Y-15082500D02*
X14598214Y-15068214D01*
X14655357Y-15068214D01*
X14683928Y-15082500D01*
X14698214Y-15096786D01*
X14712500Y-15125357D01*
X14712500Y-15211071D01*
X14698214Y-15239643D01*
X14683928Y-15253929D01*
X14655357Y-15268214D01*
X14598214Y-15268214D01*
X14569643Y-15253929D01*
X14841071Y-15239643D02*
X14855357Y-15253929D01*
X14841071Y-15268214D01*
X14826786Y-15253929D01*
X14841071Y-15239643D01*
X14841071Y-15268214D01*
X14841071Y-15082500D02*
X14855357Y-15096786D01*
X14841071Y-15111071D01*
X14826786Y-15096786D01*
X14841071Y-15082500D01*
X14841071Y-15111071D01*
X12197500Y-15612500D02*
X12497500Y-15912500D01*
X12497500Y-15612500D02*
X12197500Y-15912500D01*
X12755357Y-15598214D02*
X12941071Y-15598214D01*
X12841071Y-15712500D01*
X12883928Y-15712500D01*
X12912500Y-15726786D01*
X12926786Y-15741071D01*
X12941071Y-15769643D01*
X12941071Y-15841071D01*
X12926786Y-15869643D01*
X12912500Y-15883929D01*
X12883928Y-15898214D01*
X12798214Y-15898214D01*
X12769643Y-15883929D01*
X12755357Y-15869643D01*
X13069643Y-15869643D02*
X13083928Y-15883929D01*
X13069643Y-15898214D01*
X13055357Y-15883929D01*
X13069643Y-15869643D01*
X13069643Y-15898214D01*
X13269643Y-15598214D02*
X13298214Y-15598214D01*
X13326786Y-15612500D01*
X13341071Y-15626786D01*
X13355357Y-15655357D01*
X13369643Y-15712500D01*
X13369643Y-15783929D01*
X13355357Y-15841071D01*
X13341071Y-15869643D01*
X13326786Y-15883929D01*
X13298214Y-15898214D01*
X13269643Y-15898214D01*
X13241071Y-15883929D01*
X13226786Y-15869643D01*
X13212500Y-15841071D01*
X13198214Y-15783929D01*
X13198214Y-15712500D01*
X13212500Y-15655357D01*
X13226786Y-15626786D01*
X13241071Y-15612500D01*
X13269643Y-15598214D01*
X13555357Y-15598214D02*
X13583928Y-15598214D01*
X13612500Y-15612500D01*
X13626786Y-15626786D01*
X13641071Y-15655357D01*
X13655357Y-15712500D01*
X13655357Y-15783929D01*
X13641071Y-15841071D01*
X13626786Y-15869643D01*
X13612500Y-15883929D01*
X13583928Y-15898214D01*
X13555357Y-15898214D01*
X13526786Y-15883929D01*
X13512500Y-15869643D01*
X13498214Y-15841071D01*
X13483928Y-15783929D01*
X13483928Y-15712500D01*
X13498214Y-15655357D01*
X13512500Y-15626786D01*
X13526786Y-15612500D01*
X13555357Y-15598214D01*
X13783928Y-15898214D02*
X13783928Y-15698214D01*
X13783928Y-15726786D02*
X13798214Y-15712500D01*
X13826786Y-15698214D01*
X13869643Y-15698214D01*
X13898214Y-15712500D01*
X13912500Y-15741071D01*
X13912500Y-15898214D01*
X13912500Y-15741071D02*
X13926786Y-15712500D01*
X13955357Y-15698214D01*
X13998214Y-15698214D01*
X14026786Y-15712500D01*
X14041071Y-15741071D01*
X14041071Y-15898214D01*
X14183928Y-15898214D02*
X14183928Y-15698214D01*
X14183928Y-15726786D02*
X14198214Y-15712500D01*
X14226786Y-15698214D01*
X14269643Y-15698214D01*
X14298214Y-15712500D01*
X14312500Y-15741071D01*
X14312500Y-15898214D01*
X14312500Y-15741071D02*
X14326786Y-15712500D01*
X14355357Y-15698214D01*
X14398214Y-15698214D01*
X14426786Y-15712500D01*
X14441071Y-15741071D01*
X14441071Y-15898214D01*
X15026786Y-15583929D02*
X14769643Y-15969643D01*
X15412500Y-15598214D02*
X15441071Y-15598214D01*
X15469643Y-15612500D01*
X15483928Y-15626786D01*
X15498214Y-15655357D01*
X15512500Y-15712500D01*
X15512500Y-15783929D01*
X15498214Y-15841071D01*
X15483928Y-15869643D01*
X15469643Y-15883929D01*
X15441071Y-15898214D01*
X15412500Y-15898214D01*
X15383928Y-15883929D01*
X15369643Y-15869643D01*
X15355357Y-15841071D01*
X15341071Y-15783929D01*
X15341071Y-15712500D01*
X15355357Y-15655357D01*
X15369643Y-15626786D01*
X15383928Y-15612500D01*
X15412500Y-15598214D01*
X15641071Y-15869643D02*
X15655357Y-15883929D01*
X15641071Y-15898214D01*
X15626786Y-15883929D01*
X15641071Y-15869643D01*
X15641071Y-15898214D01*
X15941071Y-15898214D02*
X15769643Y-15898214D01*
X15855357Y-15898214D02*
X15855357Y-15598214D01*
X15826786Y-15641071D01*
X15798214Y-15669643D01*
X15769643Y-15683929D01*
X16226786Y-15898214D02*
X16055357Y-15898214D01*
X16141071Y-15898214D02*
X16141071Y-15598214D01*
X16112500Y-15641071D01*
X16083928Y-15669643D01*
X16055357Y-15683929D01*
X16398214Y-15726786D02*
X16369643Y-15712500D01*
X16355357Y-15698214D01*
X16341071Y-15669643D01*
X16341071Y-15655357D01*
X16355357Y-15626786D01*
X16369643Y-15612500D01*
X16398214Y-15598214D01*
X16455357Y-15598214D01*
X16483928Y-15612500D01*
X16498214Y-15626786D01*
X16512500Y-15655357D01*
X16512500Y-15669643D01*
X16498214Y-15698214D01*
X16483928Y-15712500D01*
X16455357Y-15726786D01*
X16398214Y-15726786D01*
X16369643Y-15741071D01*
X16355357Y-15755357D01*
X16341071Y-15783929D01*
X16341071Y-15841071D01*
X16355357Y-15869643D01*
X16369643Y-15883929D01*
X16398214Y-15898214D01*
X16455357Y-15898214D01*
X16483928Y-15883929D01*
X16498214Y-15869643D01*
X16512500Y-15841071D01*
X16512500Y-15783929D01*
X16498214Y-15755357D01*
X16483928Y-15741071D01*
X16455357Y-15726786D01*
X16626786Y-15598214D02*
X16626786Y-15655357D01*
X16741071Y-15598214D02*
X16741071Y-15655357D01*
X17183928Y-16012500D02*
X17169643Y-15998214D01*
X17141071Y-15955357D01*
X17126786Y-15926786D01*
X17112500Y-15883929D01*
X17098214Y-15812500D01*
X17098214Y-15755357D01*
X17112500Y-15683929D01*
X17126786Y-15641071D01*
X17141071Y-15612500D01*
X17169643Y-15569643D01*
X17183928Y-15555357D01*
X17283928Y-15626786D02*
X17298214Y-15612500D01*
X17326786Y-15598214D01*
X17398214Y-15598214D01*
X17426786Y-15612500D01*
X17441071Y-15626786D01*
X17455357Y-15655357D01*
X17455357Y-15683929D01*
X17441071Y-15726786D01*
X17269643Y-15898214D01*
X17455357Y-15898214D01*
X17812500Y-15898214D02*
X17812500Y-15598214D01*
X17941071Y-15898214D02*
X17941071Y-15741071D01*
X17926786Y-15712500D01*
X17898214Y-15698214D01*
X17855357Y-15698214D01*
X17826786Y-15712500D01*
X17812500Y-15726786D01*
X18126786Y-15898214D02*
X18098214Y-15883929D01*
X18083928Y-15869643D01*
X18069643Y-15841071D01*
X18069643Y-15755357D01*
X18083928Y-15726786D01*
X18098214Y-15712500D01*
X18126786Y-15698214D01*
X18169643Y-15698214D01*
X18198214Y-15712500D01*
X18212500Y-15726786D01*
X18226786Y-15755357D01*
X18226786Y-15841071D01*
X18212500Y-15869643D01*
X18198214Y-15883929D01*
X18169643Y-15898214D01*
X18126786Y-15898214D01*
X18398214Y-15898214D02*
X18369643Y-15883929D01*
X18355357Y-15855357D01*
X18355357Y-15598214D01*
X18626786Y-15883929D02*
X18598214Y-15898214D01*
X18541071Y-15898214D01*
X18512500Y-15883929D01*
X18498214Y-15855357D01*
X18498214Y-15741071D01*
X18512500Y-15712500D01*
X18541071Y-15698214D01*
X18598214Y-15698214D01*
X18626786Y-15712500D01*
X18641071Y-15741071D01*
X18641071Y-15769643D01*
X18498214Y-15798214D01*
X18755357Y-15883929D02*
X18783928Y-15898214D01*
X18841071Y-15898214D01*
X18869643Y-15883929D01*
X18883928Y-15855357D01*
X18883928Y-15841071D01*
X18869643Y-15812500D01*
X18841071Y-15798214D01*
X18798214Y-15798214D01*
X18769643Y-15783929D01*
X18755357Y-15755357D01*
X18755357Y-15741071D01*
X18769643Y-15712500D01*
X18798214Y-15698214D01*
X18841071Y-15698214D01*
X18869643Y-15712500D01*
X18983928Y-16012500D02*
X18998214Y-15998214D01*
X19026786Y-15955357D01*
X19041071Y-15926786D01*
X19055357Y-15883929D01*
X19069643Y-15812500D01*
X19069643Y-15755357D01*
X19055357Y-15683929D01*
X19041071Y-15641071D01*
X19026786Y-15612500D01*
X18998214Y-15569643D01*
X18983928Y-15555357D01*
X19526786Y-16012500D02*
X19512500Y-15998214D01*
X19483928Y-15955357D01*
X19469643Y-15926786D01*
X19455357Y-15883929D01*
X19441071Y-15812500D01*
X19441071Y-15755357D01*
X19455357Y-15683929D01*
X19469643Y-15641071D01*
X19483928Y-15612500D01*
X19512500Y-15569643D01*
X19526786Y-15555357D01*
X19641071Y-15698214D02*
X19641071Y-15898214D01*
X19641071Y-15726786D02*
X19655357Y-15712500D01*
X19683928Y-15698214D01*
X19726786Y-15698214D01*
X19755357Y-15712500D01*
X19769643Y-15741071D01*
X19769643Y-15898214D01*
X19955357Y-15898214D02*
X19926786Y-15883929D01*
X19912500Y-15869643D01*
X19898214Y-15841071D01*
X19898214Y-15755357D01*
X19912500Y-15726786D01*
X19926786Y-15712500D01*
X19955357Y-15698214D01*
X19998214Y-15698214D01*
X20026786Y-15712500D01*
X20041071Y-15726786D01*
X20055357Y-15755357D01*
X20055357Y-15841071D01*
X20041071Y-15869643D01*
X20026786Y-15883929D01*
X19998214Y-15898214D01*
X19955357Y-15898214D01*
X20141071Y-15698214D02*
X20255357Y-15698214D01*
X20183928Y-15598214D02*
X20183928Y-15855357D01*
X20198214Y-15883929D01*
X20226786Y-15898214D01*
X20255357Y-15898214D01*
X20583928Y-15698214D02*
X20583928Y-15998214D01*
X20583928Y-15712500D02*
X20612500Y-15698214D01*
X20669643Y-15698214D01*
X20698214Y-15712500D01*
X20712500Y-15726786D01*
X20726786Y-15755357D01*
X20726786Y-15841071D01*
X20712500Y-15869643D01*
X20698214Y-15883929D01*
X20669643Y-15898214D01*
X20612500Y-15898214D01*
X20583928Y-15883929D01*
X20898214Y-15898214D02*
X20869643Y-15883929D01*
X20855357Y-15855357D01*
X20855357Y-15598214D01*
X21141071Y-15898214D02*
X21141071Y-15741071D01*
X21126786Y-15712500D01*
X21098214Y-15698214D01*
X21041071Y-15698214D01*
X21012500Y-15712500D01*
X21141071Y-15883929D02*
X21112500Y-15898214D01*
X21041071Y-15898214D01*
X21012500Y-15883929D01*
X20998214Y-15855357D01*
X20998214Y-15826786D01*
X21012500Y-15798214D01*
X21041071Y-15783929D01*
X21112500Y-15783929D01*
X21141071Y-15769643D01*
X21241071Y-15698214D02*
X21355357Y-15698214D01*
X21283928Y-15598214D02*
X21283928Y-15855357D01*
X21298214Y-15883929D01*
X21326786Y-15898214D01*
X21355357Y-15898214D01*
X21569643Y-15883929D02*
X21541071Y-15898214D01*
X21483928Y-15898214D01*
X21455357Y-15883929D01*
X21441071Y-15855357D01*
X21441071Y-15741071D01*
X21455357Y-15712500D01*
X21483928Y-15698214D01*
X21541071Y-15698214D01*
X21569643Y-15712500D01*
X21583928Y-15741071D01*
X21583928Y-15769643D01*
X21441071Y-15798214D01*
X21841071Y-15898214D02*
X21841071Y-15598214D01*
X21841071Y-15883929D02*
X21812500Y-15898214D01*
X21755357Y-15898214D01*
X21726786Y-15883929D01*
X21712500Y-15869643D01*
X21698214Y-15841071D01*
X21698214Y-15755357D01*
X21712500Y-15726786D01*
X21726786Y-15712500D01*
X21755357Y-15698214D01*
X21812500Y-15698214D01*
X21841071Y-15712500D01*
X21955357Y-16012500D02*
X21969643Y-15998214D01*
X21998214Y-15955357D01*
X22012500Y-15926786D01*
X22026786Y-15883929D01*
X22041071Y-15812500D01*
X22041071Y-15755357D01*
X22026786Y-15683929D01*
X22012500Y-15641071D01*
X21998214Y-15612500D01*
X21969643Y-15569643D01*
X21955357Y-15555357D01*
X12497500Y-16192500D02*
G75*
G03X12497500Y-16192500I-160000J0D01*
G01*
X12755357Y-16028214D02*
X12941071Y-16028214D01*
X12841071Y-16142500D01*
X12883928Y-16142500D01*
X12912500Y-16156786D01*
X12926786Y-16171071D01*
X12941071Y-16199643D01*
X12941071Y-16271071D01*
X12926786Y-16299643D01*
X12912500Y-16313929D01*
X12883928Y-16328214D01*
X12798214Y-16328214D01*
X12769643Y-16313929D01*
X12755357Y-16299643D01*
X13069643Y-16299643D02*
X13083928Y-16313929D01*
X13069643Y-16328214D01*
X13055357Y-16313929D01*
X13069643Y-16299643D01*
X13069643Y-16328214D01*
X13198214Y-16056786D02*
X13212500Y-16042500D01*
X13241071Y-16028214D01*
X13312500Y-16028214D01*
X13341071Y-16042500D01*
X13355357Y-16056786D01*
X13369643Y-16085357D01*
X13369643Y-16113929D01*
X13355357Y-16156786D01*
X13183928Y-16328214D01*
X13369643Y-16328214D01*
X13555357Y-16028214D02*
X13583928Y-16028214D01*
X13612500Y-16042500D01*
X13626786Y-16056786D01*
X13641071Y-16085357D01*
X13655357Y-16142500D01*
X13655357Y-16213929D01*
X13641071Y-16271071D01*
X13626786Y-16299643D01*
X13612500Y-16313929D01*
X13583928Y-16328214D01*
X13555357Y-16328214D01*
X13526786Y-16313929D01*
X13512500Y-16299643D01*
X13498214Y-16271071D01*
X13483928Y-16213929D01*
X13483928Y-16142500D01*
X13498214Y-16085357D01*
X13512500Y-16056786D01*
X13526786Y-16042500D01*
X13555357Y-16028214D01*
X13783928Y-16328214D02*
X13783928Y-16128214D01*
X13783928Y-16156786D02*
X13798214Y-16142500D01*
X13826786Y-16128214D01*
X13869643Y-16128214D01*
X13898214Y-16142500D01*
X13912500Y-16171071D01*
X13912500Y-16328214D01*
X13912500Y-16171071D02*
X13926786Y-16142500D01*
X13955357Y-16128214D01*
X13998214Y-16128214D01*
X14026786Y-16142500D01*
X14041071Y-16171071D01*
X14041071Y-16328214D01*
X14183928Y-16328214D02*
X14183928Y-16128214D01*
X14183928Y-16156786D02*
X14198214Y-16142500D01*
X14226786Y-16128214D01*
X14269643Y-16128214D01*
X14298214Y-16142500D01*
X14312500Y-16171071D01*
X14312500Y-16328214D01*
X14312500Y-16171071D02*
X14326786Y-16142500D01*
X14355357Y-16128214D01*
X14398214Y-16128214D01*
X14426786Y-16142500D01*
X14441071Y-16171071D01*
X14441071Y-16328214D01*
X15026786Y-16013929D02*
X14769643Y-16399643D01*
X15412500Y-16028214D02*
X15441071Y-16028214D01*
X15469643Y-16042500D01*
X15483928Y-16056786D01*
X15498214Y-16085357D01*
X15512500Y-16142500D01*
X15512500Y-16213929D01*
X15498214Y-16271071D01*
X15483928Y-16299643D01*
X15469643Y-16313929D01*
X15441071Y-16328214D01*
X15412500Y-16328214D01*
X15383928Y-16313929D01*
X15369643Y-16299643D01*
X15355357Y-16271071D01*
X15341071Y-16213929D01*
X15341071Y-16142500D01*
X15355357Y-16085357D01*
X15369643Y-16056786D01*
X15383928Y-16042500D01*
X15412500Y-16028214D01*
X15641071Y-16299643D02*
X15655357Y-16313929D01*
X15641071Y-16328214D01*
X15626786Y-16313929D01*
X15641071Y-16299643D01*
X15641071Y-16328214D01*
X15941071Y-16328214D02*
X15769643Y-16328214D01*
X15855357Y-16328214D02*
X15855357Y-16028214D01*
X15826786Y-16071071D01*
X15798214Y-16099643D01*
X15769643Y-16113929D01*
X16055357Y-16056786D02*
X16069643Y-16042500D01*
X16098214Y-16028214D01*
X16169643Y-16028214D01*
X16198214Y-16042500D01*
X16212500Y-16056786D01*
X16226786Y-16085357D01*
X16226786Y-16113929D01*
X16212500Y-16156786D01*
X16041071Y-16328214D01*
X16226786Y-16328214D01*
X16483928Y-16028214D02*
X16426786Y-16028214D01*
X16398214Y-16042500D01*
X16383928Y-16056786D01*
X16355357Y-16099643D01*
X16341071Y-16156786D01*
X16341071Y-16271071D01*
X16355357Y-16299643D01*
X16369643Y-16313929D01*
X16398214Y-16328214D01*
X16455357Y-16328214D01*
X16483928Y-16313929D01*
X16498214Y-16299643D01*
X16512500Y-16271071D01*
X16512500Y-16199643D01*
X16498214Y-16171071D01*
X16483928Y-16156786D01*
X16455357Y-16142500D01*
X16398214Y-16142500D01*
X16369643Y-16156786D01*
X16355357Y-16171071D01*
X16341071Y-16199643D01*
X16626786Y-16028214D02*
X16626786Y-16085357D01*
X16741071Y-16028214D02*
X16741071Y-16085357D01*
X17183928Y-16442500D02*
X17169643Y-16428214D01*
X17141071Y-16385357D01*
X17126786Y-16356786D01*
X17112500Y-16313929D01*
X17098214Y-16242500D01*
X17098214Y-16185357D01*
X17112500Y-16113929D01*
X17126786Y-16071071D01*
X17141071Y-16042500D01*
X17169643Y-15999643D01*
X17183928Y-15985357D01*
X17283928Y-16056786D02*
X17298214Y-16042500D01*
X17326786Y-16028214D01*
X17398214Y-16028214D01*
X17426786Y-16042500D01*
X17441071Y-16056786D01*
X17455357Y-16085357D01*
X17455357Y-16113929D01*
X17441071Y-16156786D01*
X17269643Y-16328214D01*
X17455357Y-16328214D01*
X17812500Y-16328214D02*
X17812500Y-16028214D01*
X17941071Y-16328214D02*
X17941071Y-16171071D01*
X17926786Y-16142500D01*
X17898214Y-16128214D01*
X17855357Y-16128214D01*
X17826786Y-16142500D01*
X17812500Y-16156786D01*
X18126786Y-16328214D02*
X18098214Y-16313929D01*
X18083928Y-16299643D01*
X18069643Y-16271071D01*
X18069643Y-16185357D01*
X18083928Y-16156786D01*
X18098214Y-16142500D01*
X18126786Y-16128214D01*
X18169643Y-16128214D01*
X18198214Y-16142500D01*
X18212500Y-16156786D01*
X18226786Y-16185357D01*
X18226786Y-16271071D01*
X18212500Y-16299643D01*
X18198214Y-16313929D01*
X18169643Y-16328214D01*
X18126786Y-16328214D01*
X18398214Y-16328214D02*
X18369643Y-16313929D01*
X18355357Y-16285357D01*
X18355357Y-16028214D01*
X18626786Y-16313929D02*
X18598214Y-16328214D01*
X18541071Y-16328214D01*
X18512500Y-16313929D01*
X18498214Y-16285357D01*
X18498214Y-16171071D01*
X18512500Y-16142500D01*
X18541071Y-16128214D01*
X18598214Y-16128214D01*
X18626786Y-16142500D01*
X18641071Y-16171071D01*
X18641071Y-16199643D01*
X18498214Y-16228214D01*
X18755357Y-16313929D02*
X18783928Y-16328214D01*
X18841071Y-16328214D01*
X18869643Y-16313929D01*
X18883928Y-16285357D01*
X18883928Y-16271071D01*
X18869643Y-16242500D01*
X18841071Y-16228214D01*
X18798214Y-16228214D01*
X18769643Y-16213929D01*
X18755357Y-16185357D01*
X18755357Y-16171071D01*
X18769643Y-16142500D01*
X18798214Y-16128214D01*
X18841071Y-16128214D01*
X18869643Y-16142500D01*
X18983928Y-16442500D02*
X18998214Y-16428214D01*
X19026786Y-16385357D01*
X19041071Y-16356786D01*
X19055357Y-16313929D01*
X19069643Y-16242500D01*
X19069643Y-16185357D01*
X19055357Y-16113929D01*
X19041071Y-16071071D01*
X19026786Y-16042500D01*
X18998214Y-15999643D01*
X18983928Y-15985357D01*
X19526786Y-16442500D02*
X19512500Y-16428214D01*
X19483928Y-16385357D01*
X19469643Y-16356786D01*
X19455357Y-16313929D01*
X19441071Y-16242500D01*
X19441071Y-16185357D01*
X19455357Y-16113929D01*
X19469643Y-16071071D01*
X19483928Y-16042500D01*
X19512500Y-15999643D01*
X19526786Y-15985357D01*
X19641071Y-16128214D02*
X19641071Y-16328214D01*
X19641071Y-16156786D02*
X19655357Y-16142500D01*
X19683928Y-16128214D01*
X19726786Y-16128214D01*
X19755357Y-16142500D01*
X19769643Y-16171071D01*
X19769643Y-16328214D01*
X19955357Y-16328214D02*
X19926786Y-16313929D01*
X19912500Y-16299643D01*
X19898214Y-16271071D01*
X19898214Y-16185357D01*
X19912500Y-16156786D01*
X19926786Y-16142500D01*
X19955357Y-16128214D01*
X19998214Y-16128214D01*
X20026786Y-16142500D01*
X20041071Y-16156786D01*
X20055357Y-16185357D01*
X20055357Y-16271071D01*
X20041071Y-16299643D01*
X20026786Y-16313929D01*
X19998214Y-16328214D01*
X19955357Y-16328214D01*
X20141071Y-16128214D02*
X20255357Y-16128214D01*
X20183928Y-16028214D02*
X20183928Y-16285357D01*
X20198214Y-16313929D01*
X20226786Y-16328214D01*
X20255357Y-16328214D01*
X20583928Y-16128214D02*
X20583928Y-16428214D01*
X20583928Y-16142500D02*
X20612500Y-16128214D01*
X20669643Y-16128214D01*
X20698214Y-16142500D01*
X20712500Y-16156786D01*
X20726786Y-16185357D01*
X20726786Y-16271071D01*
X20712500Y-16299643D01*
X20698214Y-16313929D01*
X20669643Y-16328214D01*
X20612500Y-16328214D01*
X20583928Y-16313929D01*
X20898214Y-16328214D02*
X20869643Y-16313929D01*
X20855357Y-16285357D01*
X20855357Y-16028214D01*
X21141071Y-16328214D02*
X21141071Y-16171071D01*
X21126786Y-16142500D01*
X21098214Y-16128214D01*
X21041071Y-16128214D01*
X21012500Y-16142500D01*
X21141071Y-16313929D02*
X21112500Y-16328214D01*
X21041071Y-16328214D01*
X21012500Y-16313929D01*
X20998214Y-16285357D01*
X20998214Y-16256786D01*
X21012500Y-16228214D01*
X21041071Y-16213929D01*
X21112500Y-16213929D01*
X21141071Y-16199643D01*
X21241071Y-16128214D02*
X21355357Y-16128214D01*
X21283928Y-16028214D02*
X21283928Y-16285357D01*
X21298214Y-16313929D01*
X21326786Y-16328214D01*
X21355357Y-16328214D01*
X21569643Y-16313929D02*
X21541071Y-16328214D01*
X21483928Y-16328214D01*
X21455357Y-16313929D01*
X21441071Y-16285357D01*
X21441071Y-16171071D01*
X21455357Y-16142500D01*
X21483928Y-16128214D01*
X21541071Y-16128214D01*
X21569643Y-16142500D01*
X21583928Y-16171071D01*
X21583928Y-16199643D01*
X21441071Y-16228214D01*
X21841071Y-16328214D02*
X21841071Y-16028214D01*
X21841071Y-16313929D02*
X21812500Y-16328214D01*
X21755357Y-16328214D01*
X21726786Y-16313929D01*
X21712500Y-16299643D01*
X21698214Y-16271071D01*
X21698214Y-16185357D01*
X21712500Y-16156786D01*
X21726786Y-16142500D01*
X21755357Y-16128214D01*
X21812500Y-16128214D01*
X21841071Y-16142500D01*
X21955357Y-16442500D02*
X21969643Y-16428214D01*
X21998214Y-16385357D01*
X22012500Y-16356786D01*
X22026786Y-16313929D01*
X22041071Y-16242500D01*
X22041071Y-16185357D01*
X22026786Y-16113929D01*
X22012500Y-16071071D01*
X21998214Y-16042500D01*
X21969643Y-15999643D01*
X21955357Y-15985357D01*
M02*
