G04 #@! TF.GenerationSoftware,KiCad,Pcbnew,(5.1.2)-2*
G04 #@! TF.CreationDate,2020-11-23T21:19:51+02:00*
G04 #@! TF.ProjectId,ESP_mesh_module,4553505f-6d65-4736-985f-6d6f64756c65,rev?*
G04 #@! TF.SameCoordinates,Original*
G04 #@! TF.FileFunction,Legend,Bot*
G04 #@! TF.FilePolarity,Positive*
%FSLAX46Y46*%
G04 Gerber Fmt 4.6, Leading zero omitted, Abs format (unit mm)*
G04 Created by KiCad (PCBNEW (5.1.2)-2) date 2020-11-23 21:19:51*
%MOMM*%
%LPD*%
G04 APERTURE LIST*
%ADD10C,0.300000*%
%ADD11C,0.125000*%
%ADD12C,0.120000*%
%ADD13C,0.150000*%
G04 APERTURE END LIST*
D10*
X210621428Y-72402000D02*
X210764285Y-72330571D01*
X210978571Y-72330571D01*
X211192857Y-72402000D01*
X211335714Y-72544857D01*
X211407142Y-72687714D01*
X211478571Y-72973428D01*
X211478571Y-73187714D01*
X211407142Y-73473428D01*
X211335714Y-73616285D01*
X211192857Y-73759142D01*
X210978571Y-73830571D01*
X210835714Y-73830571D01*
X210621428Y-73759142D01*
X210550000Y-73687714D01*
X210550000Y-73187714D01*
X210835714Y-73187714D01*
X209907142Y-73830571D02*
X209907142Y-72330571D01*
X209335714Y-72330571D01*
X209192857Y-72402000D01*
X209121428Y-72473428D01*
X209050000Y-72616285D01*
X209050000Y-72830571D01*
X209121428Y-72973428D01*
X209192857Y-73044857D01*
X209335714Y-73116285D01*
X209907142Y-73116285D01*
X208478571Y-73759142D02*
X208264285Y-73830571D01*
X207907142Y-73830571D01*
X207764285Y-73759142D01*
X207692857Y-73687714D01*
X207621428Y-73544857D01*
X207621428Y-73402000D01*
X207692857Y-73259142D01*
X207764285Y-73187714D01*
X207907142Y-73116285D01*
X208192857Y-73044857D01*
X208335714Y-72973428D01*
X208407142Y-72902000D01*
X208478571Y-72759142D01*
X208478571Y-72616285D01*
X208407142Y-72473428D01*
X208335714Y-72402000D01*
X208192857Y-72330571D01*
X207835714Y-72330571D01*
X207621428Y-72402000D01*
D11*
X205340000Y-65968773D02*
X205301904Y-65892583D01*
X205301904Y-65778297D01*
X205340000Y-65664011D01*
X205416190Y-65587821D01*
X205492380Y-65549726D01*
X205644761Y-65511630D01*
X205759047Y-65511630D01*
X205911428Y-65549726D01*
X205987619Y-65587821D01*
X206063809Y-65664011D01*
X206101904Y-65778297D01*
X206101904Y-65854488D01*
X206063809Y-65968773D01*
X206025714Y-66006869D01*
X205759047Y-66006869D01*
X205759047Y-65854488D01*
X206101904Y-66349726D02*
X205301904Y-66349726D01*
X206101904Y-66806869D01*
X205301904Y-66806869D01*
X206101904Y-67187821D02*
X205301904Y-67187821D01*
X205301904Y-67378297D01*
X205340000Y-67492583D01*
X205416190Y-67568773D01*
X205492380Y-67606869D01*
X205644761Y-67644964D01*
X205759047Y-67644964D01*
X205911428Y-67606869D01*
X205987619Y-67568773D01*
X206063809Y-67492583D01*
X206101904Y-67378297D01*
X206101904Y-67187821D01*
X212921904Y-65727535D02*
X212921904Y-66222773D01*
X213226666Y-65956107D01*
X213226666Y-66070392D01*
X213264761Y-66146583D01*
X213302857Y-66184678D01*
X213379047Y-66222773D01*
X213569523Y-66222773D01*
X213645714Y-66184678D01*
X213683809Y-66146583D01*
X213721904Y-66070392D01*
X213721904Y-65841821D01*
X213683809Y-65765630D01*
X213645714Y-65727535D01*
X212921904Y-66451345D02*
X213721904Y-66718011D01*
X212921904Y-66984678D01*
X212921904Y-67175154D02*
X212921904Y-67670392D01*
X213226666Y-67403726D01*
X213226666Y-67518011D01*
X213264761Y-67594202D01*
X213302857Y-67632297D01*
X213379047Y-67670392D01*
X213569523Y-67670392D01*
X213645714Y-67632297D01*
X213683809Y-67594202D01*
X213721904Y-67518011D01*
X213721904Y-67289440D01*
X213683809Y-67213250D01*
X213645714Y-67175154D01*
X207841904Y-64927440D02*
X207841904Y-65384583D01*
X208641904Y-65156011D02*
X207841904Y-65156011D01*
X207841904Y-65575059D02*
X208641904Y-66108392D01*
X207841904Y-66108392D02*
X208641904Y-65575059D01*
X208641904Y-66413154D02*
X207841904Y-66413154D01*
X207841904Y-66603630D01*
X207880000Y-66717916D01*
X207956190Y-66794107D01*
X208032380Y-66832202D01*
X208184761Y-66870297D01*
X208299047Y-66870297D01*
X208451428Y-66832202D01*
X208527619Y-66794107D01*
X208603809Y-66717916D01*
X208641904Y-66603630D01*
X208641904Y-66413154D01*
X207841904Y-67365535D02*
X207841904Y-67441726D01*
X207880000Y-67517916D01*
X207918095Y-67556011D01*
X207994285Y-67594107D01*
X208146666Y-67632202D01*
X208337142Y-67632202D01*
X208489523Y-67594107D01*
X208565714Y-67556011D01*
X208603809Y-67517916D01*
X208641904Y-67441726D01*
X208641904Y-67365535D01*
X208603809Y-67289345D01*
X208565714Y-67251250D01*
X208489523Y-67213154D01*
X208337142Y-67175059D01*
X208146666Y-67175059D01*
X207994285Y-67213154D01*
X207918095Y-67251250D01*
X207880000Y-67289345D01*
X207841904Y-67365535D01*
X211181904Y-65244869D02*
X210800952Y-64978202D01*
X211181904Y-64787726D02*
X210381904Y-64787726D01*
X210381904Y-65092488D01*
X210420000Y-65168678D01*
X210458095Y-65206773D01*
X210534285Y-65244869D01*
X210648571Y-65244869D01*
X210724761Y-65206773D01*
X210762857Y-65168678D01*
X210800952Y-65092488D01*
X210800952Y-64787726D01*
X210381904Y-65511535D02*
X211181904Y-66044869D01*
X210381904Y-66044869D02*
X211181904Y-65511535D01*
X211181904Y-66349630D02*
X210381904Y-66349630D01*
X210381904Y-66540107D01*
X210420000Y-66654392D01*
X210496190Y-66730583D01*
X210572380Y-66768678D01*
X210724761Y-66806773D01*
X210839047Y-66806773D01*
X210991428Y-66768678D01*
X211067619Y-66730583D01*
X211143809Y-66654392D01*
X211181904Y-66540107D01*
X211181904Y-66349630D01*
X210381904Y-67302011D02*
X210381904Y-67378202D01*
X210420000Y-67454392D01*
X210458095Y-67492488D01*
X210534285Y-67530583D01*
X210686666Y-67568678D01*
X210877142Y-67568678D01*
X211029523Y-67530583D01*
X211105714Y-67492488D01*
X211143809Y-67454392D01*
X211181904Y-67378202D01*
X211181904Y-67302011D01*
X211143809Y-67225821D01*
X211105714Y-67187726D01*
X211029523Y-67149630D01*
X210877142Y-67111535D01*
X210686666Y-67111535D01*
X210534285Y-67149630D01*
X210458095Y-67187726D01*
X210420000Y-67225821D01*
X210381904Y-67302011D01*
X178123904Y-71785440D02*
X178123904Y-72242583D01*
X178923904Y-72014011D02*
X178123904Y-72014011D01*
X178123904Y-72433059D02*
X178923904Y-72966392D01*
X178123904Y-72966392D02*
X178923904Y-72433059D01*
X178923904Y-73271154D02*
X178123904Y-73271154D01*
X178123904Y-73461630D01*
X178162000Y-73575916D01*
X178238190Y-73652107D01*
X178314380Y-73690202D01*
X178466761Y-73728297D01*
X178581047Y-73728297D01*
X178733428Y-73690202D01*
X178809619Y-73652107D01*
X178885809Y-73575916D01*
X178923904Y-73461630D01*
X178923904Y-73271154D01*
X178123904Y-74223535D02*
X178123904Y-74299726D01*
X178162000Y-74375916D01*
X178200095Y-74414011D01*
X178276285Y-74452107D01*
X178428666Y-74490202D01*
X178619142Y-74490202D01*
X178771523Y-74452107D01*
X178847714Y-74414011D01*
X178885809Y-74375916D01*
X178923904Y-74299726D01*
X178923904Y-74223535D01*
X178885809Y-74147345D01*
X178847714Y-74109250D01*
X178771523Y-74071154D01*
X178619142Y-74033059D01*
X178428666Y-74033059D01*
X178276285Y-74071154D01*
X178200095Y-74109250D01*
X178162000Y-74147345D01*
X178123904Y-74223535D01*
X176383904Y-72356869D02*
X176002952Y-72090202D01*
X176383904Y-71899726D02*
X175583904Y-71899726D01*
X175583904Y-72204488D01*
X175622000Y-72280678D01*
X175660095Y-72318773D01*
X175736285Y-72356869D01*
X175850571Y-72356869D01*
X175926761Y-72318773D01*
X175964857Y-72280678D01*
X176002952Y-72204488D01*
X176002952Y-71899726D01*
X175583904Y-72623535D02*
X176383904Y-73156869D01*
X175583904Y-73156869D02*
X176383904Y-72623535D01*
X176383904Y-73461630D02*
X175583904Y-73461630D01*
X175583904Y-73652107D01*
X175622000Y-73766392D01*
X175698190Y-73842583D01*
X175774380Y-73880678D01*
X175926761Y-73918773D01*
X176041047Y-73918773D01*
X176193428Y-73880678D01*
X176269619Y-73842583D01*
X176345809Y-73766392D01*
X176383904Y-73652107D01*
X176383904Y-73461630D01*
X175583904Y-74414011D02*
X175583904Y-74490202D01*
X175622000Y-74566392D01*
X175660095Y-74604488D01*
X175736285Y-74642583D01*
X175888666Y-74680678D01*
X176079142Y-74680678D01*
X176231523Y-74642583D01*
X176307714Y-74604488D01*
X176345809Y-74566392D01*
X176383904Y-74490202D01*
X176383904Y-74414011D01*
X176345809Y-74337821D01*
X176307714Y-74299726D01*
X176231523Y-74261630D01*
X176079142Y-74223535D01*
X175888666Y-74223535D01*
X175736285Y-74261630D01*
X175660095Y-74299726D01*
X175622000Y-74337821D01*
X175583904Y-74414011D01*
X173170857Y-71899726D02*
X173170857Y-72166392D01*
X173589904Y-72280678D02*
X173589904Y-71899726D01*
X172789904Y-71899726D01*
X172789904Y-72280678D01*
X173589904Y-72623535D02*
X172789904Y-72623535D01*
X173589904Y-73080678D01*
X172789904Y-73080678D01*
X170503904Y-71823535D02*
X170503904Y-72318773D01*
X170808666Y-72052107D01*
X170808666Y-72166392D01*
X170846761Y-72242583D01*
X170884857Y-72280678D01*
X170961047Y-72318773D01*
X171151523Y-72318773D01*
X171227714Y-72280678D01*
X171265809Y-72242583D01*
X171303904Y-72166392D01*
X171303904Y-71937821D01*
X171265809Y-71861630D01*
X171227714Y-71823535D01*
X170503904Y-72547345D02*
X171303904Y-72814011D01*
X170503904Y-73080678D01*
X170503904Y-73271154D02*
X170503904Y-73766392D01*
X170808666Y-73499726D01*
X170808666Y-73614011D01*
X170846761Y-73690202D01*
X170884857Y-73728297D01*
X170961047Y-73766392D01*
X171151523Y-73766392D01*
X171227714Y-73728297D01*
X171265809Y-73690202D01*
X171303904Y-73614011D01*
X171303904Y-73385440D01*
X171265809Y-73309250D01*
X171227714Y-73271154D01*
D12*
X127508000Y-76454000D02*
X127508000Y-76200000D01*
X127508000Y-77978000D02*
X127508000Y-77724000D01*
X127508000Y-76962000D02*
X127508000Y-76708000D01*
X127508000Y-77470000D02*
X127508000Y-77216000D01*
X127508000Y-74422000D02*
X127508000Y-74168000D01*
X127508000Y-75946000D02*
X127508000Y-75692000D01*
X127508000Y-74930000D02*
X127508000Y-74676000D01*
X127508000Y-75438000D02*
X127508000Y-75184000D01*
X127508000Y-72390000D02*
X127508000Y-72136000D01*
X127508000Y-73914000D02*
X127508000Y-73660000D01*
X127508000Y-72898000D02*
X127508000Y-72644000D01*
X127508000Y-73406000D02*
X127508000Y-73152000D01*
X127508000Y-80518000D02*
X127508000Y-80264000D01*
X127508000Y-93472000D02*
X127508000Y-93726000D01*
X127508000Y-96012000D02*
X127508000Y-96266000D01*
X127508000Y-81280000D02*
X127508000Y-81534000D01*
X127508000Y-95504000D02*
X127508000Y-95758000D01*
X127508000Y-81788000D02*
X127508000Y-82042000D01*
X127508000Y-94488000D02*
X127508000Y-94742000D01*
X127508000Y-89916000D02*
X127508000Y-90170000D01*
X127508000Y-83820000D02*
X127508000Y-84074000D01*
X127508000Y-84328000D02*
X127508000Y-84582000D01*
X127508000Y-84836000D02*
X127508000Y-85090000D01*
X127508000Y-93980000D02*
X127508000Y-94234000D01*
X127508000Y-88138000D02*
X127508000Y-87884000D01*
X127508000Y-85598000D02*
X127508000Y-85344000D01*
X127508000Y-92202000D02*
X127508000Y-91948000D01*
X127508000Y-88392000D02*
X127508000Y-88646000D01*
X127508000Y-80010000D02*
X127508000Y-79756000D01*
X127508000Y-78232000D02*
X127508000Y-78486000D01*
X127508000Y-94996000D02*
X127508000Y-95250000D01*
X127508000Y-87122000D02*
X127508000Y-86868000D01*
X127508000Y-86614000D02*
X127508000Y-86360000D01*
X127508000Y-82804000D02*
X127508000Y-83058000D01*
X127508000Y-83312000D02*
X127508000Y-83566000D01*
X127508000Y-92964000D02*
X127508000Y-93218000D01*
X127508000Y-97282000D02*
X127508000Y-97028000D01*
X127508000Y-88900000D02*
X127508000Y-89154000D01*
X127508000Y-78740000D02*
X127508000Y-78994000D01*
X127508000Y-82296000D02*
X127508000Y-82550000D01*
X127508000Y-92456000D02*
X127508000Y-92710000D01*
X127508000Y-96774000D02*
X127508000Y-96520000D01*
X127508000Y-91186000D02*
X127508000Y-90932000D01*
X127508000Y-91694000D02*
X127508000Y-91440000D01*
X127508000Y-90678000D02*
X127508000Y-90424000D01*
X127508000Y-79502000D02*
X127508000Y-79248000D01*
X127508000Y-86106000D02*
X127508000Y-85852000D01*
X127508000Y-89408000D02*
X127508000Y-89662000D01*
X127508000Y-81026000D02*
X127508000Y-80772000D01*
X127508000Y-87630000D02*
X127508000Y-87376000D01*
X127508000Y-102362000D02*
X127508000Y-102108000D01*
X127508000Y-100330000D02*
X127508000Y-100076000D01*
X127508000Y-98044000D02*
X127508000Y-98298000D01*
X127508000Y-103632000D02*
X127508000Y-103886000D01*
X127508000Y-99822000D02*
X127508000Y-99568000D01*
X127508000Y-102616000D02*
X127508000Y-102870000D01*
X127508000Y-101346000D02*
X127508000Y-101092000D01*
X127508000Y-103124000D02*
X127508000Y-103378000D01*
X127508000Y-100838000D02*
X127508000Y-100584000D01*
X127508000Y-104140000D02*
X127508000Y-104394000D01*
X127508000Y-101854000D02*
X127508000Y-101600000D01*
X127508000Y-99314000D02*
X127508000Y-99060000D01*
X127508000Y-97536000D02*
X127508000Y-97790000D01*
X127508000Y-98806000D02*
X127508000Y-98552000D01*
X127508000Y-107696000D02*
X127508000Y-107950000D01*
X127508000Y-106680000D02*
X127508000Y-106934000D01*
X127508000Y-106426000D02*
X127508000Y-106172000D01*
X127508000Y-104902000D02*
X127508000Y-104648000D01*
X127508000Y-105410000D02*
X127508000Y-105156000D01*
X127508000Y-105918000D02*
X127508000Y-105664000D01*
X127508000Y-107188000D02*
X127508000Y-107442000D01*
X127508000Y-108204000D02*
X127508000Y-108458000D01*
X127508000Y-113538000D02*
X127508000Y-113284000D01*
X127508000Y-111506000D02*
X127508000Y-111252000D01*
X127508000Y-109220000D02*
X127508000Y-109474000D01*
X127508000Y-114808000D02*
X127508000Y-115062000D01*
X127508000Y-110998000D02*
X127508000Y-110744000D01*
X127508000Y-113792000D02*
X127508000Y-114046000D01*
X127508000Y-112522000D02*
X127508000Y-112268000D01*
X127508000Y-114300000D02*
X127508000Y-114554000D01*
X127508000Y-112014000D02*
X127508000Y-111760000D01*
X127508000Y-115316000D02*
X127508000Y-115570000D01*
X127508000Y-113030000D02*
X127508000Y-112776000D01*
X127508000Y-110490000D02*
X127508000Y-110236000D01*
X127508000Y-108712000D02*
X127508000Y-108966000D01*
X127508000Y-109982000D02*
X127508000Y-109728000D01*
X127508000Y-118872000D02*
X127508000Y-119126000D01*
X127508000Y-117856000D02*
X127508000Y-118110000D01*
X127508000Y-117602000D02*
X127508000Y-117348000D01*
X127508000Y-116078000D02*
X127508000Y-115824000D01*
X127508000Y-116586000D02*
X127508000Y-116332000D01*
X127508000Y-117094000D02*
X127508000Y-116840000D01*
X127508000Y-118364000D02*
X127508000Y-118618000D01*
X127508000Y-119380000D02*
X127508000Y-119634000D01*
X127508000Y-124714000D02*
X127508000Y-124460000D01*
X127508000Y-122682000D02*
X127508000Y-122428000D01*
X127508000Y-120396000D02*
X127508000Y-120650000D01*
X127508000Y-125984000D02*
X127508000Y-126238000D01*
X127508000Y-122174000D02*
X127508000Y-121920000D01*
X127508000Y-124968000D02*
X127508000Y-125222000D01*
X127508000Y-123698000D02*
X127508000Y-123444000D01*
X127508000Y-125476000D02*
X127508000Y-125730000D01*
X127508000Y-123190000D02*
X127508000Y-122936000D01*
X127508000Y-126492000D02*
X127508000Y-126746000D01*
X127508000Y-124206000D02*
X127508000Y-123952000D01*
X127508000Y-121666000D02*
X127508000Y-121412000D01*
X127508000Y-119888000D02*
X127508000Y-120142000D01*
X127508000Y-121158000D02*
X127508000Y-120904000D01*
X127508000Y-130048000D02*
X127508000Y-130302000D01*
X127508000Y-129032000D02*
X127508000Y-129286000D01*
X127508000Y-128778000D02*
X127508000Y-128524000D01*
X127508000Y-127254000D02*
X127508000Y-127000000D01*
X127508000Y-127762000D02*
X127508000Y-127508000D01*
X127508000Y-128270000D02*
X127508000Y-128016000D01*
X127508000Y-129540000D02*
X127508000Y-129794000D01*
X127508000Y-130556000D02*
X127508000Y-130810000D01*
X127762000Y-135382000D02*
X127508000Y-135382000D01*
X127508000Y-133096000D02*
X127508000Y-133350000D01*
X127508000Y-132080000D02*
X127508000Y-132334000D01*
X127508000Y-134112000D02*
X127508000Y-134366000D01*
X127508000Y-131826000D02*
X127508000Y-131572000D01*
X127508000Y-135128000D02*
X127508000Y-135382000D01*
X127508000Y-131318000D02*
X127508000Y-131064000D01*
X127508000Y-134620000D02*
X127508000Y-134874000D01*
X127508000Y-132588000D02*
X127508000Y-132842000D01*
X127508000Y-133604000D02*
X127508000Y-133858000D01*
X127508000Y-70612000D02*
X127508000Y-70866000D01*
X127508000Y-70104000D02*
X127508000Y-70358000D01*
X127508000Y-71628000D02*
X127508000Y-71882000D01*
X127508000Y-69850000D02*
X127508000Y-69596000D01*
X127508000Y-71120000D02*
X127508000Y-71374000D01*
X128778000Y-69596000D02*
X128524000Y-69596000D01*
X129286000Y-69596000D02*
X129032000Y-69596000D01*
X127762000Y-69596000D02*
X127508000Y-69596000D01*
X129540000Y-69596000D02*
X129794000Y-69596000D01*
X128270000Y-69596000D02*
X128016000Y-69596000D01*
X131318000Y-69596000D02*
X131064000Y-69596000D01*
X131826000Y-69596000D02*
X131572000Y-69596000D01*
X130302000Y-69596000D02*
X130048000Y-69596000D01*
X132080000Y-69596000D02*
X132334000Y-69596000D01*
X130810000Y-69596000D02*
X130556000Y-69596000D01*
X132334000Y-70866000D02*
X132334000Y-70612000D01*
X132334000Y-71374000D02*
X132334000Y-71120000D01*
X132334000Y-69850000D02*
X132334000Y-69596000D01*
X132334000Y-71628000D02*
X132334000Y-71882000D01*
X132334000Y-70358000D02*
X132334000Y-70104000D01*
X132334000Y-73406000D02*
X132334000Y-73152000D01*
X132334000Y-73914000D02*
X132334000Y-73660000D01*
X132334000Y-72390000D02*
X132334000Y-72136000D01*
X132334000Y-74168000D02*
X132334000Y-74422000D01*
X132334000Y-72898000D02*
X132334000Y-72644000D01*
X132334000Y-75946000D02*
X132334000Y-75692000D01*
X132334000Y-76454000D02*
X132334000Y-76200000D01*
X132334000Y-74930000D02*
X132334000Y-74676000D01*
X132334000Y-76708000D02*
X132334000Y-76962000D01*
X132334000Y-75438000D02*
X132334000Y-75184000D01*
X132334000Y-87630000D02*
X132334000Y-87376000D01*
X132334000Y-88646000D02*
X132334000Y-88392000D01*
X132334000Y-81788000D02*
X132334000Y-82042000D01*
X132334000Y-80772000D02*
X132334000Y-81026000D01*
X132334000Y-82296000D02*
X132334000Y-82550000D01*
X132334000Y-88138000D02*
X132334000Y-87884000D01*
X132334000Y-85344000D02*
X132334000Y-85598000D01*
X132334000Y-84074000D02*
X132334000Y-83820000D01*
X132334000Y-81280000D02*
X132334000Y-81534000D01*
X132334000Y-86360000D02*
X132334000Y-86614000D01*
X132334000Y-80264000D02*
X132334000Y-80518000D01*
X132334000Y-78486000D02*
X132334000Y-78232000D01*
X132334000Y-82804000D02*
X132334000Y-83058000D01*
X132334000Y-84582000D02*
X132334000Y-84328000D01*
X132334000Y-79248000D02*
X132334000Y-79502000D01*
X132334000Y-83566000D02*
X132334000Y-83312000D01*
X132334000Y-79756000D02*
X132334000Y-80010000D01*
X132334000Y-78994000D02*
X132334000Y-78740000D01*
X132334000Y-85852000D02*
X132334000Y-86106000D01*
X132334000Y-86868000D02*
X132334000Y-87122000D01*
X132334000Y-77978000D02*
X132334000Y-77724000D01*
X132334000Y-85090000D02*
X132334000Y-84836000D01*
X132334000Y-77470000D02*
X132334000Y-77216000D01*
X132334000Y-98552000D02*
X132334000Y-98806000D01*
X132334000Y-95758000D02*
X132334000Y-95504000D01*
X132334000Y-90170000D02*
X132334000Y-89916000D01*
X132334000Y-96266000D02*
X132334000Y-96012000D01*
X132334000Y-90932000D02*
X132334000Y-91186000D01*
X132334000Y-95250000D02*
X132334000Y-94996000D01*
X132334000Y-92964000D02*
X132334000Y-93218000D01*
X132334000Y-96774000D02*
X132334000Y-96520000D01*
X132334000Y-91948000D02*
X132334000Y-92202000D01*
X132334000Y-90678000D02*
X132334000Y-90424000D01*
X132334000Y-97028000D02*
X132334000Y-97282000D01*
X132334000Y-89662000D02*
X132334000Y-89408000D01*
X132334000Y-97536000D02*
X132334000Y-97790000D01*
X132334000Y-89154000D02*
X132334000Y-88900000D01*
X132334000Y-94488000D02*
X132334000Y-94742000D01*
X132334000Y-98044000D02*
X132334000Y-98298000D01*
X132334000Y-91440000D02*
X132334000Y-91694000D01*
X132334000Y-93472000D02*
X132334000Y-93726000D01*
X132334000Y-92456000D02*
X132334000Y-92710000D01*
X132334000Y-93980000D02*
X132334000Y-94234000D01*
X132334000Y-108712000D02*
X132334000Y-108966000D01*
X132334000Y-105918000D02*
X132334000Y-105664000D01*
X132334000Y-100330000D02*
X132334000Y-100076000D01*
X132334000Y-106426000D02*
X132334000Y-106172000D01*
X132334000Y-101092000D02*
X132334000Y-101346000D01*
X132334000Y-105410000D02*
X132334000Y-105156000D01*
X132334000Y-103124000D02*
X132334000Y-103378000D01*
X132334000Y-106934000D02*
X132334000Y-106680000D01*
X132334000Y-102108000D02*
X132334000Y-102362000D01*
X132334000Y-100838000D02*
X132334000Y-100584000D01*
X132334000Y-107188000D02*
X132334000Y-107442000D01*
X132334000Y-99822000D02*
X132334000Y-99568000D01*
X132334000Y-107696000D02*
X132334000Y-107950000D01*
X132334000Y-99314000D02*
X132334000Y-99060000D01*
X132334000Y-104648000D02*
X132334000Y-104902000D01*
X132334000Y-108204000D02*
X132334000Y-108458000D01*
X132334000Y-101600000D02*
X132334000Y-101854000D01*
X132334000Y-103632000D02*
X132334000Y-103886000D01*
X132334000Y-102616000D02*
X132334000Y-102870000D01*
X132334000Y-104140000D02*
X132334000Y-104394000D01*
X132334000Y-117094000D02*
X132334000Y-116840000D01*
X132334000Y-115062000D02*
X132334000Y-114808000D01*
X132334000Y-109474000D02*
X132334000Y-109220000D01*
X132334000Y-112776000D02*
X132334000Y-113030000D01*
X132334000Y-118364000D02*
X132334000Y-118618000D01*
X132334000Y-114554000D02*
X132334000Y-114300000D01*
X132334000Y-117348000D02*
X132334000Y-117602000D01*
X132334000Y-116078000D02*
X132334000Y-115824000D01*
X132334000Y-110998000D02*
X132334000Y-110744000D01*
X132334000Y-117856000D02*
X132334000Y-118110000D01*
X132334000Y-115570000D02*
X132334000Y-115316000D01*
X132334000Y-118872000D02*
X132334000Y-119126000D01*
X132334000Y-116586000D02*
X132334000Y-116332000D01*
X132334000Y-111760000D02*
X132334000Y-112014000D01*
X132334000Y-109982000D02*
X132334000Y-109728000D01*
X132334000Y-110490000D02*
X132334000Y-110236000D01*
X132334000Y-114046000D02*
X132334000Y-113792000D01*
X132334000Y-111252000D02*
X132334000Y-111506000D01*
X132334000Y-112268000D02*
X132334000Y-112522000D01*
X132334000Y-113538000D02*
X132334000Y-113284000D01*
X132334000Y-121158000D02*
X132334000Y-120904000D01*
X132334000Y-122428000D02*
X132334000Y-122682000D01*
X132334000Y-121412000D02*
X132334000Y-121666000D01*
X132334000Y-120142000D02*
X132334000Y-119888000D01*
X132334000Y-121920000D02*
X132334000Y-122174000D01*
X132334000Y-119634000D02*
X132334000Y-119380000D01*
X132334000Y-122936000D02*
X132334000Y-123190000D01*
X132334000Y-120650000D02*
X132334000Y-120396000D01*
X132334000Y-125222000D02*
X132334000Y-124968000D01*
X132334000Y-123698000D02*
X132334000Y-123444000D01*
X132334000Y-124206000D02*
X132334000Y-123952000D01*
X132334000Y-124714000D02*
X132334000Y-124460000D01*
X132334000Y-128524000D02*
X132334000Y-128778000D01*
X132334000Y-127508000D02*
X132334000Y-127762000D01*
X132334000Y-127254000D02*
X132334000Y-127000000D01*
X132334000Y-125730000D02*
X132334000Y-125476000D01*
X132334000Y-126238000D02*
X132334000Y-125984000D01*
X132334000Y-126746000D02*
X132334000Y-126492000D01*
X132334000Y-128016000D02*
X132334000Y-128270000D01*
X132334000Y-129032000D02*
X132334000Y-129286000D01*
X132334000Y-131318000D02*
X132334000Y-131064000D01*
X132334000Y-129794000D02*
X132334000Y-129540000D01*
X132334000Y-130302000D02*
X132334000Y-130048000D01*
X132334000Y-130810000D02*
X132334000Y-130556000D01*
X132334000Y-131572000D02*
X132334000Y-131826000D01*
X132334000Y-133096000D02*
X132334000Y-133350000D01*
X132334000Y-132588000D02*
X132334000Y-132842000D01*
X132334000Y-132080000D02*
X132334000Y-132334000D01*
X132334000Y-134112000D02*
X132334000Y-134366000D01*
X132334000Y-133604000D02*
X132334000Y-133858000D01*
X132334000Y-134620000D02*
X132334000Y-134874000D01*
X132334000Y-135128000D02*
X132334000Y-135382000D01*
X132334000Y-135382000D02*
X132080000Y-135382000D01*
X131826000Y-135382000D02*
X131572000Y-135382000D01*
X131318000Y-135382000D02*
X131064000Y-135382000D01*
X130810000Y-135382000D02*
X130556000Y-135382000D01*
X130302000Y-135382000D02*
X130048000Y-135382000D01*
X129794000Y-135382000D02*
X129540000Y-135382000D01*
X129286000Y-135382000D02*
X129032000Y-135382000D01*
X128778000Y-135382000D02*
X128524000Y-135382000D01*
X128270000Y-135382000D02*
X128016000Y-135382000D01*
X133096000Y-135382000D02*
X133096000Y-69596000D01*
X137922000Y-135382000D02*
X133096000Y-135382000D01*
X137922000Y-73152000D02*
X137922000Y-135382000D01*
X137922000Y-69596000D02*
X137922000Y-73152000D01*
X133096000Y-69596000D02*
X137922000Y-69596000D01*
D11*
X149119082Y-133927904D02*
X148661939Y-133927904D01*
X148890511Y-134727904D02*
X148890511Y-133927904D01*
X148471463Y-133927904D02*
X147938130Y-134727904D01*
X147938130Y-133927904D02*
X148471463Y-134727904D01*
X147633368Y-134727904D02*
X147633368Y-133927904D01*
X147442892Y-133927904D01*
X147328606Y-133966000D01*
X147252415Y-134042190D01*
X147214320Y-134118380D01*
X147176225Y-134270761D01*
X147176225Y-134385047D01*
X147214320Y-134537428D01*
X147252415Y-134613619D01*
X147328606Y-134689809D01*
X147442892Y-134727904D01*
X147633368Y-134727904D01*
X146680987Y-133927904D02*
X146604796Y-133927904D01*
X146528606Y-133966000D01*
X146490511Y-134004095D01*
X146452415Y-134080285D01*
X146414320Y-134232666D01*
X146414320Y-134423142D01*
X146452415Y-134575523D01*
X146490511Y-134651714D01*
X146528606Y-134689809D01*
X146604796Y-134727904D01*
X146680987Y-134727904D01*
X146757177Y-134689809D01*
X146795273Y-134651714D01*
X146833368Y-134575523D01*
X146871463Y-134423142D01*
X146871463Y-134232666D01*
X146833368Y-134080285D01*
X146795273Y-134004095D01*
X146757177Y-133966000D01*
X146680987Y-133927904D01*
X145461939Y-134727904D02*
X145461939Y-133927904D01*
X144928606Y-133927904D02*
X144776225Y-133927904D01*
X144700034Y-133966000D01*
X144623844Y-134042190D01*
X144585749Y-134194571D01*
X144585749Y-134461238D01*
X144623844Y-134613619D01*
X144700034Y-134689809D01*
X144776225Y-134727904D01*
X144928606Y-134727904D01*
X145004796Y-134689809D01*
X145080987Y-134613619D01*
X145119082Y-134461238D01*
X145119082Y-134194571D01*
X145080987Y-134042190D01*
X145004796Y-133966000D01*
X144928606Y-133927904D01*
X144280987Y-134004095D02*
X144242892Y-133966000D01*
X144166701Y-133927904D01*
X143976225Y-133927904D01*
X143900034Y-133966000D01*
X143861939Y-134004095D01*
X143823844Y-134080285D01*
X143823844Y-134156476D01*
X143861939Y-134270761D01*
X144319082Y-134727904D01*
X143823844Y-134727904D01*
X143519082Y-134004095D02*
X143480987Y-133966000D01*
X143404796Y-133927904D01*
X143214320Y-133927904D01*
X143138130Y-133966000D01*
X143100034Y-134004095D01*
X143061939Y-134080285D01*
X143061939Y-134156476D01*
X143100034Y-134270761D01*
X143557177Y-134727904D01*
X143061939Y-134727904D01*
X142185749Y-133927904D02*
X141690511Y-133927904D01*
X141957177Y-134232666D01*
X141842892Y-134232666D01*
X141766701Y-134270761D01*
X141728606Y-134308857D01*
X141690511Y-134385047D01*
X141690511Y-134575523D01*
X141728606Y-134651714D01*
X141766701Y-134689809D01*
X141842892Y-134727904D01*
X142071463Y-134727904D01*
X142147653Y-134689809D01*
X142185749Y-134651714D01*
X141461939Y-133927904D02*
X141195273Y-134727904D01*
X140928606Y-133927904D01*
X140738130Y-133927904D02*
X140242892Y-133927904D01*
X140509558Y-134232666D01*
X140395273Y-134232666D01*
X140319082Y-134270761D01*
X140280987Y-134308857D01*
X140242892Y-134385047D01*
X140242892Y-134575523D01*
X140280987Y-134651714D01*
X140319082Y-134689809D01*
X140395273Y-134727904D01*
X140623844Y-134727904D01*
X140700034Y-134689809D01*
X140738130Y-134651714D01*
X138909558Y-133927904D02*
X139290511Y-133927904D01*
X139328606Y-134308857D01*
X139290511Y-134270761D01*
X139214320Y-134232666D01*
X139023844Y-134232666D01*
X138947653Y-134270761D01*
X138909558Y-134308857D01*
X138871463Y-134385047D01*
X138871463Y-134575523D01*
X138909558Y-134651714D01*
X138947653Y-134689809D01*
X139023844Y-134727904D01*
X139214320Y-134727904D01*
X139290511Y-134689809D01*
X139328606Y-134651714D01*
X138642892Y-133927904D02*
X138376225Y-134727904D01*
X138109558Y-133927904D01*
X149347653Y-132187904D02*
X149347653Y-131387904D01*
X148814320Y-131387904D02*
X148661939Y-131387904D01*
X148585749Y-131426000D01*
X148509558Y-131502190D01*
X148471463Y-131654571D01*
X148471463Y-131921238D01*
X148509558Y-132073619D01*
X148585749Y-132149809D01*
X148661939Y-132187904D01*
X148814320Y-132187904D01*
X148890510Y-132149809D01*
X148966701Y-132073619D01*
X149004796Y-131921238D01*
X149004796Y-131654571D01*
X148966701Y-131502190D01*
X148890510Y-131426000D01*
X148814320Y-131387904D01*
X148166701Y-131464095D02*
X148128606Y-131426000D01*
X148052415Y-131387904D01*
X147861939Y-131387904D01*
X147785749Y-131426000D01*
X147747653Y-131464095D01*
X147709558Y-131540285D01*
X147709558Y-131616476D01*
X147747653Y-131730761D01*
X148204796Y-132187904D01*
X147709558Y-132187904D01*
X146947653Y-132187904D02*
X147404796Y-132187904D01*
X147176225Y-132187904D02*
X147176225Y-131387904D01*
X147252415Y-131502190D01*
X147328606Y-131578380D01*
X147404796Y-131616476D01*
X145995272Y-132187904D02*
X145995272Y-131387904D01*
X145461939Y-131387904D02*
X145309558Y-131387904D01*
X145233368Y-131426000D01*
X145157177Y-131502190D01*
X145119082Y-131654571D01*
X145119082Y-131921238D01*
X145157177Y-132073619D01*
X145233368Y-132149809D01*
X145309558Y-132187904D01*
X145461939Y-132187904D01*
X145538130Y-132149809D01*
X145614320Y-132073619D01*
X145652415Y-131921238D01*
X145652415Y-131654571D01*
X145614320Y-131502190D01*
X145538130Y-131426000D01*
X145461939Y-131387904D01*
X144814320Y-131464095D02*
X144776225Y-131426000D01*
X144700034Y-131387904D01*
X144509558Y-131387904D01*
X144433368Y-131426000D01*
X144395272Y-131464095D01*
X144357177Y-131540285D01*
X144357177Y-131616476D01*
X144395272Y-131730761D01*
X144852415Y-132187904D01*
X144357177Y-132187904D01*
X144090510Y-131387904D02*
X143595272Y-131387904D01*
X143861939Y-131692666D01*
X143747653Y-131692666D01*
X143671463Y-131730761D01*
X143633368Y-131768857D01*
X143595272Y-131845047D01*
X143595272Y-132035523D01*
X143633368Y-132111714D01*
X143671463Y-132149809D01*
X143747653Y-132187904D01*
X143976225Y-132187904D01*
X144052415Y-132149809D01*
X144090510Y-132111714D01*
X142642891Y-132187904D02*
X142642891Y-131654571D01*
X142642891Y-131806952D02*
X142604796Y-131730761D01*
X142566701Y-131692666D01*
X142490510Y-131654571D01*
X142414320Y-131654571D01*
X142185749Y-132149809D02*
X142071463Y-132187904D01*
X141880987Y-132187904D01*
X141804796Y-132149809D01*
X141766701Y-132111714D01*
X141728606Y-132035523D01*
X141728606Y-131959333D01*
X141766701Y-131883142D01*
X141804796Y-131845047D01*
X141880987Y-131806952D01*
X142033368Y-131768857D01*
X142109558Y-131730761D01*
X142147653Y-131692666D01*
X142185749Y-131616476D01*
X142185749Y-131540285D01*
X142147653Y-131464095D01*
X142109558Y-131426000D01*
X142033368Y-131387904D01*
X141842891Y-131387904D01*
X141728606Y-131426000D01*
X141385749Y-132187904D02*
X141385749Y-131387904D01*
X141195272Y-131387904D01*
X141080987Y-131426000D01*
X141004796Y-131502190D01*
X140966701Y-131578380D01*
X140928606Y-131730761D01*
X140928606Y-131845047D01*
X140966701Y-131997428D01*
X141004796Y-132073619D01*
X141080987Y-132149809D01*
X141195272Y-132187904D01*
X141385749Y-132187904D01*
X140623844Y-131959333D02*
X140242891Y-131959333D01*
X140700034Y-132187904D02*
X140433368Y-131387904D01*
X140166701Y-132187904D01*
X138909558Y-131387904D02*
X139290510Y-131387904D01*
X139328606Y-131768857D01*
X139290510Y-131730761D01*
X139214320Y-131692666D01*
X139023844Y-131692666D01*
X138947653Y-131730761D01*
X138909558Y-131768857D01*
X138871463Y-131845047D01*
X138871463Y-132035523D01*
X138909558Y-132111714D01*
X138947653Y-132149809D01*
X139023844Y-132187904D01*
X139214320Y-132187904D01*
X139290510Y-132149809D01*
X139328606Y-132111714D01*
X138642891Y-131387904D02*
X138376225Y-132187904D01*
X138109558Y-131387904D01*
X149995272Y-129647904D02*
X149995272Y-128847904D01*
X149461939Y-128847904D02*
X149309558Y-128847904D01*
X149233368Y-128886000D01*
X149157177Y-128962190D01*
X149119082Y-129114571D01*
X149119082Y-129381238D01*
X149157177Y-129533619D01*
X149233368Y-129609809D01*
X149309558Y-129647904D01*
X149461939Y-129647904D01*
X149538129Y-129609809D01*
X149614320Y-129533619D01*
X149652415Y-129381238D01*
X149652415Y-129114571D01*
X149614320Y-128962190D01*
X149538129Y-128886000D01*
X149461939Y-128847904D01*
X148814320Y-128924095D02*
X148776225Y-128886000D01*
X148700034Y-128847904D01*
X148509558Y-128847904D01*
X148433368Y-128886000D01*
X148395272Y-128924095D01*
X148357177Y-129000285D01*
X148357177Y-129076476D01*
X148395272Y-129190761D01*
X148852415Y-129647904D01*
X148357177Y-129647904D01*
X147595272Y-129647904D02*
X148052415Y-129647904D01*
X147823844Y-129647904D02*
X147823844Y-128847904D01*
X147900034Y-128962190D01*
X147976225Y-129038380D01*
X148052415Y-129076476D01*
X146223844Y-128886000D02*
X146300034Y-128847904D01*
X146414320Y-128847904D01*
X146528606Y-128886000D01*
X146604796Y-128962190D01*
X146642891Y-129038380D01*
X146680987Y-129190761D01*
X146680987Y-129305047D01*
X146642891Y-129457428D01*
X146604796Y-129533619D01*
X146528606Y-129609809D01*
X146414320Y-129647904D01*
X146338129Y-129647904D01*
X146223844Y-129609809D01*
X146185749Y-129571714D01*
X146185749Y-129305047D01*
X146338129Y-129305047D01*
X145842891Y-129647904D02*
X145842891Y-128847904D01*
X145385749Y-129647904D01*
X145385749Y-128847904D01*
X145004796Y-129647904D02*
X145004796Y-128847904D01*
X144814320Y-128847904D01*
X144700034Y-128886000D01*
X144623844Y-128962190D01*
X144585749Y-129038380D01*
X144547653Y-129190761D01*
X144547653Y-129305047D01*
X144585749Y-129457428D01*
X144623844Y-129533619D01*
X144700034Y-129609809D01*
X144814320Y-129647904D01*
X145004796Y-129647904D01*
X143595272Y-129647904D02*
X143595272Y-129114571D01*
X143595272Y-129266952D02*
X143557177Y-129190761D01*
X143519082Y-129152666D01*
X143442891Y-129114571D01*
X143366701Y-129114571D01*
X143138129Y-129609809D02*
X143023844Y-129647904D01*
X142833368Y-129647904D01*
X142757177Y-129609809D01*
X142719082Y-129571714D01*
X142680987Y-129495523D01*
X142680987Y-129419333D01*
X142719082Y-129343142D01*
X142757177Y-129305047D01*
X142833368Y-129266952D01*
X142985749Y-129228857D01*
X143061939Y-129190761D01*
X143100034Y-129152666D01*
X143138129Y-129076476D01*
X143138129Y-129000285D01*
X143100034Y-128924095D01*
X143061939Y-128886000D01*
X142985749Y-128847904D01*
X142795272Y-128847904D01*
X142680987Y-128886000D01*
X141880987Y-129571714D02*
X141919082Y-129609809D01*
X142033368Y-129647904D01*
X142109558Y-129647904D01*
X142223844Y-129609809D01*
X142300034Y-129533619D01*
X142338129Y-129457428D01*
X142376225Y-129305047D01*
X142376225Y-129190761D01*
X142338129Y-129038380D01*
X142300034Y-128962190D01*
X142223844Y-128886000D01*
X142109558Y-128847904D01*
X142033368Y-128847904D01*
X141919082Y-128886000D01*
X141880987Y-128924095D01*
X141157177Y-129647904D02*
X141538129Y-129647904D01*
X141538129Y-128847904D01*
X139861939Y-128886000D02*
X139938129Y-128847904D01*
X140052415Y-128847904D01*
X140166701Y-128886000D01*
X140242891Y-128962190D01*
X140280987Y-129038380D01*
X140319082Y-129190761D01*
X140319082Y-129305047D01*
X140280987Y-129457428D01*
X140242891Y-129533619D01*
X140166701Y-129609809D01*
X140052415Y-129647904D01*
X139976225Y-129647904D01*
X139861939Y-129609809D01*
X139823844Y-129571714D01*
X139823844Y-129305047D01*
X139976225Y-129305047D01*
X139480987Y-129647904D02*
X139480987Y-128847904D01*
X139023844Y-129647904D01*
X139023844Y-128847904D01*
X138642891Y-129647904D02*
X138642891Y-128847904D01*
X138452415Y-128847904D01*
X138338129Y-128886000D01*
X138261939Y-128962190D01*
X138223844Y-129038380D01*
X138185749Y-129190761D01*
X138185749Y-129305047D01*
X138223844Y-129457428D01*
X138261939Y-129533619D01*
X138338129Y-129609809D01*
X138452415Y-129647904D01*
X138642891Y-129647904D01*
X149995272Y-127107904D02*
X149995272Y-126307904D01*
X149461939Y-126307904D02*
X149309558Y-126307904D01*
X149233368Y-126346000D01*
X149157177Y-126422190D01*
X149119082Y-126574571D01*
X149119082Y-126841238D01*
X149157177Y-126993619D01*
X149233368Y-127069809D01*
X149309558Y-127107904D01*
X149461939Y-127107904D01*
X149538129Y-127069809D01*
X149614320Y-126993619D01*
X149652415Y-126841238D01*
X149652415Y-126574571D01*
X149614320Y-126422190D01*
X149538129Y-126346000D01*
X149461939Y-126307904D01*
X148357177Y-127107904D02*
X148814320Y-127107904D01*
X148585749Y-127107904D02*
X148585749Y-126307904D01*
X148661939Y-126422190D01*
X148738129Y-126498380D01*
X148814320Y-126536476D01*
X147976225Y-127107904D02*
X147823844Y-127107904D01*
X147747653Y-127069809D01*
X147709558Y-127031714D01*
X147633368Y-126917428D01*
X147595272Y-126765047D01*
X147595272Y-126460285D01*
X147633368Y-126384095D01*
X147671463Y-126346000D01*
X147747653Y-126307904D01*
X147900034Y-126307904D01*
X147976225Y-126346000D01*
X148014320Y-126384095D01*
X148052415Y-126460285D01*
X148052415Y-126650761D01*
X148014320Y-126726952D01*
X147976225Y-126765047D01*
X147900034Y-126803142D01*
X147747653Y-126803142D01*
X147671463Y-126765047D01*
X147633368Y-126726952D01*
X147595272Y-126650761D01*
X146223844Y-126346000D02*
X146300034Y-126307904D01*
X146414320Y-126307904D01*
X146528606Y-126346000D01*
X146604796Y-126422190D01*
X146642891Y-126498380D01*
X146680987Y-126650761D01*
X146680987Y-126765047D01*
X146642891Y-126917428D01*
X146604796Y-126993619D01*
X146528606Y-127069809D01*
X146414320Y-127107904D01*
X146338129Y-127107904D01*
X146223844Y-127069809D01*
X146185749Y-127031714D01*
X146185749Y-126765047D01*
X146338129Y-126765047D01*
X145842891Y-127107904D02*
X145842891Y-126307904D01*
X145385749Y-127107904D01*
X145385749Y-126307904D01*
X145004796Y-127107904D02*
X145004796Y-126307904D01*
X144814320Y-126307904D01*
X144700034Y-126346000D01*
X144623844Y-126422190D01*
X144585749Y-126498380D01*
X144547653Y-126650761D01*
X144547653Y-126765047D01*
X144585749Y-126917428D01*
X144623844Y-126993619D01*
X144700034Y-127069809D01*
X144814320Y-127107904D01*
X145004796Y-127107904D01*
X143595272Y-127107904D02*
X143595272Y-126574571D01*
X143595272Y-126726952D02*
X143557177Y-126650761D01*
X143519082Y-126612666D01*
X143442891Y-126574571D01*
X143366701Y-126574571D01*
X143100034Y-127107904D02*
X143100034Y-126307904D01*
X142566701Y-126307904D02*
X142414320Y-126307904D01*
X142338129Y-126346000D01*
X142261939Y-126422190D01*
X142223844Y-126574571D01*
X142223844Y-126841238D01*
X142261939Y-126993619D01*
X142338129Y-127069809D01*
X142414320Y-127107904D01*
X142566701Y-127107904D01*
X142642891Y-127069809D01*
X142719082Y-126993619D01*
X142757177Y-126841238D01*
X142757177Y-126574571D01*
X142719082Y-126422190D01*
X142642891Y-126346000D01*
X142566701Y-126307904D01*
X141538129Y-126574571D02*
X141538129Y-127107904D01*
X141728606Y-126269809D02*
X141919082Y-126841238D01*
X141423844Y-126841238D01*
X140509558Y-127107904D02*
X140509558Y-126574571D01*
X140509558Y-126726952D02*
X140471463Y-126650761D01*
X140433368Y-126612666D01*
X140357177Y-126574571D01*
X140280987Y-126574571D01*
X140128606Y-126307904D02*
X139671463Y-126307904D01*
X139900034Y-127107904D02*
X139900034Y-126307904D01*
X139480987Y-126307904D02*
X138947653Y-127107904D01*
X138947653Y-126307904D02*
X139480987Y-127107904D01*
X138642891Y-127107904D02*
X138642891Y-126307904D01*
X138452415Y-126307904D01*
X138338129Y-126346000D01*
X138261939Y-126422190D01*
X138223844Y-126498380D01*
X138185749Y-126650761D01*
X138185749Y-126765047D01*
X138223844Y-126917428D01*
X138261939Y-126993619D01*
X138338129Y-127069809D01*
X138452415Y-127107904D01*
X138642891Y-127107904D01*
X150147653Y-124567904D02*
X150147653Y-123767904D01*
X149614320Y-123767904D02*
X149461939Y-123767904D01*
X149385749Y-123806000D01*
X149309558Y-123882190D01*
X149271463Y-124034571D01*
X149271463Y-124301238D01*
X149309558Y-124453619D01*
X149385749Y-124529809D01*
X149461939Y-124567904D01*
X149614320Y-124567904D01*
X149690510Y-124529809D01*
X149766701Y-124453619D01*
X149804796Y-124301238D01*
X149804796Y-124034571D01*
X149766701Y-123882190D01*
X149690510Y-123806000D01*
X149614320Y-123767904D01*
X148509558Y-124567904D02*
X148966701Y-124567904D01*
X148738130Y-124567904D02*
X148738130Y-123767904D01*
X148814320Y-123882190D01*
X148890510Y-123958380D01*
X148966701Y-123996476D01*
X148052415Y-124110761D02*
X148128606Y-124072666D01*
X148166701Y-124034571D01*
X148204796Y-123958380D01*
X148204796Y-123920285D01*
X148166701Y-123844095D01*
X148128606Y-123806000D01*
X148052415Y-123767904D01*
X147900034Y-123767904D01*
X147823844Y-123806000D01*
X147785749Y-123844095D01*
X147747653Y-123920285D01*
X147747653Y-123958380D01*
X147785749Y-124034571D01*
X147823844Y-124072666D01*
X147900034Y-124110761D01*
X148052415Y-124110761D01*
X148128606Y-124148857D01*
X148166701Y-124186952D01*
X148204796Y-124263142D01*
X148204796Y-124415523D01*
X148166701Y-124491714D01*
X148128606Y-124529809D01*
X148052415Y-124567904D01*
X147900034Y-124567904D01*
X147823844Y-124529809D01*
X147785749Y-124491714D01*
X147747653Y-124415523D01*
X147747653Y-124263142D01*
X147785749Y-124186952D01*
X147823844Y-124148857D01*
X147900034Y-124110761D01*
X146376225Y-123806000D02*
X146452415Y-123767904D01*
X146566701Y-123767904D01*
X146680987Y-123806000D01*
X146757177Y-123882190D01*
X146795272Y-123958380D01*
X146833368Y-124110761D01*
X146833368Y-124225047D01*
X146795272Y-124377428D01*
X146757177Y-124453619D01*
X146680987Y-124529809D01*
X146566701Y-124567904D01*
X146490510Y-124567904D01*
X146376225Y-124529809D01*
X146338130Y-124491714D01*
X146338130Y-124225047D01*
X146490510Y-124225047D01*
X145995272Y-124567904D02*
X145995272Y-123767904D01*
X145538130Y-124567904D01*
X145538130Y-123767904D01*
X145157177Y-124567904D02*
X145157177Y-123767904D01*
X144966701Y-123767904D01*
X144852415Y-123806000D01*
X144776225Y-123882190D01*
X144738130Y-123958380D01*
X144700034Y-124110761D01*
X144700034Y-124225047D01*
X144738130Y-124377428D01*
X144776225Y-124453619D01*
X144852415Y-124529809D01*
X144966701Y-124567904D01*
X145157177Y-124567904D01*
X143328606Y-123806000D02*
X143404796Y-123767904D01*
X143519082Y-123767904D01*
X143633368Y-123806000D01*
X143709558Y-123882190D01*
X143747653Y-123958380D01*
X143785749Y-124110761D01*
X143785749Y-124225047D01*
X143747653Y-124377428D01*
X143709558Y-124453619D01*
X143633368Y-124529809D01*
X143519082Y-124567904D01*
X143442891Y-124567904D01*
X143328606Y-124529809D01*
X143290510Y-124491714D01*
X143290510Y-124225047D01*
X143442891Y-124225047D01*
X142947653Y-124567904D02*
X142947653Y-123767904D01*
X142490510Y-124567904D01*
X142490510Y-123767904D01*
X142109558Y-124567904D02*
X142109558Y-123767904D01*
X141919082Y-123767904D01*
X141804796Y-123806000D01*
X141728606Y-123882190D01*
X141690510Y-123958380D01*
X141652415Y-124110761D01*
X141652415Y-124225047D01*
X141690510Y-124377428D01*
X141728606Y-124453619D01*
X141804796Y-124529809D01*
X141919082Y-124567904D01*
X142109558Y-124567904D01*
X140700034Y-124567904D02*
X140700034Y-124034571D01*
X140700034Y-124186952D02*
X140661939Y-124110761D01*
X140623844Y-124072666D01*
X140547653Y-124034571D01*
X140471463Y-124034571D01*
X139747653Y-124567904D02*
X140014320Y-124186952D01*
X140204796Y-124567904D02*
X140204796Y-123767904D01*
X139900034Y-123767904D01*
X139823844Y-123806000D01*
X139785749Y-123844095D01*
X139747653Y-123920285D01*
X139747653Y-124034571D01*
X139785749Y-124110761D01*
X139823844Y-124148857D01*
X139900034Y-124186952D01*
X140204796Y-124186952D01*
X139480987Y-123767904D02*
X138947653Y-124567904D01*
X138947653Y-123767904D02*
X139480987Y-124567904D01*
X138642891Y-124567904D02*
X138642891Y-123767904D01*
X138452415Y-123767904D01*
X138338130Y-123806000D01*
X138261939Y-123882190D01*
X138223844Y-123958380D01*
X138185749Y-124110761D01*
X138185749Y-124225047D01*
X138223844Y-124377428D01*
X138261939Y-124453619D01*
X138338130Y-124529809D01*
X138452415Y-124567904D01*
X138642891Y-124567904D01*
X150566701Y-122027904D02*
X150566701Y-121227904D01*
X150033368Y-121227904D02*
X149880987Y-121227904D01*
X149804797Y-121266000D01*
X149728606Y-121342190D01*
X149690511Y-121494571D01*
X149690511Y-121761238D01*
X149728606Y-121913619D01*
X149804797Y-121989809D01*
X149880987Y-122027904D01*
X150033368Y-122027904D01*
X150109558Y-121989809D01*
X150185749Y-121913619D01*
X150223844Y-121761238D01*
X150223844Y-121494571D01*
X150185749Y-121342190D01*
X150109558Y-121266000D01*
X150033368Y-121227904D01*
X148966701Y-121227904D02*
X149347654Y-121227904D01*
X149385749Y-121608857D01*
X149347654Y-121570761D01*
X149271463Y-121532666D01*
X149080987Y-121532666D01*
X149004797Y-121570761D01*
X148966701Y-121608857D01*
X148928606Y-121685047D01*
X148928606Y-121875523D01*
X148966701Y-121951714D01*
X149004797Y-121989809D01*
X149080987Y-122027904D01*
X149271463Y-122027904D01*
X149347654Y-121989809D01*
X149385749Y-121951714D01*
X147557178Y-121266000D02*
X147633368Y-121227904D01*
X147747654Y-121227904D01*
X147861939Y-121266000D01*
X147938130Y-121342190D01*
X147976225Y-121418380D01*
X148014320Y-121570761D01*
X148014320Y-121685047D01*
X147976225Y-121837428D01*
X147938130Y-121913619D01*
X147861939Y-121989809D01*
X147747654Y-122027904D01*
X147671463Y-122027904D01*
X147557178Y-121989809D01*
X147519082Y-121951714D01*
X147519082Y-121685047D01*
X147671463Y-121685047D01*
X147176225Y-122027904D02*
X147176225Y-121227904D01*
X146719082Y-122027904D01*
X146719082Y-121227904D01*
X146338130Y-122027904D02*
X146338130Y-121227904D01*
X146147654Y-121227904D01*
X146033368Y-121266000D01*
X145957178Y-121342190D01*
X145919082Y-121418380D01*
X145880987Y-121570761D01*
X145880987Y-121685047D01*
X145919082Y-121837428D01*
X145957178Y-121913619D01*
X146033368Y-121989809D01*
X146147654Y-122027904D01*
X146338130Y-122027904D01*
X144928606Y-122027904D02*
X144928606Y-121494571D01*
X144928606Y-121646952D02*
X144890511Y-121570761D01*
X144852416Y-121532666D01*
X144776225Y-121494571D01*
X144700035Y-121494571D01*
X144433368Y-122027904D02*
X144433368Y-121227904D01*
X143900035Y-121227904D02*
X143747654Y-121227904D01*
X143671463Y-121266000D01*
X143595273Y-121342190D01*
X143557178Y-121494571D01*
X143557178Y-121761238D01*
X143595273Y-121913619D01*
X143671463Y-121989809D01*
X143747654Y-122027904D01*
X143900035Y-122027904D01*
X143976225Y-121989809D01*
X144052416Y-121913619D01*
X144090511Y-121761238D01*
X144090511Y-121494571D01*
X144052416Y-121342190D01*
X143976225Y-121266000D01*
X143900035Y-121227904D01*
X142795273Y-122027904D02*
X143252416Y-122027904D01*
X143023844Y-122027904D02*
X143023844Y-121227904D01*
X143100035Y-121342190D01*
X143176225Y-121418380D01*
X143252416Y-121456476D01*
X142528606Y-121227904D02*
X141995273Y-121227904D01*
X142338130Y-122027904D01*
X141080987Y-122027904D02*
X141080987Y-121494571D01*
X141080987Y-121646952D02*
X141042892Y-121570761D01*
X141004797Y-121532666D01*
X140928606Y-121494571D01*
X140852416Y-121494571D01*
X140585749Y-122027904D02*
X140585749Y-121227904D01*
X140052416Y-121227904D02*
X139900035Y-121227904D01*
X139823844Y-121266000D01*
X139747654Y-121342190D01*
X139709558Y-121494571D01*
X139709558Y-121761238D01*
X139747654Y-121913619D01*
X139823844Y-121989809D01*
X139900035Y-122027904D01*
X140052416Y-122027904D01*
X140128606Y-121989809D01*
X140204797Y-121913619D01*
X140242892Y-121761238D01*
X140242892Y-121494571D01*
X140204797Y-121342190D01*
X140128606Y-121266000D01*
X140052416Y-121227904D01*
X138947654Y-122027904D02*
X139404797Y-122027904D01*
X139176225Y-122027904D02*
X139176225Y-121227904D01*
X139252416Y-121342190D01*
X139328606Y-121418380D01*
X139404797Y-121456476D01*
X138490511Y-121570761D02*
X138566701Y-121532666D01*
X138604797Y-121494571D01*
X138642892Y-121418380D01*
X138642892Y-121380285D01*
X138604797Y-121304095D01*
X138566701Y-121266000D01*
X138490511Y-121227904D01*
X138338130Y-121227904D01*
X138261939Y-121266000D01*
X138223844Y-121304095D01*
X138185749Y-121380285D01*
X138185749Y-121418380D01*
X138223844Y-121494571D01*
X138261939Y-121532666D01*
X138338130Y-121570761D01*
X138490511Y-121570761D01*
X138566701Y-121608857D01*
X138604797Y-121646952D01*
X138642892Y-121723142D01*
X138642892Y-121875523D01*
X138604797Y-121951714D01*
X138566701Y-121989809D01*
X138490511Y-122027904D01*
X138338130Y-122027904D01*
X138261939Y-121989809D01*
X138223844Y-121951714D01*
X138185749Y-121875523D01*
X138185749Y-121723142D01*
X138223844Y-121646952D01*
X138261939Y-121608857D01*
X138338130Y-121570761D01*
X150528605Y-119487904D02*
X150528605Y-118687904D01*
X149995272Y-118687904D02*
X149842891Y-118687904D01*
X149766701Y-118726000D01*
X149690510Y-118802190D01*
X149652415Y-118954571D01*
X149652415Y-119221238D01*
X149690510Y-119373619D01*
X149766701Y-119449809D01*
X149842891Y-119487904D01*
X149995272Y-119487904D01*
X150071462Y-119449809D01*
X150147653Y-119373619D01*
X150185748Y-119221238D01*
X150185748Y-118954571D01*
X150147653Y-118802190D01*
X150071462Y-118726000D01*
X149995272Y-118687904D01*
X148890510Y-119487904D02*
X149347653Y-119487904D01*
X149119082Y-119487904D02*
X149119082Y-118687904D01*
X149195272Y-118802190D01*
X149271462Y-118878380D01*
X149347653Y-118916476D01*
X148623843Y-118687904D02*
X148090510Y-118687904D01*
X148433367Y-119487904D01*
X146757177Y-118726000D02*
X146833367Y-118687904D01*
X146947653Y-118687904D01*
X147061939Y-118726000D01*
X147138129Y-118802190D01*
X147176224Y-118878380D01*
X147214320Y-119030761D01*
X147214320Y-119145047D01*
X147176224Y-119297428D01*
X147138129Y-119373619D01*
X147061939Y-119449809D01*
X146947653Y-119487904D01*
X146871462Y-119487904D01*
X146757177Y-119449809D01*
X146719082Y-119411714D01*
X146719082Y-119145047D01*
X146871462Y-119145047D01*
X146376224Y-119487904D02*
X146376224Y-118687904D01*
X145919082Y-119487904D01*
X145919082Y-118687904D01*
X145538129Y-119487904D02*
X145538129Y-118687904D01*
X145347653Y-118687904D01*
X145233367Y-118726000D01*
X145157177Y-118802190D01*
X145119082Y-118878380D01*
X145080986Y-119030761D01*
X145080986Y-119145047D01*
X145119082Y-119297428D01*
X145157177Y-119373619D01*
X145233367Y-119449809D01*
X145347653Y-119487904D01*
X145538129Y-119487904D01*
X144128605Y-119487904D02*
X144128605Y-118954571D01*
X144128605Y-119106952D02*
X144090510Y-119030761D01*
X144052415Y-118992666D01*
X143976224Y-118954571D01*
X143900034Y-118954571D01*
X143633367Y-119487904D02*
X143633367Y-118687904D01*
X143100034Y-118687904D02*
X142947653Y-118687904D01*
X142871462Y-118726000D01*
X142795272Y-118802190D01*
X142757177Y-118954571D01*
X142757177Y-119221238D01*
X142795272Y-119373619D01*
X142871462Y-119449809D01*
X142947653Y-119487904D01*
X143100034Y-119487904D01*
X143176224Y-119449809D01*
X143252415Y-119373619D01*
X143290510Y-119221238D01*
X143290510Y-118954571D01*
X143252415Y-118802190D01*
X143176224Y-118726000D01*
X143100034Y-118687904D01*
X142452415Y-118764095D02*
X142414320Y-118726000D01*
X142338129Y-118687904D01*
X142147653Y-118687904D01*
X142071462Y-118726000D01*
X142033367Y-118764095D01*
X141995272Y-118840285D01*
X141995272Y-118916476D01*
X142033367Y-119030761D01*
X142490510Y-119487904D01*
X141995272Y-119487904D01*
X141728605Y-118687904D02*
X141195272Y-118687904D01*
X141538129Y-119487904D01*
X139861939Y-118726000D02*
X139938129Y-118687904D01*
X140052415Y-118687904D01*
X140166701Y-118726000D01*
X140242891Y-118802190D01*
X140280986Y-118878380D01*
X140319082Y-119030761D01*
X140319082Y-119145047D01*
X140280986Y-119297428D01*
X140242891Y-119373619D01*
X140166701Y-119449809D01*
X140052415Y-119487904D01*
X139976224Y-119487904D01*
X139861939Y-119449809D01*
X139823843Y-119411714D01*
X139823843Y-119145047D01*
X139976224Y-119145047D01*
X139480986Y-119487904D02*
X139480986Y-118687904D01*
X139023843Y-119487904D01*
X139023843Y-118687904D01*
X138642891Y-119487904D02*
X138642891Y-118687904D01*
X138452415Y-118687904D01*
X138338129Y-118726000D01*
X138261939Y-118802190D01*
X138223843Y-118878380D01*
X138185748Y-119030761D01*
X138185748Y-119145047D01*
X138223843Y-119297428D01*
X138261939Y-119373619D01*
X138338129Y-119449809D01*
X138452415Y-119487904D01*
X138642891Y-119487904D01*
X151328605Y-116947904D02*
X151328605Y-116147904D01*
X150795272Y-116147904D02*
X150642891Y-116147904D01*
X150566701Y-116186000D01*
X150490510Y-116262190D01*
X150452415Y-116414571D01*
X150452415Y-116681238D01*
X150490510Y-116833619D01*
X150566701Y-116909809D01*
X150642891Y-116947904D01*
X150795272Y-116947904D01*
X150871462Y-116909809D01*
X150947653Y-116833619D01*
X150985748Y-116681238D01*
X150985748Y-116414571D01*
X150947653Y-116262190D01*
X150871462Y-116186000D01*
X150795272Y-116147904D01*
X149690510Y-116947904D02*
X150147653Y-116947904D01*
X149919082Y-116947904D02*
X149919082Y-116147904D01*
X149995272Y-116262190D01*
X150071462Y-116338380D01*
X150147653Y-116376476D01*
X149004796Y-116147904D02*
X149157177Y-116147904D01*
X149233367Y-116186000D01*
X149271462Y-116224095D01*
X149347653Y-116338380D01*
X149385748Y-116490761D01*
X149385748Y-116795523D01*
X149347653Y-116871714D01*
X149309558Y-116909809D01*
X149233367Y-116947904D01*
X149080986Y-116947904D01*
X149004796Y-116909809D01*
X148966701Y-116871714D01*
X148928605Y-116795523D01*
X148928605Y-116605047D01*
X148966701Y-116528857D01*
X149004796Y-116490761D01*
X149080986Y-116452666D01*
X149233367Y-116452666D01*
X149309558Y-116490761D01*
X149347653Y-116528857D01*
X149385748Y-116605047D01*
X147557177Y-116186000D02*
X147633367Y-116147904D01*
X147747653Y-116147904D01*
X147861939Y-116186000D01*
X147938129Y-116262190D01*
X147976224Y-116338380D01*
X148014320Y-116490761D01*
X148014320Y-116605047D01*
X147976224Y-116757428D01*
X147938129Y-116833619D01*
X147861939Y-116909809D01*
X147747653Y-116947904D01*
X147671462Y-116947904D01*
X147557177Y-116909809D01*
X147519082Y-116871714D01*
X147519082Y-116605047D01*
X147671462Y-116605047D01*
X147176224Y-116947904D02*
X147176224Y-116147904D01*
X146719082Y-116947904D01*
X146719082Y-116147904D01*
X146338129Y-116947904D02*
X146338129Y-116147904D01*
X146147653Y-116147904D01*
X146033367Y-116186000D01*
X145957177Y-116262190D01*
X145919082Y-116338380D01*
X145880986Y-116490761D01*
X145880986Y-116605047D01*
X145919082Y-116757428D01*
X145957177Y-116833619D01*
X146033367Y-116909809D01*
X146147653Y-116947904D01*
X146338129Y-116947904D01*
X144928605Y-116947904D02*
X144928605Y-116414571D01*
X144928605Y-116566952D02*
X144890510Y-116490761D01*
X144852415Y-116452666D01*
X144776224Y-116414571D01*
X144700034Y-116414571D01*
X144433367Y-116947904D02*
X144433367Y-116147904D01*
X143900034Y-116147904D02*
X143747653Y-116147904D01*
X143671462Y-116186000D01*
X143595272Y-116262190D01*
X143557177Y-116414571D01*
X143557177Y-116681238D01*
X143595272Y-116833619D01*
X143671462Y-116909809D01*
X143747653Y-116947904D01*
X143900034Y-116947904D01*
X143976224Y-116909809D01*
X144052415Y-116833619D01*
X144090510Y-116681238D01*
X144090510Y-116414571D01*
X144052415Y-116262190D01*
X143976224Y-116186000D01*
X143900034Y-116147904D01*
X143252415Y-116224095D02*
X143214320Y-116186000D01*
X143138129Y-116147904D01*
X142947653Y-116147904D01*
X142871462Y-116186000D01*
X142833367Y-116224095D01*
X142795272Y-116300285D01*
X142795272Y-116376476D01*
X142833367Y-116490761D01*
X143290510Y-116947904D01*
X142795272Y-116947904D01*
X142490510Y-116224095D02*
X142452415Y-116186000D01*
X142376224Y-116147904D01*
X142185748Y-116147904D01*
X142109558Y-116186000D01*
X142071462Y-116224095D01*
X142033367Y-116300285D01*
X142033367Y-116376476D01*
X142071462Y-116490761D01*
X142528605Y-116947904D01*
X142033367Y-116947904D01*
X141080986Y-116947904D02*
X141080986Y-116414571D01*
X141080986Y-116566952D02*
X141042891Y-116490761D01*
X141004796Y-116452666D01*
X140928605Y-116414571D01*
X140852415Y-116414571D01*
X140585748Y-116947904D02*
X140585748Y-116147904D01*
X140052415Y-116147904D02*
X139900034Y-116147904D01*
X139823843Y-116186000D01*
X139747653Y-116262190D01*
X139709558Y-116414571D01*
X139709558Y-116681238D01*
X139747653Y-116833619D01*
X139823843Y-116909809D01*
X139900034Y-116947904D01*
X140052415Y-116947904D01*
X140128605Y-116909809D01*
X140204796Y-116833619D01*
X140242891Y-116681238D01*
X140242891Y-116414571D01*
X140204796Y-116262190D01*
X140128605Y-116186000D01*
X140052415Y-116147904D01*
X139404796Y-116224095D02*
X139366701Y-116186000D01*
X139290510Y-116147904D01*
X139100034Y-116147904D01*
X139023843Y-116186000D01*
X138985748Y-116224095D01*
X138947653Y-116300285D01*
X138947653Y-116376476D01*
X138985748Y-116490761D01*
X139442891Y-116947904D01*
X138947653Y-116947904D01*
X138680986Y-116147904D02*
X138185748Y-116147904D01*
X138452415Y-116452666D01*
X138338129Y-116452666D01*
X138261939Y-116490761D01*
X138223843Y-116528857D01*
X138185748Y-116605047D01*
X138185748Y-116795523D01*
X138223843Y-116871714D01*
X138261939Y-116909809D01*
X138338129Y-116947904D01*
X138566701Y-116947904D01*
X138642891Y-116909809D01*
X138680986Y-116871714D01*
X149538129Y-114407904D02*
X149538129Y-113607904D01*
X149004796Y-113607904D02*
X148852415Y-113607904D01*
X148776225Y-113646000D01*
X148700034Y-113722190D01*
X148661939Y-113874571D01*
X148661939Y-114141238D01*
X148700034Y-114293619D01*
X148776225Y-114369809D01*
X148852415Y-114407904D01*
X149004796Y-114407904D01*
X149080986Y-114369809D01*
X149157177Y-114293619D01*
X149195272Y-114141238D01*
X149195272Y-113874571D01*
X149157177Y-113722190D01*
X149080986Y-113646000D01*
X149004796Y-113607904D01*
X147976225Y-113874571D02*
X147976225Y-114407904D01*
X148166701Y-113569809D02*
X148357177Y-114141238D01*
X147861939Y-114141238D01*
X146528606Y-113646000D02*
X146604796Y-113607904D01*
X146719082Y-113607904D01*
X146833367Y-113646000D01*
X146909558Y-113722190D01*
X146947653Y-113798380D01*
X146985748Y-113950761D01*
X146985748Y-114065047D01*
X146947653Y-114217428D01*
X146909558Y-114293619D01*
X146833367Y-114369809D01*
X146719082Y-114407904D01*
X146642891Y-114407904D01*
X146528606Y-114369809D01*
X146490510Y-114331714D01*
X146490510Y-114065047D01*
X146642891Y-114065047D01*
X146147653Y-114407904D02*
X146147653Y-113607904D01*
X145690510Y-114407904D01*
X145690510Y-113607904D01*
X145309558Y-114407904D02*
X145309558Y-113607904D01*
X145119082Y-113607904D01*
X145004796Y-113646000D01*
X144928606Y-113722190D01*
X144890510Y-113798380D01*
X144852415Y-113950761D01*
X144852415Y-114065047D01*
X144890510Y-114217428D01*
X144928606Y-114293619D01*
X145004796Y-114369809D01*
X145119082Y-114407904D01*
X145309558Y-114407904D01*
X143976225Y-113607904D02*
X143480986Y-113607904D01*
X143747653Y-113912666D01*
X143633367Y-113912666D01*
X143557177Y-113950761D01*
X143519082Y-113988857D01*
X143480986Y-114065047D01*
X143480986Y-114255523D01*
X143519082Y-114331714D01*
X143557177Y-114369809D01*
X143633367Y-114407904D01*
X143861939Y-114407904D01*
X143938129Y-114369809D01*
X143976225Y-114331714D01*
X143252415Y-113607904D02*
X142985748Y-114407904D01*
X142719082Y-113607904D01*
X142528606Y-113607904D02*
X142033367Y-113607904D01*
X142300034Y-113912666D01*
X142185748Y-113912666D01*
X142109558Y-113950761D01*
X142071463Y-113988857D01*
X142033367Y-114065047D01*
X142033367Y-114255523D01*
X142071463Y-114331714D01*
X142109558Y-114369809D01*
X142185748Y-114407904D01*
X142414320Y-114407904D01*
X142490510Y-114369809D01*
X142528606Y-114331714D01*
X141080986Y-114407904D02*
X141080986Y-113874571D01*
X141080986Y-114026952D02*
X141042891Y-113950761D01*
X141004796Y-113912666D01*
X140928606Y-113874571D01*
X140852415Y-113874571D01*
X140585748Y-114407904D02*
X140585748Y-113607904D01*
X140052415Y-113607904D02*
X139900034Y-113607904D01*
X139823844Y-113646000D01*
X139747653Y-113722190D01*
X139709558Y-113874571D01*
X139709558Y-114141238D01*
X139747653Y-114293619D01*
X139823844Y-114369809D01*
X139900034Y-114407904D01*
X140052415Y-114407904D01*
X140128606Y-114369809D01*
X140204796Y-114293619D01*
X140242891Y-114141238D01*
X140242891Y-113874571D01*
X140204796Y-113722190D01*
X140128606Y-113646000D01*
X140052415Y-113607904D01*
X139404796Y-113684095D02*
X139366701Y-113646000D01*
X139290510Y-113607904D01*
X139100034Y-113607904D01*
X139023844Y-113646000D01*
X138985748Y-113684095D01*
X138947653Y-113760285D01*
X138947653Y-113836476D01*
X138985748Y-113950761D01*
X139442891Y-114407904D01*
X138947653Y-114407904D01*
X138261939Y-113874571D02*
X138261939Y-114407904D01*
X138452415Y-113569809D02*
X138642891Y-114141238D01*
X138147653Y-114141238D01*
X149766701Y-111867904D02*
X149766701Y-111067904D01*
X149233368Y-111067904D02*
X149080987Y-111067904D01*
X149004797Y-111106000D01*
X148928606Y-111182190D01*
X148890511Y-111334571D01*
X148890511Y-111601238D01*
X148928606Y-111753619D01*
X149004797Y-111829809D01*
X149080987Y-111867904D01*
X149233368Y-111867904D01*
X149309558Y-111829809D01*
X149385749Y-111753619D01*
X149423844Y-111601238D01*
X149423844Y-111334571D01*
X149385749Y-111182190D01*
X149309558Y-111106000D01*
X149233368Y-111067904D01*
X148395273Y-111067904D02*
X148319082Y-111067904D01*
X148242892Y-111106000D01*
X148204797Y-111144095D01*
X148166701Y-111220285D01*
X148128606Y-111372666D01*
X148128606Y-111563142D01*
X148166701Y-111715523D01*
X148204797Y-111791714D01*
X148242892Y-111829809D01*
X148319082Y-111867904D01*
X148395273Y-111867904D01*
X148471463Y-111829809D01*
X148509558Y-111791714D01*
X148547654Y-111715523D01*
X148585749Y-111563142D01*
X148585749Y-111372666D01*
X148547654Y-111220285D01*
X148509558Y-111144095D01*
X148471463Y-111106000D01*
X148395273Y-111067904D01*
X146757178Y-111106000D02*
X146833368Y-111067904D01*
X146947654Y-111067904D01*
X147061939Y-111106000D01*
X147138130Y-111182190D01*
X147176225Y-111258380D01*
X147214320Y-111410761D01*
X147214320Y-111525047D01*
X147176225Y-111677428D01*
X147138130Y-111753619D01*
X147061939Y-111829809D01*
X146947654Y-111867904D01*
X146871463Y-111867904D01*
X146757178Y-111829809D01*
X146719082Y-111791714D01*
X146719082Y-111525047D01*
X146871463Y-111525047D01*
X146376225Y-111867904D02*
X146376225Y-111067904D01*
X145919082Y-111867904D01*
X145919082Y-111067904D01*
X145538130Y-111867904D02*
X145538130Y-111067904D01*
X145347654Y-111067904D01*
X145233368Y-111106000D01*
X145157178Y-111182190D01*
X145119082Y-111258380D01*
X145080987Y-111410761D01*
X145080987Y-111525047D01*
X145119082Y-111677428D01*
X145157178Y-111753619D01*
X145233368Y-111829809D01*
X145347654Y-111867904D01*
X145538130Y-111867904D01*
X144128606Y-111867904D02*
X144128606Y-111334571D01*
X144128606Y-111486952D02*
X144090511Y-111410761D01*
X144052416Y-111372666D01*
X143976225Y-111334571D01*
X143900035Y-111334571D01*
X143633368Y-111867904D02*
X143633368Y-111067904D01*
X143100035Y-111067904D02*
X142947654Y-111067904D01*
X142871463Y-111106000D01*
X142795273Y-111182190D01*
X142757178Y-111334571D01*
X142757178Y-111601238D01*
X142795273Y-111753619D01*
X142871463Y-111829809D01*
X142947654Y-111867904D01*
X143100035Y-111867904D01*
X143176225Y-111829809D01*
X143252416Y-111753619D01*
X143290511Y-111601238D01*
X143290511Y-111334571D01*
X143252416Y-111182190D01*
X143176225Y-111106000D01*
X143100035Y-111067904D01*
X141995273Y-111867904D02*
X142452416Y-111867904D01*
X142223844Y-111867904D02*
X142223844Y-111067904D01*
X142300035Y-111182190D01*
X142376225Y-111258380D01*
X142452416Y-111296476D01*
X141500035Y-111067904D02*
X141423844Y-111067904D01*
X141347654Y-111106000D01*
X141309558Y-111144095D01*
X141271463Y-111220285D01*
X141233368Y-111372666D01*
X141233368Y-111563142D01*
X141271463Y-111715523D01*
X141309558Y-111791714D01*
X141347654Y-111829809D01*
X141423844Y-111867904D01*
X141500035Y-111867904D01*
X141576225Y-111829809D01*
X141614320Y-111791714D01*
X141652416Y-111715523D01*
X141690511Y-111563142D01*
X141690511Y-111372666D01*
X141652416Y-111220285D01*
X141614320Y-111144095D01*
X141576225Y-111106000D01*
X141500035Y-111067904D01*
X139861939Y-111106000D02*
X139938130Y-111067904D01*
X140052416Y-111067904D01*
X140166701Y-111106000D01*
X140242892Y-111182190D01*
X140280987Y-111258380D01*
X140319082Y-111410761D01*
X140319082Y-111525047D01*
X140280987Y-111677428D01*
X140242892Y-111753619D01*
X140166701Y-111829809D01*
X140052416Y-111867904D01*
X139976225Y-111867904D01*
X139861939Y-111829809D01*
X139823844Y-111791714D01*
X139823844Y-111525047D01*
X139976225Y-111525047D01*
X139480987Y-111867904D02*
X139480987Y-111067904D01*
X139023844Y-111867904D01*
X139023844Y-111067904D01*
X138642892Y-111867904D02*
X138642892Y-111067904D01*
X138452416Y-111067904D01*
X138338130Y-111106000D01*
X138261939Y-111182190D01*
X138223844Y-111258380D01*
X138185749Y-111410761D01*
X138185749Y-111525047D01*
X138223844Y-111677428D01*
X138261939Y-111753619D01*
X138338130Y-111829809D01*
X138452416Y-111867904D01*
X138642892Y-111867904D01*
X149804796Y-109327904D02*
X149804796Y-108527904D01*
X149271463Y-108527904D02*
X149119082Y-108527904D01*
X149042892Y-108566000D01*
X148966701Y-108642190D01*
X148928606Y-108794571D01*
X148928606Y-109061238D01*
X148966701Y-109213619D01*
X149042892Y-109289809D01*
X149119082Y-109327904D01*
X149271463Y-109327904D01*
X149347653Y-109289809D01*
X149423844Y-109213619D01*
X149461939Y-109061238D01*
X149461939Y-108794571D01*
X149423844Y-108642190D01*
X149347653Y-108566000D01*
X149271463Y-108527904D01*
X148623844Y-108604095D02*
X148585749Y-108566000D01*
X148509558Y-108527904D01*
X148319082Y-108527904D01*
X148242892Y-108566000D01*
X148204796Y-108604095D01*
X148166701Y-108680285D01*
X148166701Y-108756476D01*
X148204796Y-108870761D01*
X148661939Y-109327904D01*
X148166701Y-109327904D01*
X146795273Y-108566000D02*
X146871463Y-108527904D01*
X146985749Y-108527904D01*
X147100034Y-108566000D01*
X147176225Y-108642190D01*
X147214320Y-108718380D01*
X147252415Y-108870761D01*
X147252415Y-108985047D01*
X147214320Y-109137428D01*
X147176225Y-109213619D01*
X147100034Y-109289809D01*
X146985749Y-109327904D01*
X146909558Y-109327904D01*
X146795273Y-109289809D01*
X146757177Y-109251714D01*
X146757177Y-108985047D01*
X146909558Y-108985047D01*
X146414320Y-109327904D02*
X146414320Y-108527904D01*
X145957177Y-109327904D01*
X145957177Y-108527904D01*
X145576225Y-109327904D02*
X145576225Y-108527904D01*
X145385749Y-108527904D01*
X145271463Y-108566000D01*
X145195273Y-108642190D01*
X145157177Y-108718380D01*
X145119082Y-108870761D01*
X145119082Y-108985047D01*
X145157177Y-109137428D01*
X145195273Y-109213619D01*
X145271463Y-109289809D01*
X145385749Y-109327904D01*
X145576225Y-109327904D01*
X144166701Y-109327904D02*
X144166701Y-108794571D01*
X144166701Y-108946952D02*
X144128606Y-108870761D01*
X144090511Y-108832666D01*
X144014320Y-108794571D01*
X143938130Y-108794571D01*
X143671463Y-109327904D02*
X143671463Y-108527904D01*
X143138130Y-108527904D02*
X142985749Y-108527904D01*
X142909558Y-108566000D01*
X142833368Y-108642190D01*
X142795273Y-108794571D01*
X142795273Y-109061238D01*
X142833368Y-109213619D01*
X142909558Y-109289809D01*
X142985749Y-109327904D01*
X143138130Y-109327904D01*
X143214320Y-109289809D01*
X143290511Y-109213619D01*
X143328606Y-109061238D01*
X143328606Y-108794571D01*
X143290511Y-108642190D01*
X143214320Y-108566000D01*
X143138130Y-108527904D01*
X142414320Y-109327904D02*
X142261939Y-109327904D01*
X142185749Y-109289809D01*
X142147653Y-109251714D01*
X142071463Y-109137428D01*
X142033368Y-108985047D01*
X142033368Y-108680285D01*
X142071463Y-108604095D01*
X142109558Y-108566000D01*
X142185749Y-108527904D01*
X142338130Y-108527904D01*
X142414320Y-108566000D01*
X142452415Y-108604095D01*
X142490511Y-108680285D01*
X142490511Y-108870761D01*
X142452415Y-108946952D01*
X142414320Y-108985047D01*
X142338130Y-109023142D01*
X142185749Y-109023142D01*
X142109558Y-108985047D01*
X142071463Y-108946952D01*
X142033368Y-108870761D01*
X141080987Y-109327904D02*
X141080987Y-108794571D01*
X141080987Y-108946952D02*
X141042892Y-108870761D01*
X141004796Y-108832666D01*
X140928606Y-108794571D01*
X140852415Y-108794571D01*
X140585749Y-109327904D02*
X140585749Y-108527904D01*
X140052415Y-108527904D02*
X139900034Y-108527904D01*
X139823844Y-108566000D01*
X139747653Y-108642190D01*
X139709558Y-108794571D01*
X139709558Y-109061238D01*
X139747653Y-109213619D01*
X139823844Y-109289809D01*
X139900034Y-109327904D01*
X140052415Y-109327904D01*
X140128606Y-109289809D01*
X140204796Y-109213619D01*
X140242892Y-109061238D01*
X140242892Y-108794571D01*
X140204796Y-108642190D01*
X140128606Y-108566000D01*
X140052415Y-108527904D01*
X139404796Y-108604095D02*
X139366701Y-108566000D01*
X139290511Y-108527904D01*
X139100034Y-108527904D01*
X139023844Y-108566000D01*
X138985749Y-108604095D01*
X138947653Y-108680285D01*
X138947653Y-108756476D01*
X138985749Y-108870761D01*
X139442892Y-109327904D01*
X138947653Y-109327904D01*
X138223844Y-108527904D02*
X138604796Y-108527904D01*
X138642892Y-108908857D01*
X138604796Y-108870761D01*
X138528606Y-108832666D01*
X138338130Y-108832666D01*
X138261939Y-108870761D01*
X138223844Y-108908857D01*
X138185749Y-108985047D01*
X138185749Y-109175523D01*
X138223844Y-109251714D01*
X138261939Y-109289809D01*
X138338130Y-109327904D01*
X138528606Y-109327904D01*
X138604796Y-109289809D01*
X138642892Y-109251714D01*
X150566701Y-106787904D02*
X150566701Y-105987904D01*
X150033368Y-105987904D02*
X149880987Y-105987904D01*
X149804797Y-106026000D01*
X149728606Y-106102190D01*
X149690511Y-106254571D01*
X149690511Y-106521238D01*
X149728606Y-106673619D01*
X149804797Y-106749809D01*
X149880987Y-106787904D01*
X150033368Y-106787904D01*
X150109558Y-106749809D01*
X150185749Y-106673619D01*
X150223844Y-106521238D01*
X150223844Y-106254571D01*
X150185749Y-106102190D01*
X150109558Y-106026000D01*
X150033368Y-105987904D01*
X148928606Y-106787904D02*
X149385749Y-106787904D01*
X149157178Y-106787904D02*
X149157178Y-105987904D01*
X149233368Y-106102190D01*
X149309558Y-106178380D01*
X149385749Y-106216476D01*
X148204797Y-105987904D02*
X148585749Y-105987904D01*
X148623844Y-106368857D01*
X148585749Y-106330761D01*
X148509558Y-106292666D01*
X148319082Y-106292666D01*
X148242892Y-106330761D01*
X148204797Y-106368857D01*
X148166701Y-106445047D01*
X148166701Y-106635523D01*
X148204797Y-106711714D01*
X148242892Y-106749809D01*
X148319082Y-106787904D01*
X148509558Y-106787904D01*
X148585749Y-106749809D01*
X148623844Y-106711714D01*
X146795273Y-106026000D02*
X146871463Y-105987904D01*
X146985749Y-105987904D01*
X147100035Y-106026000D01*
X147176225Y-106102190D01*
X147214320Y-106178380D01*
X147252416Y-106330761D01*
X147252416Y-106445047D01*
X147214320Y-106597428D01*
X147176225Y-106673619D01*
X147100035Y-106749809D01*
X146985749Y-106787904D01*
X146909558Y-106787904D01*
X146795273Y-106749809D01*
X146757178Y-106711714D01*
X146757178Y-106445047D01*
X146909558Y-106445047D01*
X146414320Y-106787904D02*
X146414320Y-105987904D01*
X145957178Y-106787904D01*
X145957178Y-105987904D01*
X145576225Y-106787904D02*
X145576225Y-105987904D01*
X145385749Y-105987904D01*
X145271463Y-106026000D01*
X145195273Y-106102190D01*
X145157178Y-106178380D01*
X145119082Y-106330761D01*
X145119082Y-106445047D01*
X145157178Y-106597428D01*
X145195273Y-106673619D01*
X145271463Y-106749809D01*
X145385749Y-106787904D01*
X145576225Y-106787904D01*
X144166701Y-106787904D02*
X144166701Y-106254571D01*
X144166701Y-106406952D02*
X144128606Y-106330761D01*
X144090511Y-106292666D01*
X144014320Y-106254571D01*
X143938130Y-106254571D01*
X143671463Y-106787904D02*
X143671463Y-105987904D01*
X143138130Y-105987904D02*
X142985749Y-105987904D01*
X142909558Y-106026000D01*
X142833368Y-106102190D01*
X142795273Y-106254571D01*
X142795273Y-106521238D01*
X142833368Y-106673619D01*
X142909558Y-106749809D01*
X142985749Y-106787904D01*
X143138130Y-106787904D01*
X143214320Y-106749809D01*
X143290511Y-106673619D01*
X143328606Y-106521238D01*
X143328606Y-106254571D01*
X143290511Y-106102190D01*
X143214320Y-106026000D01*
X143138130Y-105987904D01*
X142033368Y-106787904D02*
X142490511Y-106787904D01*
X142261939Y-106787904D02*
X142261939Y-105987904D01*
X142338130Y-106102190D01*
X142414320Y-106178380D01*
X142490511Y-106216476D01*
X141271463Y-106787904D02*
X141728606Y-106787904D01*
X141500035Y-106787904D02*
X141500035Y-105987904D01*
X141576225Y-106102190D01*
X141652416Y-106178380D01*
X141728606Y-106216476D01*
X140319082Y-106787904D02*
X140319082Y-106254571D01*
X140319082Y-106406952D02*
X140280987Y-106330761D01*
X140242892Y-106292666D01*
X140166701Y-106254571D01*
X140090511Y-106254571D01*
X139823844Y-106787904D02*
X139823844Y-105987904D01*
X139290511Y-105987904D02*
X139138130Y-105987904D01*
X139061939Y-106026000D01*
X138985749Y-106102190D01*
X138947654Y-106254571D01*
X138947654Y-106521238D01*
X138985749Y-106673619D01*
X139061939Y-106749809D01*
X139138130Y-106787904D01*
X139290511Y-106787904D01*
X139366701Y-106749809D01*
X139442892Y-106673619D01*
X139480987Y-106521238D01*
X139480987Y-106254571D01*
X139442892Y-106102190D01*
X139366701Y-106026000D01*
X139290511Y-105987904D01*
X138490511Y-106330761D02*
X138566701Y-106292666D01*
X138604797Y-106254571D01*
X138642892Y-106178380D01*
X138642892Y-106140285D01*
X138604797Y-106064095D01*
X138566701Y-106026000D01*
X138490511Y-105987904D01*
X138338130Y-105987904D01*
X138261939Y-106026000D01*
X138223844Y-106064095D01*
X138185749Y-106140285D01*
X138185749Y-106178380D01*
X138223844Y-106254571D01*
X138261939Y-106292666D01*
X138338130Y-106330761D01*
X138490511Y-106330761D01*
X138566701Y-106368857D01*
X138604797Y-106406952D01*
X138642892Y-106483142D01*
X138642892Y-106635523D01*
X138604797Y-106711714D01*
X138566701Y-106749809D01*
X138490511Y-106787904D01*
X138338130Y-106787904D01*
X138261939Y-106749809D01*
X138223844Y-106711714D01*
X138185749Y-106635523D01*
X138185749Y-106483142D01*
X138223844Y-106406952D01*
X138261939Y-106368857D01*
X138338130Y-106330761D01*
X149766701Y-104247904D02*
X149766701Y-103447904D01*
X149233368Y-103447904D02*
X149080987Y-103447904D01*
X149004797Y-103486000D01*
X148928606Y-103562190D01*
X148890511Y-103714571D01*
X148890511Y-103981238D01*
X148928606Y-104133619D01*
X149004797Y-104209809D01*
X149080987Y-104247904D01*
X149233368Y-104247904D01*
X149309558Y-104209809D01*
X149385749Y-104133619D01*
X149423844Y-103981238D01*
X149423844Y-103714571D01*
X149385749Y-103562190D01*
X149309558Y-103486000D01*
X149233368Y-103447904D01*
X148128606Y-104247904D02*
X148585749Y-104247904D01*
X148357178Y-104247904D02*
X148357178Y-103447904D01*
X148433368Y-103562190D01*
X148509558Y-103638380D01*
X148585749Y-103676476D01*
X147861939Y-103447904D02*
X147366701Y-103447904D01*
X147633368Y-103752666D01*
X147519082Y-103752666D01*
X147442892Y-103790761D01*
X147404797Y-103828857D01*
X147366701Y-103905047D01*
X147366701Y-104095523D01*
X147404797Y-104171714D01*
X147442892Y-104209809D01*
X147519082Y-104247904D01*
X147747654Y-104247904D01*
X147823844Y-104209809D01*
X147861939Y-104171714D01*
X145995273Y-103486000D02*
X146071463Y-103447904D01*
X146185749Y-103447904D01*
X146300035Y-103486000D01*
X146376225Y-103562190D01*
X146414320Y-103638380D01*
X146452416Y-103790761D01*
X146452416Y-103905047D01*
X146414320Y-104057428D01*
X146376225Y-104133619D01*
X146300035Y-104209809D01*
X146185749Y-104247904D01*
X146109558Y-104247904D01*
X145995273Y-104209809D01*
X145957178Y-104171714D01*
X145957178Y-103905047D01*
X146109558Y-103905047D01*
X145614320Y-104247904D02*
X145614320Y-103447904D01*
X145157178Y-104247904D01*
X145157178Y-103447904D01*
X144776225Y-104247904D02*
X144776225Y-103447904D01*
X144585749Y-103447904D01*
X144471463Y-103486000D01*
X144395273Y-103562190D01*
X144357178Y-103638380D01*
X144319082Y-103790761D01*
X144319082Y-103905047D01*
X144357178Y-104057428D01*
X144395273Y-104133619D01*
X144471463Y-104209809D01*
X144585749Y-104247904D01*
X144776225Y-104247904D01*
X142947654Y-103486000D02*
X143023844Y-103447904D01*
X143138130Y-103447904D01*
X143252416Y-103486000D01*
X143328606Y-103562190D01*
X143366701Y-103638380D01*
X143404797Y-103790761D01*
X143404797Y-103905047D01*
X143366701Y-104057428D01*
X143328606Y-104133619D01*
X143252416Y-104209809D01*
X143138130Y-104247904D01*
X143061939Y-104247904D01*
X142947654Y-104209809D01*
X142909558Y-104171714D01*
X142909558Y-103905047D01*
X143061939Y-103905047D01*
X142566701Y-104247904D02*
X142566701Y-103447904D01*
X142109558Y-104247904D01*
X142109558Y-103447904D01*
X141728606Y-104247904D02*
X141728606Y-103447904D01*
X141538130Y-103447904D01*
X141423844Y-103486000D01*
X141347654Y-103562190D01*
X141309558Y-103638380D01*
X141271463Y-103790761D01*
X141271463Y-103905047D01*
X141309558Y-104057428D01*
X141347654Y-104133619D01*
X141423844Y-104209809D01*
X141538130Y-104247904D01*
X141728606Y-104247904D01*
X140319082Y-104247904D02*
X140319082Y-103714571D01*
X140319082Y-103866952D02*
X140280987Y-103790761D01*
X140242892Y-103752666D01*
X140166701Y-103714571D01*
X140090511Y-103714571D01*
X139823844Y-104247904D02*
X139823844Y-103447904D01*
X139290511Y-103447904D02*
X139138130Y-103447904D01*
X139061939Y-103486000D01*
X138985749Y-103562190D01*
X138947654Y-103714571D01*
X138947654Y-103981238D01*
X138985749Y-104133619D01*
X139061939Y-104209809D01*
X139138130Y-104247904D01*
X139290511Y-104247904D01*
X139366701Y-104209809D01*
X139442892Y-104133619D01*
X139480987Y-103981238D01*
X139480987Y-103714571D01*
X139442892Y-103562190D01*
X139366701Y-103486000D01*
X139290511Y-103447904D01*
X138680987Y-103447904D02*
X138147654Y-103447904D01*
X138490511Y-104247904D01*
X151557177Y-101707904D02*
X151557177Y-100907904D01*
X151023844Y-100907904D02*
X150871463Y-100907904D01*
X150795273Y-100946000D01*
X150719082Y-101022190D01*
X150680987Y-101174571D01*
X150680987Y-101441238D01*
X150719082Y-101593619D01*
X150795273Y-101669809D01*
X150871463Y-101707904D01*
X151023844Y-101707904D01*
X151100034Y-101669809D01*
X151176225Y-101593619D01*
X151214320Y-101441238D01*
X151214320Y-101174571D01*
X151176225Y-101022190D01*
X151100034Y-100946000D01*
X151023844Y-100907904D01*
X149919082Y-101707904D02*
X150376225Y-101707904D01*
X150147654Y-101707904D02*
X150147654Y-100907904D01*
X150223844Y-101022190D01*
X150300034Y-101098380D01*
X150376225Y-101136476D01*
X149614320Y-100984095D02*
X149576225Y-100946000D01*
X149500034Y-100907904D01*
X149309558Y-100907904D01*
X149233368Y-100946000D01*
X149195273Y-100984095D01*
X149157177Y-101060285D01*
X149157177Y-101136476D01*
X149195273Y-101250761D01*
X149652415Y-101707904D01*
X149157177Y-101707904D01*
X147785749Y-100946000D02*
X147861939Y-100907904D01*
X147976225Y-100907904D01*
X148090511Y-100946000D01*
X148166701Y-101022190D01*
X148204796Y-101098380D01*
X148242892Y-101250761D01*
X148242892Y-101365047D01*
X148204796Y-101517428D01*
X148166701Y-101593619D01*
X148090511Y-101669809D01*
X147976225Y-101707904D01*
X147900034Y-101707904D01*
X147785749Y-101669809D01*
X147747654Y-101631714D01*
X147747654Y-101365047D01*
X147900034Y-101365047D01*
X147404796Y-101707904D02*
X147404796Y-100907904D01*
X146947654Y-101707904D01*
X146947654Y-100907904D01*
X146566701Y-101707904D02*
X146566701Y-100907904D01*
X146376225Y-100907904D01*
X146261939Y-100946000D01*
X146185749Y-101022190D01*
X146147654Y-101098380D01*
X146109558Y-101250761D01*
X146109558Y-101365047D01*
X146147654Y-101517428D01*
X146185749Y-101593619D01*
X146261939Y-101669809D01*
X146376225Y-101707904D01*
X146566701Y-101707904D01*
X145157177Y-101707904D02*
X145157177Y-100907904D01*
X144776225Y-101707904D02*
X144776225Y-100907904D01*
X144585749Y-100907904D01*
X144471463Y-100946000D01*
X144395273Y-101022190D01*
X144357177Y-101098380D01*
X144319082Y-101250761D01*
X144319082Y-101365047D01*
X144357177Y-101517428D01*
X144395273Y-101593619D01*
X144471463Y-101669809D01*
X144585749Y-101707904D01*
X144776225Y-101707904D01*
X144166701Y-101784095D02*
X143557177Y-101784095D01*
X143404796Y-101669809D02*
X143290511Y-101707904D01*
X143100034Y-101707904D01*
X143023844Y-101669809D01*
X142985749Y-101631714D01*
X142947654Y-101555523D01*
X142947654Y-101479333D01*
X142985749Y-101403142D01*
X143023844Y-101365047D01*
X143100034Y-101326952D01*
X143252415Y-101288857D01*
X143328606Y-101250761D01*
X143366701Y-101212666D01*
X143404796Y-101136476D01*
X143404796Y-101060285D01*
X143366701Y-100984095D01*
X143328606Y-100946000D01*
X143252415Y-100907904D01*
X143061939Y-100907904D01*
X142947654Y-100946000D01*
X142604796Y-101707904D02*
X142604796Y-100907904D01*
X142414320Y-100907904D01*
X142300034Y-100946000D01*
X142223844Y-101022190D01*
X142185749Y-101098380D01*
X142147654Y-101250761D01*
X142147654Y-101365047D01*
X142185749Y-101517428D01*
X142223844Y-101593619D01*
X142300034Y-101669809D01*
X142414320Y-101707904D01*
X142604796Y-101707904D01*
X141195273Y-101707904D02*
X141195273Y-100907904D01*
X140814320Y-101707904D02*
X140814320Y-100907904D01*
X140623844Y-100907904D01*
X140509558Y-100946000D01*
X140433368Y-101022190D01*
X140395273Y-101098380D01*
X140357177Y-101250761D01*
X140357177Y-101365047D01*
X140395273Y-101517428D01*
X140433368Y-101593619D01*
X140509558Y-101669809D01*
X140623844Y-101707904D01*
X140814320Y-101707904D01*
X140204796Y-101784095D02*
X139595273Y-101784095D01*
X139442892Y-101669809D02*
X139328606Y-101707904D01*
X139138130Y-101707904D01*
X139061939Y-101669809D01*
X139023844Y-101631714D01*
X138985749Y-101555523D01*
X138985749Y-101479333D01*
X139023844Y-101403142D01*
X139061939Y-101365047D01*
X139138130Y-101326952D01*
X139290511Y-101288857D01*
X139366701Y-101250761D01*
X139404796Y-101212666D01*
X139442892Y-101136476D01*
X139442892Y-101060285D01*
X139404796Y-100984095D01*
X139366701Y-100946000D01*
X139290511Y-100907904D01*
X139100034Y-100907904D01*
X138985749Y-100946000D01*
X138185749Y-101631714D02*
X138223844Y-101669809D01*
X138338130Y-101707904D01*
X138414320Y-101707904D01*
X138528606Y-101669809D01*
X138604796Y-101593619D01*
X138642892Y-101517428D01*
X138680987Y-101365047D01*
X138680987Y-101250761D01*
X138642892Y-101098380D01*
X138604796Y-101022190D01*
X138528606Y-100946000D01*
X138414320Y-100907904D01*
X138338130Y-100907904D01*
X138223844Y-100946000D01*
X138185749Y-100984095D01*
X149766701Y-99167904D02*
X149766701Y-98367904D01*
X149233368Y-98367904D02*
X149080987Y-98367904D01*
X149004797Y-98406000D01*
X148928606Y-98482190D01*
X148890511Y-98634571D01*
X148890511Y-98901238D01*
X148928606Y-99053619D01*
X149004797Y-99129809D01*
X149080987Y-99167904D01*
X149233368Y-99167904D01*
X149309558Y-99129809D01*
X149385749Y-99053619D01*
X149423844Y-98901238D01*
X149423844Y-98634571D01*
X149385749Y-98482190D01*
X149309558Y-98406000D01*
X149233368Y-98367904D01*
X148128606Y-99167904D02*
X148585749Y-99167904D01*
X148357178Y-99167904D02*
X148357178Y-98367904D01*
X148433368Y-98482190D01*
X148509558Y-98558380D01*
X148585749Y-98596476D01*
X147442892Y-98634571D02*
X147442892Y-99167904D01*
X147633368Y-98329809D02*
X147823844Y-98901238D01*
X147328606Y-98901238D01*
X145995273Y-98406000D02*
X146071463Y-98367904D01*
X146185749Y-98367904D01*
X146300035Y-98406000D01*
X146376225Y-98482190D01*
X146414320Y-98558380D01*
X146452416Y-98710761D01*
X146452416Y-98825047D01*
X146414320Y-98977428D01*
X146376225Y-99053619D01*
X146300035Y-99129809D01*
X146185749Y-99167904D01*
X146109558Y-99167904D01*
X145995273Y-99129809D01*
X145957178Y-99091714D01*
X145957178Y-98825047D01*
X146109558Y-98825047D01*
X145614320Y-99167904D02*
X145614320Y-98367904D01*
X145157178Y-99167904D01*
X145157178Y-98367904D01*
X144776225Y-99167904D02*
X144776225Y-98367904D01*
X144585749Y-98367904D01*
X144471463Y-98406000D01*
X144395273Y-98482190D01*
X144357178Y-98558380D01*
X144319082Y-98710761D01*
X144319082Y-98825047D01*
X144357178Y-98977428D01*
X144395273Y-99053619D01*
X144471463Y-99129809D01*
X144585749Y-99167904D01*
X144776225Y-99167904D01*
X143366701Y-99167904D02*
X143366701Y-98634571D01*
X143366701Y-98786952D02*
X143328606Y-98710761D01*
X143290511Y-98672666D01*
X143214320Y-98634571D01*
X143138130Y-98634571D01*
X142871463Y-99167904D02*
X142871463Y-98367904D01*
X142338130Y-98367904D02*
X142185749Y-98367904D01*
X142109558Y-98406000D01*
X142033368Y-98482190D01*
X141995273Y-98634571D01*
X141995273Y-98901238D01*
X142033368Y-99053619D01*
X142109558Y-99129809D01*
X142185749Y-99167904D01*
X142338130Y-99167904D01*
X142414320Y-99129809D01*
X142490511Y-99053619D01*
X142528606Y-98901238D01*
X142528606Y-98634571D01*
X142490511Y-98482190D01*
X142414320Y-98406000D01*
X142338130Y-98367904D01*
X141271463Y-98367904D02*
X141652416Y-98367904D01*
X141690511Y-98748857D01*
X141652416Y-98710761D01*
X141576225Y-98672666D01*
X141385749Y-98672666D01*
X141309558Y-98710761D01*
X141271463Y-98748857D01*
X141233368Y-98825047D01*
X141233368Y-99015523D01*
X141271463Y-99091714D01*
X141309558Y-99129809D01*
X141385749Y-99167904D01*
X141576225Y-99167904D01*
X141652416Y-99129809D01*
X141690511Y-99091714D01*
X139861939Y-98406000D02*
X139938130Y-98367904D01*
X140052416Y-98367904D01*
X140166701Y-98406000D01*
X140242892Y-98482190D01*
X140280987Y-98558380D01*
X140319082Y-98710761D01*
X140319082Y-98825047D01*
X140280987Y-98977428D01*
X140242892Y-99053619D01*
X140166701Y-99129809D01*
X140052416Y-99167904D01*
X139976225Y-99167904D01*
X139861939Y-99129809D01*
X139823844Y-99091714D01*
X139823844Y-98825047D01*
X139976225Y-98825047D01*
X139480987Y-99167904D02*
X139480987Y-98367904D01*
X139023844Y-99167904D01*
X139023844Y-98367904D01*
X138642892Y-99167904D02*
X138642892Y-98367904D01*
X138452416Y-98367904D01*
X138338130Y-98406000D01*
X138261939Y-98482190D01*
X138223844Y-98558380D01*
X138185749Y-98710761D01*
X138185749Y-98825047D01*
X138223844Y-98977428D01*
X138261939Y-99053619D01*
X138338130Y-99129809D01*
X138452416Y-99167904D01*
X138642892Y-99167904D01*
X150566701Y-96627904D02*
X150566701Y-95827904D01*
X150033368Y-95827904D02*
X149880987Y-95827904D01*
X149804797Y-95866000D01*
X149728606Y-95942190D01*
X149690511Y-96094571D01*
X149690511Y-96361238D01*
X149728606Y-96513619D01*
X149804797Y-96589809D01*
X149880987Y-96627904D01*
X150033368Y-96627904D01*
X150109558Y-96589809D01*
X150185749Y-96513619D01*
X150223844Y-96361238D01*
X150223844Y-96094571D01*
X150185749Y-95942190D01*
X150109558Y-95866000D01*
X150033368Y-95827904D01*
X149385749Y-95904095D02*
X149347654Y-95866000D01*
X149271463Y-95827904D01*
X149080987Y-95827904D01*
X149004797Y-95866000D01*
X148966701Y-95904095D01*
X148928606Y-95980285D01*
X148928606Y-96056476D01*
X148966701Y-96170761D01*
X149423844Y-96627904D01*
X148928606Y-96627904D01*
X148661939Y-95827904D02*
X148128606Y-95827904D01*
X148471463Y-96627904D01*
X146795273Y-95866000D02*
X146871463Y-95827904D01*
X146985749Y-95827904D01*
X147100035Y-95866000D01*
X147176225Y-95942190D01*
X147214320Y-96018380D01*
X147252416Y-96170761D01*
X147252416Y-96285047D01*
X147214320Y-96437428D01*
X147176225Y-96513619D01*
X147100035Y-96589809D01*
X146985749Y-96627904D01*
X146909558Y-96627904D01*
X146795273Y-96589809D01*
X146757178Y-96551714D01*
X146757178Y-96285047D01*
X146909558Y-96285047D01*
X146414320Y-96627904D02*
X146414320Y-95827904D01*
X145957178Y-96627904D01*
X145957178Y-95827904D01*
X145576225Y-96627904D02*
X145576225Y-95827904D01*
X145385749Y-95827904D01*
X145271463Y-95866000D01*
X145195273Y-95942190D01*
X145157178Y-96018380D01*
X145119082Y-96170761D01*
X145119082Y-96285047D01*
X145157178Y-96437428D01*
X145195273Y-96513619D01*
X145271463Y-96589809D01*
X145385749Y-96627904D01*
X145576225Y-96627904D01*
X144166701Y-96627904D02*
X144166701Y-96094571D01*
X144166701Y-96246952D02*
X144128606Y-96170761D01*
X144090511Y-96132666D01*
X144014320Y-96094571D01*
X143938130Y-96094571D01*
X143671463Y-96627904D02*
X143671463Y-95827904D01*
X143138130Y-95827904D02*
X142985749Y-95827904D01*
X142909558Y-95866000D01*
X142833368Y-95942190D01*
X142795273Y-96094571D01*
X142795273Y-96361238D01*
X142833368Y-96513619D01*
X142909558Y-96589809D01*
X142985749Y-96627904D01*
X143138130Y-96627904D01*
X143214320Y-96589809D01*
X143290511Y-96513619D01*
X143328606Y-96361238D01*
X143328606Y-96094571D01*
X143290511Y-95942190D01*
X143214320Y-95866000D01*
X143138130Y-95827904D01*
X142109558Y-95827904D02*
X142261939Y-95827904D01*
X142338130Y-95866000D01*
X142376225Y-95904095D01*
X142452416Y-96018380D01*
X142490511Y-96170761D01*
X142490511Y-96475523D01*
X142452416Y-96551714D01*
X142414320Y-96589809D01*
X142338130Y-96627904D01*
X142185749Y-96627904D01*
X142109558Y-96589809D01*
X142071463Y-96551714D01*
X142033368Y-96475523D01*
X142033368Y-96285047D01*
X142071463Y-96208857D01*
X142109558Y-96170761D01*
X142185749Y-96132666D01*
X142338130Y-96132666D01*
X142414320Y-96170761D01*
X142452416Y-96208857D01*
X142490511Y-96285047D01*
X141080987Y-96627904D02*
X141080987Y-96094571D01*
X141080987Y-96246952D02*
X141042892Y-96170761D01*
X141004797Y-96132666D01*
X140928606Y-96094571D01*
X140852416Y-96094571D01*
X140585749Y-96627904D02*
X140585749Y-95827904D01*
X140052416Y-95827904D02*
X139900035Y-95827904D01*
X139823844Y-95866000D01*
X139747654Y-95942190D01*
X139709558Y-96094571D01*
X139709558Y-96361238D01*
X139747654Y-96513619D01*
X139823844Y-96589809D01*
X139900035Y-96627904D01*
X140052416Y-96627904D01*
X140128606Y-96589809D01*
X140204797Y-96513619D01*
X140242892Y-96361238D01*
X140242892Y-96094571D01*
X140204797Y-95942190D01*
X140128606Y-95866000D01*
X140052416Y-95827904D01*
X138947654Y-96627904D02*
X139404797Y-96627904D01*
X139176225Y-96627904D02*
X139176225Y-95827904D01*
X139252416Y-95942190D01*
X139328606Y-96018380D01*
X139404797Y-96056476D01*
X138642892Y-95904095D02*
X138604797Y-95866000D01*
X138528606Y-95827904D01*
X138338130Y-95827904D01*
X138261939Y-95866000D01*
X138223844Y-95904095D01*
X138185749Y-95980285D01*
X138185749Y-96056476D01*
X138223844Y-96170761D01*
X138680987Y-96627904D01*
X138185749Y-96627904D01*
X150528605Y-94087904D02*
X150528605Y-93287904D01*
X149995272Y-93287904D02*
X149842891Y-93287904D01*
X149766701Y-93326000D01*
X149690510Y-93402190D01*
X149652415Y-93554571D01*
X149652415Y-93821238D01*
X149690510Y-93973619D01*
X149766701Y-94049809D01*
X149842891Y-94087904D01*
X149995272Y-94087904D01*
X150071462Y-94049809D01*
X150147653Y-93973619D01*
X150185748Y-93821238D01*
X150185748Y-93554571D01*
X150147653Y-93402190D01*
X150071462Y-93326000D01*
X149995272Y-93287904D01*
X149347653Y-93364095D02*
X149309558Y-93326000D01*
X149233367Y-93287904D01*
X149042891Y-93287904D01*
X148966701Y-93326000D01*
X148928605Y-93364095D01*
X148890510Y-93440285D01*
X148890510Y-93516476D01*
X148928605Y-93630761D01*
X149385748Y-94087904D01*
X148890510Y-94087904D01*
X148204796Y-93287904D02*
X148357177Y-93287904D01*
X148433367Y-93326000D01*
X148471462Y-93364095D01*
X148547653Y-93478380D01*
X148585748Y-93630761D01*
X148585748Y-93935523D01*
X148547653Y-94011714D01*
X148509558Y-94049809D01*
X148433367Y-94087904D01*
X148280986Y-94087904D01*
X148204796Y-94049809D01*
X148166701Y-94011714D01*
X148128605Y-93935523D01*
X148128605Y-93745047D01*
X148166701Y-93668857D01*
X148204796Y-93630761D01*
X148280986Y-93592666D01*
X148433367Y-93592666D01*
X148509558Y-93630761D01*
X148547653Y-93668857D01*
X148585748Y-93745047D01*
X146757177Y-93326000D02*
X146833367Y-93287904D01*
X146947653Y-93287904D01*
X147061939Y-93326000D01*
X147138129Y-93402190D01*
X147176224Y-93478380D01*
X147214320Y-93630761D01*
X147214320Y-93745047D01*
X147176224Y-93897428D01*
X147138129Y-93973619D01*
X147061939Y-94049809D01*
X146947653Y-94087904D01*
X146871462Y-94087904D01*
X146757177Y-94049809D01*
X146719082Y-94011714D01*
X146719082Y-93745047D01*
X146871462Y-93745047D01*
X146376224Y-94087904D02*
X146376224Y-93287904D01*
X145919082Y-94087904D01*
X145919082Y-93287904D01*
X145538129Y-94087904D02*
X145538129Y-93287904D01*
X145347653Y-93287904D01*
X145233367Y-93326000D01*
X145157177Y-93402190D01*
X145119082Y-93478380D01*
X145080986Y-93630761D01*
X145080986Y-93745047D01*
X145119082Y-93897428D01*
X145157177Y-93973619D01*
X145233367Y-94049809D01*
X145347653Y-94087904D01*
X145538129Y-94087904D01*
X144128605Y-94087904D02*
X144128605Y-93554571D01*
X144128605Y-93706952D02*
X144090510Y-93630761D01*
X144052415Y-93592666D01*
X143976224Y-93554571D01*
X143900034Y-93554571D01*
X143633367Y-94087904D02*
X143633367Y-93287904D01*
X143100034Y-93287904D02*
X142947653Y-93287904D01*
X142871462Y-93326000D01*
X142795272Y-93402190D01*
X142757177Y-93554571D01*
X142757177Y-93821238D01*
X142795272Y-93973619D01*
X142871462Y-94049809D01*
X142947653Y-94087904D01*
X143100034Y-94087904D01*
X143176224Y-94049809D01*
X143252415Y-93973619D01*
X143290510Y-93821238D01*
X143290510Y-93554571D01*
X143252415Y-93402190D01*
X143176224Y-93326000D01*
X143100034Y-93287904D01*
X141995272Y-94087904D02*
X142452415Y-94087904D01*
X142223843Y-94087904D02*
X142223843Y-93287904D01*
X142300034Y-93402190D01*
X142376224Y-93478380D01*
X142452415Y-93516476D01*
X141728605Y-93287904D02*
X141233367Y-93287904D01*
X141500034Y-93592666D01*
X141385748Y-93592666D01*
X141309558Y-93630761D01*
X141271462Y-93668857D01*
X141233367Y-93745047D01*
X141233367Y-93935523D01*
X141271462Y-94011714D01*
X141309558Y-94049809D01*
X141385748Y-94087904D01*
X141614320Y-94087904D01*
X141690510Y-94049809D01*
X141728605Y-94011714D01*
X139861939Y-93326000D02*
X139938129Y-93287904D01*
X140052415Y-93287904D01*
X140166701Y-93326000D01*
X140242891Y-93402190D01*
X140280986Y-93478380D01*
X140319082Y-93630761D01*
X140319082Y-93745047D01*
X140280986Y-93897428D01*
X140242891Y-93973619D01*
X140166701Y-94049809D01*
X140052415Y-94087904D01*
X139976224Y-94087904D01*
X139861939Y-94049809D01*
X139823843Y-94011714D01*
X139823843Y-93745047D01*
X139976224Y-93745047D01*
X139480986Y-94087904D02*
X139480986Y-93287904D01*
X139023843Y-94087904D01*
X139023843Y-93287904D01*
X138642891Y-94087904D02*
X138642891Y-93287904D01*
X138452415Y-93287904D01*
X138338129Y-93326000D01*
X138261939Y-93402190D01*
X138223843Y-93478380D01*
X138185748Y-93630761D01*
X138185748Y-93745047D01*
X138223843Y-93897428D01*
X138261939Y-93973619D01*
X138338129Y-94049809D01*
X138452415Y-94087904D01*
X138642891Y-94087904D01*
X151328605Y-91547904D02*
X151328605Y-90747904D01*
X150795272Y-90747904D02*
X150642891Y-90747904D01*
X150566701Y-90786000D01*
X150490510Y-90862190D01*
X150452415Y-91014571D01*
X150452415Y-91281238D01*
X150490510Y-91433619D01*
X150566701Y-91509809D01*
X150642891Y-91547904D01*
X150795272Y-91547904D01*
X150871462Y-91509809D01*
X150947653Y-91433619D01*
X150985748Y-91281238D01*
X150985748Y-91014571D01*
X150947653Y-90862190D01*
X150871462Y-90786000D01*
X150795272Y-90747904D01*
X150147653Y-90824095D02*
X150109558Y-90786000D01*
X150033367Y-90747904D01*
X149842891Y-90747904D01*
X149766701Y-90786000D01*
X149728605Y-90824095D01*
X149690510Y-90900285D01*
X149690510Y-90976476D01*
X149728605Y-91090761D01*
X150185748Y-91547904D01*
X149690510Y-91547904D01*
X148966701Y-90747904D02*
X149347653Y-90747904D01*
X149385748Y-91128857D01*
X149347653Y-91090761D01*
X149271462Y-91052666D01*
X149080986Y-91052666D01*
X149004796Y-91090761D01*
X148966701Y-91128857D01*
X148928605Y-91205047D01*
X148928605Y-91395523D01*
X148966701Y-91471714D01*
X149004796Y-91509809D01*
X149080986Y-91547904D01*
X149271462Y-91547904D01*
X149347653Y-91509809D01*
X149385748Y-91471714D01*
X147557177Y-90786000D02*
X147633367Y-90747904D01*
X147747653Y-90747904D01*
X147861939Y-90786000D01*
X147938129Y-90862190D01*
X147976224Y-90938380D01*
X148014320Y-91090761D01*
X148014320Y-91205047D01*
X147976224Y-91357428D01*
X147938129Y-91433619D01*
X147861939Y-91509809D01*
X147747653Y-91547904D01*
X147671462Y-91547904D01*
X147557177Y-91509809D01*
X147519082Y-91471714D01*
X147519082Y-91205047D01*
X147671462Y-91205047D01*
X147176224Y-91547904D02*
X147176224Y-90747904D01*
X146719082Y-91547904D01*
X146719082Y-90747904D01*
X146338129Y-91547904D02*
X146338129Y-90747904D01*
X146147653Y-90747904D01*
X146033367Y-90786000D01*
X145957177Y-90862190D01*
X145919082Y-90938380D01*
X145880986Y-91090761D01*
X145880986Y-91205047D01*
X145919082Y-91357428D01*
X145957177Y-91433619D01*
X146033367Y-91509809D01*
X146147653Y-91547904D01*
X146338129Y-91547904D01*
X144928605Y-91547904D02*
X144928605Y-91014571D01*
X144928605Y-91166952D02*
X144890510Y-91090761D01*
X144852415Y-91052666D01*
X144776224Y-91014571D01*
X144700034Y-91014571D01*
X144433367Y-91547904D02*
X144433367Y-90747904D01*
X143900034Y-90747904D02*
X143747653Y-90747904D01*
X143671462Y-90786000D01*
X143595272Y-90862190D01*
X143557177Y-91014571D01*
X143557177Y-91281238D01*
X143595272Y-91433619D01*
X143671462Y-91509809D01*
X143747653Y-91547904D01*
X143900034Y-91547904D01*
X143976224Y-91509809D01*
X144052415Y-91433619D01*
X144090510Y-91281238D01*
X144090510Y-91014571D01*
X144052415Y-90862190D01*
X143976224Y-90786000D01*
X143900034Y-90747904D01*
X142795272Y-91547904D02*
X143252415Y-91547904D01*
X143023843Y-91547904D02*
X143023843Y-90747904D01*
X143100034Y-90862190D01*
X143176224Y-90938380D01*
X143252415Y-90976476D01*
X142414320Y-91547904D02*
X142261939Y-91547904D01*
X142185748Y-91509809D01*
X142147653Y-91471714D01*
X142071462Y-91357428D01*
X142033367Y-91205047D01*
X142033367Y-90900285D01*
X142071462Y-90824095D01*
X142109558Y-90786000D01*
X142185748Y-90747904D01*
X142338129Y-90747904D01*
X142414320Y-90786000D01*
X142452415Y-90824095D01*
X142490510Y-90900285D01*
X142490510Y-91090761D01*
X142452415Y-91166952D01*
X142414320Y-91205047D01*
X142338129Y-91243142D01*
X142185748Y-91243142D01*
X142109558Y-91205047D01*
X142071462Y-91166952D01*
X142033367Y-91090761D01*
X141080986Y-91547904D02*
X141080986Y-91014571D01*
X141080986Y-91166952D02*
X141042891Y-91090761D01*
X141004796Y-91052666D01*
X140928605Y-91014571D01*
X140852415Y-91014571D01*
X140585748Y-91547904D02*
X140585748Y-90747904D01*
X140052415Y-90747904D02*
X139900034Y-90747904D01*
X139823843Y-90786000D01*
X139747653Y-90862190D01*
X139709558Y-91014571D01*
X139709558Y-91281238D01*
X139747653Y-91433619D01*
X139823843Y-91509809D01*
X139900034Y-91547904D01*
X140052415Y-91547904D01*
X140128605Y-91509809D01*
X140204796Y-91433619D01*
X140242891Y-91281238D01*
X140242891Y-91014571D01*
X140204796Y-90862190D01*
X140128605Y-90786000D01*
X140052415Y-90747904D01*
X138947653Y-91547904D02*
X139404796Y-91547904D01*
X139176224Y-91547904D02*
X139176224Y-90747904D01*
X139252415Y-90862190D01*
X139328605Y-90938380D01*
X139404796Y-90976476D01*
X138261939Y-90747904D02*
X138414320Y-90747904D01*
X138490510Y-90786000D01*
X138528605Y-90824095D01*
X138604796Y-90938380D01*
X138642891Y-91090761D01*
X138642891Y-91395523D01*
X138604796Y-91471714D01*
X138566701Y-91509809D01*
X138490510Y-91547904D01*
X138338129Y-91547904D01*
X138261939Y-91509809D01*
X138223843Y-91471714D01*
X138185748Y-91395523D01*
X138185748Y-91205047D01*
X138223843Y-91128857D01*
X138261939Y-91090761D01*
X138338129Y-91052666D01*
X138490510Y-91052666D01*
X138566701Y-91090761D01*
X138604796Y-91128857D01*
X138642891Y-91205047D01*
X151328605Y-89007904D02*
X151328605Y-88207904D01*
X150795272Y-88207904D02*
X150642891Y-88207904D01*
X150566701Y-88246000D01*
X150490510Y-88322190D01*
X150452415Y-88474571D01*
X150452415Y-88741238D01*
X150490510Y-88893619D01*
X150566701Y-88969809D01*
X150642891Y-89007904D01*
X150795272Y-89007904D01*
X150871462Y-88969809D01*
X150947653Y-88893619D01*
X150985748Y-88741238D01*
X150985748Y-88474571D01*
X150947653Y-88322190D01*
X150871462Y-88246000D01*
X150795272Y-88207904D01*
X150185748Y-88207904D02*
X149690510Y-88207904D01*
X149957177Y-88512666D01*
X149842891Y-88512666D01*
X149766701Y-88550761D01*
X149728605Y-88588857D01*
X149690510Y-88665047D01*
X149690510Y-88855523D01*
X149728605Y-88931714D01*
X149766701Y-88969809D01*
X149842891Y-89007904D01*
X150071462Y-89007904D01*
X150147653Y-88969809D01*
X150185748Y-88931714D01*
X149423843Y-88207904D02*
X148928605Y-88207904D01*
X149195272Y-88512666D01*
X149080986Y-88512666D01*
X149004796Y-88550761D01*
X148966701Y-88588857D01*
X148928605Y-88665047D01*
X148928605Y-88855523D01*
X148966701Y-88931714D01*
X149004796Y-88969809D01*
X149080986Y-89007904D01*
X149309558Y-89007904D01*
X149385748Y-88969809D01*
X149423843Y-88931714D01*
X147557177Y-88246000D02*
X147633367Y-88207904D01*
X147747653Y-88207904D01*
X147861939Y-88246000D01*
X147938129Y-88322190D01*
X147976224Y-88398380D01*
X148014320Y-88550761D01*
X148014320Y-88665047D01*
X147976224Y-88817428D01*
X147938129Y-88893619D01*
X147861939Y-88969809D01*
X147747653Y-89007904D01*
X147671462Y-89007904D01*
X147557177Y-88969809D01*
X147519082Y-88931714D01*
X147519082Y-88665047D01*
X147671462Y-88665047D01*
X147176224Y-89007904D02*
X147176224Y-88207904D01*
X146719082Y-89007904D01*
X146719082Y-88207904D01*
X146338129Y-89007904D02*
X146338129Y-88207904D01*
X146147653Y-88207904D01*
X146033367Y-88246000D01*
X145957177Y-88322190D01*
X145919082Y-88398380D01*
X145880986Y-88550761D01*
X145880986Y-88665047D01*
X145919082Y-88817428D01*
X145957177Y-88893619D01*
X146033367Y-88969809D01*
X146147653Y-89007904D01*
X146338129Y-89007904D01*
X144928605Y-89007904D02*
X144928605Y-88474571D01*
X144928605Y-88626952D02*
X144890510Y-88550761D01*
X144852415Y-88512666D01*
X144776224Y-88474571D01*
X144700034Y-88474571D01*
X144433367Y-89007904D02*
X144433367Y-88207904D01*
X143900034Y-88207904D02*
X143747653Y-88207904D01*
X143671462Y-88246000D01*
X143595272Y-88322190D01*
X143557177Y-88474571D01*
X143557177Y-88741238D01*
X143595272Y-88893619D01*
X143671462Y-88969809D01*
X143747653Y-89007904D01*
X143900034Y-89007904D01*
X143976224Y-88969809D01*
X144052415Y-88893619D01*
X144090510Y-88741238D01*
X144090510Y-88474571D01*
X144052415Y-88322190D01*
X143976224Y-88246000D01*
X143900034Y-88207904D01*
X143252415Y-88284095D02*
X143214320Y-88246000D01*
X143138129Y-88207904D01*
X142947653Y-88207904D01*
X142871462Y-88246000D01*
X142833367Y-88284095D01*
X142795272Y-88360285D01*
X142795272Y-88436476D01*
X142833367Y-88550761D01*
X143290510Y-89007904D01*
X142795272Y-89007904D01*
X142109558Y-88207904D02*
X142261939Y-88207904D01*
X142338129Y-88246000D01*
X142376224Y-88284095D01*
X142452415Y-88398380D01*
X142490510Y-88550761D01*
X142490510Y-88855523D01*
X142452415Y-88931714D01*
X142414320Y-88969809D01*
X142338129Y-89007904D01*
X142185748Y-89007904D01*
X142109558Y-88969809D01*
X142071462Y-88931714D01*
X142033367Y-88855523D01*
X142033367Y-88665047D01*
X142071462Y-88588857D01*
X142109558Y-88550761D01*
X142185748Y-88512666D01*
X142338129Y-88512666D01*
X142414320Y-88550761D01*
X142452415Y-88588857D01*
X142490510Y-88665047D01*
X141080986Y-89007904D02*
X141080986Y-88474571D01*
X141080986Y-88626952D02*
X141042891Y-88550761D01*
X141004796Y-88512666D01*
X140928605Y-88474571D01*
X140852415Y-88474571D01*
X140585748Y-89007904D02*
X140585748Y-88207904D01*
X140052415Y-88207904D02*
X139900034Y-88207904D01*
X139823843Y-88246000D01*
X139747653Y-88322190D01*
X139709558Y-88474571D01*
X139709558Y-88741238D01*
X139747653Y-88893619D01*
X139823843Y-88969809D01*
X139900034Y-89007904D01*
X140052415Y-89007904D01*
X140128605Y-88969809D01*
X140204796Y-88893619D01*
X140242891Y-88741238D01*
X140242891Y-88474571D01*
X140204796Y-88322190D01*
X140128605Y-88246000D01*
X140052415Y-88207904D01*
X139404796Y-88284095D02*
X139366701Y-88246000D01*
X139290510Y-88207904D01*
X139100034Y-88207904D01*
X139023843Y-88246000D01*
X138985748Y-88284095D01*
X138947653Y-88360285D01*
X138947653Y-88436476D01*
X138985748Y-88550761D01*
X139442891Y-89007904D01*
X138947653Y-89007904D01*
X138452415Y-88207904D02*
X138376224Y-88207904D01*
X138300034Y-88246000D01*
X138261939Y-88284095D01*
X138223843Y-88360285D01*
X138185748Y-88512666D01*
X138185748Y-88703142D01*
X138223843Y-88855523D01*
X138261939Y-88931714D01*
X138300034Y-88969809D01*
X138376224Y-89007904D01*
X138452415Y-89007904D01*
X138528605Y-88969809D01*
X138566701Y-88931714D01*
X138604796Y-88855523D01*
X138642891Y-88703142D01*
X138642891Y-88512666D01*
X138604796Y-88360285D01*
X138566701Y-88284095D01*
X138528605Y-88246000D01*
X138452415Y-88207904D01*
X150528605Y-86467904D02*
X150528605Y-85667904D01*
X149995272Y-85667904D02*
X149842891Y-85667904D01*
X149766701Y-85706000D01*
X149690510Y-85782190D01*
X149652415Y-85934571D01*
X149652415Y-86201238D01*
X149690510Y-86353619D01*
X149766701Y-86429809D01*
X149842891Y-86467904D01*
X149995272Y-86467904D01*
X150071462Y-86429809D01*
X150147653Y-86353619D01*
X150185748Y-86201238D01*
X150185748Y-85934571D01*
X150147653Y-85782190D01*
X150071462Y-85706000D01*
X149995272Y-85667904D01*
X149385748Y-85667904D02*
X148890510Y-85667904D01*
X149157177Y-85972666D01*
X149042891Y-85972666D01*
X148966701Y-86010761D01*
X148928605Y-86048857D01*
X148890510Y-86125047D01*
X148890510Y-86315523D01*
X148928605Y-86391714D01*
X148966701Y-86429809D01*
X149042891Y-86467904D01*
X149271462Y-86467904D01*
X149347653Y-86429809D01*
X149385748Y-86391714D01*
X148585748Y-85744095D02*
X148547653Y-85706000D01*
X148471462Y-85667904D01*
X148280986Y-85667904D01*
X148204796Y-85706000D01*
X148166701Y-85744095D01*
X148128605Y-85820285D01*
X148128605Y-85896476D01*
X148166701Y-86010761D01*
X148623843Y-86467904D01*
X148128605Y-86467904D01*
X146757177Y-85706000D02*
X146833367Y-85667904D01*
X146947653Y-85667904D01*
X147061939Y-85706000D01*
X147138129Y-85782190D01*
X147176224Y-85858380D01*
X147214320Y-86010761D01*
X147214320Y-86125047D01*
X147176224Y-86277428D01*
X147138129Y-86353619D01*
X147061939Y-86429809D01*
X146947653Y-86467904D01*
X146871462Y-86467904D01*
X146757177Y-86429809D01*
X146719082Y-86391714D01*
X146719082Y-86125047D01*
X146871462Y-86125047D01*
X146376224Y-86467904D02*
X146376224Y-85667904D01*
X145919082Y-86467904D01*
X145919082Y-85667904D01*
X145538129Y-86467904D02*
X145538129Y-85667904D01*
X145347653Y-85667904D01*
X145233367Y-85706000D01*
X145157177Y-85782190D01*
X145119082Y-85858380D01*
X145080986Y-86010761D01*
X145080986Y-86125047D01*
X145119082Y-86277428D01*
X145157177Y-86353619D01*
X145233367Y-86429809D01*
X145347653Y-86467904D01*
X145538129Y-86467904D01*
X143709558Y-85706000D02*
X143785748Y-85667904D01*
X143900034Y-85667904D01*
X144014320Y-85706000D01*
X144090510Y-85782190D01*
X144128605Y-85858380D01*
X144166701Y-86010761D01*
X144166701Y-86125047D01*
X144128605Y-86277428D01*
X144090510Y-86353619D01*
X144014320Y-86429809D01*
X143900034Y-86467904D01*
X143823843Y-86467904D01*
X143709558Y-86429809D01*
X143671462Y-86391714D01*
X143671462Y-86125047D01*
X143823843Y-86125047D01*
X143328605Y-86467904D02*
X143328605Y-85667904D01*
X142871462Y-86467904D01*
X142871462Y-85667904D01*
X142490510Y-86467904D02*
X142490510Y-85667904D01*
X142300034Y-85667904D01*
X142185748Y-85706000D01*
X142109558Y-85782190D01*
X142071462Y-85858380D01*
X142033367Y-86010761D01*
X142033367Y-86125047D01*
X142071462Y-86277428D01*
X142109558Y-86353619D01*
X142185748Y-86429809D01*
X142300034Y-86467904D01*
X142490510Y-86467904D01*
X141080986Y-86467904D02*
X141080986Y-85934571D01*
X141080986Y-86086952D02*
X141042891Y-86010761D01*
X141004796Y-85972666D01*
X140928605Y-85934571D01*
X140852415Y-85934571D01*
X140585748Y-86467904D02*
X140585748Y-85667904D01*
X140052415Y-85667904D02*
X139900034Y-85667904D01*
X139823843Y-85706000D01*
X139747653Y-85782190D01*
X139709558Y-85934571D01*
X139709558Y-86201238D01*
X139747653Y-86353619D01*
X139823843Y-86429809D01*
X139900034Y-86467904D01*
X140052415Y-86467904D01*
X140128605Y-86429809D01*
X140204796Y-86353619D01*
X140242891Y-86201238D01*
X140242891Y-85934571D01*
X140204796Y-85782190D01*
X140128605Y-85706000D01*
X140052415Y-85667904D01*
X139404796Y-85744095D02*
X139366701Y-85706000D01*
X139290510Y-85667904D01*
X139100034Y-85667904D01*
X139023843Y-85706000D01*
X138985748Y-85744095D01*
X138947653Y-85820285D01*
X138947653Y-85896476D01*
X138985748Y-86010761D01*
X139442891Y-86467904D01*
X138947653Y-86467904D01*
X138185748Y-86467904D02*
X138642891Y-86467904D01*
X138414320Y-86467904D02*
X138414320Y-85667904D01*
X138490510Y-85782190D01*
X138566701Y-85858380D01*
X138642891Y-85896476D01*
X148128605Y-83927904D02*
X148128605Y-83127904D01*
X147595272Y-83127904D02*
X147442891Y-83127904D01*
X147366701Y-83166000D01*
X147290510Y-83242190D01*
X147252415Y-83394571D01*
X147252415Y-83661238D01*
X147290510Y-83813619D01*
X147366701Y-83889809D01*
X147442891Y-83927904D01*
X147595272Y-83927904D01*
X147671462Y-83889809D01*
X147747653Y-83813619D01*
X147785748Y-83661238D01*
X147785748Y-83394571D01*
X147747653Y-83242190D01*
X147671462Y-83166000D01*
X147595272Y-83127904D01*
X146985748Y-83127904D02*
X146490510Y-83127904D01*
X146757177Y-83432666D01*
X146642891Y-83432666D01*
X146566701Y-83470761D01*
X146528605Y-83508857D01*
X146490510Y-83585047D01*
X146490510Y-83775523D01*
X146528605Y-83851714D01*
X146566701Y-83889809D01*
X146642891Y-83927904D01*
X146871462Y-83927904D01*
X146947653Y-83889809D01*
X146985748Y-83851714D01*
X145766701Y-83127904D02*
X146147653Y-83127904D01*
X146185748Y-83508857D01*
X146147653Y-83470761D01*
X146071462Y-83432666D01*
X145880986Y-83432666D01*
X145804796Y-83470761D01*
X145766701Y-83508857D01*
X145728605Y-83585047D01*
X145728605Y-83775523D01*
X145766701Y-83851714D01*
X145804796Y-83889809D01*
X145880986Y-83927904D01*
X146071462Y-83927904D01*
X146147653Y-83889809D01*
X146185748Y-83851714D01*
X144357177Y-83166000D02*
X144433367Y-83127904D01*
X144547653Y-83127904D01*
X144661939Y-83166000D01*
X144738129Y-83242190D01*
X144776224Y-83318380D01*
X144814320Y-83470761D01*
X144814320Y-83585047D01*
X144776224Y-83737428D01*
X144738129Y-83813619D01*
X144661939Y-83889809D01*
X144547653Y-83927904D01*
X144471462Y-83927904D01*
X144357177Y-83889809D01*
X144319082Y-83851714D01*
X144319082Y-83585047D01*
X144471462Y-83585047D01*
X143976224Y-83927904D02*
X143976224Y-83127904D01*
X143519082Y-83927904D01*
X143519082Y-83127904D01*
X143138129Y-83927904D02*
X143138129Y-83127904D01*
X142947653Y-83127904D01*
X142833367Y-83166000D01*
X142757177Y-83242190D01*
X142719082Y-83318380D01*
X142680986Y-83470761D01*
X142680986Y-83585047D01*
X142719082Y-83737428D01*
X142757177Y-83813619D01*
X142833367Y-83889809D01*
X142947653Y-83927904D01*
X143138129Y-83927904D01*
X141728605Y-83927904D02*
X141728605Y-83127904D01*
X141271462Y-83927904D01*
X141271462Y-83127904D01*
X140433367Y-83851714D02*
X140471462Y-83889809D01*
X140585748Y-83927904D01*
X140661939Y-83927904D01*
X140776224Y-83889809D01*
X140852415Y-83813619D01*
X140890510Y-83737428D01*
X140928605Y-83585047D01*
X140928605Y-83470761D01*
X140890510Y-83318380D01*
X140852415Y-83242190D01*
X140776224Y-83166000D01*
X140661939Y-83127904D01*
X140585748Y-83127904D01*
X140471462Y-83166000D01*
X140433367Y-83204095D01*
X139480986Y-83927904D02*
X139480986Y-83127904D01*
X139023843Y-83927904D01*
X139023843Y-83127904D01*
X138185748Y-83851714D02*
X138223843Y-83889809D01*
X138338129Y-83927904D01*
X138414320Y-83927904D01*
X138528605Y-83889809D01*
X138604796Y-83813619D01*
X138642891Y-83737428D01*
X138680986Y-83585047D01*
X138680986Y-83470761D01*
X138642891Y-83318380D01*
X138604796Y-83242190D01*
X138528605Y-83166000D01*
X138414320Y-83127904D01*
X138338129Y-83127904D01*
X138223843Y-83166000D01*
X138185748Y-83204095D01*
X148128605Y-81387904D02*
X148128605Y-80587904D01*
X147595272Y-80587904D02*
X147442891Y-80587904D01*
X147366701Y-80626000D01*
X147290510Y-80702190D01*
X147252415Y-80854571D01*
X147252415Y-81121238D01*
X147290510Y-81273619D01*
X147366701Y-81349809D01*
X147442891Y-81387904D01*
X147595272Y-81387904D01*
X147671462Y-81349809D01*
X147747653Y-81273619D01*
X147785748Y-81121238D01*
X147785748Y-80854571D01*
X147747653Y-80702190D01*
X147671462Y-80626000D01*
X147595272Y-80587904D01*
X146985748Y-80587904D02*
X146490510Y-80587904D01*
X146757177Y-80892666D01*
X146642891Y-80892666D01*
X146566701Y-80930761D01*
X146528605Y-80968857D01*
X146490510Y-81045047D01*
X146490510Y-81235523D01*
X146528605Y-81311714D01*
X146566701Y-81349809D01*
X146642891Y-81387904D01*
X146871462Y-81387904D01*
X146947653Y-81349809D01*
X146985748Y-81311714D01*
X145804796Y-80854571D02*
X145804796Y-81387904D01*
X145995272Y-80549809D02*
X146185748Y-81121238D01*
X145690510Y-81121238D01*
X144357177Y-80626000D02*
X144433367Y-80587904D01*
X144547653Y-80587904D01*
X144661939Y-80626000D01*
X144738129Y-80702190D01*
X144776224Y-80778380D01*
X144814320Y-80930761D01*
X144814320Y-81045047D01*
X144776224Y-81197428D01*
X144738129Y-81273619D01*
X144661939Y-81349809D01*
X144547653Y-81387904D01*
X144471462Y-81387904D01*
X144357177Y-81349809D01*
X144319082Y-81311714D01*
X144319082Y-81045047D01*
X144471462Y-81045047D01*
X143976224Y-81387904D02*
X143976224Y-80587904D01*
X143519082Y-81387904D01*
X143519082Y-80587904D01*
X143138129Y-81387904D02*
X143138129Y-80587904D01*
X142947653Y-80587904D01*
X142833367Y-80626000D01*
X142757177Y-80702190D01*
X142719082Y-80778380D01*
X142680986Y-80930761D01*
X142680986Y-81045047D01*
X142719082Y-81197428D01*
X142757177Y-81273619D01*
X142833367Y-81349809D01*
X142947653Y-81387904D01*
X143138129Y-81387904D01*
X141728605Y-81387904D02*
X141728605Y-80587904D01*
X141271462Y-81387904D01*
X141271462Y-80587904D01*
X140433367Y-81311714D02*
X140471462Y-81349809D01*
X140585748Y-81387904D01*
X140661939Y-81387904D01*
X140776224Y-81349809D01*
X140852415Y-81273619D01*
X140890510Y-81197428D01*
X140928605Y-81045047D01*
X140928605Y-80930761D01*
X140890510Y-80778380D01*
X140852415Y-80702190D01*
X140776224Y-80626000D01*
X140661939Y-80587904D01*
X140585748Y-80587904D01*
X140471462Y-80626000D01*
X140433367Y-80664095D01*
X139480986Y-81387904D02*
X139480986Y-80587904D01*
X139023843Y-81387904D01*
X139023843Y-80587904D01*
X138185748Y-81311714D02*
X138223843Y-81349809D01*
X138338129Y-81387904D01*
X138414320Y-81387904D01*
X138528605Y-81349809D01*
X138604796Y-81273619D01*
X138642891Y-81197428D01*
X138680986Y-81045047D01*
X138680986Y-80930761D01*
X138642891Y-80778380D01*
X138604796Y-80702190D01*
X138528605Y-80626000D01*
X138414320Y-80587904D01*
X138338129Y-80587904D01*
X138223843Y-80626000D01*
X138185748Y-80664095D01*
X147023844Y-78047904D02*
X146757177Y-78847904D01*
X146490511Y-78047904D01*
X146223844Y-78847904D02*
X146223844Y-78047904D01*
X145766701Y-78847904D01*
X145766701Y-78047904D01*
X144357177Y-78086000D02*
X144433368Y-78047904D01*
X144547654Y-78047904D01*
X144661939Y-78086000D01*
X144738130Y-78162190D01*
X144776225Y-78238380D01*
X144814320Y-78390761D01*
X144814320Y-78505047D01*
X144776225Y-78657428D01*
X144738130Y-78733619D01*
X144661939Y-78809809D01*
X144547654Y-78847904D01*
X144471463Y-78847904D01*
X144357177Y-78809809D01*
X144319082Y-78771714D01*
X144319082Y-78505047D01*
X144471463Y-78505047D01*
X143976225Y-78847904D02*
X143976225Y-78047904D01*
X143519082Y-78847904D01*
X143519082Y-78047904D01*
X143138130Y-78847904D02*
X143138130Y-78047904D01*
X142947654Y-78047904D01*
X142833368Y-78086000D01*
X142757177Y-78162190D01*
X142719082Y-78238380D01*
X142680987Y-78390761D01*
X142680987Y-78505047D01*
X142719082Y-78657428D01*
X142757177Y-78733619D01*
X142833368Y-78809809D01*
X142947654Y-78847904D01*
X143138130Y-78847904D01*
X141728606Y-78847904D02*
X141728606Y-78047904D01*
X141271463Y-78847904D01*
X141271463Y-78047904D01*
X140433368Y-78771714D02*
X140471463Y-78809809D01*
X140585749Y-78847904D01*
X140661939Y-78847904D01*
X140776225Y-78809809D01*
X140852415Y-78733619D01*
X140890511Y-78657428D01*
X140928606Y-78505047D01*
X140928606Y-78390761D01*
X140890511Y-78238380D01*
X140852415Y-78162190D01*
X140776225Y-78086000D01*
X140661939Y-78047904D01*
X140585749Y-78047904D01*
X140471463Y-78086000D01*
X140433368Y-78124095D01*
X139480987Y-78847904D02*
X139480987Y-78047904D01*
X139023844Y-78847904D01*
X139023844Y-78047904D01*
X138185749Y-78771714D02*
X138223844Y-78809809D01*
X138338130Y-78847904D01*
X138414320Y-78847904D01*
X138528606Y-78809809D01*
X138604796Y-78733619D01*
X138642892Y-78657428D01*
X138680987Y-78505047D01*
X138680987Y-78390761D01*
X138642892Y-78238380D01*
X138604796Y-78162190D01*
X138528606Y-78086000D01*
X138414320Y-78047904D01*
X138338130Y-78047904D01*
X138223844Y-78086000D01*
X138185749Y-78124095D01*
X146985748Y-75507904D02*
X146719081Y-76307904D01*
X146452415Y-75507904D01*
X146185748Y-76307904D02*
X146185748Y-75507904D01*
X145880986Y-75507904D01*
X145804796Y-75546000D01*
X145766700Y-75584095D01*
X145728605Y-75660285D01*
X145728605Y-75774571D01*
X145766700Y-75850761D01*
X145804796Y-75888857D01*
X145880986Y-75926952D01*
X146185748Y-75926952D01*
X144357177Y-75546000D02*
X144433367Y-75507904D01*
X144547653Y-75507904D01*
X144661939Y-75546000D01*
X144738129Y-75622190D01*
X144776224Y-75698380D01*
X144814319Y-75850761D01*
X144814319Y-75965047D01*
X144776224Y-76117428D01*
X144738129Y-76193619D01*
X144661939Y-76269809D01*
X144547653Y-76307904D01*
X144471462Y-76307904D01*
X144357177Y-76269809D01*
X144319081Y-76231714D01*
X144319081Y-75965047D01*
X144471462Y-75965047D01*
X143976224Y-76307904D02*
X143976224Y-75507904D01*
X143519081Y-76307904D01*
X143519081Y-75507904D01*
X143138129Y-76307904D02*
X143138129Y-75507904D01*
X142947653Y-75507904D01*
X142833367Y-75546000D01*
X142757177Y-75622190D01*
X142719081Y-75698380D01*
X142680986Y-75850761D01*
X142680986Y-75965047D01*
X142719081Y-76117428D01*
X142757177Y-76193619D01*
X142833367Y-76269809D01*
X142947653Y-76307904D01*
X143138129Y-76307904D01*
X141728605Y-76307904D02*
X141728605Y-75507904D01*
X141271462Y-76307904D01*
X141271462Y-75507904D01*
X140433367Y-76231714D02*
X140471462Y-76269809D01*
X140585748Y-76307904D01*
X140661939Y-76307904D01*
X140776224Y-76269809D01*
X140852415Y-76193619D01*
X140890510Y-76117428D01*
X140928605Y-75965047D01*
X140928605Y-75850761D01*
X140890510Y-75698380D01*
X140852415Y-75622190D01*
X140776224Y-75546000D01*
X140661939Y-75507904D01*
X140585748Y-75507904D01*
X140471462Y-75546000D01*
X140433367Y-75584095D01*
X139480986Y-76307904D02*
X139480986Y-75507904D01*
X139023843Y-76307904D01*
X139023843Y-75507904D01*
X138185748Y-76231714D02*
X138223843Y-76269809D01*
X138338129Y-76307904D01*
X138414319Y-76307904D01*
X138528605Y-76269809D01*
X138604796Y-76193619D01*
X138642891Y-76117428D01*
X138680986Y-75965047D01*
X138680986Y-75850761D01*
X138642891Y-75698380D01*
X138604796Y-75622190D01*
X138528605Y-75546000D01*
X138414319Y-75507904D01*
X138338129Y-75507904D01*
X138223843Y-75546000D01*
X138185748Y-75584095D01*
X146947653Y-73348857D02*
X146680987Y-73348857D01*
X146566701Y-73767904D02*
X146947653Y-73767904D01*
X146947653Y-72967904D01*
X146566701Y-72967904D01*
X146223844Y-73767904D02*
X146223844Y-72967904D01*
X145766701Y-73767904D01*
X145766701Y-72967904D01*
X144357177Y-73006000D02*
X144433368Y-72967904D01*
X144547653Y-72967904D01*
X144661939Y-73006000D01*
X144738130Y-73082190D01*
X144776225Y-73158380D01*
X144814320Y-73310761D01*
X144814320Y-73425047D01*
X144776225Y-73577428D01*
X144738130Y-73653619D01*
X144661939Y-73729809D01*
X144547653Y-73767904D01*
X144471463Y-73767904D01*
X144357177Y-73729809D01*
X144319082Y-73691714D01*
X144319082Y-73425047D01*
X144471463Y-73425047D01*
X143976225Y-73767904D02*
X143976225Y-72967904D01*
X143519082Y-73767904D01*
X143519082Y-72967904D01*
X143138130Y-73767904D02*
X143138130Y-72967904D01*
X142947653Y-72967904D01*
X142833368Y-73006000D01*
X142757177Y-73082190D01*
X142719082Y-73158380D01*
X142680987Y-73310761D01*
X142680987Y-73425047D01*
X142719082Y-73577428D01*
X142757177Y-73653619D01*
X142833368Y-73729809D01*
X142947653Y-73767904D01*
X143138130Y-73767904D01*
X141728606Y-73767904D02*
X141728606Y-72967904D01*
X141271463Y-73767904D01*
X141271463Y-72967904D01*
X140433368Y-73691714D02*
X140471463Y-73729809D01*
X140585749Y-73767904D01*
X140661939Y-73767904D01*
X140776225Y-73729809D01*
X140852415Y-73653619D01*
X140890510Y-73577428D01*
X140928606Y-73425047D01*
X140928606Y-73310761D01*
X140890510Y-73158380D01*
X140852415Y-73082190D01*
X140776225Y-73006000D01*
X140661939Y-72967904D01*
X140585749Y-72967904D01*
X140471463Y-73006000D01*
X140433368Y-73044095D01*
X139480987Y-73767904D02*
X139480987Y-72967904D01*
X139023844Y-73767904D01*
X139023844Y-72967904D01*
X138185749Y-73691714D02*
X138223844Y-73729809D01*
X138338130Y-73767904D01*
X138414320Y-73767904D01*
X138528606Y-73729809D01*
X138604796Y-73653619D01*
X138642891Y-73577428D01*
X138680987Y-73425047D01*
X138680987Y-73310761D01*
X138642891Y-73158380D01*
X138604796Y-73082190D01*
X138528606Y-73006000D01*
X138414320Y-72967904D01*
X138338130Y-72967904D01*
X138223844Y-73006000D01*
X138185749Y-73044095D01*
X149195272Y-70427904D02*
X148700034Y-70427904D01*
X148966700Y-70732666D01*
X148852415Y-70732666D01*
X148776224Y-70770761D01*
X148738129Y-70808857D01*
X148700034Y-70885047D01*
X148700034Y-71075523D01*
X148738129Y-71151714D01*
X148776224Y-71189809D01*
X148852415Y-71227904D01*
X149080986Y-71227904D01*
X149157177Y-71189809D01*
X149195272Y-71151714D01*
X148471462Y-70427904D02*
X148204796Y-71227904D01*
X147938129Y-70427904D01*
X147747653Y-70427904D02*
X147252415Y-70427904D01*
X147519081Y-70732666D01*
X147404796Y-70732666D01*
X147328605Y-70770761D01*
X147290510Y-70808857D01*
X147252415Y-70885047D01*
X147252415Y-71075523D01*
X147290510Y-71151714D01*
X147328605Y-71189809D01*
X147404796Y-71227904D01*
X147633367Y-71227904D01*
X147709558Y-71189809D01*
X147747653Y-71151714D01*
X145880986Y-70466000D02*
X145957177Y-70427904D01*
X146071462Y-70427904D01*
X146185748Y-70466000D01*
X146261938Y-70542190D01*
X146300034Y-70618380D01*
X146338129Y-70770761D01*
X146338129Y-70885047D01*
X146300034Y-71037428D01*
X146261938Y-71113619D01*
X146185748Y-71189809D01*
X146071462Y-71227904D01*
X145995272Y-71227904D01*
X145880986Y-71189809D01*
X145842891Y-71151714D01*
X145842891Y-70885047D01*
X145995272Y-70885047D01*
X145500034Y-71227904D02*
X145500034Y-70427904D01*
X145042891Y-71227904D01*
X145042891Y-70427904D01*
X144661938Y-71227904D02*
X144661938Y-70427904D01*
X144471462Y-70427904D01*
X144357177Y-70466000D01*
X144280986Y-70542190D01*
X144242891Y-70618380D01*
X144204796Y-70770761D01*
X144204796Y-70885047D01*
X144242891Y-71037428D01*
X144280986Y-71113619D01*
X144357177Y-71189809D01*
X144471462Y-71227904D01*
X144661938Y-71227904D01*
X143100034Y-70427904D02*
X142947653Y-70427904D01*
X142871462Y-70466000D01*
X142795272Y-70542190D01*
X142757177Y-70694571D01*
X142757177Y-70961238D01*
X142795272Y-71113619D01*
X142871462Y-71189809D01*
X142947653Y-71227904D01*
X143100034Y-71227904D01*
X143176224Y-71189809D01*
X143252415Y-71113619D01*
X143290510Y-70961238D01*
X143290510Y-70694571D01*
X143252415Y-70542190D01*
X143176224Y-70466000D01*
X143100034Y-70427904D01*
X142414319Y-71227904D02*
X142414319Y-70427904D01*
X142223843Y-70427904D01*
X142109558Y-70466000D01*
X142033367Y-70542190D01*
X141995272Y-70618380D01*
X141957177Y-70770761D01*
X141957177Y-70885047D01*
X141995272Y-71037428D01*
X142033367Y-71113619D01*
X142109558Y-71189809D01*
X142223843Y-71227904D01*
X142414319Y-71227904D01*
X141652415Y-70504095D02*
X141614319Y-70466000D01*
X141538129Y-70427904D01*
X141347653Y-70427904D01*
X141271462Y-70466000D01*
X141233367Y-70504095D01*
X141195272Y-70580285D01*
X141195272Y-70656476D01*
X141233367Y-70770761D01*
X141690510Y-71227904D01*
X141195272Y-71227904D01*
X140090510Y-70427904D02*
X139938129Y-70427904D01*
X139861938Y-70466000D01*
X139785748Y-70542190D01*
X139747653Y-70694571D01*
X139747653Y-70961238D01*
X139785748Y-71113619D01*
X139861938Y-71189809D01*
X139938129Y-71227904D01*
X140090510Y-71227904D01*
X140166700Y-71189809D01*
X140242891Y-71113619D01*
X140280986Y-70961238D01*
X140280986Y-70694571D01*
X140242891Y-70542190D01*
X140166700Y-70466000D01*
X140090510Y-70427904D01*
X139404796Y-71227904D02*
X139404796Y-70427904D01*
X139214319Y-70427904D01*
X139100034Y-70466000D01*
X139023843Y-70542190D01*
X138985748Y-70618380D01*
X138947653Y-70770761D01*
X138947653Y-70885047D01*
X138985748Y-71037428D01*
X139023843Y-71113619D01*
X139100034Y-71189809D01*
X139214319Y-71227904D01*
X139404796Y-71227904D01*
X138185748Y-71227904D02*
X138642891Y-71227904D01*
X138414319Y-71227904D02*
X138414319Y-70427904D01*
X138490510Y-70542190D01*
X138566700Y-70618380D01*
X138642891Y-70656476D01*
D12*
X214690000Y-70418000D02*
X214690000Y-69088000D01*
X213360000Y-70418000D02*
X214690000Y-70418000D01*
X212090000Y-70418000D02*
X212090000Y-67758000D01*
X212090000Y-67758000D02*
X204410000Y-67758000D01*
X212090000Y-70418000D02*
X204410000Y-70418000D01*
X204410000Y-70418000D02*
X204410000Y-67758000D01*
D13*
X216023333Y-68540380D02*
X216023333Y-69254666D01*
X216070952Y-69397523D01*
X216166190Y-69492761D01*
X216309047Y-69540380D01*
X216404285Y-69540380D01*
X215594761Y-68635619D02*
X215547142Y-68588000D01*
X215451904Y-68540380D01*
X215213809Y-68540380D01*
X215118571Y-68588000D01*
X215070952Y-68635619D01*
X215023333Y-68730857D01*
X215023333Y-68826095D01*
X215070952Y-68968952D01*
X215642380Y-69540380D01*
X215023333Y-69540380D01*
M02*
